<svg width="240" height="151" viewBox="0 0 240 151" fill="none" xmlns="http://www.w3.org/2000/svg">
<g opacity="0.05">
<path d="M-1.82205 4.11671L22.8508 2.64492M-2.80324 -12.3318L21.8696 -13.8036M21.8696 -13.8036L20.8884 -30.2522L-28.4573 -27.3086L-25.5137 22.037L23.832 19.0935L22.8508 2.64492M21.8696 -13.8036L22.8508 2.64492" stroke="#5D399B" stroke-width="1.46818"/>
<path d="M50.4787 50.7183L75.1516 49.2465M49.4976 34.2697L74.1704 32.7979M74.1704 32.7979L73.1892 16.3494L23.8435 19.293L26.7871 68.6386L76.1328 65.695L75.1516 49.2465M74.1704 32.7979L75.1516 49.2465" stroke="#5D399B" stroke-width="1.46818"/>
<path d="M20.888 -30.25L45.5608 -31.7218C59.1873 -32.5346 70.8926 -22.1472 71.7054 -8.52076V-8.52076C72.5183 5.10566 62.1308 16.811 48.5044 17.6239L23.8316 19.0956L20.888 -30.25Z" stroke="#5D399B" stroke-width="1.46818"/>
<path d="M119.58 -36.135L120.312 -36.1787L120.269 -36.9115L119.536 -36.8678L119.58 -36.135ZM70.234 -33.1914L70.1903 -33.9242L69.4575 -33.8805L69.5012 -33.1477L70.234 -33.1914ZM120.565 -19.6206L120.608 -18.8879L121.341 -18.9316L121.298 -19.6644L120.565 -19.6206ZM104.183 -18.6434L104.139 -19.3762L103.406 -19.3325L103.45 -18.5997L104.183 -18.6434ZM105.168 -2.12841L104.435 -2.0847L104.479 -1.35191L105.211 -1.39562L105.168 -2.12841ZM121.55 -3.10566L122.283 -3.14937L122.239 -3.88216L121.506 -3.83845L121.55 -3.10566ZM122.535 13.4087L122.579 14.1415L123.312 14.0978L123.268 13.365L122.535 13.4087ZM73.1897 16.3523L72.4569 16.396L72.5006 17.1288L73.2334 17.0851L73.1897 16.3523ZM72.2045 -0.162077L72.1608 -0.894864L71.428 -0.851151L71.4718 -0.118365L72.2045 -0.162077ZM88.5876 -1.13937L88.6313 -0.40658L89.3641 -0.450293L89.3204 -1.18308L88.5876 -1.13937ZM87.6025 -17.6544L88.3353 -17.6981L88.2915 -18.4309L87.5588 -18.3872L87.6025 -17.6544ZM71.2191 -16.6771L70.4863 -16.6334L70.5301 -15.9006L71.2628 -15.9443L71.2191 -16.6771ZM119.536 -36.8678L70.1903 -33.9242L70.2777 -32.4586L119.623 -35.4022L119.536 -36.8678ZM121.298 -19.6644L120.312 -36.1787L118.847 -36.0913L119.832 -19.5769L121.298 -19.6644ZM104.226 -17.9106L120.608 -18.8879L120.521 -20.3534L104.139 -19.3762L104.226 -17.9106ZM105.901 -2.17212L104.915 -18.6871L103.45 -18.5997L104.435 -2.0847L105.901 -2.17212ZM105.211 -1.39562L121.594 -2.37287L121.506 -3.83845L105.124 -2.8612L105.211 -1.39562ZM120.817 -3.06195L121.803 13.4524L123.268 13.365L122.283 -3.14937L120.817 -3.06195ZM122.492 12.6759L73.1459 15.6195L73.2334 17.0851L122.579 14.1415L122.492 12.6759ZM73.9224 16.3086L72.9373 -0.20579L71.4718 -0.118365L72.4569 16.396L73.9224 16.3086ZM72.2483 0.570709L88.6313 -0.40658L88.5439 -1.87215L72.1608 -0.894864L72.2483 0.570709ZM86.8697 -17.6107L87.8548 -1.09565L89.3204 -1.18308L88.3353 -17.6981L86.8697 -17.6107ZM71.2628 -15.9443L87.6462 -16.9216L87.5588 -18.3872L71.1754 -17.4099L71.2628 -15.9443ZM69.5012 -33.1477L70.4863 -16.6334L71.9519 -16.7208L70.9668 -33.2351L69.5012 -33.1477Z" fill="#5D399B"/>
<path d="M73.6254 23.6562L118.385 63.3764L76.1451 65.8961L73.6254 23.6562Z" stroke="#5D399B" stroke-width="1.46818"/>
<path d="M125.078 56.043L80.1095 16.1372L122.547 13.6057L125.078 56.043Z" stroke="#5D399B" stroke-width="1.46818"/>
<path d="M25.1119 43.8806C25.4018 48.7409 24.244 53.578 21.7848 57.7803C19.3256 61.9826 15.6756 65.3613 11.2962 67.4891C6.91679 69.6169 2.00479 70.3983 -2.81869 69.7344C-7.64217 69.0706 -12.1605 66.9913 -15.8022 63.7596C-19.444 60.5279 -22.0457 56.2888 -23.2782 51.5784C-24.5108 46.8681 -24.3189 41.898 -22.7268 37.2967C-21.1347 32.6954 -18.2139 28.6696 -14.3338 25.7283C-10.4536 22.787 -5.78846 21.0623 -0.928156 20.7724L0.537748 45.3465L25.1119 43.8806Z" stroke="#5D399B" stroke-width="1.46818"/>
<path d="M121.071 -36.2266L147.215 -13.0255L170.416 -39.1701L173.36 10.1755L124.014 13.1191L121.071 -36.2266Z" stroke="#5D399B" stroke-width="1.46818"/>
<path d="M197.052 -7.74657L221.725 -9.21836M196.071 -24.1951L220.744 -25.6669M220.744 -25.6669L219.762 -42.1155L170.417 -39.1719L173.36 10.1738L222.706 7.23019L221.725 -9.21836M220.744 -25.6669L221.725 -9.21836" stroke="#5D399B" stroke-width="1.46818"/>
<path d="M249.353 38.855L274.025 37.3832M248.371 22.4064L273.044 20.9347M273.044 20.9347L272.063 4.48611L222.717 7.42969L225.661 56.7753L275.007 53.8317L274.025 37.3832M273.044 20.9347L274.025 37.3832" stroke="#5D399B" stroke-width="1.46818"/>
<path d="M219.762 -42.1133L244.435 -43.5851C258.061 -44.3979 269.767 -34.0105 270.579 -20.384V-20.384C271.392 -6.75762 261.005 4.94772 247.378 5.76057L222.706 7.23236L219.762 -42.1133Z" stroke="#5D399B" stroke-width="1.46818"/>
<path d="M124.253 20.4375L169.013 60.1577L126.773 62.6774L124.253 20.4375Z" stroke="#5D399B" stroke-width="1.46818"/>
<path d="M175.707 52.8242L130.738 12.9185L173.175 10.387L175.707 52.8242Z" stroke="#5D399B" stroke-width="1.46818"/>
<path d="M223.986 32.0173C224.275 36.8776 223.118 41.7148 220.658 45.917C218.199 50.1193 214.549 53.498 210.17 55.6258C205.79 57.7536 200.878 58.535 196.055 57.8712C191.231 57.2073 186.713 55.1281 183.071 51.8963C179.43 48.6646 176.828 44.4255 175.595 39.7151C174.363 35.0048 174.555 30.0347 176.147 25.4334C177.739 20.8321 180.66 16.8063 184.54 13.865C188.42 10.9237 193.085 9.19902 197.946 8.9091L199.411 33.4832L223.986 32.0173Z" stroke="#5D399B" stroke-width="1.46818"/>
<path d="M4.17795 104.117L28.8508 102.645M3.19676 87.6682L27.8696 86.1964M27.8696 86.1964L26.8884 69.7478L-22.4573 72.6914L-19.5137 122.037L29.832 119.093L28.8508 102.645M27.8696 86.1964L28.8508 102.645" stroke="#5D399B" stroke-width="1.46818"/>
<path d="M56.4787 150.718L81.1516 149.246M55.4976 134.27L80.1704 132.798M80.1704 132.798L79.1892 116.349L29.8435 119.293L32.7871 168.639L82.1328 165.695L81.1516 149.246M80.1704 132.798L81.1516 149.246" stroke="#5D399B" stroke-width="1.46818"/>
<path d="M26.888 69.75L51.5608 68.2782C65.1873 67.4654 76.8926 77.8528 77.7054 91.4792V91.4792C78.5183 105.106 68.1308 116.811 54.5044 117.624L29.8316 119.096L26.888 69.75Z" stroke="#5D399B" stroke-width="1.46818"/>
<path d="M125.58 63.865L126.312 63.8213L126.269 63.0885L125.536 63.1322L125.58 63.865ZM76.234 66.8086L76.1903 66.0758L75.4575 66.1195L75.5012 66.8523L76.234 66.8086ZM126.565 80.3794L126.608 81.1121L127.341 81.0684L127.298 80.3356L126.565 80.3794ZM110.183 81.3566L110.139 80.6238L109.406 80.6675L109.45 81.4003L110.183 81.3566ZM111.168 97.8716L110.435 97.9153L110.479 98.6481L111.211 98.6044L111.168 97.8716ZM127.55 96.8943L128.283 96.8506L128.239 96.1178L127.506 96.1616L127.55 96.8943ZM128.535 113.409L128.579 114.141L129.312 114.098L129.268 113.365L128.535 113.409ZM79.1897 116.352L78.4569 116.396L78.5006 117.129L79.2334 117.085L79.1897 116.352ZM78.2045 99.8379L78.1608 99.1051L77.428 99.1488L77.4718 99.8816L78.2045 99.8379ZM94.5876 98.8606L94.6313 99.5934L95.3641 99.5497L95.3204 98.8169L94.5876 98.8606ZM93.6025 82.3456L94.3353 82.3019L94.2915 81.5691L93.5588 81.6128L93.6025 82.3456ZM77.2191 83.3229L76.4863 83.3666L76.5301 84.0994L77.2628 84.0557L77.2191 83.3229ZM125.536 63.1322L76.1903 66.0758L76.2777 67.5414L125.623 64.5978L125.536 63.1322ZM127.298 80.3356L126.312 63.8213L124.847 63.9087L125.832 80.4231L127.298 80.3356ZM110.226 82.0894L126.608 81.1121L126.521 79.6466L110.139 80.6238L110.226 82.0894ZM111.901 97.8279L110.915 81.3129L109.45 81.4003L110.435 97.9153L111.901 97.8279ZM111.211 98.6044L127.594 97.6271L127.506 96.1616L111.124 97.1388L111.211 98.6044ZM126.817 96.9381L127.803 113.452L129.268 113.365L128.283 96.8506L126.817 96.9381ZM128.492 112.676L79.1459 115.619L79.2334 117.085L128.579 114.141L128.492 112.676ZM79.9224 116.309L78.9373 99.7942L77.4718 99.8816L78.4569 116.396L79.9224 116.309ZM78.2483 100.571L94.6313 99.5934L94.5439 98.1278L78.1608 99.1051L78.2483 100.571ZM92.8697 82.3893L93.8548 98.9043L95.3204 98.8169L94.3353 82.3019L92.8697 82.3893ZM77.2628 84.0557L93.6462 83.0784L93.5588 81.6128L77.1754 82.5901L77.2628 84.0557ZM75.5012 66.8523L76.4863 83.3666L77.9519 83.2792L76.9668 66.7649L75.5012 66.8523Z" fill="#5D399B"/>
<path d="M79.6254 123.656L124.385 163.376L82.1451 165.896L79.6254 123.656Z" stroke="#5D399B" stroke-width="1.46818"/>
<path d="M131.078 156.043L86.1095 116.137L128.547 113.606L131.078 156.043Z" stroke="#5D399B" stroke-width="1.46818"/>
<path d="M31.1119 143.881C31.4018 148.741 30.244 153.578 27.7848 157.78C25.3256 161.983 21.6756 165.361 17.2962 167.489C12.9168 169.617 8.00479 170.398 3.18131 169.734C-1.64217 169.071 -6.16047 166.991 -9.80224 163.76C-13.444 160.528 -16.0457 156.289 -17.2782 151.578C-18.5108 146.868 -18.3189 141.898 -16.7268 137.297C-15.1347 132.695 -12.2139 128.67 -8.33376 125.728C-4.45364 122.787 0.21154 121.062 5.07184 120.772L6.53775 145.347L31.1119 143.881Z" stroke="#5D399B" stroke-width="1.46818"/>
<path d="M127.071 63.7734L153.215 86.9745L176.416 60.8299L179.36 110.175L130.014 113.119L127.071 63.7734Z" stroke="#5D399B" stroke-width="1.46818"/>
<path d="M203.052 92.2534L227.725 90.7816M202.071 75.8049L226.744 74.3331M226.744 74.3331L225.762 57.8845L176.417 60.8281L179.36 110.174L228.706 107.23L227.725 90.7816M226.744 74.3331L227.725 90.7816" stroke="#5D399B" stroke-width="1.46818"/>
<path d="M255.353 138.855L280.025 137.383M254.371 122.406L279.044 120.935M279.044 120.935L278.063 104.486L228.717 107.43L231.661 156.775L281.007 153.832L280.025 137.383M279.044 120.935L280.025 137.383" stroke="#5D399B" stroke-width="1.46818"/>
<path d="M225.762 57.8867L250.435 56.4149C264.061 55.6021 275.767 65.9895 276.579 79.616V79.616C277.392 93.2424 267.005 104.948 253.378 105.761L228.706 107.232L225.762 57.8867Z" stroke="#5D399B" stroke-width="1.46818"/>
<path d="M130.253 120.438L175.013 160.158L132.773 162.677L130.253 120.438Z" stroke="#5D399B" stroke-width="1.46818"/>
<path d="M181.707 152.824L136.738 112.918L179.175 110.387L181.707 152.824Z" stroke="#5D399B" stroke-width="1.46818"/>
<path d="M229.986 132.017C230.275 136.878 229.118 141.715 226.658 145.917C224.199 150.119 220.549 153.498 216.17 155.626C211.79 157.754 206.878 158.535 202.055 157.871C197.231 157.207 192.713 155.128 189.071 151.896C185.43 148.665 182.828 144.425 181.595 139.715C180.363 135.005 180.555 130.035 182.147 125.433C183.739 120.832 186.66 116.806 190.54 113.865C194.42 110.924 199.085 109.199 203.946 108.909L205.411 133.483L229.986 132.017Z" stroke="#5D399B" stroke-width="1.46818"/>
</g>
</svg>
