<svg width="32" height="32" viewBox="0 0 32 32" fill="none" xmlns="http://www.w3.org/2000/svg">
<path fill-rule="evenodd" clip-rule="evenodd" d="M18.1483 5.34781C17.5072 4.91803 16.7532 4.68822 15.9814 4.6875C15.2061 4.68827 14.4483 4.92009 13.8054 5.35344L6.51534 10.2441C5.95072 10.629 5.48915 11.1466 5.17112 11.7515C4.85309 12.3563 4.6883 13.03 4.6912 13.7133L4.6816 23.1709C4.67929 25.4589 6.47084 27.3149 8.6816 27.3149H23.3088C25.5163 27.3149 27.3065 25.4641 27.3088 23.1796L27.3184 13.7259C27.3227 13.0393 27.1577 12.3623 26.8381 11.7546C26.5184 11.147 26.0538 10.6275 25.4855 10.2422L18.1483 5.34781Z" fill="black"/>
<path d="M12.5602 21.9883H19.4219" stroke="white" stroke-linecap="round" stroke-linejoin="round"/>
</svg>
