<svg width="360" height="563" viewBox="0 0 360 563" fill="none" xmlns="http://www.w3.org/2000/svg">
<rect width="532" height="212" transform="translate(-52.292 266) rotate(9.42266)" fill="white"/>
<path d="M-60.0537 314.383L-32.6111 351.308L5.28775 325.227L-5.16858 388.233L-70.51 377.39L-60.0537 314.383Z" stroke="#C0AFFF" stroke-opacity="0.1" stroke-width="1.96719"/>
<path d="M30.9882 372.649L63.6589 378.071M34.4736 351.647L67.1443 357.069M67.1443 357.069L70.6298 336.066L5.28833 325.223L-5.168 388.23L60.1735 399.073L63.6589 378.071M67.1443 357.069L63.6589 378.071" stroke="#C0AFFF" stroke-opacity="0.1" stroke-width="1.96719"/>
<path d="M85.8312 446.755L118.502 452.176M89.3166 425.752L121.987 431.174M121.987 431.174L125.473 410.172L60.1313 399.328L49.675 462.335L115.016 473.179L118.502 452.176M121.987 431.174L118.502 452.176" stroke="#C0AFFF" stroke-opacity="0.1" stroke-width="1.96719"/>
<path d="M70.6294 336.07L104.467 341.686C121.866 344.573 133.63 361.019 130.743 378.418V378.418C127.855 395.816 111.41 407.58 94.0111 404.693L60.1731 399.077L70.6294 336.07Z" stroke="#C0AFFF" stroke-opacity="0.1" stroke-width="1.96719"/>
<path d="M201.312 357.754L202.282 357.915L202.444 356.945L201.473 356.784L201.312 357.754ZM135.971 346.91L136.132 345.94L135.161 345.779L135 346.749L135.971 346.91ZM197.813 378.84L197.652 379.811L198.622 379.972L198.783 379.001L197.813 378.84ZM176.12 375.24L176.281 374.27L175.311 374.109L175.15 375.079L176.12 375.24ZM172.621 396.328L171.65 396.167L171.489 397.137L172.46 397.298L172.621 396.328ZM194.314 399.928L195.284 400.089L195.445 399.118L194.475 398.957L194.314 399.928ZM190.814 421.014L190.653 421.984L191.624 422.145L191.785 421.175L190.814 421.014ZM125.473 410.17L124.503 410.009L124.342 410.979L125.312 411.141L125.473 410.17ZM128.972 389.084L129.133 388.114L128.163 387.953L128.002 388.923L128.972 389.084ZM150.666 392.684L150.505 393.654L151.475 393.815L151.636 392.845L150.666 392.684ZM154.165 371.597L155.136 371.758L155.297 370.787L154.327 370.626L154.165 371.597ZM132.471 367.996L131.501 367.835L131.34 368.806L132.31 368.967L132.471 367.996ZM201.473 356.784L136.132 345.94L135.81 347.88L201.151 358.724L201.473 356.784ZM198.783 379.001L202.282 357.915L200.342 357.593L196.842 378.679L198.783 379.001ZM175.959 376.211L197.652 379.811L197.974 377.87L176.281 374.27L175.959 376.211ZM173.591 396.489L177.091 375.401L175.15 375.079L171.65 396.167L173.591 396.489ZM172.46 397.298L194.153 400.898L194.475 398.957L172.782 395.357L172.46 397.298ZM193.343 399.767L189.844 420.853L191.785 421.175L195.284 400.089L193.343 399.767ZM190.975 420.044L125.634 409.2L125.312 411.141L190.653 421.984L190.975 420.044ZM126.443 410.331L129.943 389.245L128.002 388.923L124.503 410.009L126.443 410.331ZM128.811 390.054L150.505 393.654L150.827 391.714L129.133 388.114L128.811 390.054ZM153.195 371.436L149.696 392.523L151.636 392.845L155.136 371.758L153.195 371.436ZM132.31 368.967L154.004 372.567L154.327 370.626L132.632 367.026L132.31 368.967ZM135 346.749L131.501 367.835L133.442 368.158L136.941 347.071L135 346.749Z" fill="#C0AFFF" fill-opacity="0.1"/>
<path d="M123.926 419.496L170.907 482.712L114.975 473.43L123.926 419.496Z" stroke="#C0AFFF" stroke-opacity="0.1" stroke-width="1.96719"/>
<path d="M181.78 475.457L134.579 411.945L190.772 421.271L181.78 475.457Z" stroke="#C0AFFF" stroke-opacity="0.1" stroke-width="1.96719"/>
<path d="M54.6624 430.662C53.6325 436.868 50.7173 442.618 46.2854 447.184C41.8535 451.751 36.1041 454.929 29.764 456.318C23.424 457.706 16.7781 457.241 10.6669 454.983C4.55567 452.725 -0.746468 448.774 -4.56903 443.631C-8.39159 438.487 -10.5629 432.382 -10.8083 426.087C-11.0538 419.792 -9.36239 413.59 -5.94801 408.265C-2.53363 402.941 2.45037 398.732 8.37374 396.172C14.2971 393.613 20.8938 392.817 27.3296 393.885L22.1223 425.262L54.6624 430.662Z" stroke="#C0AFFF" stroke-opacity="0.1" stroke-width="1.96719"/>
<path d="M203.288 358.082L230.73 395.007L268.629 368.926L258.173 431.933L192.831 421.089L203.288 358.082Z" stroke="#C0AFFF" stroke-opacity="0.1" stroke-width="1.96719"/>
<path d="M294.329 416.352L327 421.774M297.815 395.35L330.486 400.772M330.486 400.772L333.971 379.77L268.63 368.926L258.173 431.933L323.515 442.776L327 421.774M330.486 400.772L327 421.774" stroke="#C0AFFF" stroke-opacity="0.1" stroke-width="1.96719"/>
<path d="M349.173 490.458L381.843 495.88M352.658 469.455L385.329 474.877M385.329 474.877L388.814 453.875L323.473 443.031L313.017 506.038L378.358 516.882L381.843 495.88M385.329 474.877L381.843 495.88" stroke="#C0AFFF" stroke-opacity="0.1" stroke-width="1.96719"/>
<path d="M333.97 379.773L367.808 385.389C385.207 388.276 396.971 404.722 394.084 422.121V422.121C391.196 439.52 374.751 451.283 357.352 448.396L323.514 442.78L333.97 379.773Z" stroke="#C0AFFF" stroke-opacity="0.1" stroke-width="1.96719"/>
<path d="M191.023 430.371L238.005 493.587L182.073 484.305L191.023 430.371Z" stroke="#C0AFFF" stroke-opacity="0.1" stroke-width="1.96719"/>
<path d="M248.878 486.328L201.677 422.817L257.87 432.142L248.878 486.328Z" stroke="#C0AFFF" stroke-opacity="0.1" stroke-width="1.96719"/>
<path d="M318.004 474.365C316.974 480.571 314.059 486.321 309.627 490.888C305.195 495.454 299.445 498.633 293.105 500.021C286.765 501.409 280.119 500.944 274.008 498.686C267.897 496.428 262.595 492.477 258.772 487.334C254.95 482.19 252.778 476.085 252.533 469.79C252.288 463.495 253.979 457.293 257.393 451.968C260.808 446.644 265.792 442.435 271.715 439.876C277.638 437.316 284.235 436.52 290.671 437.588L285.464 468.965L318.004 474.365Z" stroke="#C0AFFF" stroke-opacity="0.1" stroke-width="1.96719"/>
<rect width="532" height="212" transform="translate(-81.2441 44.9766) rotate(-4.84949)" fill="white"/>
<path d="M25.8919 129.379L58.8909 126.579M24.0254 107.379L57.0244 104.58M57.0244 104.58L55.1579 82.5803L-10.8401 88.1797L-5.24066 154.178L60.7574 148.578L58.8909 126.579M57.0244 104.58L58.8909 126.579" stroke="#C0AFFF" stroke-opacity="0.1" stroke-width="1.96719"/>
<path d="M97.5113 190.039L130.51 187.239M95.6448 168.039L128.644 165.24M128.644 165.24L126.777 143.24L60.7793 148.84L66.3787 214.838L132.377 209.238L130.51 187.239M128.644 165.24L130.51 187.239" stroke="#C0AFFF" stroke-opacity="0.1" stroke-width="1.96719"/>
<path d="M55.1577 82.582L88.1567 79.7823C106.382 78.2361 122.409 91.7568 123.955 109.982V109.982C125.502 128.206 111.981 144.234 93.7562 145.78L60.7571 148.58L55.1577 82.582Z" stroke="#C0AFFF" stroke-opacity="0.1" stroke-width="1.96719"/>
<path d="M187.153 71.381L188.133 71.2979L188.05 70.3178L187.07 70.401L187.153 71.381ZM121.155 76.9805L121.072 76.0004L120.092 76.0835L120.175 77.0636L121.155 76.9805ZM189.027 93.4684L189.11 94.4485L190.09 94.3653L190.007 93.3852L189.027 93.4684ZM167.117 95.3273L167.034 94.3473L166.053 94.4304L166.137 95.4105L167.117 95.3273ZM168.991 117.415L168.011 117.498L168.094 118.478L169.074 118.395L168.991 117.415ZM190.902 115.556L191.882 115.473L191.799 114.493L190.818 114.576L190.902 115.556ZM192.776 137.643L192.859 138.623L193.839 138.54L193.756 137.56L192.776 137.643ZM126.778 143.243L125.797 143.326L125.881 144.306L126.861 144.223L126.778 143.243ZM124.904 121.155L124.82 120.175L123.84 120.259L123.924 121.239L124.904 121.155ZM146.815 119.296L146.899 120.276L147.879 120.193L147.795 119.213L146.815 119.296ZM144.941 97.2087L145.921 97.1256L145.838 96.1455L144.858 96.2287L144.941 97.2087ZM123.029 99.0678L122.049 99.151L122.132 100.131L123.112 100.048L123.029 99.0678ZM187.07 70.401L121.072 76.0004L121.238 77.9605L187.236 72.3611L187.07 70.401ZM190.007 93.3852L188.133 71.2979L186.173 71.4642L188.047 93.5515L190.007 93.3852ZM167.2 96.3074L189.11 94.4485L188.944 92.4883L167.034 94.3473L167.2 96.3074ZM169.971 117.332L168.097 95.2442L166.137 95.4105L168.011 117.498L169.971 117.332ZM169.074 118.395L190.985 116.536L190.818 114.576L168.908 116.435L169.074 118.395ZM189.922 115.639L191.795 137.727L193.756 137.56L191.882 115.473L189.922 115.639ZM192.692 136.663L126.694 142.263L126.861 144.223L192.859 138.623L192.692 136.663ZM127.758 143.16L125.884 121.072L123.924 121.239L125.797 143.326L127.758 143.16ZM124.987 122.136L146.899 120.276L146.732 118.316L124.82 120.175L124.987 122.136ZM143.961 97.2919L145.835 119.38L147.795 119.213L145.921 97.1256L143.961 97.2919ZM123.112 100.048L145.025 98.1888L144.858 96.2287L122.946 98.0877L123.112 100.048ZM120.175 77.0636L122.049 99.151L124.009 98.9847L122.135 76.8973L120.175 77.0636Z" fill="#C0AFFF" fill-opacity="0.1"/>
<path d="M-0.666748 211.223L-62.2406 159.28L-5.48225 154.464L-0.666748 211.223Z" stroke="#C0AFFF" stroke-opacity="0.1" stroke-width="1.96719"/>
<path d="M127.607 153.012L188.895 204.713L132.4 209.506L127.607 153.012Z" stroke="#C0AFFF" stroke-opacity="0.1" stroke-width="1.96719"/>
<path d="M197.614 194.668L136.04 142.725L192.799 137.91L197.614 194.668Z" stroke="#C0AFFF" stroke-opacity="0.1" stroke-width="1.96719"/>
<path d="M63.3038 181.731C63.8553 188.232 62.4668 194.75 59.3139 200.461C56.161 206.173 51.3853 210.821 45.5907 213.818C39.7961 216.815 33.2429 218.027 26.7597 217.299C20.2765 216.572 14.1546 213.939 9.16807 209.732C4.18155 205.526 0.554406 199.935 -1.25469 193.667C-3.06379 187.399 -2.97359 180.735 -0.995501 174.519C0.982592 168.302 4.75973 162.811 9.85828 158.741C14.9568 154.671 21.1478 152.204 27.6483 151.653L30.4368 184.52L63.3038 181.731Z" stroke="#C0AFFF" stroke-opacity="0.1" stroke-width="1.96719"/>
<path d="M189.149 71.2109L224.947 101.41L255.147 65.6115L260.746 131.61L194.748 137.209L189.149 71.2109Z" stroke="#C0AFFF" stroke-opacity="0.1" stroke-width="1.96719"/>
<path d="M291.879 106.812L324.878 104.013M290.013 84.8129L323.012 82.0132M323.012 82.0132L321.145 60.0139L255.147 65.6133L260.747 131.611L326.745 126.012L324.878 104.013M323.012 82.0132L324.878 104.013" stroke="#C0AFFF" stroke-opacity="0.1" stroke-width="1.96719"/>
<path d="M363.499 167.472L396.498 164.673M361.632 145.473L394.631 142.673M394.631 142.673L392.765 120.674L326.767 126.273L332.366 192.271L398.364 186.672L396.498 164.673M394.631 142.673L396.498 164.673" stroke="#C0AFFF" stroke-opacity="0.1" stroke-width="1.96719"/>
<path d="M321.145 60.0156L354.144 57.2159C372.369 55.6697 388.397 69.1904 389.943 87.4152V87.4152C391.489 105.64 377.968 121.668 359.743 123.214L326.744 126.014L321.145 60.0156Z" stroke="#C0AFFF" stroke-opacity="0.1" stroke-width="1.96719"/>
<path d="M195.313 147L256.601 198.701L200.107 203.494L195.313 147Z" stroke="#C0AFFF" stroke-opacity="0.1" stroke-width="1.96719"/>
<path d="M265.321 188.656L203.747 136.713L260.506 131.898L265.321 188.656Z" stroke="#C0AFFF" stroke-opacity="0.1" stroke-width="1.96719"/>
<path d="M329.291 159.165C329.842 165.665 328.454 172.184 325.301 177.895C322.148 183.606 317.372 188.254 311.578 191.252C305.783 194.249 299.23 195.46 292.747 194.733C286.264 194.006 280.142 191.372 275.155 187.166C270.169 182.959 266.541 177.368 264.732 171.1C262.923 164.832 263.013 158.169 264.992 151.952C266.97 145.735 270.747 140.245 275.845 136.175C280.944 132.105 287.135 129.638 293.635 129.086L296.424 161.954L329.291 159.165Z" stroke="#C0AFFF" stroke-opacity="0.1" stroke-width="1.96719"/>
</svg>
