<svg width="16" height="17" viewBox="0 0 16 17" fill="none" xmlns="http://www.w3.org/2000/svg">
<path d="M9.01688 3.37062C9.03385 3.30717 9.06316 3.24768 9.10313 3.19555C9.14311 3.14343 9.19296 3.09969 9.24984 3.06684C9.30672 3.03399 9.36951 3.01267 9.43464 3.00409C9.49976 2.99552 9.56594 2.99986 9.62938 3.01687C10.5563 3.25871 11.402 3.74327 12.0794 4.42064C12.7567 5.09801 13.2413 5.94371 13.4831 6.87062C13.5001 6.93407 13.5045 7.00024 13.4959 7.06536C13.4873 7.13049 13.466 7.19328 13.4332 7.25017C13.4003 7.30705 13.3566 7.3569 13.3044 7.39687C13.2523 7.43684 13.1928 7.46615 13.1294 7.48312C13.0871 7.49421 13.0437 7.49989 13 7.5C12.8898 7.49999 12.7827 7.4636 12.6954 7.39646C12.608 7.32932 12.5453 7.23521 12.5169 7.12875C12.3196 6.37207 11.9242 5.68169 11.3712 5.12876C10.8183 4.57583 10.1279 4.18036 9.37126 3.98312C9.30774 3.96622 9.24819 3.93695 9.196 3.89701C9.1438 3.85707 9.1 3.80723 9.06708 3.75034C9.03417 3.69345 9.01279 3.63063 9.00418 3.56548C8.99557 3.50032 8.99988 3.43411 9.01688 3.37062ZM8.87126 5.98312C9.73313 6.21312 10.2869 6.76687 10.5169 7.62875C10.5453 7.73521 10.608 7.82932 10.6954 7.89646C10.7827 7.9636 10.8898 7.99999 11 8C11.0437 7.99989 11.0871 7.99421 11.1294 7.98312C11.1928 7.96615 11.2523 7.93684 11.3044 7.89687C11.3566 7.8569 11.4003 7.80705 11.4332 7.75017C11.466 7.69328 11.4873 7.63049 11.4959 7.56536C11.5045 7.50024 11.5001 7.43407 11.4831 7.37062C11.1631 6.17312 10.3269 5.33687 9.12938 5.01687C9.00125 4.98264 8.86477 5.00071 8.74996 5.06711C8.63515 5.13351 8.55142 5.2428 8.51719 5.37093C8.48296 5.49907 8.50104 5.63555 8.56744 5.75036C8.63384 5.86516 8.74312 5.94889 8.87126 5.98312ZM13.9925 11.9425C13.8811 12.7894 13.4651 13.5668 12.8224 14.1294C12.1797 14.6921 11.3542 15.0015 10.5 15C5.53751 15 1.50001 10.9625 1.50001 6C1.49847 5.1458 1.80794 4.32026 2.37059 3.67756C2.93324 3.03485 3.71061 2.61894 4.55751 2.5075C4.77166 2.48135 4.98854 2.52516 5.17575 2.63239C5.36296 2.73963 5.51047 2.90454 5.59626 3.1025L6.91626 6.04937V6.05687C6.98194 6.2084 7.00906 6.37385 6.99521 6.53842C6.98136 6.70299 6.92696 6.86157 6.83688 7C6.82563 7.01687 6.81376 7.0325 6.80126 7.04812L5.50001 8.59062C5.96813 9.54187 6.96313 10.5281 7.92688 10.9975L9.44813 9.70312C9.46307 9.69056 9.47872 9.67888 9.49501 9.66812C9.63331 9.57587 9.79244 9.51956 9.95799 9.50428C10.1235 9.48901 10.2903 9.51524 10.4431 9.58062L10.4513 9.58437L13.3956 10.9037C13.5939 10.9892 13.7592 11.1366 13.8668 11.3238C13.9744 11.5111 14.0185 11.7281 13.9925 11.9425ZM13 11.8175C13 11.8175 12.9956 11.8175 12.9931 11.8175L10.0556 10.5019L8.53376 11.7962C8.51899 11.8088 8.50355 11.8204 8.48751 11.8312C8.3436 11.9272 8.17726 11.9843 8.00472 11.9968C7.83218 12.0093 7.65936 11.9768 7.50313 11.9025C6.33251 11.3369 5.16563 10.1787 4.59938 9.02062C4.5244 8.86553 4.49075 8.6937 4.5017 8.52178C4.51265 8.34987 4.56783 8.18369 4.66188 8.03937C4.67248 8.02242 4.68439 8.00633 4.69751 7.99125L6.00001 6.44687L4.68751 3.50937C4.68726 3.50688 4.68726 3.50436 4.68751 3.50187C4.08141 3.58093 3.52493 3.87822 3.12226 4.33807C2.7196 4.79791 2.49837 5.38877 2.50001 6C2.50232 8.12102 3.34592 10.1545 4.84571 11.6543C6.3455 13.1541 8.37898 13.9977 10.5 14C11.1109 14.0021 11.7016 13.7816 12.1617 13.3798C12.6218 12.9781 12.9198 12.4224 13 11.8169V11.8175Z" fill="#191919"/>
</svg>
