<svg width="17" height="16" viewBox="0 0 17 16" fill="none" xmlns="http://www.w3.org/2000/svg">
<path d="M14.48 4.13439L8.98 1.12501C8.83305 1.04381 8.66789 1.00122 8.5 1.00122C8.33211 1.00122 8.16695 1.04381 8.02 1.12501L2.52 4.13564C2.36293 4.22158 2.23181 4.34811 2.14034 4.50203C2.04888 4.65594 2.00041 4.83159 2 5.01064V10.9881C2.00041 11.1672 2.04888 11.3428 2.14034 11.4967C2.23181 11.6507 2.36293 11.7772 2.52 11.8631L8.02 14.8738C8.16695 14.955 8.33211 14.9976 8.5 14.9976C8.66789 14.9976 8.83305 14.955 8.98 14.8738L14.48 11.8631C14.6371 11.7772 14.7682 11.6507 14.8597 11.4967C14.9511 11.3428 14.9996 11.1672 15 10.9881V5.01126C14.9999 4.8319 14.9516 4.65586 14.8601 4.50158C14.7686 4.34731 14.6373 4.22048 14.48 4.13439ZM8.5 2.00001L13.5212 4.75001L11.6606 5.76876L6.63875 3.01876L8.5 2.00001ZM8.5 7.50001L3.47875 4.75001L5.5975 3.59001L10.6187 6.34001L8.5 7.50001ZM3 5.62501L8 8.36126V13.7231L3 10.9888V5.62501ZM14 10.9863L9 13.7231V8.36376L11 7.26939V9.50001C11 9.63262 11.0527 9.7598 11.1464 9.85357C11.2402 9.94733 11.3674 10 11.5 10C11.6326 10 11.7598 9.94733 11.8536 9.85357C11.9473 9.7598 12 9.63262 12 9.50001V6.72189L14 5.62501V10.9856V10.9863Z" fill="#0000FF"/>
</svg>
