<svg width="30" height="30" viewBox="0 0 30 30" fill="none" xmlns="http://www.w3.org/2000/svg">
<path d="M26.9695 6.89883C26.8815 6.79352 26.7715 6.70882 26.6471 6.6507C26.5228 6.59259 26.3872 6.56248 26.25 6.5625H7.34531L6.63281 2.64492C6.59357 2.42891 6.47975 2.23352 6.31121 2.09282C6.14267 1.95212 5.9301 1.87503 5.71055 1.875H2.8125C2.56386 1.875 2.3254 1.97377 2.14959 2.14959C1.97377 2.3254 1.875 2.56386 1.875 2.8125C1.875 3.06114 1.97377 3.2996 2.14959 3.47541C2.3254 3.65123 2.56386 3.75 2.8125 3.75H4.92187L7.91719 20.1902C8.00542 20.6778 8.22089 21.1334 8.5418 21.5109C8.09888 21.9246 7.7792 22.4529 7.61819 23.0372C7.45719 23.6215 7.46115 24.2389 7.62964 24.8211C7.79814 25.4033 8.12458 25.9274 8.57276 26.3354C9.02095 26.7434 9.57338 27.0192 10.1688 27.1324C10.7642 27.2456 11.3793 27.1917 11.9459 26.9766C12.5125 26.7615 13.0085 26.3937 13.3789 25.914C13.7492 25.4342 13.9795 24.8613 14.0441 24.2587C14.1087 23.6561 14.0051 23.0474 13.7449 22.5H19.0676C18.8578 22.9391 18.7493 23.4196 18.75 23.9062C18.75 24.5552 18.9424 25.1896 19.303 25.7292C19.6635 26.2688 20.176 26.6894 20.7756 26.9377C21.3751 27.1861 22.0349 27.2511 22.6714 27.1245C23.3079 26.9978 23.8926 26.6853 24.3514 26.2264C24.8103 25.7676 25.1228 25.1829 25.2495 24.5464C25.3761 23.9099 25.3111 23.2501 25.0627 22.6506C24.8144 22.051 24.3938 21.5385 23.8542 21.178C23.3146 20.8174 22.6802 20.625 22.0312 20.625H10.684C10.4644 20.625 10.2519 20.5479 10.0833 20.4072C9.91478 20.2665 9.80096 20.0711 9.76172 19.8551L9.39023 17.8125H22.984C23.6426 17.8124 24.2804 17.5811 24.786 17.159C25.2916 16.7369 25.633 16.1508 25.7508 15.5027L27.1758 7.66758C27.1999 7.53216 27.1939 7.39308 27.1583 7.26023C27.1226 7.12737 27.0582 7.00399 26.9695 6.89883ZM12.1875 23.9062C12.1875 24.1844 12.105 24.4563 11.9505 24.6875C11.796 24.9188 11.5764 25.099 11.3194 25.2055C11.0624 25.3119 10.7797 25.3397 10.5069 25.2855C10.2341 25.2312 9.98355 25.0973 9.78688 24.9006C9.59021 24.7039 9.45628 24.4534 9.40202 24.1806C9.34776 23.9078 9.37561 23.6251 9.48204 23.3681C9.58848 23.1111 9.76872 22.8915 9.99998 22.737C10.2312 22.5825 10.5031 22.5 10.7812 22.5C11.1542 22.5 11.5119 22.6482 11.7756 22.9119C12.0393 23.1756 12.1875 23.5333 12.1875 23.9062ZM23.4375 23.9062C23.4375 24.1844 23.355 24.4563 23.2005 24.6875C23.046 24.9188 22.8264 25.099 22.5694 25.2055C22.3124 25.3119 22.0297 25.3397 21.7569 25.2855C21.4841 25.2312 21.2335 25.0973 21.0369 24.9006C20.8402 24.7039 20.7063 24.4534 20.652 24.1806C20.5978 23.9078 20.6256 23.6251 20.732 23.3681C20.8385 23.1111 21.0187 22.8915 21.25 22.737C21.4812 22.5825 21.7531 22.5 22.0312 22.5C22.4042 22.5 22.7619 22.6482 23.0256 22.9119C23.2893 23.1756 23.4375 23.5333 23.4375 23.9062Z" fill="#6517FF"/>
</svg>
