<svg width="20" height="20" viewBox="0 0 20 20" fill="none" xmlns="http://www.w3.org/2000/svg">
<path d="M17.0167 10.0001C19.4475 6.5872 20.687 3.05993 18.9633 1.33623C17.2396 -0.38747 13.7123 0.852055 10.2994 3.28279C6.88653 0.852055 3.35925 -0.38747 1.63555 1.33623C-0.088155 3.05993 1.15137 6.5872 3.58211 10.0001C1.15137 13.413 -0.088155 16.9402 1.63555 18.6639C2.19072 19.2191 2.93227 19.4666 3.79609 19.4666C5.6184 19.4666 7.98504 18.3652 10.3043 16.7174C12.6138 18.3652 14.9804 19.4666 16.8077 19.4666C17.6715 19.4666 18.414 19.2181 18.9682 18.6639C20.687 16.9402 19.4475 13.413 17.0167 10.0001ZM17.848 2.45151C18.6014 3.20489 18.0926 5.64646 16.0218 8.69153C15.3666 7.88055 14.6691 7.10473 13.9322 6.3673C13.1947 5.63137 12.4189 4.93488 11.608 4.28072C14.653 2.20991 17.0946 1.69714 17.848 2.45151ZM15.0613 10.0001C14.3635 10.8828 13.6141 11.7234 12.8169 12.5176C12.0228 13.3147 11.1821 14.0642 10.2994 14.762C9.4167 14.0642 8.57605 13.3147 7.78191 12.5176C6.98476 11.7234 6.23533 10.8828 5.53754 10.0001C6.93751 8.23592 8.53525 6.63819 10.2994 5.23822C11.1821 5.93601 12.0228 6.68544 12.8169 7.48258C13.6141 8.27673 14.3635 9.11737 15.0613 10.0001ZM2.75083 2.45151C2.96777 2.23358 3.32572 2.12116 3.79806 2.12116C4.96363 2.12116 6.8244 2.80157 8.98988 4.28072C8.17974 4.93541 7.40427 5.63188 6.66663 6.3673C5.9307 7.1048 5.2342 7.88063 4.58004 8.69153C2.50923 5.64646 1.99745 3.20489 2.75083 2.45151ZM2.75083 17.5487C1.99745 16.7953 2.50923 14.3537 4.58004 11.3086C5.23516 12.1196 5.93265 12.8954 6.66959 13.6329C7.40661 14.3682 8.18142 15.0647 8.99086 15.7195C5.94579 17.7903 3.50421 18.303 2.75083 17.5487ZM17.848 17.5487C17.0946 18.303 14.653 17.7932 11.608 15.7224C12.4185 15.0668 13.1943 14.3693 13.9322 13.6329C14.6681 12.8954 15.3646 12.1195 16.0188 11.3086C18.0896 14.3537 18.6014 16.7953 17.848 17.5487ZM11.4827 10.0001C11.4827 10.2341 11.4133 10.4629 11.2833 10.6575C11.1533 10.8521 10.9685 11.0038 10.7523 11.0933C10.536 11.1829 10.2981 11.2063 10.0686 11.1607C9.83902 11.115 9.62817 11.0023 9.46268 10.8368C9.29719 10.6713 9.18449 10.4605 9.13883 10.2309C9.09318 10.0014 9.11661 9.76347 9.20617 9.54725C9.29574 9.33103 9.4474 9.14622 9.642 9.01619C9.8366 8.88617 10.0654 8.81677 10.2994 8.81677C10.6133 8.81677 10.9142 8.94144 11.1362 9.16335C11.3581 9.38527 11.4827 9.68625 11.4827 10.0001Z" fill="white"/>
</svg>
