<svg width="25" height="24" viewBox="0 0 25 24" fill="none" xmlns="http://www.w3.org/2000/svg">
<path fill-rule="evenodd" clip-rule="evenodd" d="M11.761 2.05641C11.9371 1.9812 12.1363 1.9812 12.3124 2.05641L19.5696 5.15719C19.9249 5.30897 20.0894 5.71912 19.9372 6.07328C19.7849 6.42744 19.3735 6.5915 19.0183 6.43971L12.0367 3.45672L5.05508 6.43971C4.69984 6.5915 4.28844 6.42744 4.13619 6.07328C3.98394 5.71912 4.14851 5.30897 4.50375 5.15719L11.761 2.05641ZM2.0061 9.93282C2.0061 9.5475 2.31942 9.23514 2.70591 9.23514H21.3675C21.754 9.23514 22.0673 9.5475 22.0673 9.93282C22.0673 10.3181 21.754 10.6305 21.3675 10.6305H21.0303V20.6047H21.3675C21.754 20.6047 22.0673 20.917 22.0673 21.3023C22.0673 21.6876 21.754 22 21.3675 22H2.70591C2.31942 22 2.0061 21.6876 2.0061 21.3023C2.0061 20.917 2.31942 20.6047 2.70591 20.6047H3.04306V10.6305H2.70591C2.31942 10.6305 2.0061 10.3181 2.0061 9.93282ZM4.44267 10.6305V20.6047H19.6307V10.6305H4.44267ZM7.88978 13.3695C8.27627 13.3695 8.58958 13.6819 8.58958 14.0672V17.168C8.58958 17.5533 8.27627 17.8656 7.88978 17.8656C7.50328 17.8656 7.18997 17.5533 7.18997 17.168V14.0672C7.18997 13.6819 7.50328 13.3695 7.88978 13.3695ZM12.0367 13.3695C12.4232 13.3695 12.7365 13.6819 12.7365 14.0672V17.168C12.7365 17.5533 12.4232 17.8656 12.0367 17.8656C11.6502 17.8656 11.3369 17.5533 11.3369 17.168V14.0672C11.3369 13.6819 11.6502 13.3695 12.0367 13.3695ZM16.1836 13.3695C16.5701 13.3695 16.8834 13.6819 16.8834 14.0672V17.168C16.8834 17.5533 16.5701 17.8656 16.1836 17.8656C15.7971 17.8656 15.4838 17.5533 15.4838 17.168V14.0672C15.4838 13.6819 15.7971 13.3695 16.1836 13.3695Z" fill="#654DFF"/>
</svg>
