<?xml version="1.0" encoding="UTF-8"?>
<svg id="Layer_1" data-name="Layer 1" xmlns="http://www.w3.org/2000/svg" viewBox="0 0 3096.48 2699.32">
  <defs>
    <style>
      .cls-1 {
        fill: #58595b;
      }

      .cls-1, .cls-2, .cls-3 {
        stroke-width: 0px;
      }

      .cls-2, .cls-4 {
        fill: #000;
      }

      .cls-4 {
        font-family: CenturyGothic-Bold, 'Century Gothic';
        font-size: 136.93px;
        font-weight: 700;
      }

      .cls-3 {
        fill: #fff;
      }
    </style>
  </defs>
  <g>
    <path class="cls-2" d="M123.39,1176.23c.02-169.07.51-338.13-.37-507.19-.2-38.06,13.68-63.01,42.52-81.55C423.79,421.44,682.09,255.51,939.52,87.9c38.77-25.24,70.67-24.32,109.24.83,256.01,166.92,512.88,332.21,769.97,497.04,31.83,20.41,45.51,47.43,45.45,87.84-.54,330.36-1.01,660.73.41,991.09.22,51.81-15.43,83.95-56.26,109.95-257.58,163.99-514.13,330-770.55,496.26-30.88,20.02-58.25,20.18-88.77.42-261.09-169.06-522.42-337.65-783.9-505.96-28.93-18.62-42.3-44.02-42.11-81.94.86-169.06.38-338.13.39-507.19ZM455.1,686.29v928.4c166.65-155.56,330.6-308.6,496.54-463.5-165.63-155.08-329.44-308.45-496.54-464.9ZM619.06,1614.03c9.3,1.33,14.75,2.81,20.21,2.78,42.45-.21,85.04,1.48,127.27-2.13,18.78-1.6,40.44-9.2,54.65-22.35,184.58-170.81,368.02-343.16,551.84-515,38.57-36.06,77.5-71.63,120.75-111.57v647.67h106.75v-919.49c-327.53,307.05-652.75,611.93-981.47,920.09Z"/>
    <path class="cls-2" d="M3089.62,918.75c-56.12,0-106.17,1.07-156.1-1.22-7.04-.32-16.24-15.86-19.75-26.32-29.37-87.6-87.05-135.05-167.86-150.17-142.22-26.6-247.68,88.25-250.67,238.42-2.6,130.14-2.57,260.49,1.08,390.59,2.85,101.79,73.08,184.95,162.49,203.71,68.37,14.35,133.91,8.62,192.65-36.73,53-40.91,75.68-101.95,85.33-170.55.47-3.35,1.05-6.69,1.86-11.83h157.83c-7.26,38.86-10.52,78.35-22.1,114.51-46.66,145.7-137.89,234.46-276.03,260.47-105.23,19.81-205.86,6.49-299.12-53.76-90.92-58.73-143.89-149.09-154.33-264.25-8.52-93.96-6.39-189.18-7.72-283.86-.77-55.16-1.67-110.59,2.07-165.51,10.91-160.23,75.12-284.25,211.31-347.08,193.85-89.43,415.74-11.27,503.62,196.89,13.86,32.84,22.82,68.26,35.43,106.67Z"/>
    <path class="cls-2" d="M66.99,1133.94c0,143.97.03,287.95-.05,431.92,0,9.45.31,19.17-1.5,28.28-3.78,19.08-14.66,29.58-32.85,29.26-17.25-.3-27.05-11.1-31.08-28.67-1.69-7.35-1.42-15.36-1.42-23.08C0,1281.98-.03,992.31.03,702.64c0-9.42-.03-19.15,1.93-28.2,3.98-18.4,16.57-29.74,32.12-25.58,11.39,3.05,22.63,14.56,30.05,25.58,4.67,6.93,2.75,19.9,2.76,30.17.13,143.11.09,286.22.09,429.33Z"/>
    <path class="cls-2" d="M1871.46,489.88c-.41,32.07-27.24,45.45-56.02,27.09-60.15-38.39-119.98-77.4-179.99-116.06-167.32-107.8-334.73-215.43-501.86-323.61-9.58-6.2-21.64-15.34-24.05-25.61-2.8-11.89.54-29.11,7.06-39.39,10.19-16.06,26.2-14.9,41.45-5.04,60.61,39.2,121.36,78.15,182.04,117.24,166.66,107.36,333.35,214.67,499.89,322.25,15.07,9.73,32.63,18.19,31.48,43.14Z"/>
    <path class="cls-2" d="M1871.72,1875.75c-5.6,6.28-14.09,20.63-26.01,28.4-138.94,90.59-278.42,180.15-417.72,270.06-87.32,56.36-174.43,113.12-262.05,168.9-10.06,6.41-24.35,13.07-33.87,9.7-10.33-3.65-23.91-18.66-24.2-29.13-.37-13.1,8.32-32.19,18.37-39.05,70.28-47.95,141.8-93.63,213.15-139.62,157.35-101.44,314.82-202.65,472.28-303.87,5.95-3.82,12.02-7.94,18.52-10.04,21.04-6.77,40.97,10.18,41.53,44.66Z"/>
    <path class="cls-2" d="M2723.91,1264.74v-149.08h368.74v149.08h-368.74Z"/>
    <path class="cls-3" d="M455.1,686.29c167.1,156.45,330.91,309.82,496.54,464.9-165.94,154.9-329.89,307.94-496.54,463.5v-928.4Z"/>
    <path class="cls-3" d="M619.06,1614.03c328.71-308.16,653.94-613.04,981.47-920.09v919.49h-106.75v-647.67c-43.24,39.93-82.18,75.51-120.75,111.57-183.82,171.84-367.26,344.19-551.84,515-14.21,13.15-35.87,20.75-54.65,22.35-42.23,3.61-84.83,1.92-127.27,2.13-5.45.03-10.91-1.45-20.21-2.78Z"/>
    <polygon class="cls-2" points="868.59 1155.48 499.84 816.96 499.84 1494 868.59 1155.48"/>
    <rect class="cls-1" x="1998.44" y="648" width="188.22" height="987.32" rx="94.11" ry="94.11"/>
    <path class="cls-2" d="M2085.99,1635.06c-9-.75-23.65-3.33-39.03-12.89-23.12-14.37-34.13-35.94-38.42-44.61-17.04-34.43-9.78-61.89-9.56-142.8.08-29.87-.59-59.73-.53-89.6.07-39.43.13-96.97,0-168.45,17.29-2.65,54.24-5.5,94.04,14.94,69.94,35.9,90.98,114.04,94.17,126.63.76,37.87.72,68.73.53,90.2-.41,47.9-1.51,44.48-1.07,72.28.66,41.7,3.11,48.93-.87,67.62-2.37,11.09-7.98,36.01-26.87,56.7-27.28,29.88-63.32,30.2-72.4,29.98Z"/>
    <path class="cls-2" d="M2098.74,648.03c9,.75,23.65,3.33,39.03,12.89,23.12,14.37,34.13,35.94,38.42,44.61,17.04,34.43,9.78,61.89,9.56,142.8-.08,29.87.59,59.73.53,89.6-.07,39.43-.13,96.97,0,168.45-17.29,2.65-54.24,5.5-94.04-14.94-69.94-35.9-90.98-114.04-94.17-126.63-.76-37.87-.72-68.73-.53-90.2.41-47.9,1.51-44.48,1.07-72.28-.66-41.7-3.11-48.93.87-67.62,2.37-11.09,7.98-36.01,26.87-56.7,27.28-29.88,63.32-30.2,72.4-29.98Z"/>
  </g>
  <text class="cls-4" transform="translate(555.49 2657.33)"><tspan x="0" y="0">Saves Your Health and Wealth</tspan></text>
</svg>