<svg width="404" height="404" viewBox="0 0 404 404" fill="none" xmlns="http://www.w3.org/2000/svg">
<path d="M218.865 63.4737C218.865 63.857 218.709 64.2024 218.459 64.4534C218.208 64.7044 217.861 64.8599 217.478 64.8599H187.267C186.503 64.8599 185.881 64.2403 185.881 63.4737C185.881 63.0904 186.037 62.7429 186.287 62.4925C186.538 62.2415 186.884 62.0859 187.267 62.0859H217.478C218.244 62.0859 218.865 62.7071 218.865 63.4737Z" fill="#34548A"/>
<path d="M261.428 135.165C262.045 140.406 259.988 144.471 243.963 145.927L245.197 130.13C245.197 130.13 260.811 129.924 261.428 135.165Z" fill="#FBD493"/>
<path d="M261.428 153.038C262.045 158.279 259.988 162.344 243.963 163.806L245.197 148.009C245.197 148.009 260.811 147.803 261.428 153.038Z" fill="#FBD493"/>
<path d="M243.963 128.06L245.197 112.263C245.197 112.263 260.811 112.057 261.428 117.298C262.045 122.532 259.988 126.604 243.963 128.06Z" fill="#FBD493"/>
<path d="M250.181 62.0788V205.977C250.181 208.783 247.907 211.056 245.105 211.056H159.641C156.835 211.056 154.562 208.782 154.562 205.977V62.0788C154.562 59.273 156.836 57 159.641 57H245.104C247.907 56.9995 250.181 59.273 250.181 62.0788Z" fill="#C0AFFF"/>
<path d="M160.783 211.056H158.009C155.203 211.056 152.93 208.782 152.93 205.977V62.0788C152.93 59.273 155.204 57 158.009 57H160.783C157.977 57 155.704 59.2735 155.704 62.0788V205.977C155.704 208.782 157.977 211.056 160.783 211.056Z" fill="#6652AE"/>
<path d="M243.157 74.8846V191.558C243.157 194.732 240.582 197.306 237.409 197.306H165.722C162.549 197.306 159.974 194.731 159.974 191.558V74.8846C159.974 71.7107 162.549 69.1367 165.722 69.1367H237.409C240.582 69.1367 243.157 71.7112 243.157 74.8846Z" fill="white"/>
<path d="M201.565 132.791C191.251 132.791 182.861 124.4 182.861 114.087C182.861 103.773 191.251 95.3828 201.565 95.3828C202.581 95.3828 203.405 96.207 203.405 97.2235C203.405 98.2401 202.581 99.0643 201.565 99.0643C193.281 99.0643 186.542 105.803 186.542 114.087C186.542 122.371 193.282 129.109 201.565 129.109C209.849 129.109 216.587 122.37 216.587 114.087C216.587 113.07 217.411 112.246 218.428 112.246C219.445 112.246 220.269 113.07 220.269 114.087C220.269 124.401 211.878 132.791 201.565 132.791Z" fill="#89C05C"/>
<path d="M199.574 122.266C199.086 122.266 198.617 122.072 198.272 121.726L190.936 114.389C190.217 113.671 190.217 112.505 190.936 111.786C191.655 111.067 192.819 111.067 193.539 111.786L199.574 117.822L216.696 100.699C217.415 99.9805 218.58 99.9805 219.299 100.699C220.018 101.418 220.018 102.583 219.299 103.302L200.875 121.726C200.53 122.072 200.063 122.266 199.574 122.266Z" fill="#89C05C"/>
<path d="M242.282 72.834C241.439 72.3467 240.461 72.068 239.419 72.068H167.734C164.56 72.068 161.986 74.6425 161.986 77.8159V194.489C161.986 195.529 162.262 196.506 162.75 197.347C161.024 196.36 159.86 194.497 159.86 192.362V75.6893C159.86 72.5154 162.434 69.9414 165.608 69.9414H237.295C239.429 69.9414 241.292 71.1054 242.282 72.834Z" fill="#BEDAEB"/>
<path d="M202.373 207.797C204.146 207.797 205.584 206.359 205.584 204.586C205.584 202.813 204.146 201.375 202.373 201.375C200.6 201.375 199.162 202.813 199.162 204.586C199.162 206.359 200.6 207.797 202.373 207.797Z" fill="#34548A"/>
<path d="M224.472 137.648H178.636V152.442H224.472V137.648Z" fill="#EBE6FF"/>
<path d="M185.264 162.62C185.264 163.811 184.297 164.776 183.106 164.776H166.41C165.813 164.776 165.276 164.535 164.885 164.144C164.495 163.754 164.253 163.217 164.253 162.62C164.253 161.429 165.218 160.461 166.41 160.461H183.106C184.297 160.461 185.264 161.429 185.264 162.62Z" fill="#EBE6FF"/>
<path d="M212.06 162.62C212.06 163.811 211.093 164.776 209.901 164.776H193.206C192.609 164.776 192.071 164.535 191.681 164.144C191.291 163.754 191.049 163.217 191.049 162.62C191.049 161.429 192.014 160.461 193.206 160.461H209.901C211.093 160.461 212.06 161.429 212.06 162.62Z" fill="#EBE6FF"/>
<path d="M238.856 162.62C238.856 163.811 237.888 164.776 236.697 164.776H220.001C219.404 164.776 218.867 164.535 218.477 164.144C218.086 163.754 217.845 163.217 217.845 162.62C217.845 161.429 218.81 160.461 220.001 160.461H236.697C237.888 160.461 238.856 161.429 238.856 162.62Z" fill="#EBE6FF"/>
<path d="M185.264 171.448C185.264 172.639 184.297 173.604 183.106 173.604H166.41C165.813 173.604 165.276 173.363 164.885 172.973C164.495 172.582 164.253 172.045 164.253 171.448C164.253 170.257 165.218 169.289 166.41 169.289H183.106C184.297 169.289 185.264 170.256 185.264 171.448Z" fill="#EBE6FF"/>
<path d="M212.06 171.448C212.06 172.639 211.093 173.604 209.901 173.604H193.206C192.609 173.604 192.071 173.363 191.681 172.973C191.291 172.582 191.049 172.045 191.049 171.448C191.049 170.257 192.014 169.289 193.206 169.289H209.901C211.093 169.289 212.06 170.256 212.06 171.448Z" fill="#EBE6FF"/>
<path d="M238.856 171.448C238.856 172.639 237.888 173.604 236.697 173.604H220.001C219.404 173.604 218.867 173.363 218.477 172.973C218.086 172.582 217.845 172.045 217.845 171.448C217.845 170.257 218.81 169.289 220.001 169.289H236.697C237.888 169.289 238.856 170.256 238.856 171.448Z" fill="#EBE6FF"/>
<path d="M202.178 155.932C202.188 155.916 202.2 155.9 202.216 155.888C202.221 155.878 202.226 155.872 202.226 155.867C203.168 154.703 203.709 153.88 203.997 153.246C204.592 151.936 204.11 151.454 203.818 150.561C202.686 147.129 193.878 146.593 191.805 146.517C191.523 146.501 191.366 146.501 191.366 146.501C183.456 142.651 180.276 142.158 176.208 144.336C172.143 146.511 152.928 166.262 152.928 166.262V128.906C148.597 132.696 145.349 145.418 145.349 145.418C135.874 154.351 133.709 177.359 130.731 183.856C127.754 190.353 122.069 225.272 122.069 227.437C122.069 229.603 108.535 266.687 108.535 266.687L154.461 269.678C152.837 256.684 165.109 244.491 165.109 244.491C185.952 230.415 186.001 211.315 186.001 211.315H171.389C173.517 208.879 177.171 179.806 176.716 172.806C176.386 167.772 180.143 163.998 182.287 162.271C183.115 161.605 184.165 161.264 185.226 161.28C197.402 161.459 201.354 157.095 202.215 155.888C202.221 155.877 202.226 155.872 202.226 155.866C202.356 155.682 202.41 155.579 202.41 155.579" fill="#FBD493"/>
<path d="M163.471 263.784L155.729 291.014L152.28 290.136L103.39 277.717L100.034 276.865L107.813 249.515C108.145 248.347 109.344 247.653 110.522 247.953L161.867 260.997C163.092 261.312 163.818 262.569 163.471 263.784Z" fill="#5D399B"/>
<path d="M163.56 81.4562H152.472L159.924 69.1367H169.356L163.56 81.4562Z" fill="#F15F5B"/>
<path d="M174.65 81.4562H163.562L169.358 69.1367H178.791L174.65 81.4562Z" fill="#F9DF7D"/>
<path d="M185.738 81.4562H174.649L178.789 69.1367H188.222L185.738 81.4562Z" fill="#F15F5B"/>
<path d="M196.826 81.4562H185.738L188.222 69.1367H197.655L196.826 81.4562Z" fill="#F9DF7D"/>
<path d="M207.917 81.4562H196.828L197.656 69.1367H207.088L207.917 81.4562Z" fill="#F15F5B"/>
<path d="M219.003 81.4562H207.914L207.086 69.1367H216.519L219.003 81.4562Z" fill="#F9DF7D"/>
<path d="M230.091 81.4562H219.003L216.519 69.1367H225.951L230.091 81.4562Z" fill="#F15F5B"/>
<path d="M241.181 81.4562H230.093L225.952 69.1367H235.385L241.181 81.4562Z" fill="#F9DF7D"/>
<path d="M252.27 81.4562H241.181L235.385 69.1367H244.818L252.27 81.4562Z" fill="#F15F5B"/>
<path d="M163.56 81.4531V86.1178C163.56 89.1806 161.078 91.6632 158.017 91.6632C154.954 91.6632 152.471 89.1806 152.471 86.1178V81.4531H163.56Z" fill="#EE403A"/>
<path d="M174.65 81.4531V86.1178C174.65 89.1806 172.168 91.6632 169.106 91.6632C166.044 91.6632 163.561 89.1806 163.561 86.1178V81.4531H174.65Z" fill="#F7D634"/>
<path d="M185.737 81.4531V86.1178C185.737 89.1806 183.254 91.6632 180.193 91.6632C177.13 91.6632 174.647 89.1806 174.647 86.1178V81.4531H185.737Z" fill="#EE403A"/>
<path d="M196.827 81.4531V86.1178C196.827 89.1806 194.345 91.6632 191.283 91.6632C188.221 91.6632 185.738 89.1806 185.738 86.1178V81.4531H196.827Z" fill="#F7D634"/>
<path d="M207.916 81.4531V86.1178C207.916 89.1806 205.434 91.6632 202.372 91.6632C199.309 91.6632 196.827 89.1806 196.827 86.1178V81.4531H207.916Z" fill="#EE403A"/>
<path d="M219.007 81.4531V86.1178C219.007 89.1806 216.524 91.6632 213.463 91.6632C210.4 91.6632 207.917 89.1806 207.917 86.1178V81.4531H219.007Z" fill="#F7D634"/>
<path d="M230.093 81.4531V86.1178C230.093 89.1806 227.61 91.6632 224.549 91.6632C221.486 91.6632 219.003 89.1806 219.003 86.1178V81.4531H230.093Z" fill="#EE403A"/>
<path d="M241.183 81.4531V86.1178C241.183 89.1806 238.7 91.6632 235.639 91.6632C232.576 91.6632 230.094 89.1806 230.094 86.1178V81.4531H241.183Z" fill="#F7D634"/>
<path d="M252.272 81.4531V86.1178C252.272 89.1806 249.789 91.6632 246.728 91.6632C243.665 91.6632 241.183 89.1806 241.183 86.1178V81.4531H252.272Z" fill="#EE403A"/>
<path d="M289.869 188.841C289.869 191.002 288.799 193.174 286.492 194.395C284.303 195.553 283.119 197.76 283.119 200.005C283.119 201.502 283.646 203.016 284.755 204.243C285.909 205.52 286.416 207 286.416 208.442C286.416 212.154 283.057 215.615 278.727 214.685C278.273 214.587 277.822 214.541 277.381 214.541C273.89 214.541 270.931 217.448 271.067 221.112C271.07 221.2 271.071 221.287 271.071 221.374C271.071 227.337 263.459 230.02 259.737 225.235C258.469 223.605 256.604 222.791 254.737 222.791C252.87 222.791 251.005 223.605 249.737 225.235C248.412 226.938 246.596 227.695 244.804 227.695C241.487 227.695 238.259 225.102 238.408 221.112C238.411 221.031 238.412 220.95 238.412 220.87C238.412 216.862 234.706 213.834 230.748 214.685C230.264 214.789 229.792 214.838 229.335 214.838C224.122 214.838 220.926 208.438 224.72 204.243C225.829 203.016 226.356 201.502 226.356 200.005C226.356 197.76 225.172 195.553 222.983 194.395C220.676 193.174 219.606 191.002 219.606 188.84C219.606 185.911 221.571 183.005 225.075 182.52H225.077C229.168 181.954 231.631 177.686 230.075 173.86C229.738 173.031 229.585 172.207 229.585 171.419C229.585 166.795 234.863 163.316 239.312 166.11C240.369 166.773 241.528 167.082 242.668 167.082C245.3 167.082 247.824 165.433 248.709 162.69C249.653 159.763 252.195 158.301 254.737 158.301C257.279 158.301 259.821 159.763 260.765 162.69C262.033 166.621 266.664 168.306 270.162 166.11C271.265 165.418 272.419 165.111 273.53 165.111C277.668 165.111 281.225 169.368 279.399 173.86C279.079 174.648 278.929 175.456 278.929 176.246C278.929 179.288 281.15 182.07 284.398 182.519C287.904 183.005 289.869 185.911 289.869 188.841Z" fill="#5D399B"/>
<path d="M248.406 207.838C247.883 207.993 247.302 207.949 246.785 207.669C245.751 207.109 245.367 205.817 245.928 204.783L259.804 179.185C260.365 178.151 261.656 177.768 262.69 178.328C263.725 178.889 264.108 180.18 263.547 181.214L249.671 206.812C249.391 207.329 248.928 207.683 248.406 207.838Z" fill="white"/>
<path d="M245.336 194.619C240.923 195.93 236.266 193.406 234.955 188.993C233.645 184.58 236.17 179.922 240.583 178.612C244.995 177.301 249.653 179.825 250.964 184.239C252.274 188.652 249.749 193.309 245.336 194.619ZM241.795 182.694C239.632 183.336 238.395 185.618 239.037 187.781C239.679 189.944 241.961 191.18 244.124 190.538C246.286 189.896 247.524 187.614 246.881 185.452C246.24 183.289 243.957 182.051 241.795 182.694Z" fill="white"/>
<path d="M268.893 207.389C264.48 208.699 259.822 206.175 258.512 201.763C257.202 197.349 259.727 192.692 264.139 191.381C268.552 190.071 273.21 192.595 274.52 197.009C275.831 201.421 273.305 206.078 268.893 207.389ZM265.351 195.463C263.189 196.106 261.952 198.388 262.593 200.551C263.236 202.713 265.518 203.949 267.68 203.308C269.843 202.665 271.08 200.384 270.438 198.221C269.796 196.058 267.514 194.821 265.351 195.463Z" fill="white"/>
<path d="M144.612 94.8398V131.718H76.611V133.334L75 131.718V94.8398H144.612Z" fill="#D3D6D8"/>
<path d="M146.223 96.4531H76.614V133.331H146.223V96.4531Z" fill="#E7E8E7"/>
<path d="M83.9777 100.777H80.7422V129.01H83.9777V100.777Z" fill="#394750"/>
<path d="M89.788 100.777H86.5525V125.799H89.788V100.777Z" fill="#394750"/>
<path d="M95.6013 100.777H92.3657V125.799H95.6013V100.777Z" fill="#394750"/>
<path d="M101.413 100.777H98.177V125.799H101.413V100.777Z" fill="#394750"/>
<path d="M107.226 100.777H103.991V129.01H107.226V100.777Z" fill="#394750"/>
<path d="M113.037 100.777H109.802V129.01H113.037V100.777Z" fill="#394750"/>
<path d="M118.851 100.777H115.615V129.01H118.851V100.777Z" fill="#394750"/>
<path d="M124.661 100.777H121.425V125.799H124.661V100.777Z" fill="#394750"/>
<path d="M130.471 100.777H127.236V125.799H130.471V100.777Z" fill="#394750"/>
<path d="M136.285 100.777H133.049V125.799H136.285V100.777Z" fill="#394750"/>
<path d="M142.096 100.777H138.861V129.01H142.096V100.777Z" fill="#394750"/>
<path d="M146.223 96.4553H76.611L75 94.8398H144.612L146.223 96.4553Z" fill="#D3D6D8"/>
</svg>
