<svg width="20" height="21" viewBox="0 0 20 21" fill="none" xmlns="http://www.w3.org/2000/svg">
<g clip-path="url(#clip0_2406_4387)">
<path d="M0.832031 1.00708H4.16536L6.3987 12.1654C6.4749 12.5491 6.68362 12.8937 6.98832 13.139C7.29302 13.3843 7.67428 13.5146 8.06536 13.5071H16.1654C16.5564 13.5146 16.9377 13.3843 17.2424 13.139C17.5471 12.8937 17.7558 12.5491 17.832 12.1654L19.1654 5.17375H4.9987M8.33203 17.6737C8.33203 18.134 7.95894 18.5071 7.4987 18.5071C7.03846 18.5071 6.66536 18.134 6.66536 17.6737C6.66536 17.2135 7.03846 16.8404 7.4987 16.8404C7.95894 16.8404 8.33203 17.2135 8.33203 17.6737ZM17.4987 17.6737C17.4987 18.134 17.1256 18.5071 16.6654 18.5071C16.2051 18.5071 15.832 18.134 15.832 17.6737C15.832 17.2135 16.2051 16.8404 16.6654 16.8404C17.1256 16.8404 17.4987 17.2135 17.4987 17.6737Z" stroke="#5D399B" stroke-width="2" stroke-linecap="round" stroke-linejoin="round"/>
</g>
<defs>
<clipPath id="clip0_2406_4387">
<rect width="20" height="20" fill="white" transform="translate(0 0.173828)"/>
</clipPath>
</defs>
</svg>
