<svg width="21" height="21" viewBox="0 0 21 21" fill="none" xmlns="http://www.w3.org/2000/svg">
<g clip-path="url(#clip0_7_157)">
<path d="M1.15894 1.80212H4.49227L6.7256 12.9605C6.80181 13.3441 7.01052 13.6888 7.31522 13.934C7.61992 14.1793 8.00118 14.3096 8.39227 14.3021H16.4923C16.8834 14.3096 17.2646 14.1793 17.5693 13.934C17.874 13.6888 18.0827 13.3441 18.1589 12.9605L19.4923 5.96879H5.3256M8.65894 18.4688C8.65894 18.929 8.28584 19.3021 7.8256 19.3021C7.36537 19.3021 6.99227 18.929 6.99227 18.4688C6.99227 18.0086 7.36537 17.6355 7.8256 17.6355C8.28584 17.6355 8.65894 18.0086 8.65894 18.4688ZM17.8256 18.4688C17.8256 18.929 17.4525 19.3021 16.9923 19.3021C16.532 19.3021 16.1589 18.929 16.1589 18.4688C16.1589 18.0086 16.532 17.6355 16.9923 17.6355C17.4525 17.6355 17.8256 18.0086 17.8256 18.4688Z" stroke="white" stroke-width="2" stroke-linecap="round" stroke-linejoin="round"/>
</g>
<defs>
<clipPath id="clip0_7_157">
<rect width="20" height="20" fill="white" transform="translate(0.325562 0.96875)"/>
</clipPath>
</defs>
</svg>
