<svg width="366" height="50" viewBox="0 0 366 50" fill="none" xmlns="http://www.w3.org/2000/svg">
<path d="M161.265 3.21101C169.398 3.1999 177.527 3.17397 185.661 3.18508C190.509 3.19249 195.572 3.42212 199.979 5.65916C202.616 7.04434 203.842 10.1258 203.916 12.974C203.983 15.1221 203.557 17.3925 202.157 19.0925C200.353 21.3555 197.69 22.6332 195.187 23.9518C199.268 25.1036 203.902 26.8629 205.702 31.0518C207.502 36.0443 205.853 42.7629 200.72 45.0814C196.887 47.0518 192.472 47.1295 188.261 47.2777C179.242 47.2962 170.22 47.274 161.198 47.2851C161.198 45.4258 161.19 43.5703 161.25 41.711C163.239 41.4518 166.002 42.2147 167.29 40.2518C168.087 34.1443 167.457 27.9703 167.639 21.8369C167.535 17.6555 168.094 13.3962 167.031 9.29249C165.12 8.88138 163.161 8.82582 161.216 8.71842C161.224 6.88138 161.257 5.04434 161.265 3.21101ZM180.261 21.5369C183.487 21.3369 186.968 21.4666 189.835 19.7406C192.172 17.4184 192.302 13.1703 190.165 10.6777C187.368 8.45916 183.568 8.98879 180.239 8.78138C180.224 13.0332 180.235 17.2851 180.261 21.5369ZM180.257 27.0592C180.276 31.9258 180.231 36.7962 180.239 41.6629C183.631 41.5369 187.209 41.7777 190.368 40.3184C194.853 37.7666 194.29 29.8221 189.416 28.0147C186.49 26.9221 183.316 27.1518 180.257 27.0592Z" fill="#FB630F"/>
<path d="M2.546 3.18501C12.2238 3.18501 21.8979 3.1813 31.5719 3.18871C35.6534 3.27019 39.9867 3.54797 43.5275 5.80353C46.4571 7.5739 47.9016 11.122 47.746 14.4517C47.6386 16.6295 47.0349 18.9443 45.3793 20.4665C43.3793 22.3776 40.6534 23.1517 38.0867 23.9739C40.6386 24.8998 43.7571 25.7813 44.8608 28.5665C46.4016 33.1998 44.0053 38.648 47.0867 42.8591C49.3423 41.0257 49.6942 37.948 49.8423 35.2406C51.2979 35.2109 52.7571 35.2109 54.2164 35.1924C53.8423 38.4924 53.9275 42.0517 52.1756 44.9961C51.1867 46.685 49.3904 47.7406 47.4979 48.1035C44.1534 48.9146 40.4164 48.8628 37.3423 47.1702C35.5608 46.1776 34.1201 44.548 33.4571 42.6109C31.9164 38.122 34.2979 33.0998 32.0756 28.7554C31.8164 27.9998 30.9719 27.8406 30.309 27.622C27.4571 26.8146 24.4645 27.1443 21.5423 27.1183C21.6349 31.885 21.1756 36.722 22.2016 41.422C24.1386 41.4998 26.0756 41.5776 28.0127 41.6628C27.9867 43.5332 27.9682 45.4072 27.9682 47.2813C19.4942 47.285 11.0201 47.285 2.5423 47.2776C2.546 45.4369 2.546 43.5924 2.546 41.748C4.49785 41.6109 6.446 41.4406 8.39045 41.2332C9.52378 31.4776 8.79045 21.648 8.89045 11.8591C8.98674 10.8035 8.57933 9.61093 7.50896 9.21834C5.92378 8.63686 4.19785 8.84797 2.5423 8.76279C2.546 6.90353 2.5423 5.04427 2.546 3.18501ZM21.546 8.84797C21.5867 13.0332 21.5534 17.2183 21.5682 21.4072C24.4942 21.3517 27.4719 21.7257 30.3497 21.0406C31.9238 20.6332 33.6682 19.922 34.3386 18.3109C35.3682 15.985 34.6053 13.3924 34.2053 11.0072C30.4127 8.72575 25.8312 8.70723 21.546 8.84797Z" fill="#FB630F"/>
<path d="M73.5127 3.16284C77.8534 3.16284 82.1979 3.20358 86.5386 3.18506C90.2312 14.4443 93.683 25.7814 97.4386 37.0221C97.8867 38.2258 98.0349 39.6962 99.1534 40.5036C100.62 41.5591 102.498 41.6295 104.22 41.8777C104.224 43.674 104.213 45.4703 104.231 47.2665C96.0905 47.3073 87.946 47.2702 79.8053 47.2851C79.7793 45.4443 79.7645 43.6073 79.746 41.7665C81.7571 41.374 84.1682 41.9814 85.7645 40.3777C85.4645 37.8147 84.4756 35.4184 83.6645 32.9925C79.4201 33.0184 75.1793 33.0073 70.9349 33.0147C70.1386 35.4295 69.2201 37.8221 68.7867 40.3369C70.3275 41.8999 72.6497 41.4517 74.6164 41.7851C74.6127 43.6147 74.6127 45.448 74.6164 47.2814C68.1979 47.2888 61.7756 47.2814 55.3571 47.2851C55.3497 45.4258 55.3719 43.5665 55.3349 41.7073C56.8608 41.5962 58.3867 41.4851 59.9164 41.3665C62.2756 37.5962 63.3423 33.2332 64.7645 29.0665C67.6534 20.4221 70.4608 11.7517 73.5127 3.16284ZM77.3423 13.5814C75.8904 18.1702 74.409 22.748 72.883 27.311C75.846 27.3554 78.809 27.3258 81.7682 27.3295C80.3497 22.7258 78.8867 18.1406 77.3423 13.5814Z" fill="#FB630F"/>
<path d="M106.209 8.7444C106.202 6.89255 106.202 5.0407 106.209 3.18514C113.22 3.20366 120.235 3.2481 127.246 3.17773C132.983 13.3592 138.483 23.674 144.22 33.8555C144.205 27.2592 144.183 20.6629 144.209 14.0666C144.205 12.4666 144.235 10.7555 143.327 9.36292C141.442 8.78514 139.453 8.8481 137.509 8.72588C137.535 6.88144 137.568 5.03329 137.583 3.18885C144.231 3.18144 150.883 3.18514 157.531 3.18514C157.465 5.01477 157.676 6.88885 157.439 8.68514C155.705 8.92588 153.846 8.76662 152.253 9.59996C151.553 10.8296 151.635 12.3222 151.587 13.6925C151.587 24.8888 151.627 36.0851 151.605 47.2851C147.083 47.2814 142.557 47.2851 138.035 47.2814C132.057 36.3777 126.065 25.4814 120.09 14.574C120.031 22.6963 119.85 30.8185 120.161 38.937C120.131 39.9555 120.694 41.037 121.72 41.3407C123.253 41.8222 124.887 41.5777 126.468 41.7259C126.468 43.5703 126.453 45.4148 126.479 47.2629C119.72 47.3111 112.961 47.274 106.202 47.2814C106.205 45.4444 106.202 43.6111 106.205 41.7777C108.102 41.6481 110.035 41.6111 111.857 41.0037C112.787 39.3444 112.587 37.3926 112.635 35.5703C112.583 28.4 112.635 21.2296 112.631 14.0592C112.653 12.437 112.476 10.8074 111.883 9.28885C110.027 8.82959 108.105 8.85181 106.209 8.7444Z" fill="#FB630F"/>
<path d="M227.913 3.1888C232.287 3.17769 236.661 3.19251 241.035 3.1814C244.579 14.111 248.027 25.074 251.527 36.0184C252.057 37.4962 252.457 39.0814 253.439 40.3407C254.842 41.711 256.972 41.4518 258.753 41.8407C258.765 43.6518 258.727 45.4666 258.731 47.2777C250.568 47.2888 242.405 47.2851 234.242 47.2814C234.279 45.437 234.276 43.5962 234.316 41.7518C236.353 41.5555 238.379 41.2888 240.405 40.9925C239.913 38.2814 239.057 35.6629 238.242 33.037C233.968 33.0444 229.698 32.9851 225.424 32.9962C224.476 35.637 223.705 38.3555 223.353 41.1444C225.272 41.3518 227.198 41.5518 229.12 41.7592C229.087 43.5999 229.105 45.4407 229.105 47.2814C222.683 47.2888 216.265 47.2814 209.846 47.2814C209.846 45.4333 209.839 43.5814 209.85 41.7332C211.609 41.4147 213.902 41.8555 215.102 40.211C216.594 37.7629 217.231 34.9221 218.194 32.2481C221.398 22.5481 224.657 12.8703 227.913 3.1888ZM227.472 27.3036C230.402 27.3295 233.331 27.3666 236.261 27.3518C234.802 22.7407 233.379 18.1147 231.968 13.4888C230.379 18.0629 228.879 22.6703 227.472 27.3036Z" fill="#FB630F"/>
<path d="M262.961 3.18501C270.75 3.18501 278.539 3.18501 286.331 3.18501C286.361 4.96279 286.357 6.74427 286.383 8.52575C284.783 8.90723 283.194 9.34056 281.624 9.82945C283.387 12.822 285.442 15.622 287.461 18.4443C289.82 15.7257 292.146 12.9628 294.135 9.95538C292.602 9.4739 291.068 8.99982 289.535 8.51834C289.546 6.74056 289.579 4.96279 289.609 3.18501C296.079 3.18501 302.553 3.1813 309.024 3.18871C309.046 4.95908 309.072 6.73316 309.105 8.50353C307.461 8.95908 305.753 9.28501 304.231 10.0776C303.039 10.6887 302.216 11.7739 301.357 12.7665C298.276 16.3072 295.379 20.0109 292.431 23.6628C296.639 28.9628 300.476 34.548 304.779 39.7702C306.19 41.4369 308.535 41.5257 310.539 41.8406C310.539 43.6554 310.542 45.4702 310.539 47.285C302.309 47.2776 294.083 47.2887 285.857 47.2776C285.857 45.4035 285.853 43.5257 285.857 41.648C287.394 41.522 288.931 41.3998 290.468 41.2739C289.487 37.4035 286.587 34.5146 284.413 31.2998C282.253 33.8702 279.842 36.2776 278.176 39.2183C277.653 39.922 278.05 41.0257 278.902 41.248C279.965 41.5813 281.09 41.6406 282.172 41.9146C282.172 43.7035 282.172 45.4924 282.172 47.2813C275.427 47.285 268.683 47.2813 261.939 47.285C261.931 45.4443 261.935 43.5998 261.935 41.7591C264.094 41.3517 266.661 41.4258 268.25 39.648C272.213 35.3035 275.639 30.5146 279.416 26.0146C275.798 21.2998 272.365 16.4443 268.65 11.8035C267.209 10.0146 264.953 9.25167 262.876 8.4739C262.905 6.71093 262.924 4.94797 262.961 3.18501Z" fill="#FB630F"/>
<path d="M315.968 3.18514C324.353 3.18514 332.742 3.18514 341.128 3.18885C341.124 5.00366 341.131 6.82218 341.124 8.6407C339.365 8.91477 337.616 9.26292 335.883 9.66292C337.765 13.8111 340.413 17.5407 342.883 21.3481C345.068 18.0851 347.661 15.0703 349.398 11.5222C349.561 11.0444 349.976 10.5777 349.89 10.0518C348.642 8.89255 346.857 8.89625 345.287 8.57774C345.298 6.78144 345.327 4.98514 345.35 3.18885C351.579 3.18144 357.809 3.18514 364.039 3.18885C364.057 4.96292 364.087 6.737 364.116 8.51477C362.231 9.07403 360.257 9.57403 358.668 10.7851C357.431 11.7 356.779 13.1333 355.928 14.3703C352.813 19.2629 349.394 23.9777 346.624 29.0814C345.902 33.1592 346.246 37.3814 346.99 41.4407C349.153 41.7074 351.331 41.8333 353.509 41.9666C353.476 43.737 353.487 45.5111 353.453 47.2851C344.665 47.2851 335.876 47.2851 327.087 47.2851C327.076 45.5074 327.057 43.7296 327.053 41.9518C329.016 41.7333 331.235 42.2592 332.972 41.0851C334.202 38.9777 334.068 36.4407 334.002 34.0926C333.887 32.2481 334.313 30.2814 333.457 28.5555C332.583 26.7555 331.409 25.1259 330.365 23.4259C327.876 19.6185 325.698 15.6 322.913 11.9963C321.22 9.86292 318.424 9.25181 315.946 8.51848C315.931 6.7407 315.968 4.96292 315.968 3.18514Z" fill="#FB630F"/>
</svg>
