<svg width="24" height="24" viewBox="0 0 24 24" fill="none" xmlns="http://www.w3.org/2000/svg">
<g clip-path="url(#clip0_569_1877)">
<path d="M11 2.9985H3.997C3.59961 2.99903 3.2187 3.15733 2.93799 3.43861C2.65727 3.71988 2.49973 4.10111 2.5 4.4985V19.4985C2.5 20.328 3.1695 20.9985 3.997 20.9985H11V23.497C11 23.6296 11.0527 23.7568 11.1464 23.8506C11.2402 23.9443 11.3674 23.997 11.5 23.997C11.6326 23.997 11.7598 23.9443 11.8536 23.8506C11.9473 23.7568 12 23.6296 12 23.497V0.5C12 0.367392 11.9473 0.240215 11.8536 0.146447C11.7598 0.0526784 11.6326 0 11.5 0C11.3674 0 11.2402 0.0526784 11.1464 0.146447C11.0527 0.240215 11 0.367392 11 0.5V2.9985ZM14.5 3.9985C14.3674 3.9985 14.2402 3.94582 14.1464 3.85205C14.0527 3.75829 14 3.63111 14 3.4985C14 3.36589 14.0527 3.23871 14.1464 3.14495C14.2402 3.05118 14.3674 2.9985 14.5 2.9985H19.9985C20.1956 2.9983 20.3908 3.03696 20.573 3.11225C20.7551 3.18754 20.9207 3.298 21.0601 3.43731C21.1996 3.57662 21.3102 3.74204 21.3857 3.92413C21.4612 4.10621 21.5 4.30139 21.5 4.4985V19.4985C21.5 19.6956 21.4612 19.8908 21.3857 20.0729C21.3102 20.255 21.1996 20.4204 21.0601 20.5597C20.9207 20.699 20.7551 20.8095 20.573 20.8848C20.3908 20.96 20.1956 20.9987 19.9985 20.9985H14.5C14.3674 20.9985 14.2402 20.9458 14.1464 20.8521C14.0527 20.7583 14 20.6311 14 20.4985C14 20.3659 14.0527 20.2387 14.1464 20.1449C14.2402 20.0512 14.3674 19.9985 14.5 19.9985H19.9985C20.0643 19.9987 20.1295 19.9859 20.1903 19.9609C20.2511 19.9358 20.3064 19.899 20.353 19.8526C20.3996 19.8061 20.4366 19.7509 20.4618 19.6902C20.487 19.6294 20.5 19.5643 20.5 19.4985V4.4985C20.5 4.43271 20.487 4.36757 20.4618 4.30681C20.4366 4.24605 20.3996 4.19086 20.353 4.14441C20.3064 4.09797 20.2511 4.06117 20.1903 4.03613C20.1295 4.01109 20.0643 3.9983 19.9985 3.9985H14.5Z" fill="#5D399B"/>
</g>
<defs>
<clipPath id="clip0_569_1877">
<rect width="24" height="24" fill="white"/>
</clipPath>
</defs>
</svg>
