<svg width="25" height="24" viewBox="0 0 25 24" fill="none" xmlns="http://www.w3.org/2000/svg">
<path fill-rule="evenodd" clip-rule="evenodd" d="M4.40242 5.37143C3.91323 5.37143 3.40572 5.82014 3.40572 6.51429V9.48571H20.6677V6.51429C20.6677 5.82014 20.1601 5.37143 19.671 5.37143H4.40242ZM22.0673 6.51429C22.0673 5.18865 21.0557 4 19.671 4H4.40242C3.0177 4 2.0061 5.18865 2.0061 6.51429V17.4857C2.0061 18.8114 3.0177 20 4.40242 20H19.671C21.0557 20 22.0673 18.8114 22.0673 17.4857V6.51429ZM20.6677 10.8571H3.40572V17.4857C3.40572 18.1799 3.91323 18.6286 4.40242 18.6286H19.671C20.1601 18.6286 20.6677 18.1799 20.6677 17.4857V10.8571Z" fill="#CB5CCD"/>
</svg>
