<svg width="16" height="16" viewBox="0 0 16 16" fill="none" xmlns="http://www.w3.org/2000/svg">
<path d="M14 9.33203C13.8232 9.33203 13.6536 9.40227 13.5286 9.52729C13.4035 9.65232 13.3333 9.82189 13.3333 9.9987V12.6654C13.3333 12.8422 13.2631 13.0117 13.1381 13.1368C13.013 13.2618 12.8435 13.332 12.6666 13.332H3.33331C3.1565 13.332 2.98693 13.2618 2.86191 13.1368C2.73688 13.0117 2.66665 12.8422 2.66665 12.6654V9.9987C2.66665 9.82189 2.59641 9.65232 2.47138 9.52729C2.34636 9.40227 2.17679 9.33203 1.99998 9.33203C1.82317 9.33203 1.6536 9.40227 1.52858 9.52729C1.40355 9.65232 1.33331 9.82189 1.33331 9.9987V12.6654C1.33331 13.1958 1.54403 13.7045 1.9191 14.0796C2.29417 14.4546 2.80288 14.6654 3.33331 14.6654H12.6666C13.1971 14.6654 13.7058 14.4546 14.0809 14.0796C14.4559 13.7045 14.6666 13.1958 14.6666 12.6654V9.9987C14.6666 9.82189 14.5964 9.65232 14.4714 9.52729C14.3464 9.40227 14.1768 9.33203 14 9.33203ZM7.52665 10.472C7.59005 10.5327 7.66481 10.5803 7.74665 10.612C7.82645 10.6473 7.91273 10.6655 7.99998 10.6655C8.08723 10.6655 8.17351 10.6473 8.25331 10.612C8.33515 10.5803 8.40991 10.5327 8.47331 10.472L11.14 7.80536C11.2655 7.67983 11.336 7.50957 11.336 7.33203C11.336 7.1545 11.2655 6.98423 11.14 6.8587C11.0144 6.73316 10.8442 6.66264 10.6666 6.66264C10.4891 6.66264 10.3188 6.73316 10.1933 6.8587L8.66665 8.39203V1.9987C8.66665 1.82189 8.59641 1.65232 8.47138 1.52729C8.34636 1.40227 8.17679 1.33203 7.99998 1.33203C7.82317 1.33203 7.6536 1.40227 7.52857 1.52729C7.40355 1.65232 7.33331 1.82189 7.33331 1.9987V8.39203L5.80665 6.8587C5.74449 6.79654 5.67069 6.74723 5.58948 6.71359C5.50826 6.67995 5.42122 6.66264 5.33331 6.66264C5.24541 6.66264 5.15836 6.67995 5.07715 6.71359C4.99593 6.74723 4.92214 6.79654 4.85998 6.8587C4.79782 6.92086 4.74851 6.99465 4.71487 7.07586C4.68123 7.15708 4.66392 7.24412 4.66392 7.33203C4.66392 7.41994 4.68123 7.50698 4.71487 7.5882C4.74851 7.66941 4.79782 7.74321 4.85998 7.80536L7.52665 10.472Z" fill="#191919"/>
</svg>
