<svg width="21" height="20" viewBox="0 0 21 20" fill="none" xmlns="http://www.w3.org/2000/svg">
<path d="M19.1536 8.45703C17.5786 6.54036 14.3586 3.33203 10.4999 3.33203C6.64113 3.33203 3.42113 6.54036 1.84613 8.45703C1.48424 8.89701 1.2876 9.4398 1.2876 9.9987C1.2876 10.5576 1.48424 11.1004 1.84613 11.5404C3.42113 13.457 6.64113 16.6654 10.4999 16.6654C14.3586 16.6654 17.5786 13.457 19.1536 11.5404C19.5155 11.1004 19.7122 10.5576 19.7122 9.9987C19.7122 9.4398 19.5155 8.89701 19.1536 8.45703ZM17.7799 10.5154C16.6686 11.8654 13.7374 14.9987 10.4999 14.9987C7.26238 14.9987 4.37488 11.8654 3.21988 10.5154C3.09781 10.3682 3.03141 10.1862 3.03141 9.9987C3.03141 9.81119 3.09781 9.62915 3.21988 9.48203C4.37488 8.13203 7.26238 4.9987 10.4999 4.9987C13.7374 4.9987 16.6686 8.13203 17.7799 9.48203C17.902 9.62915 17.9684 9.81119 17.9684 9.9987C17.9684 10.1862 17.902 10.3682 17.7799 10.5154ZM10.4999 6.66536C9.80765 6.66536 9.13096 6.86086 8.55539 7.22713C7.97982 7.5934 7.53121 8.114 7.2663 8.72309C7.0014 9.33217 6.93209 10.0024 7.06713 10.649C7.20218 11.2956 7.53553 11.8895 8.02501 12.3557C8.51449 12.8219 9.13813 13.1394 9.81707 13.268C10.496 13.3966 11.1997 13.3306 11.8393 13.0783C12.4788 12.826 13.0254 12.3988 13.41 11.8506C13.7946 11.3024 13.9999 10.658 13.9999 9.9987C13.9999 9.11464 13.6311 8.2668 12.9748 7.64167C12.3184 7.01655 11.4281 6.66536 10.4999 6.66536ZM10.4999 11.6654C10.0358 11.6654 9.59063 11.4898 9.26245 11.1772C8.93426 10.8646 8.74988 10.4407 8.74988 9.9987V9.9237C8.88964 9.97408 9.03795 9.99951 9.18738 9.9987C9.53548 9.9987 9.86932 9.867 10.1155 9.63258C10.3616 9.39816 10.4999 9.08022 10.4999 8.7487C10.5007 8.60638 10.474 8.46513 10.4211 8.33203H10.4999C10.964 8.33203 11.4091 8.50763 11.7373 8.82019C12.0655 9.13275 12.2499 9.55667 12.2499 9.9987C12.2499 10.4407 12.0655 10.8646 11.7373 11.1772C11.4091 11.4898 10.964 11.6654 10.4999 11.6654Z" fill="#231F20" fill-opacity="0.5"/>
</svg>
