<svg width="115" height="78" viewBox="0 0 115 78" fill="none" xmlns="http://www.w3.org/2000/svg">
<g clip-path="url(#clip0_2016_875)">
<path d="M4.58416 38.9783C4.58416 33.3768 4.60232 27.7718 4.56963 22.1704C4.56236 20.9103 5.07817 20.0811 6.14975 19.4692C15.7394 13.9656 25.3328 8.46913 34.8934 2.91477C36.3318 2.07836 37.5197 2.10733 38.9508 2.94374C48.457 8.47637 57.9995 13.9547 67.5456 19.4149C68.7261 20.092 69.2347 20.9864 69.2347 22.3261C69.2165 33.2755 69.1983 44.2212 69.2492 55.1706C69.2565 56.8869 68.6753 57.9514 67.1605 58.8132C57.5926 64.2481 48.0683 69.7481 38.544 75.259C37.3962 75.9216 36.3791 75.9289 35.2457 75.2735C25.5507 69.6721 15.8448 64.0851 6.13159 58.5054C5.05638 57.8899 4.55873 57.0462 4.566 55.7898C4.59869 50.1884 4.58053 44.5833 4.58053 38.9819L4.58416 38.9783ZM16.9018 22.7425V53.5087C23.0915 48.3526 29.1795 43.2834 35.3438 38.1491C29.1941 33.0111 23.1097 27.9275 16.9018 22.7425ZM22.9898 53.487C23.3349 53.5304 23.5383 53.5811 23.7417 53.5775C25.3182 53.5702 26.902 53.6282 28.4676 53.5087C29.165 53.4544 29.9678 53.2045 30.4981 52.7664C37.3526 47.107 44.1671 41.3934 50.9925 35.7014C52.4236 34.5065 53.8694 33.3262 55.4785 32.0045V53.4688H59.4415V22.9959C47.2764 33.1705 35.1985 43.2762 22.9898 53.487Z" fill="white"/>
<path d="M114.746 30.4475C112.661 30.4475 110.801 30.4837 108.948 30.4076C108.687 30.3968 108.345 29.8826 108.215 29.535C107.125 26.6311 104.982 25.0597 101.981 24.56C96.6997 23.6801 92.7839 27.4856 92.6713 32.4607C92.5732 36.7731 92.5768 41.0927 92.7112 45.4051C92.8166 48.7798 95.4247 51.5352 98.7447 52.1544C101.284 52.6287 103.718 52.4404 105.901 50.9378C107.869 49.5836 108.712 47.5595 109.068 45.2857C109.086 45.1734 109.108 45.0648 109.137 44.8946H115C114.731 46.1836 114.608 47.4907 114.179 48.6892C112.446 53.5194 109.057 56.4595 103.928 57.3213C100.02 57.9767 96.2819 57.5349 92.8202 55.5399C89.442 53.5918 87.4768 50.5974 87.0882 46.7811C86.7722 43.6671 86.8521 40.5134 86.8012 37.3741C86.7722 35.5456 86.7395 33.7098 86.8775 31.8886C87.2843 26.5804 89.6672 22.4672 94.7236 20.3852C101.923 17.4197 110.165 20.0122 113.427 26.9099C113.943 27.9998 114.273 29.1729 114.742 30.4439L114.746 30.4475Z" fill="white"/>
<path d="M2.48823 37.577C2.48823 42.3493 2.48823 47.1179 2.48823 51.8902C2.48823 52.2016 2.49913 52.5238 2.43375 52.828C2.29208 53.4616 1.88888 53.8092 1.21324 53.7984C0.573928 53.7875 0.20705 53.4291 0.0581193 52.8497C-0.00363246 52.6071 0.00363246 52.3392 0.00363246 52.0857C0 42.4833 0 32.8844 0 23.2856C0 22.9742 0 22.652 0.0726492 22.3514C0.22158 21.7431 0.686535 21.3666 1.2641 21.5042C1.68546 21.6055 2.10319 21.9857 2.37926 22.3514C2.55362 22.5795 2.48097 23.0104 2.48097 23.3508C2.4846 28.0941 2.48097 32.8374 2.48097 37.577H2.48823Z" fill="white"/>
<path d="M69.5034 16.2357C69.4889 17.3002 68.49 17.742 67.422 17.1337C65.1881 15.8628 62.965 14.5701 60.7383 13.2884C54.5232 9.71459 48.308 6.14807 42.1002 2.56344C41.7442 2.35706 41.2974 2.05653 41.2066 1.71617C41.1012 1.3215 41.2284 0.753026 41.4681 0.409047C41.8459 -0.123215 42.4416 -0.0833861 43.0083 0.242489C45.2604 1.54237 47.5162 2.83138 49.7683 4.12764C55.958 7.68692 62.1477 11.2426 68.3338 14.8055C68.8932 15.1277 69.547 15.4065 69.5034 16.2357Z" fill="white"/>
<path d="M69.5143 62.1588C69.3073 62.3652 68.9913 62.8432 68.5481 63.1002C63.3864 66.1019 58.2065 69.071 53.0339 72.0509C49.7901 73.9193 46.5572 75.7985 43.3025 77.6488C42.9284 77.8624 42.398 78.0833 42.0457 77.971C41.6607 77.8515 41.1594 77.3518 41.1485 77.0042C41.134 76.5697 41.4572 75.9361 41.8314 75.7116C44.4431 74.1221 47.0984 72.6086 49.7465 71.0842C55.5911 67.7241 61.4394 64.3675 67.2877 61.0146C67.5092 60.8879 67.7344 60.7503 67.9742 60.6815C68.7552 60.457 69.4962 61.0183 69.518 62.1624L69.5143 62.1588Z" fill="white"/>
<path d="M101.164 41.9112V36.9724H114.858V41.9112H101.164Z" fill="white"/>
<path d="M16.9019 22.7424C23.1061 27.9275 29.1905 33.0111 35.3438 38.1491C29.1796 43.2834 23.0916 48.3526 16.9019 53.5087V22.7424Z" fill="#060707"/>
<path d="M22.9898 53.4869C35.1985 43.2761 47.2764 33.1704 59.4415 22.9958V53.4652H55.4785V32.0009C53.873 33.3225 52.4273 34.5029 50.9924 35.6977C44.167 41.3933 37.3525 47.1034 30.4981 52.7627C29.9714 53.1972 29.165 53.4507 28.4676 53.505C26.8983 53.6245 25.3182 53.5702 23.7417 53.5738C23.5383 53.5738 23.3349 53.5267 22.9898 53.4833V53.4869Z" fill="#060707"/>
<path d="M32.2599 38.2903L18.5619 27.073V49.5113L32.2599 38.2903Z" fill="white"/>
<path d="M81.2072 24.9583C81.2072 23.0346 79.6427 21.4751 77.7128 21.4751C75.7829 21.4751 74.2184 23.0346 74.2184 24.9583V50.7097C74.2184 52.6335 75.7829 54.193 77.7128 54.193C79.6427 54.193 81.2072 52.6335 81.2072 50.7097V24.9583Z" fill="#474747"/>
<path d="M77.4695 54.1857C77.1353 54.1604 76.5904 54.0771 76.0201 53.7585C75.1628 53.2805 74.7524 52.5672 74.5925 52.2812C73.9605 51.1406 74.2293 50.2318 74.2366 47.5488C74.2366 46.5603 74.2148 45.5682 74.2184 44.5797C74.2184 43.2726 74.222 41.3644 74.2184 38.9964C74.8613 38.9095 76.2344 38.8153 77.7128 39.4924C80.31 40.6837 81.091 43.2726 81.2109 43.689C81.2399 44.9454 81.2363 45.9665 81.229 46.6798C81.2145 48.2657 81.1746 48.1534 81.1891 49.0768C81.2145 50.4599 81.3053 50.6989 81.1564 51.318C81.0692 51.6838 80.8585 52.5129 80.1575 53.1973C79.144 54.1858 77.8073 54.1966 77.4695 54.1894V54.1857Z" fill="white"/>
<path d="M77.9453 21.4753C78.2795 21.5006 78.8243 21.5839 79.3946 21.9025C80.2519 22.3805 80.6624 23.0938 80.8222 23.3798C81.4542 24.5204 81.1854 25.4292 81.1782 28.1122C81.1782 29.1007 81.2 30.0928 81.1963 31.0813C81.1963 32.3884 81.1927 34.2966 81.1963 36.6646C80.5534 36.7515 79.1803 36.8457 77.7019 36.1686C75.1047 34.9773 74.3237 32.3884 74.2038 31.972C74.1748 30.7156 74.1784 29.6945 74.1857 28.9812C74.2002 27.3953 74.2402 27.5076 74.2256 26.5842C74.2002 25.2011 74.1094 24.9621 74.2583 24.343C74.3455 23.9772 74.5562 23.1481 75.2573 22.4637C76.2707 21.4753 77.6075 21.4644 77.9453 21.4716V21.4753Z" fill="white"/>
</g>
<defs>
<clipPath id="clip0_2016_875">
<rect width="115" height="78" fill="white"/>
</clipPath>
</defs>
</svg>
