<svg width="60" height="41" viewBox="0 0 60 41" fill="none" xmlns="http://www.w3.org/2000/svg">
<g clip-path="url(#clip0_712_473)">
<path d="M2.39173 20.315C2.39173 17.3961 2.40121 14.4754 2.38415 11.5565C2.38036 10.8999 2.64948 10.4678 3.20856 10.149C8.21188 7.28103 13.2171 4.41689 18.2052 1.52256C18.9557 1.08671 19.5755 1.10181 20.3222 1.53766C25.2819 4.42067 30.2606 7.27537 35.2412 10.1206C35.8571 10.4735 36.1224 10.9395 36.1224 11.6376C36.1129 17.3433 36.1035 23.047 36.13 28.7527C36.1338 29.647 35.8306 30.2017 35.0403 30.6508C30.0483 33.4828 25.0791 36.3489 20.1099 39.2206C19.511 39.5658 18.9804 39.5696 18.3891 39.2281C13.3308 36.3092 8.26684 33.3979 3.19909 30.4904C2.63811 30.1696 2.37847 29.73 2.38226 29.0753C2.39932 26.1564 2.38984 23.2357 2.38984 20.3168L2.39173 20.315ZM8.81834 11.8546L8.81834 27.8866C12.0478 25.1998 15.2241 22.5583 18.4402 19.8829C15.2317 17.2055 12.0572 14.5565 8.81834 11.8546ZM11.9947 27.8753C12.1747 27.898 12.2809 27.9244 12.387 27.9225C13.2095 27.9187 14.0358 27.9489 14.8526 27.8866C15.2165 27.8583 15.6354 27.7281 15.9121 27.4998C19.4883 24.5508 23.0437 21.5734 26.6048 18.6074C27.3515 17.9848 28.1057 17.3697 28.9453 16.681L28.9453 27.8659L31.013 27.8659L31.013 11.9867C24.666 17.2886 18.3644 22.5546 11.9947 27.8753Z" fill="#5D399B"/>
<path d="M59.8673 15.8669C58.7795 15.8669 57.8091 15.8858 56.8426 15.8462C56.7061 15.8405 56.528 15.5726 56.4597 15.3914C55.8912 13.8782 54.773 13.0594 53.2076 12.799C50.452 12.3405 48.4089 14.3235 48.3502 16.916C48.299 19.1631 48.3009 21.4141 48.371 23.6612C48.426 25.4197 49.7868 26.8556 51.519 27.1782C52.8437 27.4254 54.1135 27.3273 55.2525 26.5442C56.2797 25.8386 56.7194 24.7839 56.9051 23.599C56.9146 23.5405 56.926 23.4839 56.9411 23.3952L60 23.3952C59.8597 24.0669 59.7953 24.748 59.5717 25.3726C58.6676 27.8895 56.8994 29.4216 54.2234 29.8706C52.1842 30.2122 50.234 29.982 48.4279 28.9424C46.6654 27.9273 45.6401 26.3669 45.4373 24.3782C45.2724 22.7556 45.3141 21.1122 45.2876 19.4763C45.2724 18.5235 45.2553 17.5669 45.3274 16.6179C45.5396 13.8518 46.7829 11.7084 49.421 10.6235C53.1773 9.07826 57.4775 10.4292 59.1793 14.0235C59.4485 14.5915 59.6209 15.2028 59.8654 15.865L59.8673 15.8669Z" fill="#5D399B"/>
<path d="M1.29821 19.5894C1.29821 22.0762 1.29821 24.5611 1.29821 27.0479C1.29821 27.2102 1.30389 27.3781 1.26978 27.5366C1.19587 27.8668 0.985502 28.0479 0.632995 28.0422C0.299441 28.0366 0.108026 27.8498 0.0303231 27.5479C-0.0018952 27.4215 0.00189519 27.2819 0.00189519 27.1498C-1.85477e-09 22.146 -1.00728e-09 17.1442 -1.59787e-10 12.1423C-1.32294e-10 11.98 -1.03842e-10 11.8121 0.0379039 11.6555C0.115607 11.3385 0.358192 11.1423 0.659528 11.214C0.879371 11.2668 1.09732 11.4649 1.24135 11.6555C1.33232 11.7744 1.29442 11.9989 1.29442 12.1762C1.29631 14.6479 1.29442 17.1196 1.29442 19.5894L1.29821 19.5894Z" fill="#5D399B"/>
<path d="M36.2627 8.45915C36.2551 9.01387 35.734 9.24405 35.1768 8.92707C34.0112 8.26481 32.8514 7.59123 31.6896 6.92331C28.4469 5.06105 25.2042 3.20256 21.9654 1.33464C21.7796 1.2271 21.5465 1.07049 21.4991 0.893136C21.4442 0.687476 21.5105 0.391251 21.6356 0.212006C21.8327 -0.0653515 22.1435 -0.0445968 22.4392 0.125214C23.6142 0.80257 24.7911 1.47427 25.9661 2.14974C29.1955 4.00445 32.4249 5.85727 35.6525 7.71387C35.9443 7.88179 36.2855 8.02708 36.2627 8.45915Z" fill="#5D399B"/>
<path d="M36.2684 32.3928C36.1603 32.5004 35.9955 32.7495 35.7642 32.8834C33.0712 34.4476 30.3686 35.9947 27.6699 37.5476C25.9775 38.5211 24.2907 39.5004 22.5926 40.4645C22.3974 40.5758 22.1207 40.6909 21.9369 40.6324C21.736 40.5702 21.4745 40.3098 21.4688 40.1287C21.4612 39.9023 21.6299 39.5721 21.8251 39.4551C23.1877 38.6268 24.5731 37.8381 25.9547 37.0438C29.0041 35.2928 32.0553 33.5438 35.1066 31.7966C35.2222 31.7306 35.3397 31.6589 35.4648 31.623C35.8723 31.5061 36.2589 31.7985 36.2703 32.3947L36.2684 32.3928Z" fill="#5D399B"/>
<path d="M52.7812 21.8431C52.7812 20.4218 53.9334 19.2695 55.3547 19.2695L58.6393 19.2695C59.3499 19.2695 59.926 19.8456 59.926 20.5563C59.926 21.267 59.3499 21.8431 58.6393 21.8431L52.7812 21.8431Z" fill="#5D399B"/>
<path d="M8.81833 11.8555C12.0553 14.5573 15.2298 17.2064 18.4402 19.8837C15.2241 22.5592 12.0477 25.2007 8.81833 27.8875L8.81833 11.8555Z" fill="white"/>
<path d="M11.9947 27.873C18.3644 22.5523 24.666 17.2862 31.013 11.9844L31.013 27.8617L28.9453 27.8617L28.9453 16.6768C28.1076 17.3655 27.3534 17.9806 26.6048 18.6032C23.0437 21.5711 19.4883 24.5466 15.9121 27.4956C15.6373 27.7221 15.2165 27.8541 14.8526 27.8824C14.0339 27.9447 13.2095 27.9164 12.387 27.9183C12.2809 27.9183 12.1747 27.8938 11.9947 27.8711L11.9947 27.873Z" fill="white"/>
<path d="M16.8312 19.9585L9.68445 14.1133L9.68445 25.8057L16.8312 19.9585Z" fill="#5D399B"/>
<path d="M42.369 13.0143C42.369 12.0119 41.5527 11.1992 40.5458 11.1992C39.5389 11.1992 38.7226 12.0119 38.7226 13.0143L38.7226 26.4331C38.7226 27.4356 39.5389 28.2482 40.5458 28.2482C41.5527 28.2482 42.369 27.4356 42.369 26.4331L42.369 13.0143Z" fill="#5D399B" fill-opacity="0.5"/>
<path d="M40.4188 28.2396C40.2445 28.2264 39.9602 28.183 39.6626 28.017C39.2154 27.7679 39.0012 27.3962 38.9178 27.2471C38.5881 26.6528 38.7283 26.1792 38.7321 24.7811C38.7321 24.266 38.7207 23.749 38.7226 23.234C38.7226 22.5528 38.7245 21.5585 38.7226 20.3245C39.0581 20.2792 39.7745 20.2302 40.5458 20.583C41.9009 21.2038 42.3083 22.5528 42.3709 22.7698C42.386 23.4245 42.3841 23.9566 42.3804 24.3283C42.3728 25.1547 42.3519 25.0962 42.3595 25.5773C42.3728 26.2981 42.4202 26.4226 42.3425 26.7453C42.297 26.9358 42.187 27.3679 41.8213 27.7245C41.2925 28.2396 40.5951 28.2453 40.4188 28.2415L40.4188 28.2396Z" fill="#5D399B"/>
<path d="M40.6671 11.1938C40.8415 11.207 41.1257 11.2504 41.4233 11.4164C41.8706 11.6655 42.0847 12.0372 42.1681 12.1862C42.4979 12.7806 42.3576 13.2541 42.3538 14.6523C42.3538 15.1673 42.3652 15.6843 42.3633 16.1994C42.3633 16.8806 42.3614 17.8749 42.3633 19.1088C42.0279 19.1541 41.3115 19.2032 40.5401 18.8504C39.1851 18.2296 38.7776 16.8806 38.7151 16.6636C38.6999 16.0089 38.7018 15.4768 38.7056 15.1051C38.7132 14.2787 38.734 14.3372 38.7264 13.856C38.7132 13.1353 38.6658 13.0108 38.7435 12.6881C38.789 12.4975 38.8989 12.0655 39.2647 11.7089C39.7934 11.1938 40.4909 11.1881 40.6671 11.1919L40.6671 11.1938Z" fill="#5D399B"/>
</g>
<defs>
<clipPath id="clip0_712_473">
<rect width="60" height="40.6452" fill="white"/>
</clipPath>
</defs>
</svg>
