<svg width="32" height="32" viewBox="0 0 32 32" fill="none" xmlns="http://www.w3.org/2000/svg">
<rect width="32" height="32" rx="16" fill="url(#paint0_linear_2051_4814)"/>
<rect width="32" height="32" rx="16" fill="url(#paint1_radial_2051_4814)"/>
<path d="M25.1023 11.9142L25.1026 11.933L25.1037 11.9519C25.1642 12.984 25.1644 13.3029 25.1667 16.0123L25.1667 16.0155C25.1667 16.0158 25.1667 16.016 25.1667 16.0162C25.1667 18.7183 25.1523 19.0427 25.1053 20.0918L25.1048 20.1021L25.1046 20.1123C25.0899 20.8473 24.9517 21.5704 24.6941 22.2561C24.4785 22.8092 24.1501 23.3116 23.7296 23.7314C23.3091 24.1512 22.8058 24.4792 22.2515 24.6946C21.5641 24.9516 20.838 25.0903 20.104 25.1047L20.0878 25.1051L20.0717 25.106C19.0398 25.1664 18.7174 25.1667 16 25.1667C13.2939 25.1667 12.9689 25.1523 11.9167 25.1054L11.9167 25.1053L11.907 25.105C11.1701 25.0808 10.4428 24.9313 9.75642 24.6629L9.75326 24.6616C9.19716 24.4468 8.69216 24.1185 8.2705 23.6978C7.84992 23.2783 7.52148 22.776 7.30595 22.2231C7.04829 21.536 6.9101 20.8127 6.89536 20.0791L6.89504 20.063L6.8941 20.047C6.83359 19.0158 6.83333 18.6951 6.83333 15.9823C6.83333 13.2807 6.84772 12.9563 6.8947 11.906L6.89518 11.8952L6.89538 11.8845C6.90924 11.1528 7.04806 10.4289 7.30589 9.74377C7.52103 9.19048 7.84928 8.68787 8.26983 8.26802C8.6903 7.84824 9.1938 7.52042 9.7483 7.30548C10.4357 7.04839 11.1617 6.9093 11.8957 6.89414L11.911 6.89382L11.9263 6.89294C12.9587 6.83358 13.2816 6.83333 15.9989 6.83333C18.7057 6.83333 19.0304 6.84661 20.081 6.89349L20.0911 6.89393L20.1011 6.89414C20.8353 6.90919 21.5617 7.04827 22.2494 7.30544C22.8038 7.52055 23.3072 7.84846 23.7277 8.26824L24.3045 7.69051L23.7277 8.26824C24.1483 8.68815 24.4767 9.19078 24.692 9.7441C24.9536 10.4383 25.0924 11.1726 25.1023 11.9142Z" stroke="white" stroke-width="1.66667"/>
<path d="M20.9386 11.7372C21.0904 11.7999 21.2531 11.8322 21.4173 11.832C22.1076 11.832 22.6667 11.273 22.6667 10.5817C22.6667 10.4176 22.6344 10.2551 22.5716 10.1035C22.5088 9.95188 22.4167 9.81411 22.3006 9.69806C22.1846 9.58202 22.0468 9.48996 21.8951 9.42716C21.7434 9.36436 21.5809 9.33203 21.4167 9.33203C21.2526 9.33203 21.0901 9.36436 20.9384 9.42716C20.7867 9.48996 20.6489 9.58202 20.5329 9.69806C20.4168 9.81411 20.3247 9.95188 20.2619 10.1035C20.1991 10.2551 20.1667 10.4176 20.1667 10.5817C20.1666 10.746 20.1988 10.9086 20.2616 11.0604C20.3244 11.2121 20.4165 11.35 20.5327 11.4662C20.6489 11.5823 20.7868 11.6744 20.9386 11.7372Z" fill="white"/>
<path d="M16.0001 20.2508C18.3208 20.2508 20.1667 18.3278 20.1667 15.9998C20.1667 13.6717 18.3208 11.7487 16.0001 11.7487C13.6794 11.7487 11.8334 13.6717 11.8334 15.9998C11.8334 18.3278 13.6794 20.2508 16.0001 20.2508Z" stroke="white" stroke-width="1.66667"/>
<defs>
<linearGradient id="paint0_linear_2051_4814" x1="8.5" y1="-2.5" x2="32" y2="16.5" gradientUnits="userSpaceOnUse">
<stop stop-color="#0017FF"/>
<stop offset="1" stop-color="#FF00A9"/>
</linearGradient>
<radialGradient id="paint1_radial_2051_4814" cx="0" cy="0" r="1" gradientUnits="userSpaceOnUse" gradientTransform="translate(7 29) rotate(-49.4972) scale(31.5634)">
<stop stop-color="#FFB300"/>
<stop offset="0.37" stop-color="#FF9D2B" stop-opacity="0.63"/>
<stop offset="1" stop-color="#FED575" stop-opacity="0"/>
</radialGradient>
</defs>
</svg>
