<svg width="32" height="32" viewBox="0 0 32 32" fill="none" xmlns="http://www.w3.org/2000/svg">
<g clip-path="url(#clip0_572_6204)">
<path d="M31.36 16.353C31.3789 15.2531 31.2654 14.1549 31.0219 13.082H16V19.0197H24.8177C24.6506 20.0608 24.2747 21.0574 23.7126 21.9495C23.1505 22.8415 22.4137 23.6107 21.5467 24.2107L21.5159 24.4096L26.2658 28.0891L26.5947 28.122C29.6168 25.3309 31.3594 21.224 31.3594 16.353" fill="#4285F4"/>
<path d="M16.0001 31.9997C20.32 31.9997 23.9466 30.5774 26.5958 28.1241L21.5468 24.2127C20.1958 25.1552 18.3824 25.8131 16.0001 25.8131C13.9768 25.8012 12.0086 25.1525 10.3748 23.9591C8.74095 22.7656 7.52442 21.0879 6.8978 19.1641L6.71028 19.18L1.77134 23.0022L1.70679 23.1817C3.03697 25.8328 5.07835 28.0615 7.60267 29.6188C10.127 31.176 13.0347 32.0004 16.0007 31.9997" fill="#34A853"/>
<path d="M6.89762 19.1627C6.54765 18.1443 6.36707 17.0753 6.36306 15.9984C6.3695 14.9232 6.54342 13.8556 6.87856 12.834L6.86965 12.6219L1.87014 8.73828L1.70661 8.81605C0.584492 11.0439 0 13.5037 0 15.9982C0 18.4927 0.584492 20.9525 1.70661 23.1804L6.89762 19.1627Z" fill="#FBBC05"/>
<path d="M16 6.18778C18.2927 6.15218 20.51 7.00602 22.1867 8.5701L26.7023 4.16111C23.8061 1.44413 19.9709 -0.0466449 16 0.00111302C13.034 0.00040734 10.1263 0.824744 7.60199 2.38195C5.07768 3.93915 3.03628 6.16783 1.70605 8.81879L6.87985 12.8368C7.51264 10.9133 8.73321 9.23687 10.3695 8.04397C12.0057 6.85107 13.9751 6.20183 16 6.18778Z" fill="#EB4335"/>
</g>
<defs>
<clipPath id="clip0_572_6204">
<rect width="31.36" height="32" fill="white"/>
</clipPath>
</defs>
</svg>
