<svg width="15" height="8" viewBox="0 0 15 8" fill="none" xmlns="http://www.w3.org/2000/svg">
<path d="M8.93027 2.18908L3.68027 7.34533C3.54879 7.47452 3.37183 7.5469 3.1875 7.5469C3.00317 7.5469 2.82621 7.47452 2.69473 7.34533L0.444726 5.13576C0.378822 5.07105 0.326308 4.99399 0.290185 4.90898C0.254061 4.82398 0.235034 4.73269 0.234191 4.64033C0.232488 4.4538 0.304952 4.27423 0.435644 4.14113C0.500356 4.07523 0.577415 4.02271 0.662422 3.98659C0.747428 3.95047 0.838718 3.93144 0.931078 3.9306C1.11761 3.92889 1.29717 4.00136 1.43027 4.13205L3.18809 5.85822L7.94531 1.18596C8.07833 1.05527 8.25783 0.982769 8.4443 0.984418C8.63077 0.986066 8.80896 1.06172 8.93965 1.19475C9.07034 1.32777 9.14283 1.50726 9.14119 1.69373C9.13954 1.88021 9.06388 2.05839 8.93086 2.18908H8.93027ZM14.5641 1.19299C14.4993 1.12686 14.4222 1.07416 14.337 1.03792C14.2519 1.00167 14.1604 0.982594 14.0678 0.981778C13.9753 0.980961 13.8835 0.998422 13.7977 1.03316C13.7119 1.06789 13.6339 1.11922 13.568 1.1842L8.8125 5.85822L8.35078 5.40471C8.21776 5.27402 8.03827 5.20152 7.85179 5.20317C7.66532 5.20482 7.48714 5.28047 7.35645 5.4135C7.22575 5.54652 7.15326 5.72601 7.15491 5.91248C7.15655 6.09896 7.23221 6.27714 7.36523 6.40783L8.31973 7.34533C8.45121 7.47452 8.62817 7.5469 8.8125 7.5469C8.99683 7.5469 9.17379 7.47452 9.30527 7.34533L14.5553 2.18908C14.6211 2.12437 14.6736 2.04732 14.7097 1.96233C14.7458 1.87734 14.7648 1.78607 14.7656 1.69373C14.7664 1.6014 14.749 1.50981 14.7145 1.4242C14.6799 1.33858 14.6288 1.26061 14.5641 1.19475V1.19299Z" fill="#40C17A"/>
</svg>
