<svg width="32" height="32" viewBox="0 0 32 32" fill="none" xmlns="http://www.w3.org/2000/svg">
<path d="M17.8699 5.76312L17.8709 5.76375L25.2049 10.6561C25.2054 10.6564 25.2059 10.6567 25.2064 10.6571C25.706 10.9962 26.1144 11.4531 26.3956 11.9874C26.677 12.5224 26.8222 13.1184 26.8184 13.7228L26.8184 13.7254L26.8088 23.1791C26.8067 25.204 25.2243 26.8149 23.3088 26.8149H8.6816C6.76324 26.8149 5.17955 25.1994 5.1816 23.1715L5.1912 13.7138L5.19119 13.7112C5.18864 13.1096 5.33371 12.5166 5.61367 11.9842C5.89336 11.4522 6.29915 10.997 6.79551 10.6582C6.79601 10.6579 6.79651 10.6575 6.797 10.6572L14.0839 5.76866L14.0848 5.76805C14.6452 5.39038 15.3056 5.18827 15.9814 5.1875C16.654 5.18823 17.3111 5.38854 17.8699 5.76312Z" stroke="#343E4D" stroke-opacity="0.5"/>
<path d="M12.5602 21.9883H19.4219" stroke="#343E4D" stroke-opacity="0.5" stroke-linecap="round" stroke-linejoin="round"/>
</svg>
