<svg width="16" height="17" viewBox="0 0 16 17" fill="none" xmlns="http://www.w3.org/2000/svg">
<path d="M6.72833 1.38548L6.72743 1.38609L1.57638 4.84318C1.24555 5.06919 0.975064 5.37284 0.788596 5.72763C0.60185 6.08294 0.50508 6.47868 0.506782 6.88014L0.506794 6.88276L0.500001 13.5703C0.498634 14.9283 1.55725 16 2.82725 16H13.1659C14.4341 16 15.4918 14.9314 15.4932 13.5754L15.4999 6.89066L15.4999 6.88802C15.5025 6.48468 15.4056 6.08693 15.2179 5.72999C15.0304 5.37356 14.7582 5.0688 14.4252 4.84257L6.72833 1.38548ZM6.72833 1.38548C7.10016 1.13476 7.5384 1.00058 7.98686 1.00003L6.72833 1.38548Z" stroke="black"/>
</svg>
