<svg width="22" height="20" viewBox="0 0 22 20" fill="none" xmlns="http://www.w3.org/2000/svg">
<path d="M15.5625 4.59375L13.1719 3.46875L15.5625 2.39062L16.6875 0L17.7656 2.39062L20.1562 3.46875L17.7656 4.59375L16.6875 6.98438L15.5625 4.59375ZM19.4531 10.6875L18.6562 9L17.9062 10.6875L16.1719 11.4844L17.9062 12.2812L18.6562 13.9688L19.4531 12.2812L21.1875 11.4844L19.4531 10.6875ZM14.3906 12.375L16.3594 13.8281L13.875 18.1406L11.625 17.2031C11.4062 17.3594 11.1875 17.4844 10.9688 17.5781L10.6875 19.9688H5.67188L5.39062 17.5781C5.14062 17.4531 4.92188 17.3281 4.73438 17.2031L2.48438 18.1406L0 13.8281L1.92188 12.3281C1.92188 12.2969 1.92188 12.25 1.92188 12.1875C1.92188 12.125 1.92188 12.0625 1.92188 12C1.92188 11.9375 1.92188 11.875 1.92188 11.8125C1.92188 11.75 1.92188 11.6875 1.92188 11.625L0 10.125L2.48438 5.8125L4.73438 6.75C4.95312 6.59375 5.17188 6.46875 5.39062 6.375L5.67188 3.98438H10.6875L10.9688 6.375C11.1875 6.5 11.4062 6.625 11.625 6.75L13.875 5.8125L16.3594 10.1719L14.3906 11.625C14.4219 11.6875 14.4375 11.75 14.4375 11.8125C14.4375 11.875 14.4375 11.9375 14.4375 12C14.4375 12.0625 14.4375 12.125 14.4375 12.1875C14.4375 12.25 14.4219 12.3125 14.3906 12.375ZM11.1562 12C11.1562 11.4375 11.0234 10.9297 10.7578 10.4766C10.4922 10.0234 10.1328 9.66406 9.67969 9.39844C9.22656 9.13281 8.71875 9 8.15625 9C7.625 9 7.13281 9.13281 6.67969 9.39844C6.22656 9.66406 5.85938 10.0234 5.57812 10.4766C5.29688 10.9297 5.15625 11.4375 5.15625 12C5.15625 12.5312 5.29688 13.0234 5.57812 13.4766C5.85938 13.9297 6.22656 14.2969 6.67969 14.5781C7.13281 14.8594 7.625 15 8.15625 15C8.71875 15 9.22656 14.8594 9.67969 14.5781C10.1328 14.2969 10.4922 13.9297 10.7578 13.4766C11.0234 13.0234 11.1562 12.5312 11.1562 12Z" fill="#8B5CF6"/>
</svg>
