<svg width="24" height="24" viewBox="0 0 24 24" fill="none" xmlns="http://www.w3.org/2000/svg">
<path fill-rule="evenodd" clip-rule="evenodd" d="M11.4561 2.2253C11.7565 1.9249 12.2435 1.9249 12.5439 2.2253L17.6721 7.35351C17.9725 7.65391 17.9725 8.14096 17.6721 8.44136C17.3717 8.74177 16.8847 8.74177 16.5843 8.44136L12.7692 4.62632V15.0769C12.7692 15.5018 12.4248 15.8462 12 15.8462C11.5752 15.8462 11.2308 15.5018 11.2308 15.0769V4.62632L7.41572 8.44136C7.11532 8.74177 6.62827 8.74177 6.32787 8.44136C6.02746 8.14096 6.02746 7.65391 6.32787 7.35351L11.4561 2.2253ZM2.76923 14.3077C3.19407 14.3077 3.53846 14.6521 3.53846 15.0769V19.1795C3.53846 19.5195 3.67353 19.8456 3.91397 20.086C4.1544 20.3265 4.48049 20.4615 4.82051 20.4615H19.1795C19.5195 20.4615 19.8456 20.3265 20.086 20.086C20.3265 19.8456 20.4615 19.5195 20.4615 19.1795V15.0769C20.4615 14.6521 20.8059 14.3077 21.2308 14.3077C21.6556 14.3077 22 14.6521 22 15.0769V19.1795C22 19.9275 21.7028 20.6449 21.1739 21.1739C20.6449 21.7028 19.9275 22 19.1795 22H4.82051C4.07247 22 3.35506 21.7028 2.82611 21.1739C2.29716 20.6449 2 19.9275 2 19.1795V15.0769C2 14.6521 2.3444 14.3077 2.76923 14.3077Z" fill="#1E1E1E"/>
</svg>
