<svg width="16" height="16" viewBox="0 0 16 16" fill="none" xmlns="http://www.w3.org/2000/svg">
<mask id="path-1-inside-1_569_5656" fill="white">
<path d="M7.99953 1.28125C5.53553 1.28125 3.51953 3.26525 3.51953 5.71325C3.51953 10.9293 7.61553 14.4973 7.79153 14.6573C7.90353 14.7533 8.09553 14.7533 8.20753 14.6573C8.38353 14.4973 12.4795 10.9133 12.4795 5.71325C12.4795 3.26525 10.4635 1.28125 7.99953 1.28125ZM7.99953 13.9693C7.16753 13.1693 4.15953 9.96925 4.15953 5.71325C4.15953 3.61725 5.88753 1.92125 7.99953 1.92125C10.1115 1.92125 11.8395 3.61725 11.8395 5.71325C11.8395 9.96925 8.83153 13.1693 7.99953 13.9693ZM7.99953 3.20125C6.59153 3.20125 5.43953 4.35325 5.43953 5.76125C5.43953 7.16925 6.59153 8.32125 7.99953 8.32125C9.40753 8.32125 10.5595 7.16925 10.5595 5.76125C10.5595 4.35325 9.40753 3.20125 7.99953 3.20125ZM7.99953 7.68125C6.94353 7.68125 6.07953 6.81725 6.07953 5.76125C6.07953 4.70525 6.94353 3.84125 7.99953 3.84125C9.05553 3.84125 9.91953 4.70525 9.91953 5.76125C9.91953 6.81725 9.05553 7.68125 7.99953 7.68125Z"/>
</mask>
<path d="M7.99953 1.28125C5.53553 1.28125 3.51953 3.26525 3.51953 5.71325C3.51953 10.9293 7.61553 14.4973 7.79153 14.6573C7.90353 14.7533 8.09553 14.7533 8.20753 14.6573C8.38353 14.4973 12.4795 10.9133 12.4795 5.71325C12.4795 3.26525 10.4635 1.28125 7.99953 1.28125ZM7.99953 13.9693C7.16753 13.1693 4.15953 9.96925 4.15953 5.71325C4.15953 3.61725 5.88753 1.92125 7.99953 1.92125C10.1115 1.92125 11.8395 3.61725 11.8395 5.71325C11.8395 9.96925 8.83153 13.1693 7.99953 13.9693ZM7.99953 3.20125C6.59153 3.20125 5.43953 4.35325 5.43953 5.76125C5.43953 7.16925 6.59153 8.32125 7.99953 8.32125C9.40753 8.32125 10.5595 7.16925 10.5595 5.76125C10.5595 4.35325 9.40753 3.20125 7.99953 3.20125ZM7.99953 7.68125C6.94353 7.68125 6.07953 6.81725 6.07953 5.76125C6.07953 4.70525 6.94353 3.84125 7.99953 3.84125C9.05553 3.84125 9.91953 4.70525 9.91953 5.76125C9.91953 6.81725 9.05553 7.68125 7.99953 7.68125Z" fill="black"/>
<path d="M7.79153 14.6573L7.11886 15.3972L7.12966 15.407L7.14074 15.4165L7.79153 14.6573ZM8.20753 14.6573L8.85832 15.4165L8.8694 15.407L8.8802 15.3972L8.20753 14.6573ZM7.99953 13.9693L7.30642 14.6901L7.99953 15.3565L8.69264 14.6901L7.99953 13.9693ZM7.99953 0.28125C4.99497 0.28125 2.51953 2.70132 2.51953 5.71325H4.51953C4.51953 3.82918 6.0761 2.28125 7.99953 2.28125V0.28125ZM2.51953 5.71325C2.51953 8.58534 3.64593 10.9739 4.7583 12.6372C5.31696 13.4725 5.88092 14.1384 6.3183 14.6076C6.53738 14.8426 6.72561 15.0293 6.86674 15.1641C6.93736 15.2315 6.996 15.2858 7.04052 15.3264C7.06329 15.3472 7.13798 15.4146 7.11886 15.3972L8.4642 13.9173C8.27459 13.7449 4.51953 10.4457 4.51953 5.71325H2.51953ZM7.14074 15.4165C7.4074 15.6451 7.72665 15.7293 7.99953 15.7293C8.27241 15.7293 8.59166 15.6451 8.85832 15.4165L7.55674 13.898C7.7114 13.7654 7.87865 13.7293 7.99953 13.7293C8.12041 13.7293 8.28766 13.7654 8.44232 13.898L7.14074 15.4165ZM8.8802 15.3972C8.8748 15.4021 8.9242 15.3577 8.95969 15.3252C9.00427 15.2844 9.06292 15.2299 9.13351 15.1623C9.2746 15.0271 9.46275 14.8399 9.68173 14.6043C10.1189 14.134 10.6826 13.4668 11.2411 12.6307C12.3528 10.9663 13.4795 8.57772 13.4795 5.71325H11.4795C11.4795 10.4303 7.7236 13.7457 7.53486 13.9173L8.8802 15.3972ZM13.4795 5.71325C13.4795 2.70132 11.0041 0.28125 7.99953 0.28125V2.28125C9.92297 2.28125 11.4795 3.82918 11.4795 5.71325H13.4795ZM8.69264 13.2484C7.89206 12.4786 5.15953 9.53192 5.15953 5.71325H3.15953C3.15953 10.4066 6.443 13.8599 7.30642 14.6901L8.69264 13.2484ZM5.15953 5.71325C5.15953 4.18313 6.42612 2.92125 7.99953 2.92125V0.92125C5.34894 0.92125 3.15953 3.05137 3.15953 5.71325H5.15953ZM7.99953 2.92125C9.57294 2.92125 10.8395 4.18313 10.8395 5.71325H12.8395C12.8395 3.05137 10.6501 0.92125 7.99953 0.92125V2.92125ZM10.8395 5.71325C10.8395 9.53192 8.107 12.4786 7.30642 13.2484L8.69264 14.6901C9.55606 13.8599 12.8395 10.4066 12.8395 5.71325H10.8395ZM7.99953 2.20125C6.03925 2.20125 4.43953 3.80097 4.43953 5.76125H6.43953C6.43953 4.90553 7.14382 4.20125 7.99953 4.20125V2.20125ZM4.43953 5.76125C4.43953 7.72154 6.03925 9.32125 7.99953 9.32125V7.32125C7.14382 7.32125 6.43953 6.61697 6.43953 5.76125H4.43953ZM7.99953 9.32125C9.95982 9.32125 11.5595 7.72154 11.5595 5.76125H9.55953C9.55953 6.61697 8.85525 7.32125 7.99953 7.32125V9.32125ZM11.5595 5.76125C11.5595 3.80097 9.95982 2.20125 7.99953 2.20125V4.20125C8.85525 4.20125 9.55953 4.90553 9.55953 5.76125H11.5595ZM7.99953 6.68125C7.49582 6.68125 7.07953 6.26497 7.07953 5.76125H5.07953C5.07953 7.36953 6.39125 8.68125 7.99953 8.68125V6.68125ZM7.07953 5.76125C7.07953 5.25753 7.49582 4.84125 7.99953 4.84125V2.84125C6.39125 2.84125 5.07953 4.15297 5.07953 5.76125H7.07953ZM7.99953 4.84125C8.50325 4.84125 8.91953 5.25753 8.91953 5.76125H10.9195C10.9195 4.15297 9.60782 2.84125 7.99953 2.84125V4.84125ZM8.91953 5.76125C8.91953 6.26497 8.50325 6.68125 7.99953 6.68125V8.68125C9.60782 8.68125 10.9195 7.36953 10.9195 5.76125H8.91953Z" fill="black" mask="url(#path-1-inside-1_569_5656)"/>
</svg>
