<svg width="16" height="16" viewBox="0 0 16 16" fill="none" xmlns="http://www.w3.org/2000/svg">
<path d="M7.66667 11H8.33333V7.33333H7.66667V11ZM8 6.38467C8.11644 6.38467 8.214 6.34533 8.29267 6.26667C8.37133 6.188 8.41044 6.09044 8.41 5.974C8.40956 5.85756 8.37022 5.76022 8.292 5.682C8.21378 5.60378 8.11644 5.56444 8 5.564C7.88356 5.56356 7.78622 5.60289 7.708 5.682C7.62978 5.76111 7.59044 5.85867 7.59 5.97467C7.58956 6.09067 7.62889 6.188 7.708 6.26667C7.78711 6.34533 7.88444 6.38467 8 6.38467ZM8.002 14C7.17222 14 6.39222 13.8427 5.662 13.528C4.93178 13.2129 4.29644 12.7853 3.756 12.2453C3.21556 11.7053 2.78778 11.0707 2.47267 10.3413C2.15756 9.612 2 8.83222 2 8.002C2 7.17178 2.15756 6.39178 2.47267 5.662C2.78733 4.93178 3.21422 4.29644 3.75333 3.756C4.29244 3.21556 4.92733 2.78778 5.658 2.47267C6.38867 2.15756 7.16867 2 7.998 2C8.82733 2 9.60733 2.15756 10.338 2.47267C11.0682 2.78733 11.7036 3.21444 12.244 3.754C12.7844 4.29356 13.2122 4.92844 13.5273 5.65867C13.8424 6.38889 14 7.16867 14 7.998C14 8.82733 13.8427 9.60733 13.528 10.338C13.2133 11.0687 12.7858 11.704 12.2453 12.244C11.7049 12.784 11.0702 13.2118 10.3413 13.5273C9.61244 13.8429 8.83267 14.0004 8.002 14Z" fill="#3C85BA"/>
</svg>
