<svg width="12" height="17" viewBox="0 0 12 17" fill="none" xmlns="http://www.w3.org/2000/svg">
<path d="M6.08344 11.881C6.87908 11.881 7.64215 11.5649 8.20476 11.0023C8.76736 10.4397 9.08344 9.67666 9.08344 8.88101V3.88101C9.08344 3.08536 8.76736 2.3223 8.20476 1.75969C7.64215 1.19708 6.87908 0.881012 6.08344 0.881012C5.28779 0.881012 4.52472 1.19708 3.96211 1.75969C3.39951 2.3223 3.08344 3.08536 3.08344 3.88101V8.88101C3.08344 9.67666 3.39951 10.4397 3.96211 11.0023C4.52472 11.5649 5.28779 11.881 6.08344 11.881ZM6.08344 10.881C5.553 10.881 5.04429 10.6703 4.66922 10.2952C4.29415 9.92015 4.08344 9.41144 4.08344 8.88101V3.88101C4.08344 3.35058 4.29415 2.84187 4.66922 2.4668C5.04429 2.09173 5.553 1.88101 6.08344 1.88101C6.61387 1.88101 7.12258 2.09173 7.49765 2.4668C7.87272 2.84187 8.08344 3.35058 8.08344 3.88101V8.88101C8.08344 9.41144 7.87272 9.92015 7.49765 10.2952C7.12258 10.6703 6.61387 10.881 6.08344 10.881ZM1.08344 8.38101C1.21604 8.38101 1.34322 8.43369 1.43699 8.52746C1.53076 8.62123 1.58344 8.7484 1.58344 8.88101C1.58344 9.47196 1.69983 10.0571 1.92598 10.6031C2.15212 11.1491 2.48359 11.6451 2.90145 12.063C3.31932 12.4809 3.81539 12.8123 4.36136 13.0385C4.90732 13.2646 5.49249 13.381 6.08344 13.381C6.67438 13.381 7.25955 13.2646 7.80551 13.0385C8.35148 12.8123 8.84755 12.4809 9.26542 12.063C9.68328 11.6451 10.0147 11.1491 10.2409 10.6031C10.467 10.0571 10.5834 9.47196 10.5834 8.88101C10.5834 8.7484 10.6361 8.62123 10.7299 8.52746C10.8236 8.43369 10.9508 8.38101 11.0834 8.38101C11.216 8.38101 11.3432 8.43369 11.437 8.52746C11.5308 8.62123 11.5834 8.7484 11.5834 8.88101C11.5836 10.2533 11.0708 11.576 10.1457 12.5896C9.22061 13.6032 7.95002 14.2343 6.58344 14.359V16.381C6.58344 16.5136 6.53076 16.6408 6.43699 16.7346C6.34322 16.8283 6.21604 16.881 6.08344 16.881C5.95083 16.881 5.82365 16.8283 5.72988 16.7346C5.63611 16.6408 5.58344 16.5136 5.58344 16.381V14.359C4.21685 14.2343 2.94627 13.6032 2.02115 12.5896C1.09604 11.576 0.583242 10.2533 0.583435 8.88101C0.583435 8.7484 0.636114 8.62123 0.729882 8.52746C0.82365 8.43369 0.950827 8.38101 1.08344 8.38101Z" fill="#999999"/>
</svg>
