<svg width="63" height="25" viewBox="0 0 63 25" fill="none" xmlns="http://www.w3.org/2000/svg">
<rect y="0.889465" width="24" height="24" rx="12" fill="#F5F5C3"/>
<path d="M12 3.13947C10.0716 3.13947 8.18657 3.71129 6.58319 4.78264C4.97982 5.85398 3.73013 7.37672 2.99218 9.1583C2.25422 10.9399 2.06114 12.9003 2.43735 14.7916C2.81355 16.6829 3.74215 18.4202 5.10571 19.7838C6.46928 21.1473 8.20656 22.0759 10.0979 22.4521C11.9892 22.8283 13.9496 22.6352 15.7312 21.8973C17.5127 21.1593 19.0355 19.9097 20.1068 18.3063C21.1782 16.7029 21.75 14.8178 21.75 12.8895C21.7473 10.3044 20.7192 7.82608 18.8913 5.99819C17.0634 4.1703 14.585 3.1422 12 3.13947ZM6.945 19.4051C7.48757 18.5565 8.23501 17.8582 9.11843 17.3745C10.0019 16.8908 10.9928 16.6373 12 16.6373C13.0072 16.6373 13.9982 16.8908 14.8816 17.3745C15.765 17.8582 16.5124 18.5565 17.055 19.4051C15.6097 20.5291 13.831 21.1394 12 21.1394C10.169 21.1394 8.39032 20.5291 6.945 19.4051ZM9 12.1395C9 11.5461 9.17595 10.9661 9.5056 10.4728C9.83524 9.97941 10.3038 9.59489 10.852 9.36783C11.4001 9.14076 12.0033 9.08135 12.5853 9.19711C13.1672 9.31286 13.7018 9.59859 14.1213 10.0181C14.5409 10.4377 14.8266 10.9723 14.9424 11.5542C15.0581 12.1361 14.9987 12.7393 14.7716 13.2875C14.5446 13.8357 14.1601 14.3042 13.6667 14.6339C13.1734 14.9635 12.5933 15.1395 12 15.1395C11.2044 15.1395 10.4413 14.8234 9.87868 14.2608C9.31607 13.6982 9 12.9351 9 12.1395ZM18.165 18.3654C17.3285 17.1533 16.1524 16.2155 14.7844 15.6701C15.5192 15.0913 16.0554 14.2979 16.3184 13.4003C16.5815 12.5027 16.5582 11.5454 16.252 10.6615C15.9457 9.77772 15.3716 9.0113 14.6096 8.46886C13.8475 7.92643 12.9354 7.63494 12 7.63494C11.0646 7.63494 10.1525 7.92643 9.39044 8.46886C8.62839 9.0113 8.05432 9.77772 7.74805 10.6615C7.44179 11.5454 7.41855 12.5027 7.68157 13.4003C7.94459 14.2979 8.4808 15.0913 9.21563 15.6701C7.84765 16.2155 6.67147 17.1533 5.835 18.3654C4.77804 17.1768 4.0872 15.708 3.84567 14.1359C3.60415 12.5637 3.82224 10.9553 4.47368 9.50424C5.12512 8.05319 6.18213 6.82138 7.51745 5.95716C8.85276 5.09293 10.4094 4.63313 12 4.63313C13.5906 4.63313 15.1473 5.09293 16.4826 5.95716C17.8179 6.82138 18.8749 8.05319 19.5263 9.50424C20.1778 10.9553 20.3959 12.5637 20.1543 14.1359C19.9128 15.708 19.222 17.1768 18.165 18.3654Z" fill="black"/>
<rect x="13" y="0.889465" width="24" height="24" rx="12" fill="#F5F5C3"/>
<path d="M25 3.13947C23.0716 3.13947 21.1866 3.71129 19.5832 4.78264C17.9798 5.85398 16.7301 7.37672 15.9922 9.1583C15.2542 10.9399 15.0611 12.9003 15.4373 14.7916C15.8136 16.6829 16.7422 18.4202 18.1057 19.7838C19.4693 21.1473 21.2066 22.0759 23.0979 22.4521C24.9892 22.8283 26.9496 22.6352 28.7312 21.8973C30.5127 21.1593 32.0355 19.9097 33.1068 18.3063C34.1782 16.7029 34.75 14.8178 34.75 12.8895C34.7473 10.3044 33.7192 7.82608 31.8913 5.99819C30.0634 4.1703 27.585 3.1422 25 3.13947ZM19.945 19.4051C20.4876 18.5565 21.235 17.8582 22.1184 17.3745C23.0019 16.8908 23.9928 16.6373 25 16.6373C26.0072 16.6373 26.9982 16.8908 27.8816 17.3745C28.765 17.8582 29.5124 18.5565 30.055 19.4051C28.6097 20.5291 26.831 21.1394 25 21.1394C23.169 21.1394 21.3903 20.5291 19.945 19.4051ZM22 12.1395C22 11.5461 22.176 10.9661 22.5056 10.4728C22.8352 9.97941 23.3038 9.59489 23.852 9.36783C24.4001 9.14076 25.0033 9.08135 25.5853 9.19711C26.1672 9.31286 26.7018 9.59859 27.1213 10.0181C27.5409 10.4377 27.8266 10.9723 27.9424 11.5542C28.0581 12.1361 27.9987 12.7393 27.7716 13.2875C27.5446 13.8357 27.1601 14.3042 26.6667 14.6339C26.1734 14.9635 25.5933 15.1395 25 15.1395C24.2044 15.1395 23.4413 14.8234 22.8787 14.2608C22.3161 13.6982 22 12.9351 22 12.1395ZM31.165 18.3654C30.3285 17.1533 29.1524 16.2155 27.7844 15.6701C28.5192 15.0913 29.0554 14.2979 29.3184 13.4003C29.5815 12.5027 29.5582 11.5454 29.252 10.6615C28.9457 9.77772 28.3716 9.0113 27.6096 8.46886C26.8475 7.92643 25.9354 7.63494 25 7.63494C24.0646 7.63494 23.1525 7.92643 22.3904 8.46886C21.6284 9.0113 21.0543 9.77772 20.7481 10.6615C20.4418 11.5454 20.4185 12.5027 20.6816 13.4003C20.9446 14.2979 21.4808 15.0913 22.2156 15.6701C20.8476 16.2155 19.6715 17.1533 18.835 18.3654C17.778 17.1768 17.0872 15.708 16.8457 14.1359C16.6041 12.5637 16.8222 10.9553 17.4737 9.50424C18.1251 8.05319 19.1821 6.82138 20.5174 5.95716C21.8528 5.09293 23.4094 4.63313 25 4.63313C26.5906 4.63313 28.1473 5.09293 29.4826 5.95716C30.8179 6.82138 31.8749 8.05319 32.5263 9.50424C33.1778 10.9553 33.3959 12.5637 33.1543 14.1359C32.9128 15.708 32.222 17.1768 31.165 18.3654Z" fill="black"/>
<rect x="26" y="0.889465" width="24" height="24" rx="12" fill="#F5F5C3"/>
<path d="M38 3.13947C36.0716 3.13947 34.1866 3.71129 32.5832 4.78264C30.9798 5.85398 29.7301 7.37672 28.9922 9.1583C28.2542 10.9399 28.0611 12.9003 28.4373 14.7916C28.8136 16.6829 29.7422 18.4202 31.1057 19.7838C32.4693 21.1473 34.2066 22.0759 36.0979 22.4521C37.9892 22.8283 39.9496 22.6352 41.7312 21.8973C43.5127 21.1593 45.0355 19.9097 46.1068 18.3063C47.1782 16.7029 47.75 14.8178 47.75 12.8895C47.7473 10.3044 46.7192 7.82608 44.8913 5.99819C43.0634 4.1703 40.585 3.1422 38 3.13947ZM32.945 19.4051C33.4876 18.5565 34.235 17.8582 35.1184 17.3745C36.0019 16.8908 36.9928 16.6373 38 16.6373C39.0072 16.6373 39.9982 16.8908 40.8816 17.3745C41.765 17.8582 42.5124 18.5565 43.055 19.4051C41.6097 20.5291 39.831 21.1394 38 21.1394C36.169 21.1394 34.3903 20.5291 32.945 19.4051ZM35 12.1395C35 11.5461 35.176 10.9661 35.5056 10.4728C35.8352 9.97941 36.3038 9.59489 36.852 9.36783C37.4001 9.14076 38.0033 9.08135 38.5853 9.19711C39.1672 9.31286 39.7018 9.59859 40.1213 10.0181C40.5409 10.4377 40.8266 10.9723 40.9424 11.5542C41.0581 12.1361 40.9987 12.7393 40.7716 13.2875C40.5446 13.8357 40.1601 14.3042 39.6667 14.6339C39.1734 14.9635 38.5933 15.1395 38 15.1395C37.2044 15.1395 36.4413 14.8234 35.8787 14.2608C35.3161 13.6982 35 12.9351 35 12.1395ZM44.165 18.3654C43.3285 17.1533 42.1524 16.2155 40.7844 15.6701C41.5192 15.0913 42.0554 14.2979 42.3184 13.4003C42.5815 12.5027 42.5582 11.5454 42.252 10.6615C41.9457 9.77772 41.3716 9.0113 40.6096 8.46886C39.8475 7.92643 38.9354 7.63494 38 7.63494C37.0646 7.63494 36.1525 7.92643 35.3904 8.46886C34.6284 9.0113 34.0543 9.77772 33.7481 10.6615C33.4418 11.5454 33.4185 12.5027 33.6816 13.4003C33.9446 14.2979 34.4808 15.0913 35.2156 15.6701C33.8476 16.2155 32.6715 17.1533 31.835 18.3654C30.778 17.1768 30.0872 15.708 29.8457 14.1359C29.6041 12.5637 29.8222 10.9553 30.4737 9.50424C31.1251 8.05319 32.1821 6.82138 33.5174 5.95716C34.8528 5.09293 36.4094 4.63313 38 4.63313C39.5906 4.63313 41.1473 5.09293 42.4826 5.95716C43.8179 6.82138 44.8749 8.05319 45.5263 9.50424C46.1778 10.9553 46.3959 12.5637 46.1543 14.1359C45.9128 15.708 45.222 17.1768 44.165 18.3654Z" fill="black"/>
<rect x="39" y="0.889465" width="24" height="24" rx="12" fill="#F5F5C3"/>
<path d="M51 3.13947C49.0716 3.13947 47.1866 3.71129 45.5832 4.78264C43.9798 5.85398 42.7301 7.37672 41.9922 9.1583C41.2542 10.9399 41.0611 12.9003 41.4373 14.7916C41.8136 16.6829 42.7422 18.4202 44.1057 19.7838C45.4693 21.1473 47.2066 22.0759 49.0979 22.4521C50.9892 22.8283 52.9496 22.6352 54.7312 21.8973C56.5127 21.1593 58.0355 19.9097 59.1068 18.3063C60.1782 16.7029 60.75 14.8178 60.75 12.8895C60.7473 10.3044 59.7192 7.82608 57.8913 5.99819C56.0634 4.1703 53.585 3.1422 51 3.13947ZM45.945 19.4051C46.4876 18.5565 47.235 17.8582 48.1184 17.3745C49.0019 16.8908 49.9928 16.6373 51 16.6373C52.0072 16.6373 52.9982 16.8908 53.8816 17.3745C54.765 17.8582 55.5124 18.5565 56.055 19.4051C54.6097 20.5291 52.831 21.1394 51 21.1394C49.169 21.1394 47.3903 20.5291 45.945 19.4051ZM48 12.1395C48 11.5461 48.176 10.9661 48.5056 10.4728C48.8352 9.97941 49.3038 9.59489 49.852 9.36783C50.4001 9.14076 51.0033 9.08135 51.5853 9.19711C52.1672 9.31286 52.7018 9.59859 53.1213 10.0181C53.5409 10.4377 53.8266 10.9723 53.9424 11.5542C54.0581 12.1361 53.9987 12.7393 53.7716 13.2875C53.5446 13.8357 53.1601 14.3042 52.6667 14.6339C52.1734 14.9635 51.5933 15.1395 51 15.1395C50.2044 15.1395 49.4413 14.8234 48.8787 14.2608C48.3161 13.6982 48 12.9351 48 12.1395ZM57.165 18.3654C56.3285 17.1533 55.1524 16.2155 53.7844 15.6701C54.5192 15.0913 55.0554 14.2979 55.3184 13.4003C55.5815 12.5027 55.5582 11.5454 55.252 10.6615C54.9457 9.77772 54.3716 9.0113 53.6096 8.46886C52.8475 7.92643 51.9354 7.63494 51 7.63494C50.0646 7.63494 49.1525 7.92643 48.3904 8.46886C47.6284 9.0113 47.0543 9.77772 46.7481 10.6615C46.4418 11.5454 46.4185 12.5027 46.6816 13.4003C46.9446 14.2979 47.4808 15.0913 48.2156 15.6701C46.8476 16.2155 45.6715 17.1533 44.835 18.3654C43.778 17.1768 43.0872 15.708 42.8457 14.1359C42.6041 12.5637 42.8222 10.9553 43.4737 9.50424C44.1251 8.05319 45.1821 6.82138 46.5174 5.95716C47.8528 5.09293 49.4094 4.63313 51 4.63313C52.5906 4.63313 54.1473 5.09293 55.4826 5.95716C56.8179 6.82138 57.8749 8.05319 58.5263 9.50424C59.1778 10.9553 59.3959 12.5637 59.1543 14.1359C58.9128 15.708 58.222 17.1768 57.165 18.3654Z" fill="black"/>
</svg>
