<svg width="18" height="18" viewBox="0 0 18 18" fill="none" xmlns="http://www.w3.org/2000/svg">
<path d="M17.4374 8.54863C17.4357 8.78632 17.3576 9.01716 17.2146 9.20708C17.0717 9.39699 16.8715 9.53591 16.6435 9.60332L16.6295 9.60754L11.1451 11.1432L9.60947 16.6275L9.60525 16.6416C9.53774 16.8695 9.3988 17.0696 9.2089 17.2126C9.01901 17.3555 8.78822 17.4336 8.55056 17.4354H8.52947C8.29641 17.4376 8.0686 17.3663 7.87838 17.2316C7.68816 17.0969 7.54522 16.9057 7.46986 16.6852L2.88267 4.31793C2.88119 4.31428 2.88001 4.31052 2.87916 4.30668C2.8106 4.10758 2.79931 3.89323 2.84655 3.68803C2.8938 3.48282 2.99768 3.29499 3.1464 3.14591C3.29511 2.99683 3.48268 2.89248 3.68777 2.84473C3.89286 2.79699 4.10723 2.80776 4.3065 2.87582L4.31775 2.87933L16.6871 7.46793C16.9111 7.54448 17.1047 7.69066 17.2397 7.88509C17.3747 8.07953 17.4439 8.31203 17.4374 8.54863Z" fill="#7F4DFF"/>
</svg>
