<svg width="24" height="24" viewBox="0 0 24 24" fill="none" xmlns="http://www.w3.org/2000/svg">
<g clip-path="url(#clip0_627_518)">
<mask id="mask0_627_518" style="mask-type:luminance" maskUnits="userSpaceOnUse" x="0" y="0" width="24" height="24">
<path d="M24 0H0V24H24V0Z" fill="white"/>
</mask>
<g mask="url(#mask0_627_518)">
<path fill-rule="evenodd" clip-rule="evenodd" d="M18.9792 9.8574C18.9737 9.46751 18.9362 9.0856 18.869 8.71411L16 4.25509C14.8658 3.46358 13.4856 3 12 3C8.19048 3 5.07436 6.04825 5.0208 9.8574C5.00826 10.7494 5 11.5192 5 12C5 13.1889 4.64665 14.0244 4.36003 14.7021C4.16448 15.1645 4 15.5534 4 15.931C4 16.8621 5.14286 18 12 18C18.8571 18 19.9593 16.8798 19.9593 15.9399C19.9593 15.5576 19.8006 15.1654 19.6123 14.7C19.3377 14.0212 19 13.1866 19 12C19 11.5192 18.9917 10.7494 18.9792 9.8574ZM12 20.5C10.6192 20.5 9.5 19.3808 9.5 18H8.5C8.5 19.933 10.067 21.5 12 21.5C13.933 21.5 15.5 19.933 15.5 18H14.5C14.5 19.3808 13.3808 20.5 12 20.5Z" fill="black"/>
<path d="M17.5 9C18.8807 9 20 7.88071 20 6.5C20 5.11929 18.8807 4 17.5 4C16.1193 4 15 5.11929 15 6.5C15 7.88071 16.1193 9 17.5 9Z" fill="white" stroke="black"/>
</g>
</g>
<defs>
<clipPath id="clip0_627_518">
<rect width="24" height="24" fill="white"/>
</clipPath>
</defs>
</svg>
