<svg width="310" height="300" viewBox="0 0 310 300" fill="none" xmlns="http://www.w3.org/2000/svg">
<path d="M303.493 209.631L299.806 207.64L297.939 211.094C296.972 210.795 295.951 210.659 294.914 210.687L293.82 207.023L289.804 208.221L290.851 211.729C289.705 212.319 288.715 213.125 287.921 214.084L284.466 212.217L282.475 215.904L286.035 217.828C285.83 218.648 285.734 219.497 285.757 220.362L282.092 221.456L283.291 225.471L286.798 224.425C287.389 225.57 288.195 226.561 289.154 227.355L287.522 230.375L291.209 232.367L292.898 229.241C293.943 229.504 295.039 229.592 296.147 229.476L297.194 232.985L301.209 231.786L300.116 228.121C301.144 227.487 302.023 226.67 302.725 225.724L306.201 227.602L308.193 223.915L304.425 221.879C304.598 220.986 304.642 220.062 304.545 219.129L308.053 218.083L306.854 214.067L303.19 215.161C302.736 214.425 302.19 213.767 301.569 213.194L303.493 209.631ZM298.853 219.004C299.459 221.033 298.3 223.177 296.271 223.783C294.242 224.389 292.098 223.231 291.492 221.201C290.886 219.171 292.044 217.028 294.074 216.422C296.104 215.816 298.247 216.974 298.853 219.004Z" fill="#E3E5E8"/>
<path d="M216.708 92.7367L214.693 91.6487L213.673 93.5368C213.144 93.3738 212.586 93.2993 212.019 93.3146L211.422 91.3121L209.227 91.9672L209.799 93.8839C209.172 94.2071 208.632 94.6467 208.197 95.1708L206.309 94.1506L205.221 96.1657L207.167 97.2172C207.054 97.6655 207.002 98.1297 207.015 98.6019L205.012 99.1991L205.667 101.394L207.584 100.822C207.907 101.448 208.347 101.989 208.871 102.423L207.979 104.073L209.994 105.162L210.917 103.453C211.489 103.596 212.088 103.645 212.693 103.582L213.265 105.499L215.46 104.844L214.863 102.841C215.425 102.494 215.905 102.048 216.288 101.531L218.188 102.558L219.277 100.543L217.218 99.4299C217.312 98.9417 217.337 98.4369 217.283 97.9268L219.201 97.3549L218.546 95.1602L216.543 95.7581C216.295 95.3564 215.997 94.9966 215.657 94.6827L216.708 92.7367ZM214.173 97.8583C214.504 98.9676 213.871 100.139 212.762 100.47C211.652 100.801 210.481 100.168 210.15 99.0588C209.819 97.9494 210.452 96.7783 211.561 96.4471C212.671 96.1165 213.842 96.749 214.173 97.8583Z" fill="#E3E5E8"/>
<path d="M92.4618 99.1299C93.1521 98.6411 93.7779 98.0585 94.3226 97.3874L97.8162 98.9437L99.5214 95.1156L96.1768 93.6265C96.3936 92.714 96.4687 91.7916 96.4115 90.8838L100.41 89.3495L98.9088 85.437L95.2211 86.8529C94.6465 85.8247 93.8803 84.9016 92.9419 84.1408L94.4975 80.6465L90.6694 78.9413L89.1803 82.2859C88.0963 82.0285 86.9983 81.976 85.9275 82.101L84.6546 78.7837L80.7421 80.2854L81.9724 83.4897C80.9196 84.1541 79.9932 85.0326 79.2596 86.0927L75.9157 84.6036L74.2105 88.4317L77.7047 89.9873C77.5697 90.8419 77.5558 91.6965 77.6542 92.5358L73.876 93.9856L75.377 97.8982L79.0435 96.4909C79.7072 97.5437 80.5864 98.4701 81.6465 99.2037L80.1575 102.548L83.9856 104.253L85.5418 100.759C86.5667 100.92 87.5962 100.916 88.5944 100.745L90.001 104.41L93.9136 102.909L92.4618 99.1299ZM85.4454 94.9626C83.5107 94.1007 82.6375 91.8262 83.4994 89.8915C84.3613 87.9569 86.6358 87.0843 88.5705 87.9456C90.5051 88.8075 91.3777 91.082 90.5165 93.0166C89.6552 94.9513 87.38 95.8245 85.4454 94.9626Z" fill="#E3E5E8"/>
<path d="M29.5063 117.494C29.8834 117.227 30.2259 116.909 30.5232 116.542L32.4319 117.392L33.3636 115.3L31.536 114.486C31.6544 113.987 31.6957 113.483 31.6644 112.987L33.8498 112.148L33.0298 110.01L31.014 110.784C30.7001 110.222 30.2811 109.718 29.7683 109.302L30.6183 107.393L28.526 106.461L27.7119 108.288C27.1194 108.148 26.5195 108.119 25.9342 108.187L25.2386 106.374L23.1004 107.195L23.7728 108.946C23.1975 109.309 22.6914 109.789 22.2904 110.369L20.4628 109.555L19.531 111.647L21.4404 112.497C21.3666 112.964 21.3593 113.431 21.4132 113.89L19.3481 114.682L20.1682 116.82L22.172 116.051C22.5351 116.626 23.0153 117.132 23.5946 117.533L22.7805 119.361L24.8728 120.293L25.7227 118.383C26.2827 118.471 26.8454 118.469 27.3907 118.375L28.1595 120.379L30.2977 119.559L29.5063 117.494ZM25.6715 115.216C24.6141 114.746 24.1372 113.502 24.6081 112.445C25.079 111.388 26.322 110.911 27.3794 111.382C28.4369 111.852 28.9137 113.095 28.4428 114.153C27.9726 115.21 26.729 115.687 25.6715 115.216Z" fill="#E3E5E8"/>
<path d="M203.494 145.108V157.138C203.494 158.729 202.204 160.019 200.613 160.019H178.769L172.174 162.385C171.497 162.629 170.848 161.963 171.108 161.293L173.602 154.851V145.108C173.602 143.517 174.893 142.227 176.484 142.227H200.613C202.204 142.227 203.494 143.517 203.494 145.108Z" fill="#E3E5E8"/>
<path d="M184.516 151.465C184.516 152.616 183.583 153.549 182.432 153.549C181.282 153.549 180.349 152.616 180.349 151.465C180.349 150.315 181.282 149.382 182.432 149.382C183.583 149.382 184.516 150.314 184.516 151.465Z" fill="#D4D5D6"/>
<path d="M191.113 151.465C191.113 152.616 190.179 153.549 189.029 153.549C187.878 153.549 186.945 152.616 186.945 151.465C186.945 150.315 187.878 149.382 189.029 149.382C190.179 149.381 191.113 150.314 191.113 151.465Z" fill="#D4D5D6"/>
<path d="M197.709 151.465C197.709 152.616 196.776 153.549 195.625 153.549C194.475 153.549 193.542 152.616 193.542 151.465C193.542 150.315 194.475 149.382 195.625 149.382C196.776 149.382 197.709 150.314 197.709 151.465Z" fill="#D4D5D6"/>
<path d="M235.273 64.1304C235.273 64.1304 238.09 58.2473 244.653 57.9187C251.216 57.5902 253.765 63.4494 253.765 63.4494C253.765 63.4494 257.353 62.475 260.416 65.128C262.965 67.336 262.994 70.2822 262.994 70.2822C262.994 70.2822 270.934 70.1106 274.382 71.6675C277.818 73.2191 280.035 76.7665 280.035 76.7665H210.367C210.367 76.7665 213.751 72.6518 221.732 73.1572C221.732 73.1572 225.316 62.6892 235.273 64.1304Z" fill="#E3E5E8"/>
<path d="M59.1721 45.2693C59.1721 45.2693 61.9887 39.3862 68.5515 39.0576C75.1149 38.7291 77.6641 44.5883 77.6641 44.5883C77.6641 44.5883 81.2521 43.614 84.3147 46.2669C86.8639 48.4749 86.8925 51.4211 86.8925 51.4211C86.8925 51.4211 94.8327 51.2495 98.281 52.8064C101.717 54.358 103.934 57.9054 103.934 57.9054H34.2656C34.2656 57.9054 37.6501 53.7907 45.6308 54.2962C45.6308 54.2962 49.2148 43.8288 59.1721 45.2693Z" fill="#E3E5E8"/>
<path d="M152.793 300C235.583 300 302.697 295.754 302.697 290.516C302.697 285.277 235.583 281.031 152.793 281.031C70.0034 281.031 2.88916 285.277 2.88916 290.516C2.88916 295.754 70.0034 300 152.793 300Z" fill="#E3E5E8"/>
<path d="M211.945 287.04C221.014 275.348 243.378 243.469 230.961 227.814C226.228 221.845 215.669 224.21 213.77 247.422C212.438 263.693 206.372 280.038 203.493 287.04H211.945Z" fill="#D4D5D6"/>
<path d="M207.673 287.04C213.551 277.058 217.633 266.492 220.177 258.727C223.605 248.267 225.064 240.488 225.078 240.411C225.13 240.133 224.947 239.866 224.669 239.815C224.391 239.763 224.124 239.946 224.073 240.223C224.058 240.302 222.609 248.026 219.199 258.424C216.628 266.268 212.478 276.988 206.484 287.039H207.673V287.04Z" fill="#C6C6C6"/>
<path d="M271.917 219.96C268.348 209.525 252.797 207.64 238.968 238.39C229.441 259.574 213.639 278.642 206.151 287.04H224.117C244.732 272.909 280.254 244.334 271.917 219.96Z" fill="#E3E5E8"/>
<path d="M257.522 233.289C257.168 233.083 256.715 233.204 256.511 233.557C256.453 233.657 250.736 243.494 241.049 256.032C234.163 264.947 224.126 276.669 212.071 287.04H214.329C225.909 276.869 235.55 265.576 242.236 256.917C251.978 244.305 257.736 234.398 257.791 234.299C257.998 233.946 257.877 233.492 257.522 233.289Z" fill="#D4D5D6"/>
<path d="M31.8198 281.468C31.7613 283.62 32.2149 285.709 33.0223 287.557H52.9501C58.0345 282.934 59.5203 275.343 56.1531 269.174C54.6553 266.43 52.3815 264.275 48.9318 263.867C38.1313 262.582 45.7176 254.413 41.7485 247.886C37.1789 240.366 29.254 243.273 26.4581 237.336C22.5675 229.079 11.1418 224.762 9.98725 234.74C8.83271 244.719 17.7911 248.226 14.5283 255.333C11.2655 262.437 13.4469 269.825 20.2159 271.164C26.9882 272.501 32.0466 273.108 31.8198 281.468Z" fill="#D4D5D6"/>
<path d="M50.092 287.556L21.1074 242.619C20.8739 242.257 20.3911 242.152 20.0286 242.385C19.6669 242.619 19.5618 243.102 19.7952 243.464L48.2352 287.556H50.092Z" fill="#C6C6C6"/>
<path d="M36.505 255.208C43.3551 260.314 48.6809 263.689 43.9696 272.906C41.4929 277.749 41.5368 283.445 43.4249 287.557H70.7848C75.2913 283.911 78.0386 278.281 77.7061 272.152C77.496 268.289 76.1053 264.669 72.4708 262.373C61.0922 255.179 73.9219 250.099 72.9702 240.692C71.8762 229.855 61.4747 228.876 61.5179 220.753C61.5757 209.456 51.117 198.54 44.505 209.07C37.8936 219.6 46.0293 228.295 38.5953 234.492C31.1619 240.687 29.6582 250.101 36.505 255.208Z" fill="#E3E5E8"/>
<path d="M58.9423 287.556H60.8896L52.7233 223.799C52.6554 223.271 52.1719 222.896 51.6432 222.963C51.1145 223.031 50.7394 223.515 50.8072 224.043L58.9423 287.556Z" fill="#D4D5D6"/>
<path d="M104.483 284.057C89.3913 247.136 84.7272 221.014 91.0054 208.262C91.2554 207.753 91.0466 207.138 90.5378 206.888C90.0291 206.638 89.4145 206.847 89.1638 207.355C85.3876 215.025 85.2686 227.01 88.8087 242.978C91.3924 254.633 95.9135 268.423 102.268 284.057L104.483 284.057Z" fill="#D4D5D6"/>
<path d="M86.8387 228.48C86.8387 228.48 78.7051 231.204 74.4746 216.717C74.4746 216.717 88.107 216.079 86.8387 228.48Z" fill="#E3E5E8"/>
<path d="M88.6339 236.062C88.6339 236.062 85.4609 228.093 99.6905 223.062C99.6905 223.062 101.088 236.638 88.6339 236.062Z" fill="#E3E5E8"/>
<path d="M88.0997 213.923C88.0997 213.923 82.4513 207.467 94.1896 197.98C94.1896 197.98 100.033 210.313 88.0997 213.923Z" fill="#E3E5E8"/>
<path d="M91.7749 251.426C91.7749 251.426 85.0425 256.741 76.1606 244.539C76.1606 244.539 88.7728 239.327 91.7749 251.426Z" fill="#E3E5E8"/>
<path d="M94.7722 258.873C94.7722 258.873 90.2691 251.573 103.414 244.158C103.414 244.158 107.138 257.287 94.7722 258.873Z" fill="#E3E5E8"/>
<path d="M97.865 269.477C97.865 269.477 91.2344 274.919 82.123 262.887C82.123 262.887 94.6342 257.436 97.865 269.477Z" fill="#E3E5E8"/>
<path d="M157.663 285.875C186.206 249.436 199.688 221.75 196.719 205.524C196.601 204.876 197.029 204.256 197.676 204.138C198.323 204.019 198.944 204.448 199.062 205.095C200.848 214.854 197.185 228.273 188.175 244.978C181.599 257.171 172.183 271.135 160.136 286.576L157.663 285.875Z" fill="#D4D5D6"/>
<path d="M194.965 229.416C194.965 229.416 203.183 235.034 212.496 220.201C212.496 220.201 197.478 215.169 194.965 229.416Z" fill="#E3E5E8"/>
<path d="M190.56 237.313C190.56 237.313 196.626 229.42 182.334 219.297C182.334 219.297 176.474 234.011 190.56 237.313Z" fill="#E3E5E8"/>
<path d="M198.169 212.764C198.169 212.764 206.519 207.346 196.42 193.036C196.42 193.036 185.989 204.955 198.169 212.764Z" fill="#E3E5E8"/>
<path d="M182.187 253.471C182.187 253.471 188.02 261.538 201.801 250.728C201.801 250.728 189.371 240.913 182.187 253.471Z" fill="#E3E5E8"/>
<path d="M176.481 260.835C176.481 260.835 183.821 254.111 171.494 241.668C171.494 241.668 163.178 255.147 176.481 260.835Z" fill="#E3E5E8"/>
<path d="M169.669 271.694C169.669 271.694 175.348 279.87 189.332 269.324C189.332 269.324 177.09 259.275 169.669 271.694Z" fill="#E3E5E8"/>
<path d="M280.114 118.869C281.792 118.869 283.157 120.234 283.157 121.912C283.157 123.59 281.792 124.956 280.114 124.956C278.436 124.956 277.071 123.59 277.071 121.912C277.071 120.234 278.436 118.869 280.114 118.869ZM280.114 124.001C281.265 124.001 282.202 123.064 282.202 121.913C282.202 120.762 281.265 119.825 280.114 119.825C278.962 119.825 278.026 120.762 278.026 121.913C278.026 123.064 278.962 124.001 280.114 124.001Z" fill="#7F4DFF"/>
<path d="M267.691 114.763C269.369 114.763 270.735 116.129 270.735 117.807C270.735 119.485 269.369 120.85 267.691 120.85C266.013 120.85 264.648 119.485 264.648 117.807C264.648 116.129 266.013 114.763 267.691 114.763ZM267.691 119.895C268.843 119.895 269.78 118.958 269.78 117.807C269.78 116.655 268.842 115.718 267.691 115.718C266.539 115.718 265.603 116.656 265.603 117.807C265.602 118.958 266.539 119.895 267.691 119.895Z" fill="#7F4DFF"/>
<path d="M264.259 104.742C264.522 104.742 264.736 104.955 264.736 105.219V107.324C264.736 107.587 264.522 107.802 264.259 107.802C263.995 107.802 263.781 107.588 263.781 107.324V105.219C263.781 104.955 263.995 104.742 264.259 104.742Z" fill="#7F4DFF"/>
<path d="M264.259 101.058C264.522 101.058 264.736 101.271 264.736 101.535V103.64C264.736 103.904 264.522 104.118 264.259 104.118C263.995 104.118 263.781 103.904 263.781 103.64V101.535C263.781 101.271 263.995 101.058 264.259 101.058Z" fill="#7F4DFF"/>
<path d="M261.304 103.952H263.196C263.459 103.952 263.673 104.166 263.673 104.43C263.673 104.693 263.46 104.907 263.196 104.907H261.304C261.041 104.907 260.827 104.694 260.827 104.43C260.827 104.166 261.041 103.952 261.304 103.952Z" fill="#7F4DFF"/>
<path d="M265.323 103.952H267.215C267.478 103.952 267.692 104.166 267.692 104.43C267.692 104.693 267.479 104.907 267.215 104.907H265.323C265.06 104.907 264.846 104.694 264.846 104.43C264.846 104.166 265.059 103.952 265.323 103.952Z" fill="#7F4DFF"/>
<path d="M277.159 108.114C277.423 108.114 277.637 108.327 277.637 108.591V110.696C277.637 110.959 277.423 111.173 277.159 111.173C276.895 111.173 276.682 110.96 276.682 110.696V108.591C276.682 108.327 276.895 108.114 277.159 108.114Z" fill="#7F4DFF"/>
<path d="M277.159 104.43C277.423 104.43 277.637 104.643 277.637 104.907V107.012C277.637 107.276 277.423 107.49 277.159 107.49C276.895 107.49 276.682 107.276 276.682 107.012V104.907C276.682 104.643 276.895 104.43 277.159 104.43Z" fill="#7F4DFF"/>
<path d="M274.205 107.324H276.096C276.359 107.324 276.574 107.538 276.574 107.802C276.574 108.065 276.359 108.279 276.096 108.279H274.205C273.941 108.279 273.727 108.066 273.727 107.802C273.727 107.538 273.941 107.324 274.205 107.324Z" fill="#7F4DFF"/>
<path d="M278.223 107.324H280.114C280.377 107.324 280.592 107.538 280.592 107.802C280.592 108.065 280.378 108.279 280.114 108.279H278.223C277.959 108.279 277.745 108.066 277.745 107.802C277.746 107.538 277.959 107.324 278.223 107.324Z" fill="#7F4DFF"/>
<path d="M6.08663 215.633C6.08663 217.311 4.72126 218.676 3.04332 218.676C1.36537 218.676 0 217.311 0 215.633C0 213.955 1.36537 212.59 3.04332 212.59C4.72126 212.59 6.08663 213.955 6.08663 215.633ZM5.1316 215.633C5.1316 214.481 4.19453 213.545 3.04332 213.545C1.89143 213.545 0.955027 214.482 0.955027 215.633C0.955027 216.784 1.8921 217.721 3.04332 217.721C4.1952 217.721 5.1316 216.784 5.1316 215.633Z" fill="#7F4DFF"/>
<path d="M18.5095 211.527C18.5095 213.205 17.1441 214.57 15.4662 214.57C13.7882 214.57 12.4229 213.205 12.4229 211.527C12.4229 209.849 13.7882 208.484 15.4662 208.484C17.1441 208.484 18.5095 209.849 18.5095 211.527ZM17.5551 211.527C17.5551 210.375 16.6181 209.439 15.4668 209.439C14.3149 209.439 13.3785 210.376 13.3785 211.527C13.3785 212.679 14.3156 213.615 15.4668 213.615C16.6181 213.616 17.5551 212.679 17.5551 211.527Z" fill="#7F4DFF"/>
<path d="M18.8984 198.463C18.635 198.463 18.4209 198.676 18.4209 198.94V201.045C18.4209 201.308 18.6344 201.523 18.8984 201.523C19.1618 201.523 19.3759 201.309 19.3759 201.045V198.94C19.3759 198.676 19.1624 198.463 18.8984 198.463Z" fill="#7F4DFF"/>
<path d="M18.8984 194.778C18.635 194.778 18.4209 194.992 18.4209 195.256V197.361C18.4209 197.625 18.6344 197.838 18.8984 197.838C19.1618 197.838 19.3759 197.625 19.3759 197.361V195.256C19.3759 194.992 19.1624 194.778 18.8984 194.778Z" fill="#7F4DFF"/>
<path d="M21.8531 197.673H19.9624C19.699 197.673 19.4849 197.887 19.4849 198.15C19.4849 198.414 19.6983 198.628 19.9624 198.628H21.8531C22.1165 198.628 22.3307 198.414 22.3307 198.15C22.3307 197.887 22.1172 197.673 21.8531 197.673Z" fill="#7F4DFF"/>
<path d="M17.8351 197.673H15.9443C15.6809 197.673 15.4668 197.887 15.4668 198.15C15.4668 198.414 15.6803 198.628 15.9443 198.628H17.8351C18.0984 198.628 18.3126 198.414 18.3126 198.15C18.3119 197.887 18.0984 197.673 17.8351 197.673Z" fill="#7F4DFF"/>
<path d="M5.99851 201.835C5.73515 201.835 5.521 202.048 5.521 202.312V204.417C5.521 204.68 5.73448 204.895 5.99851 204.895C6.26187 204.895 6.47602 204.681 6.47602 204.417V202.312C6.47602 202.048 6.26254 201.835 5.99851 201.835Z" fill="#7F4DFF"/>
<path d="M5.99851 198.15C5.73515 198.15 5.521 198.364 5.521 198.628V200.733C5.521 200.997 5.73448 201.21 5.99851 201.21C6.26187 201.21 6.47602 200.997 6.47602 200.733V198.628C6.47602 198.364 6.26254 198.15 5.99851 198.15Z" fill="#7F4DFF"/>
<path d="M8.95342 201.045H7.06199C6.79862 201.045 6.58447 201.259 6.58447 201.523C6.58447 201.786 6.79796 202 7.06199 202H8.95342C9.21678 202 9.43093 201.787 9.43093 201.523C9.43093 201.259 9.21745 201.045 8.95342 201.045Z" fill="#7F4DFF"/>
<path d="M4.93486 201.045H3.04343C2.78007 201.045 2.56592 201.259 2.56592 201.523C2.56592 201.786 2.78007 202 3.04343 202H4.93486C5.19823 202 5.41238 201.787 5.41238 201.523C5.41171 201.259 5.19823 201.045 4.93486 201.045Z" fill="#7F4DFF"/>
<path d="M191.754 66.5752C192.128 66.5739 192.504 66.5892 192.877 66.6131L192.915 45.5527L175.328 45.524L139.383 45.4642L118.23 45.4216L118.101 120.361L118.125 120.363L118.128 120.297L139.279 120.143C139.215 111.333 145.508 103.96 153.863 102.359C154.918 102.157 156.004 102.044 157.121 102.037C165.189 101.98 172.048 107.246 174.372 114.548C174.909 116.233 175.208 118.018 175.219 119.876L192.789 119.745L192.817 102.483C192.443 102.501 192.063 102.517 191.688 102.518C181.757 102.5 173.73 94.4386 173.745 84.5152C173.762 74.5832 181.822 66.5566 191.754 66.5752ZM131.802 51.497C130.966 51.497 130.29 50.8213 130.29 49.9853C130.29 49.1506 130.966 48.4749 131.802 48.4749C132.636 48.4749 133.312 49.1506 133.312 49.9853C133.312 50.8213 132.636 51.497 131.802 51.497ZM177.703 49.9853C177.703 49.1506 178.378 48.4749 179.213 48.4749C180.048 48.4749 180.725 49.1506 180.725 49.9853C180.725 50.8213 180.048 51.497 179.213 51.497C178.378 51.497 177.703 50.8213 177.703 49.9853Z" fill="#6517FF"/>
<path d="M131.151 50.0784C131.151 50.4375 131.442 50.7281 131.801 50.7281C132.16 50.7281 132.45 50.4368 132.45 50.0784V0H131.151V50.0784Z" fill="#3C3C48"/>
<path d="M178.563 50.0784C178.563 50.4375 178.854 50.7281 179.213 50.7281C179.572 50.7281 179.863 50.4368 179.863 50.0784V0H178.563V50.0784Z" fill="#3C3C48"/>
<path d="M15.3561 272.475L13.8071 279.289L19.0225 280.185L21.0483 273.374L15.3561 272.475Z" fill="#FAB98A"/>
<path d="M16.3029 278.527C16.3029 278.527 19.0137 278.451 19.7153 278.632C20.4169 278.813 23.8872 285.213 25.4029 285.901C28.1529 287.148 27.0888 291.651 25.2812 291.459C20.0525 290.903 11.8789 286.7 11.8789 286.7C11.8789 286.7 12.4489 280.733 13.2263 279.003C14.0038 277.272 14.7586 278.723 16.3029 278.527Z" fill="#3C3C48"/>
<path d="M19.3359 284.454C19.2408 284.453 19.1464 284.414 19.0765 284.338C18.9409 284.192 18.9502 283.963 19.0965 283.828C19.145 283.782 20.3089 282.716 21.4814 282.526C23.0409 282.272 23.849 283.364 23.8829 283.411C24 283.573 23.9634 283.799 23.8011 283.916C23.6395 284.033 23.4134 283.996 23.297 283.834C23.275 283.805 22.7071 283.061 21.5964 283.24C20.6414 283.394 19.5973 284.349 19.5873 284.358C19.5155 284.424 19.425 284.456 19.3359 284.454Z" fill="white"/>
<path d="M18.6157 283.159C18.5206 283.158 18.4261 283.119 18.3563 283.044C18.2206 282.897 18.2299 282.669 18.3763 282.533C18.4255 282.488 19.5887 281.421 20.7612 281.231C22.3221 280.977 23.1288 282.069 23.1627 282.117C23.2797 282.278 23.2432 282.504 23.0816 282.621C22.92 282.738 22.6938 282.701 22.5774 282.539C22.5548 282.51 21.9869 281.765 20.8769 281.944C19.9179 282.1 18.8784 283.054 18.8677 283.063C18.7959 283.129 18.7055 283.161 18.6157 283.159Z" fill="white"/>
<path d="M20.4785 285.682C20.3834 285.681 20.2889 285.641 20.2191 285.566C20.0834 285.42 20.0927 285.191 20.2391 285.055C20.2876 285.01 21.4515 283.943 22.624 283.754C24.1849 283.5 24.9916 284.592 25.0255 284.639C25.1425 284.801 25.106 285.027 24.9437 285.143C24.7821 285.26 24.556 285.224 24.4396 285.061C24.4176 285.032 23.849 284.288 22.739 284.467C21.78 284.622 20.7398 285.575 20.7299 285.585C20.658 285.651 20.5676 285.683 20.4785 285.682Z" fill="white"/>
<path d="M50.961 195.853C50.961 195.853 50.5434 197.383 49.8324 199.916C49.6455 200.586 49.438 201.328 49.2112 202.133C46.8124 210.633 42.3877 225.983 38.7345 236.772C33.6129 251.897 22.0994 276.141 22.0994 276.141L15.4594 274.592L14.8037 274.435L13.2295 274.07C13.2295 274.07 17.5298 258.144 21.7177 244.406C24.479 235.346 29.3532 213.58 32.3493 199.818C33.8929 192.721 34.9417 187.752 34.9417 187.752L50.961 195.853Z" fill="#7F4DFF"/>
<path d="M50.961 195.853C50.961 195.853 50.5434 197.383 49.8324 199.916C49.6455 200.586 49.438 201.328 49.2112 202.133C46.0136 202.1 37.4556 200.826 32.3486 199.818C33.8922 192.721 34.941 187.752 34.941 187.752L50.961 195.853Z" fill="#7F4DFF"/>
<path d="M36.8135 197.229C36.7025 197.758 26.1519 247.967 15.4611 274.592L14.8047 274.435C25.4849 247.897 36.05 197.616 36.1598 197.093L36.8135 197.229Z" fill="#7F4DFF"/>
<path d="M67.8632 278.288L67.6451 284.363L62.0905 284.074L61.9595 277.623L67.8632 278.288Z" fill="#FAB98A"/>
<path d="M66.2285 284.085C66.2285 284.085 67.4376 282.508 68.3786 282.589C69.3197 282.67 76.5097 288.552 78.9937 289.063C81.4777 289.575 80.9689 291.402 80.4994 292.333C80.0298 293.264 60.6353 291.703 60.6353 291.703C60.6353 291.703 60.1831 285.917 60.8415 284.159C61.4999 282.401 64.2746 284.476 66.2285 284.085Z" fill="#3C3C48"/>
<path d="M70.1911 288.175C70.1027 288.2 70.0042 288.19 69.9191 288.14C69.7528 288.042 69.6976 287.829 69.7954 287.663C69.828 287.607 70.6074 286.296 71.6383 285.795C73.0096 285.126 74.0611 285.911 74.1057 285.945C74.2586 286.062 74.2879 286.281 74.1708 286.433C74.0538 286.586 73.835 286.616 73.6813 286.499C73.6527 286.477 72.9205 285.948 71.9435 286.422C71.1036 286.831 70.4039 288.005 70.3973 288.016C70.3487 288.097 70.2742 288.151 70.1911 288.175Z" fill="white"/>
<path d="M69.1649 287.178C69.0765 287.203 68.9781 287.193 68.8929 287.143C68.7267 287.045 68.6715 286.831 68.7686 286.666C68.8012 286.61 69.5806 285.3 70.6114 284.797C71.9841 284.128 73.0349 284.913 73.0788 284.947C73.2318 285.064 73.261 285.283 73.144 285.436C73.0269 285.589 72.8081 285.619 72.6552 285.501C72.6266 285.48 71.8937 284.95 70.9174 285.425C70.0741 285.836 69.3778 287.007 69.3711 287.019C69.3226 287.1 69.2481 287.154 69.1649 287.178Z" fill="white"/>
<path d="M71.5897 288.991C71.5013 289.017 71.4029 289.007 71.3177 288.957C71.1515 288.859 71.0963 288.645 71.1934 288.479C71.226 288.424 72.0054 287.113 73.0362 286.611C74.4089 285.941 75.4591 286.727 75.5036 286.761C75.6566 286.878 75.6859 287.097 75.5688 287.249C75.4518 287.402 75.2329 287.432 75.0793 287.315C75.0507 287.293 74.3178 286.764 73.3415 287.239C72.4976 287.65 71.8019 288.821 71.7952 288.833C71.748 288.913 71.6729 288.968 71.5897 288.991Z" fill="white"/>
<path d="M68.4266 280.972L62.8148 280.223L62.1458 280.137L60.783 279.954C60.783 279.954 59.2481 246.802 58.6854 237.962C58.1953 230.282 54.8268 212.894 52.6121 202.069C51.985 198.996 51.4496 196.451 51.0958 194.807C50.8278 193.514 50.6675 192.779 50.6675 192.779L69.615 192.057C69.615 192.057 69.6436 192.474 69.6869 193.224C69.7813 194.76 69.9629 197.7 70.173 201.397C70.7649 211.458 71.6448 227.113 71.8756 235.069C72.4615 255.556 68.4266 280.972 68.4266 280.972Z" fill="#7F4DFF"/>
<path d="M70.173 201.397L52.612 202.068C51.9849 198.996 51.4495 196.451 51.0957 194.807L69.6868 193.224C69.7806 194.76 69.9628 197.701 70.173 201.397Z" fill="#7F4DFF"/>
<path d="M62.8151 280.223L62.146 280.137C62.4154 269.929 62.9029 244.423 61.4929 233.515C59.7226 219.766 54.9807 199.62 54.9321 199.416L55.5846 199.263C55.6331 199.467 60.383 219.649 62.1547 233.431C63.5753 244.408 63.0878 270.036 62.8151 280.223Z" fill="#7F4DFF"/>
<path d="M70.8491 151.527C72.7612 160.02 78.8784 166.439 78.8784 166.439C82.4591 168.439 92.0905 172.723 95.5621 172.28C95.5175 169.923 95.8441 168.301 96.4307 165.447C91.7593 164.953 83.6961 159.195 83.6961 159.195C77.1991 145.006 77.0741 129.548 77.0741 129.548C71.8574 134.33 70.8491 151.527 70.8491 151.527Z" fill="#1A100E"/>
<path d="M32.7346 180.233C32.6987 180.501 32.6668 180.764 32.6342 181.023C32.037 185.768 31.5934 189.448 31.3872 191.256C35.8112 193.08 40.2917 194.464 44.8281 195.418C45.0349 195.46 45.2378 195.502 45.4446 195.544C45.555 195.566 45.6654 195.588 45.7758 195.608C46.0192 195.656 46.2653 195.703 46.5074 195.746C46.778 195.798 47.048 195.846 47.3214 195.895C50.4212 196.436 53.547 196.775 56.7001 196.916C57.3372 196.944 57.971 196.963 58.6101 196.975C58.6514 196.976 58.6913 196.978 58.7325 196.978C58.8948 196.981 59.057 196.982 59.222 196.983C59.3211 196.984 59.4202 196.984 59.5173 196.985C63.2004 197.013 66.918 196.765 70.6716 196.249C70.7854 195.431 70.9443 194.216 71.1385 192.684C71.1744 192.399 71.2117 192.106 71.2489 191.799V191.797C71.5256 189.606 71.8588 186.876 72.2272 183.789C72.2592 183.525 72.2904 183.26 72.323 182.991C72.5664 180.936 72.8245 178.734 73.0885 176.437C73.1184 176.171 73.1503 175.906 73.1803 175.638C73.4496 173.283 73.7256 170.835 73.9996 168.349C74.1665 166.832 74.3335 165.3 74.4971 163.766C74.6627 162.213 74.8269 160.657 74.9859 159.111C75.0205 158.774 75.0557 158.438 75.0883 158.101C76.5867 143.476 77.6754 129.997 76.8481 128.373C76.2754 127.249 74.8156 125.829 73.0705 124.362C72.857 124.184 72.6402 124.003 72.4194 123.823C71.6739 123.214 65.3532 120.131 64.577 119.531L57.6564 118.155C57.6105 118.175 50.648 119.579 50.6021 119.596C50.2942 119.724 49.9823 119.853 49.6744 119.982C47.0208 121.095 44.3905 122.287 42.8209 123.403C42.5921 123.564 42.3853 123.724 42.2064 123.883C42.0634 124.01 41.9344 124.134 41.8273 124.26C41.7276 124.372 41.6198 124.568 41.5054 124.842C40.2704 127.804 38.2939 139.812 36.4044 152.909C36.2694 153.848 36.1357 154.793 36.0014 155.739C35.9429 156.154 35.8837 156.571 35.8252 156.988C35.7826 157.274 35.742 157.563 35.7034 157.849C35.6828 157.994 35.6629 158.136 35.6429 158.28C35.5425 158.993 35.4441 159.704 35.3483 160.412C35.2758 160.936 35.2033 161.459 35.1315 161.981C34.229 168.583 33.3937 175.001 32.7346 180.233Z" fill="#3C3C48"/>
<path d="M60.9883 130.042C57.2713 129.57 54.3444 125.183 54.218 124.99C54.1375 124.868 54.1715 124.704 54.2932 124.624C54.4149 124.544 54.5791 124.578 54.6596 124.699C54.6902 124.746 57.7555 129.34 61.3767 129.547C61.5217 129.555 61.6341 129.68 61.6255 129.826C61.6175 129.972 61.4924 130.083 61.3468 130.075C61.2264 130.068 61.1067 130.057 60.9883 130.042Z" fill="#1A100E"/>
<path d="M52.1175 174.064C51.9865 174.047 51.8854 173.934 51.8867 173.798C51.8887 173.653 52.0084 173.536 52.1541 173.537C61.8959 173.652 67.9858 157.538 68.0464 157.376C68.0969 157.239 68.2492 157.169 68.3862 157.22C68.5232 157.271 68.593 157.423 68.5425 157.56C68.2904 158.239 62.259 174.186 52.1481 174.066C52.1375 174.066 52.1275 174.065 52.1175 174.064Z" fill="#1A100E"/>
<path d="M56.5804 169.521C56.4926 169.509 56.4121 169.454 56.3729 169.368C56.3123 169.235 56.3715 169.078 56.5046 169.018C62.0112 166.519 63.3607 161.974 63.374 161.928C63.4139 161.788 63.5588 161.705 63.7005 161.747C63.8408 161.787 63.9226 161.932 63.8827 162.073C63.8275 162.268 62.4642 166.894 56.7234 169.499C56.6761 169.52 56.6276 169.527 56.5804 169.521Z" fill="#1A100E"/>
<path d="M53.9444 100.991C53.9444 100.991 52.2758 98.9098 52.3516 96.1292C52.4281 93.3486 53.7961 94.4426 54.3694 91.2709C54.9427 88.0992 56.6446 87.4628 59.8389 88.3406C63.0332 89.2192 63.8425 86.6068 67.8888 87.375C71.9357 88.1431 71.4482 90.0811 74.2946 91.9513C77.1411 93.8207 76.0111 97.1587 74.5174 98.2693C73.0237 99.38 71.8505 98.6704 71.8505 98.6704L53.9444 100.991Z" fill="#3C3C48"/>
<path d="M71.3427 105.181C71.3427 105.181 73.2587 103.204 74.2477 105.166C75.2366 107.127 72.8357 112.243 70.0186 110.562L71.3427 105.181Z" fill="#F9907E"/>
<path d="M70.879 108.996C70.9894 109.01 71.0998 108.95 71.145 108.843C71.8167 107.254 73.6084 106.803 73.6263 106.799C73.7627 106.766 73.8465 106.629 73.8132 106.493C73.7806 106.356 73.6436 106.273 73.5073 106.305C73.4235 106.325 71.4503 106.816 70.6768 108.646C70.6223 108.775 70.6828 108.924 70.8118 108.979C70.8337 108.987 70.8564 108.993 70.879 108.996Z" fill="#E4765D"/>
<path d="M72.7067 108.386C72.7533 108.392 72.8025 108.385 72.8484 108.363C72.9747 108.302 73.0286 108.151 72.9681 108.024C72.9581 108.002 72.7147 107.504 72.1188 107.141C71.9998 107.068 71.8428 107.106 71.7697 107.226C71.6965 107.346 71.7344 107.502 71.8548 107.576C72.315 107.856 72.5079 108.24 72.5099 108.244C72.5484 108.324 72.6243 108.375 72.7067 108.386Z" fill="#E4765D"/>
<path d="M54.4566 103.034C54.4566 103.034 53.0959 100.642 51.6481 102.294C50.2002 103.945 51.2444 109.499 54.3928 108.576L54.4566 103.034Z" fill="#F9907E"/>
<path d="M53.9514 106.845C53.841 106.831 53.7492 106.745 53.7326 106.63C53.4799 104.924 51.8578 104.039 51.8418 104.03C51.7181 103.964 51.6716 103.81 51.7374 103.686C51.8032 103.563 51.9569 103.515 52.0806 103.581C52.1564 103.622 53.9447 104.591 54.236 106.555C54.2567 106.694 54.1609 106.823 54.0219 106.844C53.9973 106.847 53.974 106.847 53.9514 106.845Z" fill="#E4765D"/>
<path d="M52.3337 105.796C52.2872 105.79 52.2413 105.771 52.2027 105.739C52.0957 105.648 52.0817 105.488 52.1715 105.381C52.1868 105.363 52.5472 104.941 53.2149 104.738C53.3486 104.697 53.4909 104.774 53.5315 104.908C53.5721 105.042 53.4963 105.184 53.3619 105.225C52.8458 105.381 52.5632 105.704 52.5605 105.707C52.5033 105.776 52.4169 105.806 52.3337 105.796Z" fill="#E4765D"/>
<path d="M57.5972 113.582L56.9229 118.888C56.9229 118.888 58.1619 121.792 60.2781 122.247C62.3923 122.706 64.6116 120.434 64.6116 120.434L65.3099 114.941L57.5972 113.582Z" fill="#FAB98A"/>
<path d="M57.5971 113.582L57.2979 115.936C58.5309 117.712 61.0308 118.434 64.8756 118.357L65.3098 114.941L57.5971 113.582Z" fill="#F9907E"/>
<path d="M53.7355 99.2449C53.5706 101.319 53.4389 103.924 53.5713 106.034L53.5706 106.04C53.5699 106.046 53.5713 106.052 53.5719 106.06C53.5719 106.062 53.5739 106.062 53.5732 106.064C53.6065 106.58 53.655 107.067 53.7196 107.508C53.7588 107.767 53.8034 108.038 53.8566 108.317C54.6127 112.422 56.8008 118.504 64.4563 116.822C67.6805 116.114 69.6916 113.133 70.9486 109.783C71.0224 109.583 71.0936 109.384 71.1581 109.194C71.2027 109.067 71.2446 108.943 71.2838 108.821L71.343 108.642C71.353 108.611 71.3596 108.589 71.3636 108.576C71.3663 108.568 71.3669 108.564 71.3669 108.564C72.1876 105.969 72.6026 103.292 72.8108 101.368C73.0223 99.4066 72.1796 97.4799 70.5988 96.2987C66.3178 93.0958 61.3232 93.4529 57.9593 94.2776C55.625 94.8476 53.9231 96.8514 53.7355 99.2449Z" fill="#FAB98A"/>
<path d="M58.6819 103.773C58.6101 104.339 58.8435 104.835 59.2033 104.881C59.5631 104.927 59.9136 104.505 59.9854 103.939C60.0573 103.372 59.8238 102.876 59.464 102.83C59.1042 102.784 58.7538 103.206 58.6819 103.773Z" fill="#3C3C48"/>
<path d="M66.6014 104.779C66.5295 105.346 66.763 105.842 67.1228 105.888C67.4826 105.933 67.8331 105.511 67.9049 104.945C67.9767 104.379 67.7433 103.882 67.3835 103.837C67.0237 103.791 66.6732 104.213 66.6014 104.779Z" fill="#3C3C48"/>
<path d="M56.9933 100.306C56.9933 100.306 59.7241 99.2703 61.8024 100.203L61.5769 101.363C61.5769 101.363 58.5117 101.061 56.9568 101.666C56.8251 101.216 56.8104 100.763 56.9933 100.306Z" fill="#3C3C48"/>
<path d="M69.891 101.83C69.891 101.83 67.4037 100.259 65.1644 100.761L65.1538 101.952C65.1538 101.952 68.2404 102.27 69.6536 103.179C69.8744 102.762 69.9795 102.318 69.891 101.83Z" fill="#3C3C48"/>
<path d="M62.2505 108.884C61.8255 108.83 61.4245 108.61 61.3626 108.576C61.2409 108.507 61.1977 108.352 61.2669 108.23C61.3354 108.108 61.491 108.064 61.6127 108.133C61.8288 108.255 62.3569 108.469 62.6116 108.358C62.6608 108.336 62.73 108.29 62.7653 108.139C62.9681 107.27 63.1024 104.289 63.1038 104.259C63.1098 104.119 63.2288 104.01 63.3691 104.016C63.5101 104.022 63.6179 104.141 63.6119 104.281C63.6066 104.406 63.4742 107.34 63.2607 108.255C63.1803 108.599 62.9748 108.754 62.8158 108.823C62.6416 108.899 62.4434 108.908 62.2505 108.884Z" fill="#F9907E"/>
<path d="M65.1733 111.207C64.8594 112.145 63.9981 113.836 61.8553 113.564C59.7078 113.29 59.3108 111.595 59.2456 110.454L65.1733 111.207Z" fill="white"/>
<path d="M54.7188 102.034C54.7986 100.974 55.0294 99.8335 55.7497 99.7318C56.7486 99.5928 56.4892 97.1014 57.9663 96.2236C59.4434 95.343 62.4854 95.4368 64.3116 96.9086C66.1379 98.3777 68.5374 97.3522 69.4233 97.68C70.3118 98.0059 71.3919 99.4238 70.907 100.558C70.4196 101.69 71.3373 102.534 71.4271 103.782C71.4517 104.121 71.3806 104.604 71.2642 105.126C71.5675 105.234 71.8701 105.344 72.1713 105.456C72.4872 103.943 72.6868 102.52 72.8118 101.368C73.0233 99.4052 72.182 97.4792 70.6005 96.2974C66.3175 93.0945 61.3235 93.4503 57.9603 94.2756C55.626 94.8469 53.9241 96.852 53.7352 99.2429C53.6674 100.106 53.6048 101.062 53.5649 102.035C53.9493 102.035 54.3338 102.034 54.7188 102.034Z" fill="#3C3C48"/>
<path d="M101.699 197.518L101.687 197.548L44.4463 174.498L67.5824 117.064L83.7913 123.596C86.8552 115.988 95.507 112.307 103.109 115.368C110.718 118.431 114.398 127.084 111.337 134.685L124.821 140.119L118.318 156.256C118.044 156.124 117.76 156 117.467 155.881C109.858 152.818 101.207 156.498 98.1426 164.106C95.0793 171.715 98.7624 180.36 106.371 183.424C106.663 183.544 106.955 183.649 107.25 183.748L101.699 197.518Z" fill="#6517FF"/>
<path d="M58.8468 178.609L59.9369 179.157C60.9112 179.646 61.94 179.445 62.8146 178.793C63.201 178.506 63.8175 177.934 64.1208 177.783C64.9721 177.359 66.9353 176.917 67.474 177.144C68.0127 177.371 67.4294 178.292 66.8482 178.532C66.2669 178.772 65.4143 179.021 64.8011 179.465C64.1879 179.909 66.4365 182.564 67.4554 183.43C68.4743 184.297 70.8259 184.698 70.5406 185.76C70.2553 186.822 68.6545 186.196 68.6545 186.196C68.6545 186.196 68.6671 187.288 67.0371 187.369C67.0371 187.369 66.8369 188.332 65.7881 188.373C65.7881 188.373 65.3412 189.496 64.2458 189.301C63.1504 189.105 59.744 188.474 55.6885 182.004L58.8468 178.609Z" fill="#FAB98A"/>
<path d="M59.2225 178.019C59.2225 178.019 43.9228 164.535 39.1284 157.547C39.1284 157.547 40.3242 149.477 41.5472 143.03C42.3393 138.854 42.7091 134.606 42.5953 130.356C42.5315 127.972 42.3233 125.659 41.8279 124.259C41.8279 124.259 37.207 125.437 33.6742 140.558C31.7509 148.789 30.8623 155.343 30.4859 158.764C30.2964 160.488 30.7593 162.219 31.7835 163.619C34.9711 167.976 43.013 177.547 55.1237 182.367C55.1237 182.367 58.477 179.954 59.2225 178.019Z" fill="#1A100E"/>
<path d="M99.0151 163.532C99.0151 163.532 95.9412 164.012 95.0207 165.145C94.1003 166.279 98.3487 166.287 98.3487 166.287C98.3487 166.287 93.2184 166.315 92.991 167.541C92.7635 168.767 97.7481 168.883 97.7481 168.883C97.7481 168.883 94.2752 169.431 94.0072 170.353C93.7391 171.276 97.3784 171.51 97.3784 171.51C97.3784 171.51 94.6702 172.223 94.3896 172.9C94.1089 173.577 97.1536 174.137 98.7451 173.863C100.337 173.587 99.5312 171.572 99.5312 171.572C99.5312 171.572 100.197 169.771 99.611 169.087C99.611 169.087 100.448 167.49 100.052 166.533C100.052 166.533 101.027 163.897 99.0151 163.532Z" fill="#FAB98A"/>
<path d="M255.04 126.432L266.02 142.752L261.258 146.16L254.687 136.138L255.04 126.432Z" fill="#1A100E"/>
<path d="M209.735 276.787L208.465 282.594C208.465 282.594 211.945 285.175 214.403 283.778L215.682 278.109L209.735 276.787Z" fill="#FAB98A"/>
<path d="M209.653 282.245C209.653 282.245 208.679 280.269 207.638 280.154C206.596 280.039 197.507 284.88 194.695 284.899C191.883 284.919 191.443 288.337 192.449 288.905C193.596 289.552 213.845 292.596 213.845 292.596C213.845 292.596 215.83 285.545 215.494 283.49C215.158 281.437 211.692 283.093 209.653 282.245Z" fill="#3C3C48"/>
<path d="M204.46 285.835C204.55 285.882 204.659 285.893 204.764 285.856C204.965 285.786 205.071 285.565 205.002 285.364C204.978 285.297 204.414 283.703 203.402 282.934C202.055 281.91 200.741 282.536 200.686 282.563C200.495 282.657 200.415 282.889 200.509 283.081C200.603 283.272 200.835 283.352 201.027 283.258C201.063 283.24 201.974 282.823 202.933 283.55C203.759 284.176 204.265 285.604 204.271 285.618C204.305 285.717 204.375 285.792 204.46 285.835Z" fill="white"/>
<path d="M205.791 284.974C205.882 285.02 205.991 285.031 206.095 284.995C206.296 284.924 206.403 284.704 206.333 284.502C206.309 284.434 205.745 282.841 204.733 282.073C203.384 281.048 202.072 281.674 202.017 281.702C201.826 281.795 201.746 282.027 201.84 282.219C201.934 282.411 202.166 282.49 202.358 282.396C202.394 282.379 203.305 281.962 204.265 282.689C205.094 283.318 205.597 284.742 205.602 284.756C205.636 284.855 205.706 284.93 205.791 284.974Z" fill="white"/>
<path d="M202.763 286.422C202.853 286.469 202.962 286.479 203.066 286.443C203.267 286.373 203.374 286.153 203.304 285.951C203.281 285.883 202.717 284.289 201.704 283.521C200.356 282.496 199.044 283.123 198.988 283.15C198.797 283.244 198.718 283.476 198.811 283.667C198.905 283.859 199.137 283.939 199.329 283.844C199.365 283.827 200.277 283.409 201.236 284.136C202.064 284.765 202.568 286.19 202.572 286.204C202.608 286.302 202.677 286.378 202.763 286.422Z" fill="white"/>
<path d="M238.458 188.076C237.937 190.312 237.417 192.615 236.889 194.976C233.778 208.924 230.41 224.96 225.458 241.013C223.651 255.407 220.498 264.552 216.256 279.045C215.835 279.127 215.224 279.144 214.515 279.102C214.251 279.086 213.97 279.061 213.681 279.02C211.915 278.805 209.802 278.228 208.465 277.221C208.465 277.221 211.04 259.674 214.606 239.924C216.504 229.384 219.871 203.576 221.473 191.08C222.017 186.789 222.356 184.073 222.356 184.073L235.858 187.433L236.081 187.482L236.659 187.63L238.458 188.076Z" fill="#7F4DFF"/>
<path d="M238.458 188.076C237.938 190.312 237.418 192.615 236.89 194.976L221.472 191.08C222.017 186.789 222.355 184.073 222.355 184.073L235.858 187.433L236.081 187.482L236.659 187.63L238.458 188.076Z" fill="#7F4DFF"/>
<path d="M236.657 187.622V187.63L223.864 240.765C223.847 240.905 221.371 258.303 214.513 279.102C214.249 279.085 213.968 279.061 213.679 279.019C220.545 258.221 223.03 240.79 223.055 240.608L235.856 187.432L236.079 187.481L236.657 187.622Z" fill="#7F4DFF"/>
<path d="M247.875 276.296L248.39 283.924L253.962 282.589V276.296H247.875Z" fill="#FAB98A"/>
<path d="M250.346 282.347C250.346 282.347 253.304 281.562 254.122 281.579C254.939 281.596 260.409 287.726 262.253 288.089C265.597 288.748 265.595 293.969 263.56 294.227C257.672 294.97 247.605 292.472 247.605 292.472C247.605 292.472 246.685 285.77 247.091 283.668C247.496 281.566 248.701 282.964 250.346 282.347Z" fill="#3C3C48"/>
<path d="M255.213 288.073C255.108 288.095 254.995 288.077 254.898 288.013C254.711 287.887 254.662 287.634 254.788 287.447C254.83 287.384 255.831 285.911 257.07 285.4C258.718 284.717 259.888 285.707 259.937 285.75C260.108 285.897 260.126 286.155 259.979 286.325C259.832 286.495 259.574 286.514 259.403 286.366C259.371 286.34 258.555 285.67 257.382 286.154C256.373 286.571 255.474 287.891 255.464 287.904C255.403 287.994 255.312 288.052 255.213 288.073Z" fill="white"/>
<path d="M254.088 286.837C253.982 286.86 253.869 286.842 253.772 286.777C253.585 286.652 253.536 286.398 253.662 286.211C253.704 286.149 254.706 284.675 255.944 284.164C257.592 283.481 258.762 284.471 258.811 284.513C258.981 284.66 259 284.918 258.852 285.089C258.705 285.259 258.447 285.278 258.277 285.13C258.245 285.103 257.427 284.434 256.255 284.918C255.242 285.337 254.347 286.654 254.338 286.668C254.277 286.757 254.186 286.816 254.088 286.837Z" fill="white"/>
<path d="M256.786 289.126C256.681 289.149 256.567 289.13 256.471 289.066C256.284 288.94 256.235 288.687 256.361 288.5C256.402 288.437 257.404 286.964 258.643 286.452C260.292 285.768 261.461 286.759 261.51 286.802C261.68 286.949 261.699 287.207 261.551 287.377C261.404 287.547 261.146 287.566 260.976 287.418C260.944 287.392 260.127 286.722 258.954 287.206C257.941 287.625 257.046 288.943 257.038 288.955C256.976 289.046 256.885 289.104 256.786 289.126Z" fill="white"/>
<path d="M254.722 277.121C253.418 277.683 251.536 277.848 249.72 277.814C249.44 277.814 249.159 277.806 248.887 277.781C248.219 277.756 247.575 277.699 246.989 277.633L239.008 194.876L238.356 188.075L239.891 187.959L240.716 187.901L254.409 186.903C254.409 186.903 254.401 188.57 254.401 191.285C254.393 200.611 254.442 222.334 254.97 231.719C255.646 243.844 254.722 277.121 254.722 277.121Z" fill="#7F4DFF"/>
<path d="M254.408 186.904C254.408 186.904 254.4 188.571 254.4 191.287L239.007 194.877L238.355 188.076L239.89 187.96L240.716 187.902L254.408 186.904Z" fill="#7F4DFF"/>
<path d="M249.718 277.815C249.438 277.815 249.157 277.807 248.885 277.782L239.889 187.96L240.714 187.902L249.718 277.815Z" fill="#7F4DFF"/>
<path d="M255.792 187.157C249.271 188.666 244 189.436 238.795 189.484C238.764 189.484 238.732 189.487 238.701 189.484C238.669 189.487 238.639 189.484 238.605 189.484C233.398 189.436 228.132 188.666 221.608 187.157C220.695 175.464 224.69 168.062 224.246 154.955C224.243 154.842 224.237 154.727 224.234 154.614C224.213 154.048 224.188 153.487 224.161 152.927C224.109 151.865 224.046 150.813 223.974 149.779C223.935 149.211 223.893 148.648 223.849 148.092C222.95 136.768 221.155 127.796 222.128 126.57C223.185 125.236 225.871 123.663 228.603 122.203C231.193 120.821 233.821 119.539 235.138 118.663C236.444 119.232 237.485 119.543 238.605 119.538C238.636 119.538 238.67 119.538 238.702 119.535C238.732 119.538 238.766 119.538 238.796 119.538C239.917 119.543 240.958 119.232 242.266 118.663C243.487 119.475 245.789 120.609 248.136 121.846C250.991 123.351 253.912 125.007 255.041 126.433C256.055 127.714 254.237 137.523 253.43 149.564C253.395 150.105 253.361 150.649 253.329 151.198C253.26 152.385 253.202 153.589 253.16 154.807C253.158 154.857 253.157 154.905 253.155 154.954C253.138 155.436 253.128 155.909 253.123 156.376C252.996 168.611 256.672 175.893 255.792 187.157Z" fill="#3C3C48"/>
<path d="M249.255 172.376H249.254C242.68 172.347 237.07 169.356 233.52 166.851C229.682 164.143 227.356 161.399 227.332 161.371C227.22 161.237 227.237 161.038 227.371 160.925C227.505 160.813 227.704 160.83 227.817 160.964C227.839 160.991 230.123 163.683 233.899 166.344C237.372 168.792 242.854 171.715 249.256 171.742C249.431 171.743 249.572 171.885 249.571 172.06C249.57 172.235 249.429 172.376 249.255 172.376Z" fill="#1A100E"/>
<path d="M242.404 174.609C236.7 174.609 231.012 171.359 230.754 171.209C230.603 171.121 230.551 170.928 230.638 170.777C230.726 170.626 230.919 170.574 231.071 170.661C231.138 170.7 237.83 174.522 243.765 173.908C243.941 173.888 244.094 174.016 244.112 174.19C244.13 174.363 244.003 174.519 243.83 174.537C243.356 174.586 242.88 174.609 242.404 174.609Z" fill="#1A100E"/>
<path d="M237.354 134.648C237.205 134.648 237.072 134.542 237.044 134.391C237.011 134.219 237.124 134.053 237.295 134.021C245.309 132.501 247.725 127.345 247.748 127.292C247.82 127.134 248.008 127.062 248.167 127.135C248.326 127.207 248.397 127.394 248.324 127.553C248.223 127.777 245.747 133.061 237.413 134.642C237.394 134.647 237.374 134.648 237.354 134.648Z" fill="#1A100E"/>
<path d="M239.363 124.771C234.761 125.245 233.075 119.674 233.058 119.616C233.023 119.495 233.092 119.368 233.213 119.333C233.334 119.298 233.46 119.367 233.496 119.488C233.562 119.712 235.158 124.969 239.584 124.283C243.457 123.685 243.241 119.34 243.23 119.156C243.223 119.03 243.317 118.921 243.444 118.914C243.57 118.907 243.678 119.002 243.686 119.128C243.688 119.177 243.94 124.072 239.653 124.734C239.555 124.749 239.459 124.761 239.363 124.771Z" fill="white"/>
<path d="M229.984 106.185C229.984 106.185 226.196 99.7104 229.391 94.7111C232.585 89.7112 239.369 90.1827 241.127 90.5764C242.885 90.9695 253.002 95.714 246.882 107.219L229.984 106.185Z" fill="#3C3C48"/>
<path d="M230.617 104.353C230.617 104.353 229.084 102.308 227.944 103.999C226.804 105.689 228.416 110.682 231.207 109.463L230.617 104.353Z" fill="#F9907E"/>
<path d="M230.597 107.921C230.494 107.921 230.4 107.852 230.37 107.748C229.937 106.207 228.341 105.582 228.325 105.576C228.203 105.529 228.142 105.393 228.188 105.272C228.233 105.15 228.37 105.089 228.492 105.135C228.566 105.163 230.326 105.846 230.824 107.621C230.859 107.746 230.786 107.876 230.66 107.911C230.64 107.917 230.618 107.921 230.597 107.921Z" fill="#E4765D"/>
<path d="M228.985 107.144C228.941 107.144 228.897 107.132 228.857 107.106C228.747 107.035 228.716 106.89 228.787 106.78C228.799 106.762 229.081 106.331 229.672 106.066C229.79 106.013 229.93 106.066 229.983 106.185C230.036 106.304 229.983 106.444 229.864 106.497C229.407 106.702 229.185 107.032 229.183 107.035C229.138 107.106 229.063 107.144 228.985 107.144Z" fill="#E4765D"/>
<path d="M246.418 104.353C246.418 104.353 247.951 102.308 249.09 103.999C250.23 105.689 248.619 110.682 245.828 109.463L246.418 104.353Z" fill="#F9907E"/>
<path d="M246.437 107.921C246.54 107.921 246.635 107.852 246.664 107.748C247.097 106.207 248.694 105.582 248.709 105.576C248.831 105.529 248.892 105.393 248.846 105.272C248.8 105.15 248.664 105.089 248.543 105.135C248.468 105.163 246.708 105.846 246.21 107.621C246.174 107.746 246.247 107.876 246.373 107.911C246.394 107.917 246.416 107.921 246.437 107.921Z" fill="#E4765D"/>
<path d="M248.049 107.144C248.093 107.144 248.138 107.132 248.177 107.106C248.287 107.035 248.318 106.89 248.247 106.78C248.235 106.762 247.953 106.331 247.362 106.066C247.244 106.013 247.104 106.066 247.051 106.185C246.998 106.304 247.051 106.444 247.17 106.497C247.627 106.702 247.849 107.032 247.851 107.035C247.896 107.106 247.971 107.144 248.049 107.144Z" fill="#E4765D"/>
<path d="M242.291 113.698V118.663C242.291 118.663 240.81 121.191 238.808 121.363C236.807 121.538 235.03 119.186 235.03 119.186V114.046L242.291 113.698Z" fill="#FAB98A"/>
<path d="M242.291 113.698V115.901C240.947 117.392 238.561 117.765 235.03 117.243V114.047L242.291 113.698Z" fill="#F9907E"/>
<path d="M247.526 100.947C247.434 102.876 247.25 105.289 246.882 107.218C246.79 107.7 246.686 108.153 246.571 108.558C245.526 112.217 242.912 118.491 235.596 115.877C232.364 114.724 230.867 111.125 230.199 107.464C229.746 104.978 229.678 102.466 229.711 100.671C229.746 98.8378 230.746 97.1632 232.341 96.26C236.66 93.812 241.217 94.7244 244.217 95.8776C246.299 96.6777 247.632 98.7228 247.526 100.947Z" fill="#FAB98A"/>
<path d="M236.545 93.8786C236.545 93.8786 246.2 109.364 247.531 103.684C249.418 95.635 243.65 90.655 236.545 93.8786Z" fill="#3C3C48"/>
<path d="M236.144 93.8772C229.719 93.9244 226.523 101.225 229.503 102.089C233.649 103.292 237.246 97.4233 238.352 95.3869C237.607 94.8961 236.862 94.4059 236.144 93.8772Z" fill="#3C3C48"/>
<path d="M247.849 90.4049C247.849 93.9137 245.004 96.7589 241.495 96.7589C237.986 96.7589 235.141 93.9137 235.141 90.4049C235.141 86.8954 237.986 84.0509 241.495 84.0509C245.003 84.0509 247.849 86.8954 247.849 90.4049Z" fill="#3C3C48"/>
<path d="M230.833 101.396C230.833 101.396 231.333 103.338 230.65 104.645C229.968 105.951 230.342 108.189 230.65 110.705C230.65 110.705 229.566 109.172 229.502 106.715C229.439 104.258 229.841 102.214 229.502 101.231L230.833 101.396Z" fill="#3C3C48"/>
<path d="M246.004 101.396C246.004 101.396 245.504 103.338 246.187 104.645C246.869 105.951 246.495 108.189 246.187 110.705C246.187 110.705 247.271 109.172 247.335 106.715C247.398 104.258 246.996 102.214 247.335 101.231L246.004 101.396Z" fill="#3C3C48"/>
<path d="M235.295 104.644C235.295 105.174 235.022 105.604 234.685 105.604C234.348 105.604 234.075 105.174 234.075 104.644C234.075 104.114 234.348 103.684 234.685 103.684C235.022 103.684 235.295 104.114 235.295 104.644Z" fill="#3C3C48"/>
<path d="M242.829 104.644C242.829 105.174 242.555 105.604 242.218 105.604C241.881 105.604 241.608 105.174 241.608 104.644C241.608 104.114 241.882 103.684 242.218 103.684C242.556 103.684 242.829 104.114 242.829 104.644Z" fill="#3C3C48"/>
<path d="M233.476 101.787C233.983 101.644 235.006 101.399 236.086 101.396C236.37 101.395 236.588 101.648 236.537 101.927L236.536 101.934C236.496 102.157 236.296 102.315 236.07 102.305C235.335 102.271 233.407 102.374 232.496 102.743C232.478 102.585 232.572 102.411 232.704 102.258C232.905 102.025 233.18 101.871 233.476 101.787Z" fill="#3C3C48"/>
<path d="M243.334 101.807C242.827 101.664 241.804 101.419 240.725 101.416C240.441 101.415 240.222 101.668 240.273 101.947L240.274 101.954C240.314 102.177 240.514 102.335 240.74 102.325C241.475 102.29 243.403 102.394 244.315 102.763C244.333 102.605 244.239 102.431 244.107 102.278C243.905 102.044 243.63 101.891 243.334 101.807Z" fill="#3C3C48"/>
<path d="M238.599 109.023C238.418 109.023 238.237 108.991 238.086 108.9C237.949 108.818 237.777 108.651 237.743 108.324C237.653 107.458 237.875 104.74 237.885 104.625C237.895 104.495 238.009 104.398 238.139 104.409C238.269 104.42 238.366 104.533 238.355 104.664C238.353 104.692 238.127 107.452 238.213 108.276C238.227 108.419 238.286 108.471 238.328 108.496C238.55 108.629 239.061 108.493 239.275 108.407C239.396 108.358 239.533 108.415 239.582 108.536C239.631 108.657 239.573 108.795 239.453 108.844C239.392 108.868 238.997 109.023 238.599 109.023Z" fill="#F9907E"/>
<path d="M235.604 110.512C235.782 111.409 236.374 113.06 238.371 113.06C240.372 113.06 240.933 111.552 241.126 110.512H235.604Z" fill="white"/>
<path d="M238.343 114.436C237.766 114.436 237.258 114.126 237.236 114.113C237.125 114.044 237.091 113.899 237.159 113.788C237.228 113.677 237.372 113.643 237.484 113.711C237.488 113.714 237.903 113.965 238.343 113.965C238.818 113.965 239.244 113.713 239.248 113.711C239.36 113.643 239.505 113.679 239.572 113.791C239.639 113.903 239.603 114.047 239.492 114.114C239.47 114.127 238.953 114.436 238.343 114.436Z" fill="#F9907E"/>
<path d="M309.669 151.256L303.466 165.946C301.423 164.821 299.1 164.129 296.61 163.993C291.767 163.729 287.309 165.639 284.187 168.871C281.578 171.552 279.898 175.152 279.679 179.176C279.345 185.319 282.507 190.853 287.437 193.833C288.547 194.501 289.745 195.042 291.021 195.429L285.389 208.771L269.161 201.919C272.37 194.297 268.805 185.519 261.183 182.302C253.568 179.086 244.784 182.658 241.567 190.273L227.875 184.49L233.713 170.67C233.415 170.565 233.124 170.452 232.834 170.333C225.213 167.116 221.648 158.332 224.857 150.716C228.073 143.101 236.858 139.536 244.473 142.745C244.763 142.872 245.052 143.005 245.328 143.144L252.156 126.983L252.176 126.991L309.669 151.256Z" fill="#6517FF"/>
<path d="M231.372 182.437L232.179 183.208C232.9 183.897 233.853 183.996 234.792 183.66C235.207 183.512 235.899 183.177 236.204 183.126C237.062 182.983 238.897 183.122 239.307 183.464C239.717 183.807 238.961 184.456 238.388 184.51C237.815 184.564 237.003 184.554 236.349 184.778C235.694 185.003 236.95 187.925 237.609 188.956C238.268 189.986 240.217 190.966 239.683 191.819C239.149 192.671 237.918 191.695 237.918 191.695C237.918 191.695 237.636 192.653 236.189 192.288C236.189 192.288 235.756 193.077 234.828 192.832C234.828 192.832 234.137 193.695 233.232 193.231C232.326 192.767 229.517 191.303 227.702 184.561L231.372 182.437Z" fill="#FAB98A"/>
<path d="M222.128 126.57C222.128 126.57 214.638 150.457 213.679 158.879C212.719 167.3 227.258 185.292 227.258 185.292L231.757 182.805C231.757 182.805 223.049 166.087 221.472 159.46L225.193 143.777C225.193 143.777 225.168 133.271 222.128 126.57Z" fill="#1A100E"/>
<path d="M285.965 139.954C285.965 139.954 285.22 142.465 285.75 143.574C286.28 144.683 287.82 141.455 287.82 141.455C287.82 141.455 285.989 145.367 286.839 145.982C287.69 146.598 289.577 142.848 289.577 142.848C289.577 142.848 288.74 145.687 289.345 146.224C289.95 146.761 291.441 144.077 291.441 144.077C291.441 144.077 291.006 146.394 291.419 146.853C291.833 147.31 293.358 145.197 293.723 143.888C294.088 142.578 292.265 142.463 292.265 142.463C292.265 142.463 291.136 141.307 290.404 141.506C290.404 141.506 289.492 140.293 288.621 140.249C288.621 140.249 286.968 138.555 285.965 139.954Z" fill="#FAB98A"/>
<path d="M175.134 221.478C175.134 223.777 175.174 225.659 175.134 228.51C173.374 226.786 170.147 224.162 170.147 224.162L172.534 221.826C172.534 221.826 173.993 221.018 175.134 221.478Z" fill="#FAB98A"/>
<path d="M154.272 172.951C153.297 179.221 154.913 197.192 156.947 200.6C159.596 205.037 169.422 215.523 174.557 220.925C175.483 221.9 169.82 224.995 169.82 224.995C169.82 224.995 154.63 213.619 149.883 206.439C148.54 204.408 146.285 198.535 144.766 188.097C144.305 184.932 142.879 178.416 144.038 174.73C145.371 170.488 150.688 169.739 154.272 172.951Z" fill="#1A100E"/>
<path d="M149.29 275.805L149.159 282.473C149.159 282.473 150.824 283.669 154.222 283.012L155.507 275.824L149.29 275.805Z" fill="#FAB98A"/>
<path d="M153.486 282.153C153.486 282.153 154.622 280.529 155.564 280.57C156.506 280.61 163.923 286.161 166.42 286.564C168.917 286.968 168.84 290.067 167.867 290.434C166.758 290.853 148.337 290.781 148.337 290.781C148.337 290.781 147.54 284.239 148.121 282.459C148.701 280.679 151.556 282.627 153.486 282.153Z" fill="#3C3C48"/>
<path d="M157.61 286.058C157.522 286.086 157.424 286.081 157.337 286.034C157.167 285.944 157.103 285.734 157.193 285.564C157.223 285.508 157.943 284.168 158.949 283.624C160.287 282.899 161.369 283.636 161.414 283.667C161.571 283.777 161.61 283.994 161.5 284.152C161.39 284.309 161.172 284.348 161.015 284.237C160.985 284.217 160.233 283.721 159.28 284.236C158.46 284.68 157.814 285.879 157.807 285.891C157.763 285.973 157.691 286.03 157.61 286.058Z" fill="white"/>
<path d="M156.544 285.109C156.457 285.137 156.359 285.132 156.272 285.085C156.102 284.995 156.037 284.785 156.128 284.615C156.158 284.558 156.878 283.219 157.884 282.674C159.223 281.948 160.303 282.685 160.348 282.716C160.506 282.826 160.545 283.044 160.434 283.201C160.324 283.358 160.107 283.397 159.949 283.286C159.92 283.266 159.167 282.77 158.214 283.285C157.391 283.731 156.748 284.928 156.742 284.94C156.698 285.024 156.626 285.081 156.544 285.109Z" fill="white"/>
<path d="M159.038 286.812C158.951 286.84 158.853 286.835 158.766 286.789C158.596 286.698 158.532 286.488 158.622 286.318C158.652 286.261 159.372 284.922 160.378 284.377C161.717 283.651 162.797 284.388 162.842 284.42C163 284.529 163.039 284.747 162.928 284.904C162.819 285.061 162.601 285.1 162.443 284.99C162.414 284.97 161.661 284.474 160.708 284.988C159.885 285.434 159.242 286.631 159.236 286.644C159.193 286.727 159.12 286.785 159.038 286.812Z" fill="white"/>
<path d="M156.174 277.496C154.54 278.034 152.502 277.828 150.826 277.258C150.543 277.164 150.273 277.059 150.015 276.945C149.291 276.622 148.674 276.236 148.248 275.822C148.248 275.822 147.989 271.194 149.159 251.993C149.31 249.515 149.035 242.357 151.512 232.361C139.582 235.247 128.082 234.4 119.157 230.711L131.025 219.267C131.025 219.267 161.023 215.888 165.709 225.048C168.864 231.217 156.174 277.496 156.174 277.496Z" fill="#7F4DFF"/>
<path d="M90.2863 269.192L84.3054 272.141C84.3054 272.141 84.0088 274.17 86.1543 276.885L93.1281 274.722L90.2863 269.192Z" fill="#FAB98A"/>
<path d="M86.5787 275.836C86.5787 275.836 88.5433 276.099 88.9404 276.954C89.3374 277.809 87.8177 286.948 88.6078 289.351C89.3979 291.754 86.61 293.111 85.8365 292.415C84.9553 291.623 76.5503 275.231 76.5503 275.231C76.5503 275.231 81.9931 271.516 83.8413 271.213C85.6889 270.91 85.2706 274.34 86.5787 275.836Z" fill="#3C3C48"/>
<path d="M85.0075 281.294C84.9416 281.23 84.901 281.14 84.9024 281.041C84.9044 280.849 85.062 280.695 85.2542 280.697C85.318 280.698 86.839 280.721 87.7847 281.364C89.0444 282.219 88.8874 283.518 88.8801 283.573C88.8548 283.763 88.6799 283.898 88.489 283.872C88.2988 283.847 88.1645 283.672 88.1898 283.481C88.1938 283.446 88.2889 282.549 87.393 281.94C86.6222 281.416 85.2602 281.393 85.2462 281.393C85.1531 281.392 85.0693 281.354 85.0075 281.294Z" fill="white"/>
<path d="M85.3605 279.911C85.2946 279.847 85.2547 279.758 85.2554 279.658C85.2574 279.466 85.415 279.312 85.6072 279.314C85.6717 279.315 87.192 279.338 88.1377 279.981C89.398 280.836 89.2404 282.135 89.2331 282.19C89.2078 282.38 89.0329 282.514 88.8421 282.489C88.6518 282.464 88.5175 282.289 88.5428 282.098C88.5468 282.063 88.6412 281.166 87.746 280.556C86.9719 280.03 85.6132 280.01 85.5992 280.01C85.5068 280.009 85.4223 279.972 85.3605 279.911Z" fill="white"/>
<path d="M84.9948 282.909C84.9289 282.846 84.8884 282.756 84.8897 282.657C84.8917 282.464 85.0493 282.31 85.2415 282.312C85.306 282.313 86.8263 282.336 87.7721 282.979C89.0323 283.834 88.8747 285.133 88.8674 285.188C88.8421 285.378 88.6672 285.512 88.477 285.487C88.2868 285.462 88.1525 285.287 88.1777 285.097C88.1817 285.062 88.2762 284.164 87.381 283.555C86.6069 283.029 85.2475 283.008 85.2342 283.008C85.1411 283.007 85.0566 282.969 84.9948 282.909Z" fill="white"/>
<path d="M139.476 258.925C135.447 264.562 91.9519 276.082 91.9519 276.082C90.7641 274.917 90.0206 273.1 89.7333 271.398C89.6834 271.12 89.6488 270.848 89.6269 270.58C89.5524 269.702 89.6069 268.894 89.7958 268.272C89.7958 268.272 92.0862 265.485 109.463 258.641C111.771 257.731 116.596 253.766 124.125 251.044C117.627 239.583 112.329 228.446 112.007 218.658L115.391 219.584L116.164 219.794L130.881 223.815C137.028 235.438 142.739 254.358 139.476 258.925Z" fill="#7F4DFF"/>
<path d="M127.107 251.503C126.96 251.979 126.636 252.363 126.194 252.587C123.194 254.106 115.851 257.904 112.462 260.312C110.598 261.638 106.467 263.45 102.096 265.37C97.3658 267.447 92.4869 269.587 89.7329 271.399C89.683 271.121 89.6484 270.848 89.6265 270.581C92.4849 268.776 97.2101 266.704 101.799 264.688C106.133 262.787 110.228 260.989 112.031 259.707C115.46 257.271 122.843 253.452 125.86 251.923C126.118 251.791 126.309 251.566 126.395 251.286C126.481 251.006 126.45 250.708 126.308 250.45C118.419 236.215 116.081 225.014 115.39 219.584L116.163 219.795C116.892 225.247 119.26 236.2 126.958 250.091C127.198 250.526 127.253 251.027 127.107 251.503Z" fill="#7F4DFF"/>
<path d="M137.789 157.596C137.789 157.596 130.271 157.47 125.565 159.395C120.858 161.32 120.389 168.586 118.446 173.929C116.503 179.272 106.845 214.018 113.191 220.595C117.983 225.562 143.712 226.45 144.675 217.856C145.316 212.14 146.72 204.675 149.705 190.943C151.674 181.885 154.329 175.609 154.607 171.662C154.884 167.716 145.003 159.67 145.003 159.67L137.789 157.596Z" fill="#3C3C48"/>
<path d="M140.612 165.764C137.088 164.549 135.13 159.682 135.047 159.468C134.993 159.333 135.06 159.18 135.194 159.127C135.329 159.073 135.482 159.14 135.535 159.275C135.556 159.326 137.606 164.423 141.091 165.361C141.23 165.399 141.314 165.543 141.276 165.684C141.238 165.824 141.095 165.907 140.954 165.869C140.839 165.838 140.724 165.803 140.612 165.764Z" fill="#1A100E"/>
<path d="M123.021 206.827C122.897 206.784 122.822 206.653 122.85 206.522C122.882 206.38 123.022 206.29 123.164 206.322C132.627 208.415 141.834 193.963 141.926 193.816C142.003 193.693 142.165 193.656 142.288 193.733C142.411 193.81 142.448 193.973 142.37 194.096C141.987 194.706 132.87 209.008 123.049 206.835C123.041 206.833 123.031 206.83 123.021 206.827Z" fill="#1A100E"/>
<path d="M128.29 203.311C128.207 203.282 128.14 203.212 128.119 203.119C128.087 202.978 128.177 202.837 128.319 202.805C134.189 201.492 136.428 197.341 136.45 197.299C136.517 197.17 136.675 197.119 136.804 197.188C136.933 197.255 136.983 197.414 136.915 197.542C136.822 197.722 134.554 201.949 128.433 203.318C128.384 203.33 128.335 203.326 128.29 203.311Z" fill="#1A100E"/>
<path d="M154.478 144.395C153.18 150.074 147.525 153.626 141.846 152.328C136.167 151.03 132.615 145.375 133.913 139.696C135.21 134.017 140.866 130.465 146.545 131.763C152.223 133.061 155.775 138.716 154.478 144.395Z" fill="#3C3C48"/>
<path d="M135.049 136.788C135.049 136.788 134.556 133.097 137.476 131.602C140.395 130.108 142.158 131.154 144.675 129.884C147.192 128.615 157.426 128.872 157.65 133.706C157.874 138.541 153.462 138.701 153.462 138.701L135.049 136.788Z" fill="#3C3C48"/>
<path d="M152.092 146.878C152.092 146.878 154.217 145.078 155.018 147.151C155.819 149.224 152.894 154.136 150.226 152.165L152.092 146.878Z" fill="#F9907E"/>
<path d="M151.247 150.673C151.356 150.698 151.474 150.648 151.53 150.545C152.364 149.013 154.212 148.736 154.23 148.734C154.37 148.714 154.469 148.585 154.449 148.444C154.429 148.304 154.3 148.205 154.159 148.225C154.073 148.237 152.038 148.535 151.078 150.3C151.01 150.425 151.056 150.58 151.181 150.648C151.203 150.659 151.225 150.667 151.247 150.673Z" fill="#E4765D"/>
<path d="M153.148 150.239C153.194 150.25 153.244 150.248 153.292 150.23C153.426 150.181 153.495 150.034 153.446 149.901C153.438 149.879 153.243 149.352 152.679 148.928C152.566 148.842 152.404 148.865 152.319 148.978C152.234 149.092 152.257 149.253 152.37 149.338C152.805 149.667 152.962 150.072 152.963 150.076C152.994 150.161 153.066 150.221 153.148 150.239Z" fill="#E4765D"/>
<path d="M138.011 154.106L136.806 159.381C136.806 159.381 138.443 162.201 140.529 162.87C142.612 163.541 144.481 161.312 144.481 161.312L145.64 156.24L138.011 154.106Z" fill="#FAB98A"/>
<path d="M138.011 154.106L137.476 156.447C138.542 158.357 140.986 159.332 144.864 159.635L145.64 156.24L138.011 154.106Z" fill="#F9907E"/>
<path d="M154.538 143.321C154.219 144.838 153.725 146.824 152.989 148.842C152.801 149.368 152.592 149.896 152.369 150.419C150.772 154.146 148.308 157.607 144.594 158.048C136.976 158.953 135.23 153.042 134.807 148.845C134.762 148.412 134.732 147.995 134.712 147.608C134.688 147.149 134.688 146.644 134.705 146.108C134.784 143.972 135.173 141.363 135.546 139.291C135.972 136.901 137.883 135.052 140.291 134.709C143.757 134.211 148.822 134.347 152.813 137.997C154.288 139.342 154.945 141.365 154.538 143.321Z" fill="#FAB98A"/>
<path d="M148.028 146.674C147.9 147.237 148.085 147.76 148.443 147.842C148.801 147.923 149.196 147.533 149.324 146.97C149.453 146.407 149.267 145.884 148.909 145.802C148.551 145.721 148.156 146.11 148.028 146.674Z" fill="#3C3C48"/>
<path d="M140.438 144.939C140.31 145.503 140.495 146.025 140.853 146.107C141.211 146.189 141.605 145.799 141.734 145.236C141.863 144.673 141.677 144.15 141.319 144.068C140.961 143.986 140.566 144.377 140.438 144.939Z" fill="#3C3C48"/>
<path d="M151.5 144.172C151.5 144.172 149.045 142.49 146.763 142.912L146.716 143.916C146.716 143.916 149.081 143.928 151.096 145.253C151.335 144.84 151.571 144.67 151.5 144.172Z" fill="#3C3C48"/>
<path d="M139.153 141.352C139.153 141.352 142.095 140.902 143.967 142.274L143.573 143.199C143.573 143.199 141.438 142.183 139.048 142.501C139.012 142.024 138.873 141.769 139.153 141.352Z" fill="#3C3C48"/>
<path d="M143.767 149.49C143.344 149.394 142.962 149.133 142.903 149.092C142.788 149.01 142.76 148.85 142.841 148.734C142.922 148.618 143.083 148.59 143.199 148.672C143.404 148.815 143.914 149.083 144.182 148.996C144.234 148.979 144.308 148.94 144.359 148.791C144.65 147.936 145.08 144.949 145.085 144.919C145.105 144.778 145.235 144.681 145.376 144.7C145.517 144.72 145.614 144.851 145.594 144.991C145.576 145.116 145.153 148.056 144.847 148.956C144.732 149.294 144.509 149.43 144.343 149.484C144.158 149.544 143.958 149.534 143.767 149.49Z" fill="#F9907E"/>
<path d="M145.727 152.323C145.344 153.146 144.385 154.597 142.461 154.127C140.533 153.657 140.348 152.071 140.406 151.025L145.727 152.323Z" fill="white"/>
<path d="M151.968 148.608C152.394 147.618 152.885 146.327 152.906 145.612C152.938 144.347 152.099 143.406 152.7 142.316C153.301 141.222 152.354 139.686 151.493 139.27C150.634 138.853 148.409 138.82 146.547 137.351C144.771 135.948 141.15 135.834 140.293 136.984C139.255 138.377 140.152 138.736 137.905 139.985C137.009 140.483 137.494 142.419 137.363 143.575C137.301 144.107 137.251 144.362 137.103 144.915L137.031 145.196L134.799 144.686C134.952 142.881 135.252 140.92 135.544 139.289C135.971 136.9 137.885 135.053 140.291 134.709C143.759 134.212 148.82 134.347 152.816 137.997C154.289 139.345 154.947 141.365 154.538 143.32C154.221 144.839 153.725 146.823 152.992 148.842L151.968 148.608Z" fill="#3C3C48"/>
<path d="M135.567 145.876C135.707 145.294 135.8 144.7 135.829 144.102C135.87 143.284 135.805 142.518 135.074 142.007C134.487 141.595 133.797 141.432 133.139 142.05C131.518 143.569 131.589 149.465 134.851 148.848L135.567 145.876Z" fill="#FAB98A"/>
<path d="M134.65 147.089C134.547 147.044 134.483 146.934 134.501 146.817C134.758 145.091 133.449 143.757 133.436 143.745C133.336 143.644 133.335 143.481 133.436 143.382C133.536 143.281 133.699 143.281 133.799 143.381C133.861 143.442 135.306 144.906 135.009 146.893C134.988 147.034 134.858 147.131 134.717 147.109C134.694 147.105 134.671 147.099 134.65 147.089Z" fill="#F9907E"/>
<path d="M133.393 145.599C133.349 145.579 133.311 145.548 133.284 145.505C133.206 145.386 133.24 145.227 133.359 145.149C133.379 145.136 133.852 144.834 134.557 144.834C134.698 144.834 134.814 144.949 134.814 145.092C134.814 145.234 134.699 145.348 134.556 145.348C134.01 145.348 133.642 145.578 133.639 145.58C133.563 145.629 133.47 145.633 133.393 145.599Z" fill="#F9907E"/>
<path d="M145.907 146.6C146.279 144.944 147.929 143.9 149.584 144.272C151.24 144.643 152.285 146.293 151.913 147.949C151.541 149.605 149.891 150.649 148.236 150.277C146.58 149.906 145.535 148.256 145.907 146.6ZM146.375 146.705C146.061 148.103 146.943 149.496 148.341 149.81C149.739 150.123 151.131 149.242 151.444 147.844C151.758 146.446 150.877 145.054 149.479 144.74C148.081 144.426 146.689 145.308 146.375 146.705Z" fill="white"/>
<path d="M137.699 144.757C138.071 143.101 139.721 142.057 141.376 142.429C143.032 142.8 144.076 144.45 143.705 146.106C143.333 147.762 141.683 148.806 140.028 148.434C138.372 148.062 137.327 146.412 137.699 144.757ZM138.167 144.862C137.853 146.26 138.735 147.652 140.133 147.966C141.53 148.28 142.923 147.398 143.236 146C143.55 144.603 142.668 143.21 141.271 142.896C139.874 142.582 138.481 143.464 138.167 144.862Z" fill="white"/>
<path d="M151.623 146.868C151.682 146.881 151.747 146.872 151.803 146.837C151.82 146.826 153.481 145.809 155.177 146.628C155.296 146.686 155.439 146.636 155.497 146.517C155.555 146.398 155.505 146.254 155.386 146.196C153.446 145.259 151.625 146.382 151.547 146.43C151.436 146.501 151.402 146.649 151.472 146.761C151.508 146.818 151.563 146.855 151.623 146.868Z" fill="white"/>
<path d="M138.369 143.891C138.445 143.908 138.529 143.888 138.589 143.829C138.684 143.737 138.686 143.585 138.594 143.49C138.517 143.412 136.7 141.563 134.826 141.455C134.693 141.447 134.579 141.549 134.572 141.68C134.565 141.813 134.665 141.926 134.798 141.934C136.486 142.031 138.232 143.806 138.249 143.824C138.283 143.859 138.325 143.881 138.369 143.891Z" fill="white"/>
<path d="M143.691 145.394C143.698 145.388 144.423 144.761 145.155 144.925C145.878 145.087 146.213 145.951 146.216 145.96L146.666 145.792C146.648 145.747 146.24 144.677 145.26 144.456C144.287 144.238 143.411 145.002 143.374 145.034L143.691 145.394Z" fill="white"/>
<path d="M212.63 205.778C216.285 198.437 213.295 189.522 205.959 185.869C198.617 182.213 189.703 185.204 186.05 192.54L176.393 187.737L168.79 203.364C168.525 203.213 168.25 203.07 167.967 202.931C160.591 199.344 151.703 202.412 148.117 209.789C144.53 217.165 147.602 226.047 154.978 229.633C155.262 229.772 155.546 229.897 155.832 230.017L149.586 242.857C149.585 242.857 149.584 242.856 149.583 242.856L149.307 243.415L200.68 268.995L228.275 213.564L212.63 205.778Z" fill="#6517FF"/>
<path d="M186.191 203.043C186.093 202.564 184.471 201.95 182.904 201.461C182.919 201.406 182.933 201.35 182.947 201.292C185.133 201.723 188.908 202.329 188.582 201.304C188.369 200.633 185.157 200.014 183.211 199.697C183.223 199.593 183.234 199.489 183.244 199.384C185.567 199.727 190.097 200.26 189.666 199.118C189.379 198.357 185.405 197.854 183.357 197.644C183.361 197.551 183.364 197.46 183.366 197.371C185.349 197.582 189.158 197.849 188.729 196.713C188.341 195.684 182.447 195.591 182.447 195.591L180.251 195.284C180.251 195.284 180.252 194.517 181.831 194.003C183.409 193.49 184.133 192.371 182.119 192.492C179.843 192.629 177.898 193.45 176.311 193.495C174.723 193.539 173.085 195.125 173.085 195.125L172.438 199.408C172.438 199.408 178.199 202.88 181.969 202.788C183.944 203.349 186.362 203.877 186.191 203.043Z" fill="#FAB98A"/>
<path d="M124.061 160.292C128.477 165.491 144.557 183.656 148.054 185.535C152.605 187.981 166.852 191.696 174.033 193.694C175.328 194.055 173.236 200.604 173.236 200.604C173.236 200.604 152.753 197.896 144.992 194.174C142.796 193.121 134.178 187.439 127.86 180.566C125.695 178.212 122.613 174.166 121.236 170.556C119.58 166.214 121.087 162.262 124.061 160.292Z" fill="#1A100E"/>
<path d="M278.027 292.733H270.856C269.881 292.733 269.017 291.628 268.715 289.996L265.675 273.526C265.55 272.852 265.817 272.152 266.219 272.097C271.755 271.342 277.238 271.341 282.666 272.095C283.067 272.151 283.333 272.851 283.209 273.524L280.168 289.996C279.867 291.628 279.002 292.733 278.027 292.733Z" fill="#3C3C48"/>
<path d="M282.572 273.292C282.572 273.731 278.954 274.086 274.49 274.086C270.027 274.086 266.408 273.731 266.408 273.292C266.408 272.854 270.027 272.499 274.49 272.499C278.954 272.5 282.572 272.855 282.572 273.292Z" fill="#1A100E"/>
<path d="M288.07 251.034C283.763 249.899 277.181 258.839 275.183 267.556V254.856C276.188 253.074 278.103 250.394 281.581 247.561C286.989 243.157 291.967 237.504 287.653 236.367C283.609 235.302 277.561 243.117 275.182 251.29V234.981C275.879 233.899 277.02 232.48 278.845 230.993C282.254 228.217 285.391 224.655 282.672 223.938C280.312 223.317 276.869 227.494 275.182 232.206V226.92C275.461 225.284 275.855 222.949 276.937 220.562C279.444 215.03 280.798 209.33 277.493 209.754C274.184 210.178 272.04 220.031 273.849 227.595V230.315C272.627 224.78 268.434 219.047 265.697 219.768C262.977 220.484 266.115 224.047 269.524 226.823C272.118 228.936 273.332 230.914 273.849 231.978V244.825C271.889 236.065 265.261 227.023 260.93 228.164C256.616 229.3 261.594 234.953 267.002 239.358C271.089 242.686 273.019 245.806 273.848 247.502V262.908C271.753 254.308 265.295 245.629 261.047 246.748C256.732 247.885 260.432 252.016 266.51 257.013C270.641 260.408 272.854 263.992 273.847 265.94V273.197C274.329 273.332 274.781 273.331 275.181 273.197V270.309C276.026 268.599 277.959 265.516 281.996 262.228C287.406 257.823 292.384 252.17 288.07 251.034Z" fill="#7F4DFF"/>
</svg>
