<svg width="18" height="21" viewBox="0 0 18 21" fill="none" xmlns="http://www.w3.org/2000/svg">
<path d="M12.0469 8.25C12.6719 7.625 12.9844 6.875 12.9844 6C12.9844 4.90625 12.5938 3.96094 11.8125 3.16406C11.0312 2.36719 10.0938 1.96875 9 1.96875C7.90625 1.96875 6.96875 2.36719 6.1875 3.16406C5.40625 3.96094 5.01562 4.90625 5.01562 6H6.98438C6.98438 5.46875 7.1875 5 7.59375 4.59375C8 4.1875 8.46875 3.98438 9 3.98438C9.53125 3.98438 10 4.1875 10.4062 4.59375C10.8125 5 11.0156 5.46875 11.0156 6C11.0156 6.53125 10.8125 7 10.4062 7.40625L9.1875 8.67188C8.40625 9.51562 8.01562 10.4531 8.01562 11.4844V12H9.98438C9.98438 10.9375 10.375 9.98438 11.1562 9.14062L12.0469 8.25ZM9.98438 15.9844V13.9688H8.01562V15.9844H9.98438ZM15.9844 0C16.5156 0 16.9844 0.195312 17.3906 0.585938C17.7969 0.976562 18 1.4375 18 1.96875V15.9844C18 16.5156 17.7969 16.9844 17.3906 17.3906C16.9844 17.7969 16.5156 18 15.9844 18H12L9 21L6 18H2.01562C1.45312 18 0.976562 17.8047 0.585938 17.4141C0.195312 17.0234 0 16.5469 0 15.9844V1.96875C0 1.40625 0.195312 0.9375 0.585938 0.5625C0.976562 0.1875 1.45312 0 2.01562 0H15.9844Z" fill="#8B5CF6"/>
</svg>
