<svg width="25" height="25" viewBox="0 0 25 25" fill="none" xmlns="http://www.w3.org/2000/svg">
<g clip-path="url(#clip0_7_166)">
<path d="M18.5 10.9062C18.5 11.1288 18.434 11.3463 18.3104 11.5313C18.1868 11.7163 18.0111 11.8605 17.8055 11.9456C17.6 12.0308 17.3738 12.053 17.1555 12.0096C16.9373 11.9662 16.7368 11.8591 16.5795 11.7017C16.4222 11.5444 16.315 11.344 16.2716 11.1257C16.2282 10.9075 16.2505 10.6813 16.3356 10.4757C16.4208 10.2702 16.565 10.0945 16.75 9.97085C16.935 9.84723 17.1525 9.78125 17.375 9.78125C17.6734 9.78125 17.9595 9.89978 18.1705 10.1108C18.3815 10.3217 18.5 10.6079 18.5 10.9062ZM14.75 6.03125H11C10.8011 6.03125 10.6103 6.11027 10.4697 6.25092C10.329 6.39157 10.25 6.58234 10.25 6.78125C10.25 6.98016 10.329 7.17093 10.4697 7.31158C10.6103 7.45223 10.8011 7.53125 11 7.53125H14.75C14.9489 7.53125 15.1397 7.45223 15.2803 7.31158C15.421 7.17093 15.5 6.98016 15.5 6.78125C15.5 6.58234 15.421 6.39157 15.2803 6.25092C15.1397 6.11027 14.9489 6.03125 14.75 6.03125ZM23.75 10.5312V13.5312C23.75 14.128 23.5129 14.7003 23.091 15.1222C22.669 15.5442 22.0967 15.7812 21.5 15.7812H21.2788L19.7591 20.0356C19.655 20.327 19.4634 20.5791 19.2105 20.7574C18.9575 20.9356 18.6557 21.0313 18.3463 21.0312H17.1538C16.8443 21.0313 16.5425 20.9356 16.2895 20.7574C16.0366 20.5791 15.845 20.327 15.7409 20.0356L15.5609 19.5312H10.1891L10.0091 20.0356C9.90502 20.327 9.7134 20.5791 9.46047 20.7574C9.20754 20.9356 8.90568 21.0313 8.59625 21.0312H7.40375C7.09433 21.0313 6.79246 20.9356 6.53953 20.7574C6.2866 20.5791 6.09498 20.327 5.99094 20.0356L4.8125 16.7394C3.69142 15.4706 2.98945 13.8865 2.8025 12.2037C2.56046 12.3309 2.35777 12.5217 2.21633 12.7557C2.07489 12.9897 2.00009 13.2579 2 13.5312C2 13.7302 1.92098 13.9209 1.78033 14.0616C1.63968 14.2022 1.44891 14.2812 1.25 14.2812C1.05109 14.2812 0.860322 14.2022 0.71967 14.0616C0.579018 13.9209 0.5 13.7302 0.5 13.5312C0.501146 12.8624 0.725771 12.2131 1.13819 11.6866C1.55061 11.16 2.12716 10.7864 2.77625 10.625C2.9438 8.55812 3.88252 6.62984 5.40601 5.22305C6.92951 3.81627 8.92634 3.03388 11 3.03125H20.75C20.9489 3.03125 21.1397 3.11027 21.2803 3.25092C21.421 3.39157 21.5 3.58234 21.5 3.78125C21.5 3.98016 21.421 4.17093 21.2803 4.31158C21.1397 4.45223 20.9489 4.53125 20.75 4.53125H18.7447C19.9894 5.40453 20.9683 6.60503 21.5731 8C21.6134 8.09375 21.6528 8.1875 21.6903 8.28125C22.2535 8.32905 22.778 8.58705 23.1596 9.00393C23.5413 9.42082 23.752 9.96607 23.75 10.5312ZM22.25 10.5312C22.25 10.3323 22.171 10.1416 22.0303 10.0009C21.8897 9.86027 21.6989 9.78125 21.5 9.78125H21.1569C20.9971 9.78142 20.8415 9.73059 20.7127 9.63615C20.5839 9.54172 20.4885 9.40863 20.4406 9.25625C20.0109 7.885 19.1542 6.68696 17.9956 5.83695C16.837 4.98694 15.437 4.52946 14 4.53125H11C9.69005 4.53118 8.40838 4.91228 7.31128 5.62807C6.21419 6.34386 5.34907 7.36342 4.82143 8.5624C4.29379 9.76139 4.12643 11.088 4.33975 12.3805C4.55308 13.6729 5.13787 14.8754 6.02281 15.8412C6.09048 15.9148 6.14276 16.0012 6.17656 16.0953L7.40375 19.5312H8.59625L8.95438 18.5291C9.00637 18.3834 9.10211 18.2574 9.22848 18.1683C9.35485 18.0792 9.50568 18.0313 9.66031 18.0312H16.0897C16.2443 18.0313 16.3951 18.0792 16.5215 18.1683C16.6479 18.2574 16.7436 18.3834 16.7956 18.5291L17.1538 19.5312H18.3463L20.0441 14.7791C20.0961 14.6334 20.1918 14.5074 20.3182 14.4183C20.4445 14.3292 20.5954 14.2813 20.75 14.2812H21.5C21.6989 14.2812 21.8897 14.2022 22.0303 14.0616C22.171 13.9209 22.25 13.7302 22.25 13.5312V10.5312Z" fill="#191919"/>
</g>
<defs>
<clipPath id="clip0_7_166">
<rect width="24" height="24" fill="white" transform="translate(0.5 0.03125)"/>
</clipPath>
</defs>
</svg>
