<svg width="17" height="20" viewBox="0 0 17 20" fill="none" xmlns="http://www.w3.org/2000/svg">
<path d="M9 6.98438H14.5312L9 1.5V6.98438ZM12 12V9.98438H4.03125V12H12ZM12 15.9844V13.9688H4.03125V15.9844H12ZM10.0312 0L16.0312 6V18C16.0312 18.5312 15.8281 18.9922 15.4219 19.3828C15.0156 19.7734 14.5469 19.9688 14.0156 19.9688H2.01562C1.48438 19.9688 1.01562 19.7734 0.609375 19.3828C0.203125 18.9922 0 18.5312 0 18L0.046875 1.96875C0.046875 1.4375 0.242188 0.976562 0.632812 0.585938C1.02344 0.195312 1.48438 0 2.01562 0H10.0312Z" fill="#8B5CF6"/>
</svg>
