<svg width="24" height="24" viewBox="0 0 24 24" fill="none" xmlns="http://www.w3.org/2000/svg">
<path d="M12 10.875C14.4853 10.875 16.5 8.86027 16.5 6.375C16.5 3.88973 14.4853 1.875 12 1.875C9.51473 1.875 7.5 3.88973 7.5 6.375C7.5 8.86027 9.51473 10.875 12 10.875Z" stroke="#999EA6" stroke-linecap="round" stroke-linejoin="round"/>
<path d="M12 13.125C9.22095 13.125 6.67354 14.0766 4.70479 15.6574C3.43174 16.6796 3.43174 18.5704 4.70479 19.5926C6.67354 21.1734 9.22099 22.125 12 22.125C14.779 22.125 17.3265 21.1734 19.2952 19.5926C20.5683 18.5704 20.5683 16.6796 19.2952 15.6574C17.3265 14.0766 14.779 13.125 12 13.125Z" stroke="#999EA6" stroke-linecap="round" stroke-linejoin="round"/>
<path d="M13.125 16.875C13.4375 17 14.325 17.175 15.375 16.875" stroke="#999EA6" stroke-linecap="round" stroke-linejoin="round"/>
</svg>
