<svg width="13" height="10" viewBox="0 0 13 10" fill="none" xmlns="http://www.w3.org/2000/svg">
<path d="M12.6225 1.71623L5.12246 9.21624C5.05714 9.28179 4.97952 9.3338 4.89405 9.36928C4.80858 9.40477 4.71695 9.42304 4.62441 9.42304C4.53187 9.42304 4.44024 9.40477 4.35477 9.36928C4.26931 9.3338 4.19169 9.28179 4.12636 9.21624L0.845115 5.93499C0.77971 5.86958 0.727828 5.79193 0.692432 5.70648C0.657035 5.62102 0.638817 5.52943 0.638817 5.43694C0.638817 5.34444 0.657035 5.25285 0.692432 5.1674C0.727828 5.08194 0.77971 5.0043 0.845115 4.93889C0.910519 4.87349 0.988165 4.82161 1.07362 4.78621C1.15908 4.75081 1.25067 4.73259 1.34316 4.73259C1.43566 4.73259 1.52725 4.75081 1.6127 4.78621C1.69816 4.82161 1.7758 4.87349 1.84121 4.93889L4.625 7.72268L11.6275 0.721312C11.7596 0.589222 11.9388 0.515015 12.1256 0.515015C12.3124 0.515015 12.4915 0.589222 12.6236 0.721312C12.7557 0.853403 12.8299 1.03256 12.8299 1.21936C12.8299 1.40616 12.7557 1.58532 12.6236 1.71741L12.6225 1.71623Z" fill="#FF0000"/>
</svg>
