<svg width="23" height="18" viewBox="0 0 23 18" fill="none" xmlns="http://www.w3.org/2000/svg">
<path d="M16.5 9.84375C17.3125 9.84375 18.1562 9.92188 19.0312 10.0781V11.5781C18.4062 11.4219 17.5625 11.3438 16.5 11.3438C14.625 11.3438 13.125 11.6719 12 12.3281V10.6406C13.1875 10.1094 14.6875 9.84375 16.5 9.84375ZM12 7.96875C13.3125 7.4375 14.8125 7.17188 16.5 7.17188C17.3125 7.17188 18.1562 7.25 19.0312 7.40625V8.90625C18.4062 8.75 17.5625 8.67188 16.5 8.67188C14.625 8.67188 13.125 9 12 9.65625V7.96875ZM16.5 6C14.625 6 13.125 6.32812 12 6.98438V5.34375C13.25 4.78125 14.75 4.5 16.5 4.5C17.3125 4.5 18.1562 4.57812 19.0312 4.73438V6.28125C18.2812 6.09375 17.4375 6 16.5 6ZM20.0156 14.0156V2.48438C18.9844 2.17188 17.8125 2.01562 16.5 2.01562C14.4688 2.01562 12.6406 2.51562 11.0156 3.51562V15C12.6406 14 14.4688 13.5 16.5 13.5C17.7188 13.5 18.8906 13.6719 20.0156 14.0156ZM16.5 0C18.875 0 20.7188 0.5 22.0312 1.5V16.0781C22.0312 16.2031 21.9766 16.3203 21.8672 16.4297C21.7578 16.5391 21.6406 16.5938 21.5156 16.5938C21.4219 16.5938 21.3438 16.5781 21.2812 16.5469C20 15.8594 18.4062 15.5156 16.5 15.5156C14.4688 15.5156 12.6406 16.0156 11.0156 17.0156C9.67188 16.0156 7.84375 15.5156 5.53125 15.5156C3.84375 15.5156 2.25 15.875 0.75 16.5938C0.71875 16.5938 0.679688 16.6016 0.632812 16.6172C0.585938 16.6328 0.546875 16.6406 0.515625 16.6406C0.390625 16.6406 0.273438 16.5938 0.164062 16.5C0.0546875 16.4062 0 16.2969 0 16.1719V1.5C1.34375 0.5 3.1875 0 5.53125 0C7.84375 0 9.67188 0.5 11.0156 1.5C12.3594 0.5 14.1875 0 16.5 0Z" fill="#8B5CF6"/>
</svg>
