<svg width="16" height="16" viewBox="0 0 16 16" fill="none" xmlns="http://www.w3.org/2000/svg">
<g clip-path="url(#clip0_569_5916)">
<path d="M11.25 4.99814H2.20497L3.85497 3.35314C3.94913 3.25899 4.00202 3.13129 4.00202 2.99814C4.00202 2.86499 3.94913 2.73729 3.85497 2.64314C3.76082 2.54899 3.63313 2.49609 3.49997 2.49609C3.36682 2.49609 3.23913 2.54899 3.14497 2.64314L0.644974 5.14314C0.599454 5.19069 0.563771 5.24676 0.539974 5.30814C0.512905 5.36782 0.498901 5.4326 0.498901 5.49814C0.498901 5.56368 0.512905 5.62846 0.539974 5.68814C0.563771 5.74952 0.599454 5.80559 0.644974 5.85314L3.14497 8.35314C3.19169 8.39948 3.2471 8.43614 3.30802 8.46103C3.36894 8.48591 3.43417 8.49852 3.49997 8.49814C3.56578 8.49852 3.63101 8.48591 3.69193 8.46103C3.75285 8.43614 3.80825 8.39948 3.85497 8.35314C3.90184 8.30666 3.93904 8.25136 3.96442 8.19043C3.9898 8.1295 4.00287 8.06415 4.00287 7.99814C4.00287 7.93213 3.9898 7.86678 3.96442 7.80585C3.93904 7.74492 3.90184 7.68962 3.85497 7.64314L2.20497 5.99814H11.25C12.1119 5.99814 12.9386 6.34055 13.5481 6.95004C14.1576 7.55954 14.5 8.38619 14.5 9.24814C14.5 10.1101 14.1576 10.9367 13.5481 11.5462C12.9386 12.1557 12.1119 12.4981 11.25 12.4981H7.99997C7.86737 12.4981 7.74019 12.5508 7.64642 12.6446C7.55265 12.7384 7.49997 12.8655 7.49997 12.9981C7.49997 13.1307 7.55265 13.2579 7.64642 13.3517C7.74019 13.4455 7.86737 13.4981 7.99997 13.4981H11.25C12.3771 13.4981 13.4581 13.0504 14.2552 12.2533C15.0522 11.4563 15.5 10.3753 15.5 9.24814C15.5 8.12097 15.0522 7.03997 14.2552 6.24294C13.4581 5.44591 12.3771 4.99814 11.25 4.99814Z" fill="#191919"/>
</g>
<defs>
<clipPath id="clip0_569_5916">
<rect width="16" height="16" fill="white"/>
</clipPath>
</defs>
</svg>
