<svg width="16" height="16" viewBox="0 0 16 16" fill="none" xmlns="http://www.w3.org/2000/svg">
<path d="M11.2187 10.7766C12.093 9.79843 12.5759 8.53224 12.575 7.22031C12.575 4.26719 10.1719 1.86719 7.22187 1.86719C4.26874 1.86719 1.86874 4.27031 1.86874 7.22031C1.86874 10.1703 4.27187 12.5734 7.22187 12.5734C8.53379 12.5744 9.79999 12.0915 10.7781 11.2172L13.6 14.0391C13.629 14.0683 13.6636 14.0914 13.7017 14.1069C13.7398 14.1225 13.7807 14.1302 13.8219 14.1297C13.9048 14.1294 13.9843 14.0969 14.0437 14.0391C14.0727 14.0102 14.0957 13.9758 14.1114 13.938C14.1271 13.9002 14.1351 13.8597 14.1351 13.8188C14.1351 13.7778 14.1271 13.7373 14.1114 13.6995C14.0957 13.6617 14.0727 13.6273 14.0437 13.5984L11.2187 10.7766ZM2.49062 7.22031C2.49062 4.61406 4.61249 2.49219 7.21874 2.49219C9.82499 2.49219 11.9469 4.61406 11.9469 7.22031C11.9469 9.82656 9.82499 11.9484 7.21874 11.9484C4.61249 11.9484 2.49062 9.82656 2.49062 7.22031Z" fill="#999999"/>
</svg>
