<svg width="21" height="25" viewBox="0 0 21 25" fill="none" xmlns="http://www.w3.org/2000/svg">
<path d="M8.14453 13.7109H5.03906V9.96094H8.14453V6.85547H11.8945V9.96094H15V13.7109H11.8945V16.875H8.14453V13.7109ZM10.0195 0L0 3.75V11.3672C0 12.9297 0.253906 14.4531 0.761719 15.9375C1.26953 17.4219 1.97266 18.7793 2.87109 20.0098C3.76953 21.2402 4.82422 22.2852 6.03516 23.1445C7.24609 24.0039 8.57422 24.6094 10.0195 24.9609C11.4648 24.6094 12.793 24.0039 14.0039 23.1445C15.2148 22.2852 16.2695 21.2402 17.168 20.0098C18.0664 18.7793 18.7695 17.4219 19.2773 15.9375C19.7852 14.4531 20.0391 12.9297 20.0391 11.3672V3.75L10.0195 0Z" fill="white"/>
</svg>
