<svg width="121" height="40" viewBox="0 0 121 40" fill="none" xmlns="http://www.w3.org/2000/svg">
<rect width="121" height="40" rx="20" fill="#A5A5A5"/>
<path d="M34 24.26C34 24.5829 33.8659 24.8924 33.6272 25.1207C33.3885 25.349 33.0648 25.4772 32.7273 25.4772H21.2727C20.9352 25.4772 20.6115 25.349 20.3728 25.1207C20.1341 24.8924 20 24.5829 20 24.26V17.5657C20 17.2429 20.1341 16.9333 20.3728 16.7051C20.6115 16.4768 20.9352 16.3486 21.2727 16.3486H23.8182L25.0909 14.5228H28.9091L30.1818 16.3486H32.7273C33.0648 16.3486 33.3885 16.4768 33.6272 16.7051C33.8659 16.9333 34 17.2429 34 17.5657V24.26Z" stroke="white" stroke-linecap="round" stroke-linejoin="round"/>
<path d="M27.0005 23.0418C28.4063 23.0418 29.546 21.952 29.546 20.6075C29.546 19.2631 28.4063 18.1732 27.0005 18.1732C25.5947 18.1732 24.4551 19.2631 24.4551 20.6075C24.4551 21.952 25.5947 23.0418 27.0005 23.0418Z" stroke="white" stroke-linecap="round" stroke-linejoin="round"/>
<path d="M45.192 24.5V16.412H46.32V24.5H45.192ZM42.36 17.204V16.172H49.14V17.204H42.36ZM51.134 24.62C50.614 24.62 50.142 24.492 49.718 24.236C49.294 23.972 48.958 23.616 48.71 23.168C48.47 22.72 48.35 22.216 48.35 21.656C48.35 21.096 48.47 20.592 48.71 20.144C48.958 19.696 49.29 19.34 49.706 19.076C50.13 18.812 50.606 18.68 51.134 18.68C51.566 18.68 51.95 18.772 52.286 18.956C52.63 19.132 52.906 19.38 53.114 19.7C53.322 20.012 53.438 20.376 53.462 20.792V22.508C53.438 22.916 53.322 23.28 53.114 23.6C52.914 23.92 52.642 24.172 52.298 24.356C51.962 24.532 51.574 24.62 51.134 24.62ZM51.314 23.6C51.85 23.6 52.282 23.42 52.61 23.06C52.938 22.692 53.102 22.224 53.102 21.656C53.102 21.264 53.026 20.924 52.874 20.636C52.73 20.34 52.522 20.112 52.25 19.952C51.978 19.784 51.662 19.7 51.302 19.7C50.942 19.7 50.622 19.784 50.342 19.952C50.07 20.12 49.854 20.352 49.694 20.648C49.542 20.936 49.466 21.268 49.466 21.644C49.466 22.028 49.542 22.368 49.694 22.664C49.854 22.952 50.074 23.18 50.354 23.348C50.634 23.516 50.954 23.6 51.314 23.6ZM53.03 24.5V22.964L53.234 21.572L53.03 20.192V18.8H54.122V24.5H53.03ZM59.3423 24.5L56.6783 21.584L59.3183 18.8H60.6263L57.6863 21.872L57.7343 21.248L60.7343 24.5H59.3423ZM55.6943 24.5V15.932H56.7743V24.5H55.6943ZM63.9828 24.62C63.4148 24.62 62.9028 24.492 62.4468 24.236C61.9908 23.972 61.6308 23.616 61.3668 23.168C61.1028 22.72 60.9708 22.212 60.9708 21.644C60.9708 21.084 61.0988 20.58 61.3548 20.132C61.6188 19.684 61.9708 19.332 62.4108 19.076C62.8588 18.812 63.3588 18.68 63.9108 18.68C64.4388 18.68 64.9028 18.8 65.3028 19.04C65.7108 19.28 66.0268 19.612 66.2508 20.036C66.4828 20.46 66.5988 20.94 66.5988 21.476C66.5988 21.556 66.5948 21.644 66.5868 21.74C66.5788 21.828 66.5628 21.932 66.5388 22.052H61.7268V21.152H65.9628L65.5668 21.5C65.5668 21.116 65.4988 20.792 65.3628 20.528C65.2268 20.256 65.0348 20.048 64.7868 19.904C64.5388 19.752 64.2388 19.676 63.8868 19.676C63.5188 19.676 63.1948 19.756 62.9148 19.916C62.6348 20.076 62.4188 20.3 62.2668 20.588C62.1148 20.876 62.0388 21.216 62.0388 21.608C62.0388 22.008 62.1188 22.36 62.2788 22.664C62.4388 22.96 62.6668 23.192 62.9628 23.36C63.2588 23.52 63.5988 23.6 63.9828 23.6C64.3028 23.6 64.5948 23.544 64.8588 23.432C65.1308 23.32 65.3628 23.152 65.5548 22.928L66.2508 23.636C65.9788 23.956 65.6428 24.2 65.2428 24.368C64.8508 24.536 64.4308 24.62 63.9828 24.62ZM71.2205 21.26V20.276H73.4885C73.8005 20.276 74.0765 20.212 74.3165 20.084C74.5645 19.956 74.7565 19.776 74.8925 19.544C75.0365 19.312 75.1085 19.036 75.1085 18.716C75.1085 18.396 75.0365 18.12 74.8925 17.888C74.7565 17.656 74.5645 17.476 74.3165 17.348C74.0765 17.22 73.8005 17.156 73.4885 17.156H71.2205V16.172H73.5605C74.0725 16.172 74.5285 16.276 74.9285 16.484C75.3365 16.692 75.6565 16.988 75.8885 17.372C76.1285 17.748 76.2485 18.196 76.2485 18.716C76.2485 19.228 76.1285 19.676 75.8885 20.06C75.6565 20.436 75.3365 20.732 74.9285 20.948C74.5285 21.156 74.0725 21.26 73.5605 21.26H71.2205ZM70.4645 24.5V16.172H71.5925V24.5H70.4645ZM81.5818 24.5V21.176C81.5818 20.744 81.4458 20.388 81.1738 20.108C80.9018 19.828 80.5498 19.688 80.1178 19.688C79.8298 19.688 79.5738 19.752 79.3498 19.88C79.1258 20.008 78.9498 20.184 78.8218 20.408C78.6938 20.632 78.6298 20.888 78.6298 21.176L78.1858 20.924C78.1858 20.492 78.2818 20.108 78.4738 19.772C78.6658 19.436 78.9338 19.172 79.2778 18.98C79.6218 18.78 80.0098 18.68 80.4418 18.68C80.8738 18.68 81.2538 18.776 81.5818 18.968C81.9178 19.16 82.1818 19.428 82.3738 19.772C82.5658 20.116 82.6618 20.512 82.6618 20.96V24.5H81.5818ZM77.5498 24.5V15.932H78.6298V24.5H77.5498ZM86.728 24.62C86.168 24.62 85.664 24.488 85.216 24.224C84.768 23.96 84.412 23.604 84.148 23.156C83.884 22.7 83.752 22.192 83.752 21.632C83.752 21.08 83.884 20.584 84.148 20.144C84.412 19.696 84.768 19.34 85.216 19.076C85.664 18.812 86.168 18.68 86.728 18.68C87.28 18.68 87.78 18.812 88.228 19.076C88.684 19.332 89.044 19.684 89.308 20.132C89.572 20.58 89.704 21.08 89.704 21.632C89.704 22.192 89.572 22.7 89.308 23.156C89.044 23.604 88.684 23.96 88.228 24.224C87.78 24.488 87.28 24.62 86.728 24.62ZM86.728 23.576C87.088 23.576 87.408 23.492 87.688 23.324C87.968 23.156 88.188 22.928 88.348 22.64C88.508 22.344 88.588 22.008 88.588 21.632C88.588 21.264 88.504 20.936 88.336 20.648C88.176 20.36 87.956 20.136 87.676 19.976C87.404 19.808 87.088 19.724 86.728 19.724C86.368 19.724 86.048 19.808 85.768 19.976C85.488 20.136 85.268 20.36 85.108 20.648C84.948 20.936 84.868 21.264 84.868 21.632C84.868 22.008 84.948 22.344 85.108 22.64C85.268 22.928 85.488 23.156 85.768 23.324C86.048 23.492 86.368 23.576 86.728 23.576ZM91.6211 24.5V16.412H92.7011V24.5H91.6211ZM90.2171 19.784V18.8H94.1051V19.784H90.2171ZM97.5913 24.62C97.0313 24.62 96.5273 24.488 96.0793 24.224C95.6313 23.96 95.2753 23.604 95.0113 23.156C94.7473 22.7 94.6153 22.192 94.6153 21.632C94.6153 21.08 94.7473 20.584 95.0113 20.144C95.2753 19.696 95.6313 19.34 96.0793 19.076C96.5273 18.812 97.0313 18.68 97.5913 18.68C98.1433 18.68 98.6433 18.812 99.0913 19.076C99.5473 19.332 99.9073 19.684 100.171 20.132C100.435 20.58 100.567 21.08 100.567 21.632C100.567 22.192 100.435 22.7 100.171 23.156C99.9073 23.604 99.5473 23.96 99.0913 24.224C98.6433 24.488 98.1433 24.62 97.5913 24.62ZM97.5913 23.576C97.9513 23.576 98.2713 23.492 98.5513 23.324C98.8313 23.156 99.0513 22.928 99.2113 22.64C99.3713 22.344 99.4513 22.008 99.4513 21.632C99.4513 21.264 99.3673 20.936 99.1993 20.648C99.0393 20.36 98.8193 20.136 98.5393 19.976C98.2673 19.808 97.9513 19.724 97.5913 19.724C97.2313 19.724 96.9113 19.808 96.6313 19.976C96.3513 20.136 96.1313 20.36 95.9713 20.648C95.8113 20.936 95.7313 21.264 95.7313 21.632C95.7313 22.008 95.8113 22.344 95.9713 22.64C96.1313 22.928 96.3513 23.156 96.6313 23.324C96.9113 23.492 97.2313 23.576 97.5913 23.576Z" fill="white"/>
</svg>
