<svg width="16" height="16" viewBox="0 0 16 16" fill="none" xmlns="http://www.w3.org/2000/svg">
<g clip-path="url(#clip0_569_5733)">
<path d="M8 0.8125C11.9697 0.8125 15.1875 4.03031 15.1875 8C15.1875 11.9697 11.9697 15.1875 8 15.1875C4.03031 15.1875 0.8125 11.9697 0.8125 8C0.8125 4.03031 4.03031 0.8125 8 0.8125Z" fill="#80AF52"/>
<path d="M11.9003 5.09499C11.7673 4.96834 11.5518 4.96834 11.4188 5.09499L6.10447 10.1581L4.62915 7.90919C4.52947 7.75728 4.31947 7.71113 4.16005 7.80606C4.00059 7.90099 3.95215 8.1011 4.05179 8.25298L5.75391 10.8476C5.78106 10.889 5.81765 10.924 5.86097 10.95C5.90428 10.976 5.9532 10.9924 6.00408 10.9979C6.05497 11.0034 6.1065 10.998 6.15485 10.9819C6.2032 10.9658 6.24711 10.9395 6.28333 10.905L11.9003 5.55365C12.0332 5.427 12.0332 5.22164 11.9003 5.09499Z" fill="white"/>
</g>
<defs>
<clipPath id="clip0_569_5733">
<rect width="16" height="16" fill="white"/>
</clipPath>
</defs>
</svg>
