<svg width="74" height="74" viewBox="0 0 74 74" fill="none" xmlns="http://www.w3.org/2000/svg">
<path d="M67.0719 1.06481L68.0521 0.981643L67.9689 0.00141168L66.9887 0.0845767L67.0719 1.06481ZM1.0634 6.66512L0.980236 5.68489L4.83489e-06 5.76805L0.0831699 6.74828L1.0634 6.66512ZM68.9461 23.1556L69.0293 24.1359L70.0095 24.0527L69.9264 23.0725L68.9461 23.1556ZM47.0321 25.0149L46.949 24.0347L45.9687 24.1178L46.0519 25.098L47.0321 25.0149ZM48.9064 47.106L47.9262 47.1892L48.0093 48.1694L48.9896 48.0863L48.9064 47.106ZM70.8208 45.2468L71.801 45.1636L71.7178 44.1834L70.7376 44.2666L70.8208 45.2468ZM72.695 67.3376L72.7782 68.3179L73.7584 68.2347L73.6752 67.2545L72.695 67.3376ZM6.68654 72.9379L5.70631 73.0211L5.78947 74.0013L6.7697 73.9182L6.68654 72.9379ZM4.8123 50.8471L4.72914 49.8669L3.7489 49.95L3.83207 50.9303L4.8123 50.8471ZM26.7275 48.9878L26.8107 49.968L27.7909 49.8848L27.7078 48.9046L26.7275 48.9878ZM24.8533 26.8966L25.8335 26.8134L25.7503 25.8332L24.7701 25.9164L24.8533 26.8966ZM2.93764 28.756L1.95741 28.8391L2.04057 29.8194L3.0208 29.7362L2.93764 28.756ZM66.9887 0.0845767L0.980236 5.68489L1.14657 7.64535L67.155 2.04504L66.9887 0.0845767ZM69.9264 23.0725L68.0521 0.981643L66.0917 1.14797L67.9659 23.2388L69.9264 23.0725ZM47.1153 25.9951L69.0293 24.1359L68.863 22.1754L46.949 24.0347L47.1153 25.9951ZM49.8866 47.0229L48.0124 24.9317L46.0519 25.098L47.9262 47.1892L49.8866 47.0229ZM48.9896 48.0863L70.9039 46.227L70.7376 44.2666L48.8232 46.1258L48.9896 48.0863ZM69.8406 45.3299L71.7148 67.4208L73.6752 67.2545L71.801 45.1636L69.8406 45.3299ZM72.6119 66.3574L6.60337 71.9577L6.7697 73.9182L72.7782 68.3179L72.6119 66.3574ZM7.66677 72.8548L5.79253 50.7639L3.83207 50.9303L5.70631 73.0211L7.66677 72.8548ZM4.89547 51.8273L26.8107 49.968L26.6444 48.0075L4.72914 49.8669L4.89547 51.8273ZM23.873 26.9798L25.7473 49.0709L27.7078 48.9046L25.8335 26.8134L23.873 26.9798ZM3.0208 29.7362L24.9364 27.8768L24.7701 25.9164L2.85447 27.7757L3.0208 29.7362ZM0.0831699 6.74828L1.95741 28.8391L3.91787 28.6728L2.04363 6.58195L0.0831699 6.74828Z" fill="#C0AFFF" fill-opacity="0.1"/>
</svg>
