<svg width="25" height="8" viewBox="0 0 25 8" fill="none" xmlns="http://www.w3.org/2000/svg">
<path d="M0.5 3.5C0.223858 3.5 3.21882e-08 3.72386 0 4C-3.21882e-08 4.27614 0.223858 4.5 0.5 4.5L0.5 3.5ZM24.8536 4.35356C25.0488 4.15829 25.0488 3.84171 24.8536 3.64645L21.6716 0.464469C21.4763 0.269206 21.1597 0.269206 20.9645 0.464468C20.7692 0.659731 20.7692 0.976313 20.9645 1.17158L23.7929 4L20.9645 6.82843C20.7692 7.02369 20.7692 7.34027 20.9645 7.53554C21.1597 7.7308 21.4763 7.7308 21.6716 7.53554L24.8536 4.35356ZM0.5 4.5L24.5 4.5L24.5 3.5L0.5 3.5L0.5 4.5Z" fill="white"/>
</svg>
