<svg width="16" height="16" viewBox="0 0 16 16" fill="none" xmlns="http://www.w3.org/2000/svg">
<path d="M6.72833 0.885484L6.72743 0.886089L1.57638 4.34318C1.24555 4.56919 0.975064 4.87284 0.788596 5.22763C0.60185 5.58294 0.50508 5.97868 0.506782 6.38014L0.506794 6.38276L0.500001 13.0703C0.498634 14.4283 1.55725 15.5 2.82725 15.5H13.1659C14.4341 15.5 15.4918 14.4314 15.4932 13.0754L15.4999 6.39066L15.4999 6.38802C15.5025 5.98468 15.4056 5.58693 15.2179 5.22999C15.0304 4.87356 14.7582 4.5688 14.4252 4.34257L6.72833 0.885484ZM6.72833 0.885484C7.10016 0.634762 7.5384 0.500575 7.98686 0.500034L6.72833 0.885484Z" stroke="black"/>
</svg>
