<svg width="24" height="12" viewBox="0 0 24 12" fill="none" xmlns="http://www.w3.org/2000/svg">
<path d="M0.765957 4.875C0.342931 4.875 -1.79308e-08 5.21793 0 5.64096C1.79307e-08 6.06398 0.342931 6.40691 0.765957 6.40691L0.765957 4.875ZM23.7757 6.18257C24.0748 5.88345 24.0748 5.39847 23.7757 5.09934L18.9011 0.22482C18.602 -0.0743055 18.117 -0.0743055 17.8179 0.22482C17.5188 0.523945 17.5188 1.00892 17.8179 1.30805L22.1508 5.64096L17.8179 9.97387C17.5188 10.273 17.5188 10.758 17.8179 11.0571C18.117 11.3562 18.602 11.3562 18.9011 11.0571L23.7757 6.18257ZM0.765957 6.40691L23.234 6.40691L23.234 4.875L0.765957 4.875L0.765957 6.40691Z" fill="white"/>
</svg>
