<svg width="25" height="24" viewBox="0 0 25 24" fill="none" xmlns="http://www.w3.org/2000/svg">
<path d="M16.2638 2.5C19.4638 2.5 22.0673 5.15478 22.0673 8.41891V15.5811C22.0673 18.8452 19.4638 21.5 16.2638 21.5C15.8947 21.5 15.5951 21.1944 15.5951 20.8179C15.5951 20.4414 15.8947 20.1358 16.2638 20.1358C18.7264 20.1358 20.7299 18.0931 20.7299 15.5811V9.86499H17.4363C16.3547 9.8659 15.4729 10.7645 15.472 11.8686C15.4729 12.9727 16.3547 13.8713 17.4363 13.8722H18.8049C19.174 13.8722 19.4736 14.1778 19.4736 14.5543C19.4736 14.9308 19.174 15.2364 18.8049 15.2364H17.4363C15.6165 15.2355 14.1355 13.7248 14.1346 11.8686C14.1355 10.0123 15.6165 8.50168 17.4363 8.50077H20.7299V8.41891C20.7299 5.90692 18.7264 3.86422 16.2638 3.86422H7.80868C5.82397 3.86422 4.15844 5.19934 3.57801 7.02831H12.3924C12.7616 7.02831 13.0611 7.3339 13.0611 7.71043C13.0611 8.08786 12.7616 8.39254 12.3924 8.39254H3.34619L3.34351 8.41891V15.5811C3.34351 18.0931 5.34606 20.1358 7.80868 20.1358H12.0625C12.4317 20.1358 12.7312 20.4414 12.7312 20.8179C12.7312 21.1944 12.4317 21.5 12.0625 21.5H7.80868C4.6087 21.5 2.0061 18.8452 2.0061 15.5811V8.41891C2.0061 5.15478 4.6087 2.5 7.80868 2.5H16.2638ZM17.8853 11.125C18.2544 11.125 18.554 11.4306 18.554 11.8071C18.554 12.1836 18.2544 12.4892 17.8853 12.4892H17.5812C17.2121 12.4892 16.9125 12.1836 16.9125 11.8071C16.9125 11.4306 17.2121 11.125 17.5812 11.125H17.8853Z" fill="#FFA24D"/>
</svg>
