<svg width="25" height="24" viewBox="0 0 25 24" fill="none" xmlns="http://www.w3.org/2000/svg">
<path d="M16.3309 2.5C19.5309 2.5 22.1344 5.15478 22.1344 8.41891V15.5811C22.1344 18.8452 19.5309 21.5 16.3309 21.5C15.9618 21.5 15.6622 21.1944 15.6622 20.8179C15.6622 20.4414 15.9618 20.1358 16.3309 20.1358C18.7936 20.1358 20.797 18.0931 20.797 15.5811V9.86499H17.5034C16.4219 9.8659 15.5401 10.7645 15.5392 11.8686C15.5401 12.9727 16.4219 13.8713 17.5034 13.8722H18.872C19.2411 13.8722 19.5407 14.1778 19.5407 14.5543C19.5407 14.9308 19.2411 15.2364 18.872 15.2364H17.5034C15.6836 15.2355 14.2027 13.7248 14.2018 11.8686C14.2027 10.0123 15.6836 8.50168 17.5034 8.50077H20.797V8.41891C20.797 5.90692 18.7936 3.86422 16.3309 3.86422H7.87582C5.8911 3.86422 4.22558 5.19934 3.64515 7.02831H12.4596C12.8287 7.02831 13.1283 7.3339 13.1283 7.71043C13.1283 8.08786 12.8287 8.39254 12.4596 8.39254H3.41333L3.41065 8.41891V15.5811C3.41065 18.0931 5.4132 20.1358 7.87582 20.1358H12.1297C12.4988 20.1358 12.7984 20.4414 12.7984 20.8179C12.7984 21.1944 12.4988 21.5 12.1297 21.5H7.87582C4.67584 21.5 2.07324 18.8452 2.07324 15.5811V8.41891C2.07324 5.15478 4.67584 2.5 7.87582 2.5H16.3309ZM17.9524 11.125C18.3215 11.125 18.6211 11.4306 18.6211 11.8071C18.6211 12.1836 18.3215 12.4892 17.9524 12.4892H17.6484C17.2792 12.4892 16.9797 12.1836 16.9797 11.8071C16.9797 11.4306 17.2792 11.125 17.6484 11.125H17.9524Z" fill="#FFA24D"/>
</svg>
