<svg width="518" height="411" viewBox="0 0 518 411" fill="none" xmlns="http://www.w3.org/2000/svg">
<path d="M75.9202 2.51807L84.8097 48.502L130.794 39.6125L93.6991 94.486L38.8257 57.3915L75.9202 2.51807Z" stroke="#7F4DFF" stroke-opacity="0.8" stroke-width="1.96719"/>
<path d="M133.501 94.7409L160.937 113.288M145.866 76.4497L173.302 94.9969M173.302 94.9969L185.667 76.7058L130.794 39.6113L93.6992 94.4848L148.573 131.579L160.937 113.288M173.302 94.9969L160.937 113.288" stroke="#7F4DFF" stroke-opacity="0.8" stroke-width="1.96719"/>
<path d="M151.132 186.929L178.569 205.476M163.497 168.637L190.934 187.185M190.934 187.185L203.298 168.894L148.425 131.799L111.331 186.673L166.204 223.767L178.569 205.476M190.934 187.185L178.569 205.476" stroke="#7F4DFF" stroke-opacity="0.8" stroke-width="1.96719"/>
<path d="M185.668 76.7075L213.105 95.2547C228.258 105.498 232.238 126.086 221.994 141.239V141.239C211.751 156.392 191.163 160.372 176.01 150.128L148.574 131.581L185.668 76.7075Z" stroke="#7F4DFF" stroke-opacity="0.8" stroke-width="1.96719"/>
<path d="M283.001 169.26L282.45 170.075L283.265 170.626L283.816 169.811L283.001 169.26ZM264.784 156.946L265.335 156.131L264.52 155.58L263.969 156.395L264.784 156.946ZM252.37 175.31L251.555 174.76L251.004 175.574L251.819 176.125L252.37 175.31ZM270.587 187.625L271.402 188.176L271.953 187.361L271.138 186.81L270.587 187.625ZM258.173 205.989L257.622 206.804L258.437 207.355L258.988 206.54L258.173 205.989ZM203.3 168.894L202.485 168.344L201.934 169.158L202.749 169.709L203.3 168.894ZM215.713 150.531L216.264 149.716L215.449 149.165L214.899 149.98L215.713 150.531ZM233.932 162.847L233.381 163.662L234.196 164.212L234.747 163.398L233.932 162.847ZM246.347 144.482L247.162 145.033L247.713 144.218L246.898 143.667L246.347 144.482ZM228.127 132.166L227.312 131.615L226.761 132.43L227.576 132.98L228.127 132.166ZM240.542 113.801L241.092 112.986L240.277 112.435L239.727 113.25L240.542 113.801ZM295.415 150.896L296.23 151.446L296.781 150.632L295.966 150.081L295.415 150.896ZM283.001 169.26L283.552 168.445L265.335 156.131L264.784 156.946L264.233 157.761L282.45 170.075L283.001 169.26ZM264.784 156.946L263.969 156.395L251.555 174.76L252.37 175.31L253.185 175.861L265.599 157.497L264.784 156.946ZM252.37 175.31L251.819 176.125L270.036 188.44L270.587 187.625L271.138 186.81L252.921 174.495L252.37 175.31ZM270.587 187.625L269.772 187.074L257.358 205.438L258.173 205.989L258.988 206.54L271.402 188.176L270.587 187.625ZM258.173 205.989L258.724 205.174L203.85 168.08L203.3 168.894L202.749 169.709L257.622 206.804L258.173 205.989ZM203.3 168.894L204.114 169.445L216.528 151.082L215.713 150.531L214.899 149.98L202.485 168.344L203.3 168.894ZM215.713 150.531L215.163 151.346L233.381 163.662L233.932 162.847L234.483 162.032L216.264 149.716L215.713 150.531ZM233.932 162.847L234.747 163.398L247.162 145.033L246.347 144.482L245.532 143.931L233.117 162.296L233.932 162.847ZM246.347 144.482L246.898 143.667L228.678 131.351L228.127 132.166L227.576 132.98L245.796 145.297L246.347 144.482ZM228.127 132.166L228.942 132.716L241.356 114.352L240.542 113.801L239.727 113.25L227.312 131.615L228.127 132.166ZM240.542 113.801L239.991 114.616L294.864 151.71L295.415 150.896L295.966 150.081L241.092 112.986L240.542 113.801ZM295.415 150.896L294.6 150.345L282.186 168.709L283.001 169.26L283.816 169.811L296.23 151.446L295.415 150.896Z" fill="#7F4DFF" fill-opacity="0.8"/>
<path d="M33.1185 65.365L48.3373 144.09L1.36567 112.337L33.1185 65.365Z" stroke="#7F4DFF" stroke-opacity="0.8" stroke-width="1.96719"/>
<path d="M61.4314 141.75L46.1415 62.6571L93.3326 94.5584L61.4314 141.75Z" stroke="#7F4DFF" stroke-opacity="0.8" stroke-width="1.96719"/>
<path d="M197.809 177.017L213.028 255.742L166.056 223.989L197.809 177.017Z" stroke="#7F4DFF" stroke-opacity="0.8" stroke-width="1.96719"/>
<path d="M226.122 253.402L210.832 174.31L258.023 206.211L226.122 253.402Z" stroke="#7F4DFF" stroke-opacity="0.8" stroke-width="1.96719"/>
<path d="M129.732 158.979C126.079 164.384 120.904 168.584 114.864 171.048C108.823 173.512 102.187 174.129 95.7959 172.822C89.4044 171.515 83.544 168.342 78.9559 163.704C74.3678 159.066 71.2579 153.172 70.0197 146.767C68.7814 140.361 69.4704 133.733 71.9994 127.719C74.5284 121.705 78.7839 116.577 84.2277 112.981C89.6715 109.386 96.0592 107.486 102.583 107.521C109.107 107.556 115.473 109.525 120.878 113.179L102.405 140.506L129.732 158.979Z" stroke="#7F4DFF" stroke-opacity="0.8" stroke-width="1.96719"/>
<path d="M297.073 152.017L305.962 198.001L351.946 189.111L314.852 243.985L259.979 206.89L297.073 152.017Z" stroke="#7F4DFF" stroke-opacity="0.8" stroke-width="1.96719"/>
<path d="M354.653 244.24L382.09 262.788M367.018 225.949L394.455 244.496M394.455 244.496L406.819 226.205L351.946 189.111L314.852 243.984L369.725 281.079L382.09 262.788M394.455 244.496L382.09 262.788" stroke="#7F4DFF" stroke-opacity="0.8" stroke-width="1.96719"/>
<path d="M372.284 336.428L399.721 354.975M384.649 318.137L412.086 336.684M412.086 336.684L424.451 318.393L369.577 281.298L332.483 336.172L387.356 373.266L399.721 354.975M412.086 336.684L399.721 354.975" stroke="#7F4DFF" stroke-opacity="0.8" stroke-width="1.96719"/>
<path d="M406.819 226.206L434.255 244.753C449.408 254.996 453.388 275.584 443.145 290.737V290.737C432.901 305.89 412.314 309.87 397.161 299.626L369.724 281.079L406.819 226.206Z" stroke="#7F4DFF" stroke-opacity="0.8" stroke-width="1.96719"/>
<path d="M504.152 318.76L503.601 319.575L504.416 320.126L504.967 319.311L504.152 318.76ZM485.934 306.445L486.485 305.63L485.67 305.079L485.119 305.894L485.934 306.445ZM473.52 324.81L472.705 324.259L472.154 325.074L472.969 325.624L473.52 324.81ZM491.739 337.126L492.554 337.676L493.104 336.861L492.289 336.311L491.739 337.126ZM479.324 355.49L478.773 356.305L479.588 356.856L480.139 356.041L479.324 355.49ZM424.451 318.395L423.636 317.845L423.085 318.66L423.9 319.21L424.451 318.395ZM436.865 300.031L437.416 299.216L436.601 298.665L436.05 299.48L436.865 300.031ZM455.082 312.346L454.531 313.161L455.346 313.712L455.897 312.897L455.082 312.346ZM467.497 293.981L468.312 294.532L468.863 293.717L468.048 293.166L467.497 293.981ZM449.279 281.666L448.464 281.115L447.913 281.93L448.728 282.481L449.279 281.666ZM461.693 263.301L462.244 262.486L461.429 261.936L460.878 262.75L461.693 263.301ZM516.567 300.396L517.382 300.947L517.932 300.132L517.118 299.581L516.567 300.396ZM504.152 318.76L504.703 317.946L486.485 305.63L485.934 306.445L485.383 307.26L503.601 319.575L504.152 318.76ZM485.934 306.445L485.119 305.894L472.705 324.259L473.52 324.81L474.335 325.36L486.749 306.996L485.934 306.445ZM473.52 324.81L472.969 325.624L491.188 337.94L491.739 337.126L492.289 336.311L474.071 323.995L473.52 324.81ZM491.739 337.126L490.924 336.575L478.509 354.939L479.324 355.49L480.139 356.041L492.554 337.676L491.739 337.126ZM479.324 355.49L479.875 354.675L425.001 317.581L424.451 318.395L423.9 319.21L478.773 356.305L479.324 355.49ZM424.451 318.395L425.265 318.946L437.68 300.582L436.865 300.031L436.05 299.48L423.636 317.845L424.451 318.395ZM436.865 300.031L436.314 300.846L454.531 313.161L455.082 312.346L455.633 311.531L437.416 299.216L436.865 300.031ZM455.082 312.346L455.897 312.897L468.312 294.532L467.497 293.981L466.682 293.43L454.267 311.795L455.082 312.346ZM467.497 293.981L468.048 293.166L449.83 280.851L449.279 281.666L448.728 282.481L466.946 294.796L467.497 293.981ZM449.279 281.666L450.094 282.217L462.508 263.852L461.693 263.301L460.878 262.75L448.464 281.115L449.279 281.666ZM461.693 263.301L461.142 264.116L516.016 301.211L516.567 300.396L517.118 299.581L462.244 262.486L461.693 263.301ZM516.567 300.396L515.752 299.845L503.337 318.21L504.152 318.76L504.967 319.311L517.382 300.947L516.567 300.396Z" fill="#7F4DFF" fill-opacity="0.8"/>
<path d="M254.27 214.863L269.488 293.588L222.517 261.835L254.27 214.863Z" stroke="#7F4DFF" stroke-opacity="0.8" stroke-width="1.96719"/>
<path d="M282.582 291.248L267.292 212.155L314.484 244.057L282.582 291.248Z" stroke="#7F4DFF" stroke-opacity="0.8" stroke-width="1.96719"/>
<path d="M418.961 326.513L434.18 405.238L387.208 373.485L418.961 326.513Z" stroke="#7F4DFF" stroke-opacity="0.8" stroke-width="1.96719"/>
<path d="M447.274 402.898L431.984 323.806L479.175 355.707L447.274 402.898Z" stroke="#7F4DFF" stroke-opacity="0.8" stroke-width="1.96719"/>
<path d="M350.885 308.477C347.231 313.882 342.057 318.082 336.017 320.546C329.976 323.01 323.34 323.628 316.949 322.321C310.557 321.013 304.697 317.84 300.109 313.202C295.521 308.565 292.411 302.67 291.173 296.265C289.934 289.86 290.623 283.231 293.152 277.218C295.681 271.204 299.937 266.075 305.381 262.48C310.824 258.885 317.212 256.985 323.736 257.02C330.259 257.055 336.626 259.024 342.031 262.677L323.558 290.004L350.885 308.477Z" stroke="#7F4DFF" stroke-opacity="0.8" stroke-width="1.96719"/>
</svg>
