<svg width="48" height="47" viewBox="0 0 48 47" fill="none" xmlns="http://www.w3.org/2000/svg">
<path d="M34.7852 28.9291C34.4855 30.4119 33.6828 31.7456 32.5129 32.7047C31.343 33.6638 29.8778 34.1894 28.365 34.1925C24.3145 34.1882 20.4311 32.5772 17.5669 29.7131C14.7028 26.8489 13.0918 22.9655 13.0875 18.915C13.0906 17.4022 13.6162 15.937 14.5753 14.7671C15.5344 13.5972 16.8682 12.7945 18.3509 12.4948C18.8197 12.4021 19.3059 12.4657 19.735 12.676C20.1641 12.8862 20.5123 13.2315 20.7262 13.6588L22.8142 17.8419C22.9854 18.1856 23.063 18.5683 23.039 18.9515C23.0151 19.3347 22.8905 19.7048 22.6778 20.0244L21.1282 22.3488C21.926 24.0124 23.2676 25.354 24.9312 26.1518L27.2556 24.6022C27.5752 24.3896 27.9453 24.2649 28.3285 24.241C28.7117 24.217 29.0944 24.2946 29.4381 24.4658L33.6212 26.5538C34.0485 26.7677 34.3938 27.1159 34.604 27.545C34.8143 27.9741 34.878 28.4603 34.7852 28.9291ZM43.6425 23.28C43.6432 26.6446 42.7797 29.953 41.1346 32.8881C39.4895 35.8231 37.1181 38.2864 34.2476 40.0417C31.3772 41.7971 28.104 42.7857 24.7417 42.9127C21.3795 43.0398 18.041 42.301 15.0463 40.7673L9.14806 42.7407C8.50597 42.9571 7.8162 42.9898 7.15649 42.8352C6.49678 42.6807 5.89337 42.3449 5.41425 41.8658C4.93513 41.3866 4.59936 40.7832 4.44477 40.1235C4.29019 39.4638 4.32295 38.774 4.53934 38.1319L6.50541 32.2337C5.15534 29.5892 4.42236 26.673 4.36159 23.7044C4.30083 20.7358 4.91386 17.7921 6.15458 15.0945C7.39531 12.397 9.23145 10.0158 11.525 8.13003C13.8185 6.24427 16.5096 4.903 19.3961 4.20707C22.2826 3.51113 25.2894 3.47865 28.1902 4.11205C31.0911 4.74546 33.8106 6.02827 36.1443 7.86403C38.478 9.6998 40.3652 12.0407 41.6639 14.7109C42.9626 17.381 43.6391 20.3108 43.6425 23.28ZM39.2775 23.28C39.2766 20.9366 38.7367 18.6249 37.6994 16.5235C36.6621 14.4222 35.1554 12.5877 33.2957 11.1618C31.436 9.73597 29.2733 8.75704 26.9748 8.30075C24.6762 7.84445 22.3035 7.92304 20.0402 8.53041C17.7769 9.13779 15.6837 10.2577 13.9224 11.8035C12.1612 13.3492 10.7791 15.2795 9.88317 17.4448C8.98722 19.6102 8.60141 21.9526 8.75557 24.2909C8.90973 26.6292 9.59974 28.9007 10.7722 30.9297C10.9272 31.1972 11.0235 31.4947 11.0549 31.8022C11.0862 32.1098 11.0519 32.4206 10.9541 32.7139L9.14806 38.1319L14.5661 36.3259C14.789 36.2517 15.0223 36.2136 15.2572 36.2132C15.6406 36.2138 16.0169 36.3155 16.3485 36.5078C18.6711 37.8517 21.3067 38.5602 23.9901 38.562C26.6735 38.5637 29.31 37.8586 31.6343 36.5177C33.9586 35.1768 35.8888 33.2474 37.2305 30.9235C38.5723 28.5997 39.2783 25.9634 39.2775 23.28Z" fill="#57A80F"/>
</svg>
