<svg width="32" height="32" viewBox="0 0 32 32" fill="none" xmlns="http://www.w3.org/2000/svg">
<path fill-rule="evenodd" clip-rule="evenodd" d="M18.1484 5.34781C17.5073 4.91803 16.7533 4.68822 15.9814 4.6875C15.2061 4.68827 14.4484 4.92009 13.8054 5.35344L6.51539 10.2441C5.95076 10.629 5.4892 11.1466 5.17117 11.7515C4.85313 12.3563 4.68834 13.03 4.69124 13.7133L4.68164 23.1709C4.67934 25.4589 6.47089 27.3149 8.68164 27.3149H23.3088C25.5163 27.3149 27.3065 25.4641 27.3088 23.1796L27.3184 13.7259C27.3228 13.0393 27.1578 12.3623 26.8381 11.7546C26.5184 11.147 26.0539 10.6275 25.4856 10.2422L18.1484 5.34781Z" fill="black"/>
<path d="M12.5601 21.9883H19.4218" stroke="white" stroke-linecap="round" stroke-linejoin="round"/>
</svg>
