<svg width="32" height="32" viewBox="0 0 32 32" fill="none" xmlns="http://www.w3.org/2000/svg">
<path d="M23.1449 7.71585L23.6449 9.21585C23.7907 9.6907 24.0918 10.1028 24.4999 10.3859L25.7649 11.2359C26.1896 11.5209 26.5037 11.943 26.6547 12.4316C26.8058 12.9203 26.7847 13.4459 26.5949 13.9209L26.0949 15.1359C25.8773 15.673 25.8773 16.2738 26.0949 16.8109L26.5949 17.9959C26.7842 18.4613 26.8112 18.9769 26.6715 19.4595C26.5318 19.9421 26.2336 20.3636 25.8249 20.6559L24.6999 21.4609C24.2876 21.754 23.9877 22.1791 23.8499 22.6659L23.4449 24.0859C23.3039 24.5844 22.9937 25.0183 22.5676 25.313C22.1415 25.6077 21.6261 25.7448 21.1099 25.7009L19.8949 25.6009C19.3199 25.5531 18.7491 25.7326 18.3049 26.1009L17.1349 27.0459C16.736 27.3712 16.2371 27.5488 15.7224 27.5488C15.2077 27.5488 14.7088 27.3712 14.3099 27.0459L13.3099 26.2259C12.9091 25.8993 12.407 25.7225 11.8899 25.7259H10.1349C9.62988 25.7272 9.13938 25.5566 8.74413 25.2422C8.34883 24.9278 8.07228 24.4883 7.95993 23.9959L7.63993 22.6359C7.51483 22.0871 7.18598 21.6064 6.71993 21.2909L5.64493 20.5009C5.23803 20.2241 4.93441 19.8203 4.78151 19.3525C4.62861 18.8848 4.63509 18.3796 4.79993 17.9159L5.29993 16.5459C5.48493 16.0475 5.48493 15.4993 5.29993 15.0009L4.84993 13.8009C4.66998 13.3243 4.65867 12.8004 4.81786 12.3164C4.97706 11.8325 5.29718 11.4176 5.72493 11.1409L6.90993 10.3759C7.36808 10.0796 7.70233 9.62615 7.84993 9.10085L8.19993 7.84085C8.34018 7.33915 8.65123 6.90225 9.07943 6.6055C9.50758 6.3088 10.0259 6.171 10.5449 6.21585L11.6649 6.31085C12.2412 6.35625 12.8127 6.1771 13.2599 5.81085L14.3249 4.95087C14.725 4.62392 15.2258 4.44531 15.7424 4.44531C16.2591 4.44531 16.7599 4.62392 17.1599 4.95087L18.0899 5.73085C18.5372 6.1007 19.1117 6.28025 19.6899 6.23085L20.8649 6.14585C21.3661 6.11335 21.8636 6.25055 22.2773 6.5354C22.6909 6.8202 22.9965 7.23605 23.1449 7.71585Z" stroke="#343E4D" stroke-opacity="0.5" stroke-miterlimit="10"/>
<path d="M20.5799 11.0961L10.6499 21.0311M12.945 13.9262C13.986 13.9262 14.83 13.0823 14.83 12.0412C14.83 11.0001 13.986 10.1562 12.945 10.1562C11.9039 10.1562 11.06 11.0001 11.06 12.0412C11.06 13.0823 11.9039 13.9262 12.945 13.9262ZM18.695 21.8461C19.736 21.8461 20.58 21.0022 20.58 19.9611C20.58 18.9201 19.736 18.0761 18.695 18.0761C17.6539 18.0761 16.81 18.9201 16.81 19.9611C16.81 21.0022 17.6539 21.8461 18.695 21.8461Z" stroke="#343E4D" stroke-opacity="0.5" stroke-linecap="round" stroke-linejoin="round"/>
</svg>
