<svg width="20" height="20" viewBox="0 0 20 20" fill="none" xmlns="http://www.w3.org/2000/svg">
<path fill-rule="evenodd" clip-rule="evenodd" d="M1.6665 7.03704C1.6665 5.96303 2.50693 5 3.65734 5H13.5234C14.6739 5 15.5143 5.96303 15.5143 7.03704V12.963C15.5143 14.037 14.6739 15 13.5234 15H3.65734C2.50693 15 1.6665 14.037 1.6665 12.963V7.03704ZM17.7518 8.7037C18.0729 8.7037 18.3332 8.95243 18.3332 9.25926V10.7407C18.3332 11.0476 18.0729 11.2963 17.7518 11.2963C17.4307 11.2963 17.1704 11.0476 17.1704 10.7407V9.25926C17.1704 8.95243 17.4307 8.7037 17.7518 8.7037Z" fill="black"/>
</svg>
