<svg width="69" height="69" viewBox="0 0 69 69" fill="none" xmlns="http://www.w3.org/2000/svg">
<path d="M67.7401 0.992013H68.7313V0.000784236H67.7401V0.992013ZM0.991029 0.992013V0.000784236H-0.000199903V0.992013H0.991029ZM67.7401 23.3307V24.3219H68.7313V23.3307H67.7401ZM45.5799 23.3307V22.3395H44.5886V23.3307H45.5799ZM45.5799 45.6699H44.5886V46.6611H45.5799V45.6699ZM67.7401 45.6699L68.7314 45.6699V44.6787L67.7401 44.6787V45.6699ZM67.7401 68.0086V68.9998H68.7314V68.0086H67.7401ZM0.991069 68.0086H-0.000159598V68.9998H0.991069V68.0086ZM0.991069 45.6699V44.6787H-0.000159598V45.6699H0.991069ZM23.1522 45.6699V46.6611H24.1434V45.6699H23.1522ZM23.1522 23.3307H24.1434V22.3395H23.1522V23.3307ZM0.991029 23.3307H-0.000199903V24.3219H0.991029V23.3307ZM67.7401 0.000784236L0.991029 0.000784236V1.98324L67.7401 1.98324V0.000784236ZM68.7313 23.3307V0.992013L66.7489 0.992013V23.3307H68.7313ZM45.5799 24.3219H67.7401V22.3395H45.5799V24.3219ZM46.5711 45.6699V23.3307H44.5886V45.6699H46.5711ZM45.5799 46.6611H67.7401V44.6787H45.5799V46.6611ZM66.7489 45.6699V68.0086H68.7314V45.6699L66.7489 45.6699ZM67.7401 67.0174H0.991069V68.9998H67.7401V67.0174ZM1.9823 68.0086V45.6699H-0.000159598L-0.000159598 68.0086H1.9823ZM0.991069 46.6611H23.1522V44.6787H0.991069V46.6611ZM22.161 23.3307V45.6699H24.1434V23.3307H22.161ZM0.991029 24.3219H23.1522V22.3395H0.991029V24.3219ZM-0.000199903 0.992013L-0.000199903 23.3307H1.98226L1.98226 0.992013H-0.000199903Z" fill="white"/>
</svg>
