<svg width="69" height="69" viewBox="0 0 69 69" fill="none" xmlns="http://www.w3.org/2000/svg">
<path d="M67.7401 0.992013H68.7313V0.000784236H67.7401V0.992013ZM0.991029 0.992013V0.000784236H-0.000199903V0.992013H0.991029ZM67.7401 23.3307V24.3219H68.7313V23.3307H67.7401ZM45.5802 23.3307V22.3395H44.589V23.3307H45.5802ZM45.5802 45.6697H44.589V46.6609H45.5802V45.6697ZM67.7405 45.6697L68.7317 45.6697V44.6785L67.7405 44.6785V45.6697ZM67.7405 68.0084V68.9996H68.7317V68.0084H67.7405ZM0.99143 68.0084H0.000201826V68.9996H0.99143V68.0084ZM0.99143 45.6697V44.6785H0.000201826V45.6697H0.99143ZM23.1526 45.6697V46.6609H24.1438V45.6697H23.1526ZM23.1526 23.3307H24.1438V22.3395H23.1526V23.3307ZM0.991029 23.3307H-0.000199903V24.3219H0.991029V23.3307ZM67.7401 0.000784236L0.991029 0.000784236V1.98324L67.7401 1.98324V0.000784236ZM68.7313 23.3307V0.992013L66.7489 0.992013V23.3307H68.7313ZM45.5802 24.3219H67.7401V22.3395H45.5802V24.3219ZM46.5715 45.6697V23.3307H44.589V45.6697H46.5715ZM45.5802 46.6609H67.7405V44.6785H45.5802V46.6609ZM66.7493 45.6697V68.0084H68.7317V45.6697L66.7493 45.6697ZM67.7405 67.0172H0.99143V68.9996H67.7405V67.0172ZM1.98266 68.0084L1.98266 45.6697H0.000201826L0.000201826 68.0084H1.98266ZM0.99143 46.6609H23.1526V44.6785H0.99143V46.6609ZM22.1613 23.3307V45.6697H24.1438V23.3307H22.1613ZM0.991029 24.3219H23.1526V22.3395H0.991029V24.3219ZM-0.000199903 0.992013L-0.000199903 23.3307H1.98226L1.98226 0.992013H-0.000199903Z" fill="white"/>
</svg>
