<svg width="30" height="31" viewBox="0 0 30 31" fill="none" xmlns="http://www.w3.org/2000/svg">
<path d="M16.4058 5.53014C16.499 5.16954 16.7267 4.86203 17.0387 4.67524C17.3508 4.48844 17.7217 4.43765 18.0699 4.53403C19.8274 5.00822 21.4309 5.95939 22.715 7.28943C23.9992 8.61947 24.9176 10.2802 25.3754 12.1004C25.4258 12.2804 25.4409 12.4689 25.42 12.655C25.3992 12.8411 25.3426 13.021 25.2537 13.1842C25.1648 13.3474 25.0454 13.4905 24.9024 13.6053C24.7594 13.72 24.5958 13.8041 24.421 13.8525C24.2463 13.9009 24.064 13.9127 23.8848 13.8872C23.7056 13.8617 23.5331 13.7994 23.3774 13.704C23.2217 13.6086 23.086 13.4819 22.9782 13.3315C22.8704 13.181 22.7927 13.0098 22.7496 12.8279C22.412 11.4871 21.7353 10.2638 20.7893 9.28396C19.8433 8.30416 18.6621 7.60333 17.3676 7.25367C17.0194 7.15714 16.7225 6.92135 16.5422 6.59814C16.3618 6.27494 16.3128 5.89078 16.4058 5.53014ZM26.3111 21.801C26.0951 23.5042 25.2879 25.0677 24.0402 26.1995C22.7926 27.3313 21.1898 27.954 19.5312 27.9513C10.2864 27.9513 2.76562 20.162 2.76562 10.5869C2.76305 8.86915 3.36429 7.20913 4.45706 5.91691C5.54983 4.62469 7.0594 3.78864 8.70382 3.56491C9.18834 3.50393 9.67894 3.60623 10.1029 3.85665C10.5269 4.10707 10.8618 4.49229 11.0578 4.95523L13.4492 10.4849C13.4517 10.4921 13.4547 10.4992 13.4582 10.506C13.6052 10.8617 13.6649 11.2496 13.6321 11.6351C13.5993 12.0205 13.475 12.3916 13.2702 12.7152C13.241 12.7624 13.2089 12.8075 13.1739 12.8502L11.0148 15.5147C11.8145 17.0211 13.337 18.5839 14.8085 19.4111L17.3359 17.1819C17.3764 17.1467 17.4188 17.1138 17.4627 17.0833C17.7763 16.8654 18.1377 16.7325 18.5138 16.6968C18.8898 16.6612 19.2685 16.7239 19.6151 16.8792L19.6355 16.8886L24.9687 19.363C25.4156 19.5662 25.7874 19.913 26.0292 20.3521C26.271 20.7912 26.3698 21.2992 26.3111 21.801ZM23.5573 21.794L18.7994 19.5871L16.2585 21.8245C16.2186 21.8603 16.1766 21.8936 16.1328 21.9242C15.8062 22.1485 15.429 22.2813 15.038 22.3094C14.6471 22.3376 14.2558 22.2603 13.9023 22.085C11.6956 20.9821 9.49679 18.72 8.42968 16.4533C8.25998 16.0888 8.18416 15.6851 8.20957 15.2814C8.23497 14.8776 8.36075 14.4875 8.57468 14.149C8.60421 14.1018 8.63676 14.0567 8.6721 14.0141L10.8426 11.3484L8.71062 6.42065C7.79464 6.62972 6.97522 7.15692 6.38838 7.91475C5.80153 8.67258 5.48255 9.61547 5.48437 10.5869C5.48886 14.444 6.97024 18.1418 9.60357 20.8692C12.2369 23.5965 15.8072 25.1308 19.5312 25.1355C20.4698 25.1382 21.381 24.8082 22.1134 24.2003C22.8458 23.5924 23.3553 22.7433 23.5573 21.794ZM16.0909 11.698C16.6468 11.8795 17.1523 12.1971 17.5644 12.624C17.9766 13.0509 18.2832 13.5744 18.4585 14.1502C18.5452 14.4358 18.7176 14.6854 18.9507 14.8626C19.1837 15.0399 19.4653 15.1355 19.7544 15.1357C19.8931 15.1355 20.0309 15.1138 20.1634 15.0712C20.5059 14.9589 20.7916 14.7108 20.958 14.381C21.1244 14.0512 21.158 13.6666 21.0515 13.3113C20.7449 12.3032 20.2081 11.3865 19.4865 10.6392C18.7649 9.89182 17.8799 9.33579 16.9065 9.01827C16.7352 8.95873 16.5542 8.93517 16.374 8.94895C16.1938 8.96273 16.018 9.01358 15.857 9.09852C15.696 9.18347 15.553 9.30081 15.4363 9.44368C15.3196 9.58655 15.2315 9.75208 15.1773 9.9306C15.1231 10.1091 15.1038 10.297 15.1205 10.4834C15.1373 10.6697 15.1897 10.8507 15.2747 11.0158C15.3598 11.181 15.4758 11.3268 15.6159 11.445C15.7561 11.5631 15.9175 11.6511 16.0909 11.7039V11.698Z" fill="white"/>
</svg>
