<svg width="266" height="136" viewBox="0 0 266 136" fill="none" xmlns="http://www.w3.org/2000/svg">
<rect x="1" y="1" width="264" height="134" rx="7" fill="#7066E0" fill-opacity="0.15" stroke="#7066E0" stroke-width="2" stroke-dasharray="2 2"/>
<path d="M94.472 90.16C93.6507 90.16 92.9147 89.9787 92.264 89.616C91.624 89.2427 91.1173 88.736 90.744 88.096C90.3707 87.4453 90.184 86.7093 90.184 85.888V78.896H91.688V85.856C91.688 86.4427 91.8107 86.9493 92.056 87.376C92.3013 87.8027 92.632 88.1333 93.048 88.368C93.4747 88.6027 93.9493 88.72 94.472 88.72C95.016 88.72 95.4907 88.6027 95.896 88.368C96.312 88.1333 96.6373 87.8027 96.872 87.376C97.1173 86.9493 97.24 86.448 97.24 85.872V78.896H98.76V85.904C98.76 86.7253 98.5733 87.456 98.2 88.096C97.8267 88.736 97.32 89.2427 96.68 89.616C96.04 89.9787 95.304 90.16 94.472 90.16ZM104.978 90.16C104.402 90.16 103.879 90.0427 103.41 89.808C102.951 89.5627 102.583 89.2267 102.306 88.8C102.029 88.3733 101.874 87.888 101.842 87.344V85.056C101.874 84.5013 102.029 84.016 102.306 83.6C102.594 83.1733 102.967 82.8427 103.426 82.608C103.895 82.3627 104.413 82.24 104.978 82.24C105.671 82.24 106.295 82.416 106.85 82.768C107.415 83.12 107.858 83.5947 108.178 84.192C108.498 84.7893 108.658 85.4613 108.658 86.208C108.658 86.9547 108.498 87.6267 108.178 88.224C107.858 88.8213 107.415 89.296 106.85 89.648C106.295 89.9893 105.671 90.16 104.978 90.16ZM100.978 93.184V82.4H102.418V84.4L102.146 86.24L102.418 88.096V93.184H100.978ZM104.738 88.8C105.218 88.8 105.639 88.688 106.002 88.464C106.365 88.24 106.653 87.936 106.866 87.552C107.079 87.1573 107.186 86.704 107.186 86.192C107.186 85.6907 107.079 85.2427 106.866 84.848C106.653 84.4533 106.365 84.1493 106.002 83.936C105.639 83.712 105.223 83.6 104.754 83.6C104.274 83.6 103.853 83.712 103.49 83.936C103.127 84.1493 102.845 84.4533 102.642 84.848C102.439 85.2427 102.338 85.696 102.338 86.208C102.338 86.7093 102.434 87.1573 102.626 87.552C102.829 87.936 103.111 88.24 103.474 88.464C103.847 88.688 104.269 88.8 104.738 88.8ZM110.29 90V78.576H111.73V90H110.29ZM117.309 90.16C116.563 90.16 115.891 89.984 115.293 89.632C114.696 89.28 114.221 88.8053 113.869 88.208C113.517 87.6 113.341 86.9227 113.341 86.176C113.341 85.44 113.517 84.7787 113.869 84.192C114.221 83.5947 114.696 83.12 115.293 82.768C115.891 82.416 116.563 82.24 117.309 82.24C118.045 82.24 118.712 82.416 119.309 82.768C119.917 83.1093 120.397 83.5787 120.749 84.176C121.101 84.7733 121.277 85.44 121.277 86.176C121.277 86.9227 121.101 87.6 120.749 88.208C120.397 88.8053 119.917 89.28 119.309 89.632C118.712 89.984 118.045 90.16 117.309 90.16ZM117.309 88.768C117.789 88.768 118.216 88.656 118.589 88.432C118.963 88.208 119.256 87.904 119.469 87.52C119.683 87.1253 119.789 86.6773 119.789 86.176C119.789 85.6853 119.677 85.248 119.453 84.864C119.24 84.48 118.947 84.1813 118.573 83.968C118.211 83.744 117.789 83.632 117.309 83.632C116.829 83.632 116.403 83.744 116.029 83.968C115.656 84.1813 115.363 84.48 115.149 84.864C114.936 85.248 114.829 85.6853 114.829 86.176C114.829 86.6773 114.936 87.1253 115.149 87.52C115.363 87.904 115.656 88.208 116.029 88.432C116.403 88.656 116.829 88.768 117.309 88.768ZM126.132 90.16C125.438 90.16 124.809 89.9893 124.244 89.648C123.678 89.296 123.23 88.8213 122.9 88.224C122.58 87.6267 122.42 86.9547 122.42 86.208C122.42 85.4613 122.58 84.7893 122.9 84.192C123.23 83.5947 123.673 83.12 124.228 82.768C124.793 82.416 125.428 82.24 126.132 82.24C126.708 82.24 127.22 82.3627 127.668 82.608C128.126 82.8427 128.494 83.1733 128.772 83.6C129.049 84.016 129.204 84.5013 129.236 85.056V87.344C129.204 87.888 129.049 88.3733 128.772 88.8C128.505 89.2267 128.142 89.5627 127.684 89.808C127.236 90.0427 126.718 90.16 126.132 90.16ZM126.372 88.8C127.086 88.8 127.662 88.56 128.1 88.08C128.537 87.5893 128.756 86.9653 128.756 86.208C128.756 85.6853 128.654 85.232 128.452 84.848C128.26 84.4533 127.982 84.1493 127.62 83.936C127.257 83.712 126.836 83.6 126.356 83.6C125.876 83.6 125.449 83.712 125.076 83.936C124.713 84.16 124.425 84.4693 124.212 84.864C124.009 85.248 123.908 85.6907 123.908 86.192C123.908 86.704 124.009 87.1573 124.212 87.552C124.425 87.936 124.718 88.24 125.092 88.464C125.465 88.688 125.892 88.8 126.372 88.8ZM128.66 90V87.952L128.932 86.096L128.66 84.256V82.4H130.116V90H128.66ZM135.428 90.16C134.724 90.16 134.095 89.9893 133.54 89.648C132.986 89.296 132.543 88.8213 132.212 88.224C131.892 87.6267 131.732 86.9547 131.732 86.208C131.732 85.4613 131.892 84.7893 132.212 84.192C132.543 83.5947 132.986 83.12 133.54 82.768C134.095 82.416 134.724 82.24 135.428 82.24C135.994 82.24 136.506 82.3627 136.964 82.608C137.423 82.8427 137.791 83.1733 138.068 83.6C138.356 84.016 138.516 84.5013 138.548 85.056V87.344C138.516 87.888 138.362 88.3733 138.084 88.8C137.807 89.2267 137.439 89.5627 136.98 89.808C136.522 90.0427 136.004 90.16 135.428 90.16ZM135.668 88.8C136.148 88.8 136.564 88.688 136.916 88.464C137.279 88.24 137.562 87.936 137.764 87.552C137.967 87.1573 138.068 86.7093 138.068 86.208C138.068 85.6853 137.962 85.232 137.748 84.848C137.546 84.464 137.263 84.16 136.9 83.936C136.548 83.712 136.132 83.6 135.652 83.6C135.172 83.6 134.751 83.712 134.388 83.936C134.026 84.16 133.738 84.4693 133.524 84.864C133.322 85.248 133.22 85.6907 133.22 86.192C133.22 86.704 133.322 87.1573 133.524 87.552C133.738 87.936 134.026 88.24 134.388 88.464C134.762 88.688 135.188 88.8 135.668 88.8ZM139.428 90H137.972V87.952L138.244 86.096L137.972 84.256V78.576H139.428V90ZM145.109 90V78.896H146.613V90H145.109ZM146.133 85.12V83.744H151.925V85.12H146.133ZM146.133 80.272V78.896H152.197V80.272H146.133ZM153.931 90V82.4H155.371V90H153.931ZM154.651 80.88C154.385 80.88 154.166 80.7947 153.995 80.624C153.825 80.4427 153.739 80.2187 153.739 79.952C153.739 79.696 153.825 79.4827 153.995 79.312C154.166 79.1307 154.385 79.04 154.651 79.04C154.918 79.04 155.137 79.1307 155.307 79.312C155.478 79.4827 155.563 79.696 155.563 79.952C155.563 80.2187 155.478 80.4427 155.307 80.624C155.137 80.7947 154.918 80.88 154.651 80.88ZM157.493 90V78.576H158.934V90H157.493ZM164.56 90.16C163.803 90.16 163.12 89.9893 162.512 89.648C161.904 89.296 161.424 88.8213 161.072 88.224C160.72 87.6267 160.544 86.9493 160.544 86.192C160.544 85.4453 160.715 84.7733 161.056 84.176C161.408 83.5787 161.878 83.1093 162.464 82.768C163.062 82.416 163.728 82.24 164.464 82.24C165.168 82.24 165.787 82.4 166.32 82.72C166.864 83.04 167.286 83.4827 167.584 84.048C167.894 84.6133 168.048 85.2533 168.048 85.968C168.048 86.0747 168.043 86.192 168.032 86.32C168.022 86.4373 168 86.576 167.968 86.736H161.552V85.536H167.2L166.672 86C166.672 85.488 166.582 85.056 166.4 84.704C166.219 84.3413 165.963 84.064 165.632 83.872C165.302 83.6693 164.902 83.568 164.432 83.568C163.942 83.568 163.51 83.6747 163.136 83.888C162.763 84.1013 162.475 84.4 162.272 84.784C162.07 85.168 161.968 85.6213 161.968 86.144C161.968 86.6773 162.075 87.1467 162.288 87.552C162.502 87.9467 162.806 88.256 163.2 88.48C163.595 88.6933 164.048 88.8 164.56 88.8C164.987 88.8 165.376 88.7253 165.728 88.576C166.091 88.4267 166.4 88.2027 166.656 87.904L167.584 88.848C167.222 89.2747 166.774 89.6 166.24 89.824C165.718 90.048 165.158 90.16 164.56 90.16ZM172.035 90.16C171.608 90.16 171.203 90.1067 170.819 90C170.445 89.8827 170.099 89.7227 169.779 89.52C169.459 89.3067 169.181 89.056 168.947 88.768L169.875 87.84C170.152 88.1813 170.472 88.4373 170.835 88.608C171.197 88.768 171.603 88.848 172.051 88.848C172.499 88.848 172.845 88.7733 173.091 88.624C173.336 88.464 173.459 88.2453 173.459 87.968C173.459 87.6907 173.357 87.4773 173.155 87.328C172.963 87.168 172.712 87.04 172.403 86.944C172.093 86.8373 171.763 86.736 171.411 86.64C171.069 86.5333 170.744 86.4 170.435 86.24C170.125 86.08 169.869 85.8613 169.667 85.584C169.475 85.3067 169.379 84.9387 169.379 84.48C169.379 84.0213 169.491 83.6267 169.715 83.296C169.939 82.9547 170.248 82.6933 170.643 82.512C171.048 82.3307 171.533 82.24 172.099 82.24C172.696 82.24 173.224 82.3467 173.683 82.56C174.152 82.7627 174.536 83.072 174.835 83.488L173.907 84.416C173.693 84.1387 173.427 83.9253 173.107 83.776C172.797 83.6267 172.445 83.552 172.051 83.552C171.635 83.552 171.315 83.6267 171.091 83.776C170.877 83.9147 170.771 84.112 170.771 84.368C170.771 84.624 170.867 84.8213 171.059 84.96C171.251 85.0987 171.501 85.216 171.811 85.312C172.131 85.408 172.461 85.5093 172.803 85.616C173.144 85.712 173.469 85.8453 173.779 86.016C174.088 86.1867 174.339 86.416 174.531 86.704C174.733 86.992 174.835 87.3707 174.835 87.84C174.835 88.5547 174.579 89.12 174.067 89.536C173.565 89.952 172.888 90.16 172.035 90.16Z" fill="#131313"/>
<path d="M139.74 50.33L134.3 44.33C134.207 44.2264 134.092 44.1435 133.965 44.0867C133.837 44.0299 133.7 44.0003 133.56 44H126.56C126.228 43.996 125.898 44.0576 125.59 44.1811C125.281 44.3045 125 44.4876 124.762 44.7198C124.524 44.9519 124.335 45.2286 124.204 45.5341C124.073 45.8395 124.004 46.1677 124 46.5V61.5C124.004 61.8322 124.073 62.1605 124.204 62.4659C124.335 62.7714 124.524 63.0481 124.762 63.2802C125 63.5124 125.281 63.6954 125.59 63.8189C125.898 63.9424 126.228 64.004 126.56 64H137.44C137.772 64.004 138.102 63.9424 138.41 63.8189C138.719 63.6954 139 63.5124 139.238 63.2802C139.476 63.0481 139.665 62.7714 139.796 62.4659C139.927 62.1605 139.996 61.8322 140 61.5V51C139.999 50.7522 139.907 50.5134 139.74 50.33ZM134 47L136.74 50H134.74C134.635 49.9937 134.533 49.9666 134.439 49.9202C134.345 49.8739 134.261 49.8093 134.192 49.7302C134.123 49.651 134.07 49.559 134.038 49.4594C134.005 49.3598 133.992 49.2546 134 49.15V47ZM137.44 62H126.56C126.49 62.004 126.421 61.9943 126.355 61.9714C126.289 61.9484 126.228 61.9127 126.176 61.8662C126.124 61.8198 126.082 61.7635 126.052 61.7007C126.021 61.6378 126.004 61.5696 126 61.5V46.5C126.004 46.4304 126.021 46.3622 126.052 46.2993C126.082 46.2365 126.124 46.1802 126.176 46.1338C126.228 46.0873 126.289 46.0516 126.355 46.0286C126.421 46.0057 126.49 45.9959 126.56 46H132V49.15C131.984 49.8866 132.26 50.5997 132.767 51.1337C133.275 51.6676 133.973 51.979 134.71 52H138V61.5C137.996 61.5696 137.979 61.6378 137.948 61.7007C137.918 61.7635 137.876 61.8198 137.824 61.8662C137.772 61.9127 137.711 61.9484 137.645 61.9714C137.579 61.9943 137.51 62.004 137.44 62Z" fill="#111111"/>
<path d="M134 55H133V54C133 53.7348 132.895 53.4804 132.707 53.2929C132.52 53.1054 132.265 53 132 53C131.735 53 131.48 53.1054 131.293 53.2929C131.105 53.4804 131 53.7348 131 54V55H130C129.735 55 129.48 55.1054 129.293 55.2929C129.105 55.4804 129 55.7348 129 56C129 56.2652 129.105 56.5196 129.293 56.7071C129.48 56.8946 129.735 57 130 57H131V58C131 58.2652 131.105 58.5196 131.293 58.7071C131.48 58.8946 131.735 59 132 59C132.265 59 132.52 58.8946 132.707 58.7071C132.895 58.5196 133 58.2652 133 58V57H134C134.265 57 134.52 56.8946 134.707 56.7071C134.895 56.5196 135 56.2652 135 56C135 55.7348 134.895 55.4804 134.707 55.2929C134.52 55.1054 134.265 55 134 55Z" fill="#111111"/>
</svg>
