<svg width="145" height="50" viewBox="0 0 145 50" fill="none" xmlns="http://www.w3.org/2000/svg">
<path d="M44.728 1.76978H55.0632V8.34184H44.728V1.76978Z" fill="#233F8C"/>
<path d="M29.4796 16.8808H40.7416C40.7416 16.8808 38.1684 2.72505 22.0873 1.45172C22.0873 1.45172 7.57345 0.706019 2.46371 15.2979C2.46371 15.2979 -1.54283 25.0174 6.12179 34.3402C6.12179 34.3402 11.1144 41.2302 21.3904 41.4033C21.3904 41.4033 29.8083 42.0983 36.137 34.7454C36.137 34.7454 40.389 29.842 40.6993 25.7505H29.6292C29.6292 25.7505 26.5382 32.0819 19.8809 30.7692C19.8809 30.7692 13.6157 30.5286 12.0625 22.8943C12.0625 22.8943 10.9635 15.509 17.9904 12.5698C17.9904 12.5698 25.6861 10.0175 29.4796 16.8808Z" fill="#233F8C"/>
<path d="M44.7283 11.3523H55.0338V40.7373H44.7114L44.7283 11.3523Z" fill="#233F8C"/>
<path d="M71.4384 29.2536C72.7744 31.1249 75.2912 32.273 77.5611 31.6919C78.0478 31.5751 78.4767 31.2965 78.9634 31.1798C80.9526 30.0626 82.2688 27.7115 82.0078 25.2254C81.6509 23.499 80.535 21.7332 78.8929 20.9495C77.5766 20.2137 75.6749 20.0842 74.3263 20.595C73.1948 21.048 72.1763 21.7698 71.4342 22.811C70.1631 24.6204 70.2125 27.4343 71.4384 29.2536ZM70.4777 14.1903C70.4777 14.1903 72.5092 12.2205 74.2515 11.5846C74.2515 11.5846 77.9674 10.1072 82.2335 11.7872C82.2335 11.7872 86.4432 12.9156 89.781 17.4616C89.781 17.4616 92.9171 21.6882 92.4516 26.7548C92.4516 26.7548 92.4812 32.3715 88.1559 36.4827C88.1559 36.4827 84.1789 41.0273 77.8503 40.9696C77.8503 40.9696 74.425 41.6647 70.4777 37.7842V48.5547H60.0847V11.3693H70.4777V14.0609" fill="#233F8C"/>
<path d="M96.3997 1.67407H106.791V40.7378H96.3997V1.67407Z" fill="#233F8C"/>
<path d="M120.842 26.6952C121.1 29.0731 122.87 30.9373 124.891 31.6591C127.074 32.3795 129.721 31.6296 131.211 29.8174C132.54 28.2246 132.826 26.0002 132.14 24.0628C131.397 21.9101 129.092 20.4341 126.811 20.3652C124.855 20.3455 123.027 21.298 121.86 22.8345C121.175 23.9826 120.709 25.2897 120.842 26.6952ZM132.512 11.352H143.194V40.737H132.512V38.0229C132.512 38.0229 129.356 41.3364 125.468 41.0367C125.468 41.0367 117.185 41.4616 112.695 33.7021C112.695 33.7021 110.179 29.5332 110.643 25.5964C110.643 25.5964 110.682 21.8904 112.54 18.8414C112.54 18.8414 114.049 16.0612 116.14 14.4783C116.14 14.4783 119.857 11.6615 122.604 11.5068C122.604 11.5068 128.37 9.76772 132.512 14.2068V11.352Z" fill="#233F8C"/>
</svg>
