<svg width="20" height="20" viewBox="0 0 20 20" fill="none" xmlns="http://www.w3.org/2000/svg">
<path d="M10 13C10.7956 13 11.5587 12.6839 12.1213 12.1213C12.6839 11.5587 13 10.7956 13 10V5C13 4.20435 12.6839 3.44129 12.1213 2.87868C11.5587 2.31607 10.7956 2 10 2C9.20435 2 8.44129 2.31607 7.87868 2.87868C7.31607 3.44129 7 4.20435 7 5V10C7 10.7956 7.31607 11.5587 7.87868 12.1213C8.44129 12.6839 9.20435 13 10 13ZM10 12C9.46957 12 8.96086 11.7893 8.58579 11.4142C8.21071 11.0391 8 10.5304 8 10V5C8 4.46957 8.21071 3.96086 8.58579 3.58579C8.96086 3.21071 9.46957 3 10 3C10.5304 3 11.0391 3.21071 11.4142 3.58579C11.7893 3.96086 12 4.46957 12 5V10C12 10.5304 11.7893 11.0391 11.4142 11.4142C11.0391 11.7893 10.5304 12 10 12ZM5 9.5C5.13261 9.5 5.25979 9.55268 5.35355 9.64645C5.44732 9.74021 5.5 9.86739 5.5 10C5.5 10.5909 5.6164 11.1761 5.84254 11.7221C6.06869 12.268 6.40016 12.7641 6.81802 13.182C7.23588 13.5998 7.73196 13.9313 8.27792 14.1575C8.82389 14.3836 9.40905 14.5 10 14.5C10.5909 14.5 11.1761 14.3836 11.7221 14.1575C12.268 13.9313 12.7641 13.5998 13.182 13.182C13.5998 12.7641 13.9313 12.268 14.1575 11.7221C14.3836 11.1761 14.5 10.5909 14.5 10C14.5 9.86739 14.5527 9.74021 14.6464 9.64645C14.7402 9.55268 14.8674 9.5 15 9.5C15.1326 9.5 15.2598 9.55268 15.3536 9.64645C15.4473 9.74021 15.5 9.86739 15.5 10C15.5002 11.3723 14.9874 12.695 14.0623 13.7086C13.1372 14.7221 11.8666 15.3532 10.5 15.478V17.5C10.5 17.6326 10.4473 17.7598 10.3536 17.8536C10.2598 17.9473 10.1326 18 10 18C9.86739 18 9.74021 17.9473 9.64645 17.8536C9.55268 17.7598 9.5 17.6326 9.5 17.5V15.478C8.13342 15.3532 6.86283 14.7221 5.93772 13.7086C5.01261 12.695 4.49981 11.3723 4.5 10C4.5 9.86739 4.55268 9.74021 4.64645 9.64645C4.74021 9.55268 4.86739 9.5 5 9.5Z" fill="#999999"/>
</svg>
