<svg width="20" height="20" viewBox="0 0 20 20" fill="none" xmlns="http://www.w3.org/2000/svg">
<path d="M11.4374 17.1719C11.2499 16.9844 10.9531 16.9844 10.7812 17.1719C10.4843 17.4688 10.3281 17.8594 10.3281 18.2812C10.3281 19.1406 11.0312 19.8437 11.8906 19.8437C12.7499 19.8437 13.4531 19.1406 13.4531 18.2812C13.4531 18.0156 13.2499 17.8125 12.9843 17.8125C12.7187 17.8125 12.5156 18.0156 12.5156 18.2812C12.5156 18.625 12.2343 18.9062 11.8906 18.9062C11.5468 18.9062 11.2656 18.625 11.2656 18.2812C11.2656 18.1094 11.3281 17.9531 11.4531 17.8437C11.6093 17.6562 11.6093 17.3594 11.4374 17.1719Z" fill="#191919"/>
<path d="M2.96875 1.71875H1.40625C1.14063 1.71875 0.9375 1.92188 0.9375 2.1875C0.9375 2.45312 1.14063 2.65625 1.40625 2.65625H2.5V10.7812C2.5 11.0469 2.70313 11.25 2.96875 11.25C3.23438 11.25 3.4375 11.0469 3.4375 10.7812V4.21875H17.0781C17.2813 4.21875 17.4688 4.3125 17.5781 4.48438C17.7031 4.65625 17.7344 4.85937 17.6563 5.04688L15.5156 11.4844C15.2813 12.1875 14.6406 12.6562 13.8906 12.6562H4.0625C3.20313 12.6562 2.5 13.3594 2.5 14.2188C2.5 15.0781 3.20313 15.7812 4.0625 15.7812H11.4844C12.0469 15.7812 12.5 16.2344 12.5 16.7969C12.5 17.0625 12.7031 17.2656 12.9688 17.2656C13.2344 17.2656 13.4375 17.0625 13.4375 16.7969C13.4375 15.7188 12.5625 14.8438 11.4844 14.8438H4.0625C3.71875 14.8438 3.4375 14.5625 3.4375 14.2188C3.4375 13.875 3.71875 13.5938 4.0625 13.5938H13.8906C15.0313 13.5938 16.0469 12.8594 16.4063 11.7812L18.5469 5.34375C18.7031 4.85938 18.625 4.34375 18.3281 3.9375C18.0313 3.53125 17.5625 3.28125 17.0625 3.28125H3.4375V2.1875C3.4375 1.92188 3.23438 1.71875 2.96875 1.71875ZM2.5 18.2812C2.5 19.1406 3.20313 19.8438 4.0625 19.8438C4.92188 19.8438 5.625 19.1406 5.625 18.2812C5.625 17.4219 4.92188 16.7188 4.0625 16.7188C3.20313 16.7188 2.5 17.4219 2.5 18.2812ZM4.6875 18.2812C4.6875 18.625 4.40625 18.9062 4.0625 18.9062C3.71875 18.9062 3.4375 18.625 3.4375 18.2812C3.4375 17.9375 3.71875 17.6562 4.0625 17.6562C4.40625 17.6562 4.6875 17.9375 4.6875 18.2812Z" fill="#191919"/>
</svg>
