<svg width="20" height="20" viewBox="0 0 20 20" fill="none" xmlns="http://www.w3.org/2000/svg">
<path d="M19.1023 5.91421L19.1026 5.93305L19.1037 5.95186C19.1642 6.984 19.1644 7.30292 19.1667 10.0123L19.1667 10.0155C19.1667 10.0158 19.1667 10.016 19.1667 10.0162C19.1667 12.7183 19.1523 13.0427 19.1053 14.0918L19.1048 14.1021L19.1046 14.1123C19.0899 14.8473 18.9517 15.5704 18.6941 16.2561C18.4785 16.8092 18.1501 17.3116 17.7296 17.7314C17.3091 18.1512 16.8058 18.4792 16.2515 18.6946C15.5641 18.9516 14.838 19.0903 14.104 19.1047L14.0878 19.1051L14.0717 19.106C13.0398 19.1664 12.7174 19.1667 10 19.1667C7.29391 19.1667 6.96885 19.1523 5.91672 19.1054L5.91672 19.1053L5.90695 19.105C5.1701 19.0808 4.44282 18.9313 3.75642 18.6629L3.75326 18.6616C3.19716 18.4468 2.69216 18.1185 2.2705 17.6978C1.84992 17.2783 1.52148 16.776 1.30595 16.2231C1.04829 15.536 0.910097 14.8127 0.89536 14.0791L0.895037 14.063L0.894097 14.047C0.833594 13.0158 0.833333 12.6951 0.833333 9.98226C0.833333 7.2807 0.84772 6.95625 0.894696 5.90596L0.895175 5.89523L0.895378 5.8845C0.909237 5.15283 1.04806 4.42886 1.30589 3.74377C1.52103 3.19048 1.84928 2.68787 2.26983 2.26802C2.6903 1.84824 3.1938 1.52042 3.7483 1.30548C4.43568 1.04839 5.16175 0.9093 5.89571 0.894138L5.91103 0.893821L5.92633 0.892942C6.95871 0.833584 7.28157 0.833333 9.99889 0.833333C12.7057 0.833333 13.0304 0.846606 14.081 0.893487L14.0911 0.893935L14.1011 0.894141C14.8353 0.909191 15.5617 1.04827 16.2494 1.30544C16.8038 1.52055 17.3072 1.84846 17.7277 2.26824L18.3045 1.69051L17.7277 2.26824C18.1483 2.68815 18.4767 3.19078 18.692 3.7441C18.9536 4.43832 19.0924 5.1726 19.1023 5.91421Z" stroke="white" stroke-width="1.66667"/>
<path d="M14.9386 5.73717C15.0904 5.79995 15.2531 5.83218 15.4173 5.83203C16.1076 5.83203 16.6667 5.273 16.6667 4.58174C16.6667 4.41763 16.6344 4.25512 16.5716 4.1035C16.5088 3.95188 16.4167 3.81411 16.3006 3.69806C16.1846 3.58202 16.0468 3.48996 15.8951 3.42716C15.7434 3.36436 15.5809 3.33203 15.4167 3.33203C15.2526 3.33203 15.0901 3.36436 14.9384 3.42716C14.7867 3.48996 14.6489 3.58202 14.5329 3.69806C14.4168 3.81411 14.3247 3.95188 14.2619 4.1035C14.1991 4.25512 14.1667 4.41763 14.1667 4.58174C14.1666 4.74597 14.1988 4.90863 14.2616 5.06039C14.3244 5.21215 14.4165 5.35004 14.5327 5.46617C14.6489 5.5823 14.7868 5.67439 14.9386 5.73717Z" fill="white"/>
<path d="M10.0001 14.2508C12.3208 14.2508 14.1667 12.3278 14.1667 9.99975C14.1667 7.67172 12.3208 5.7487 10.0001 5.7487C7.67938 5.7487 5.83341 7.67172 5.83341 9.99975C5.83341 12.3278 7.67938 14.2508 10.0001 14.2508Z" stroke="white" stroke-width="1.66667"/>
</svg>
