<svg width="31" height="15" viewBox="0 0 31 15" fill="none" xmlns="http://www.w3.org/2000/svg">
<path fill-rule="evenodd" clip-rule="evenodd" d="M23.9912 10.7234L27.5827 7.45712L25.8815 4.07812L23.9912 10.7234Z" fill="#097939"/>
<path fill-rule="evenodd" clip-rule="evenodd" d="M22.7844 10.7234L26.3759 7.45712L24.6747 4.07812L22.7844 10.7234Z" fill="#ED752E"/>
<path fill-rule="evenodd" clip-rule="evenodd" d="M5.61927 4.11857L4.10716 9.48732L9.47528 9.52482L10.9498 4.11857H12.3107L10.5428 10.4036C10.4751 10.6436 10.2173 10.8386 9.96728 10.8386H3.08655C2.66928 10.8386 2.42203 10.5136 2.53487 10.1136L4.22101 4.11857H5.61927ZM22.2154 4.08107H23.5763L21.686 10.8386H20.2867L22.2154 4.08107ZM12.4621 6.89657L19.2669 6.85907L19.7208 5.43232H12.8022L13.2179 4.11832L20.5904 4.05082C21.0493 4.04657 21.3226 4.40082 21.2018 4.84257L20.5072 7.37357C20.386 7.81507 19.9154 8.17282 19.4565 8.17282H13.3694L12.6517 10.9511H11.3277L12.4621 6.89657Z" fill="black"/>
</svg>
