<svg width="32" height="32" viewBox="0 0 32 32" fill="none" xmlns="http://www.w3.org/2000/svg">
<path d="M17.8699 5.76312L17.8709 5.76375L25.205 10.6561C25.2055 10.6564 25.206 10.6567 25.2065 10.6571C25.7061 10.9962 26.1145 11.4531 26.3956 11.9874C26.677 12.5224 26.8223 13.1184 26.8184 13.7228L26.8184 13.7254L26.8088 23.1791C26.8068 25.204 25.2244 26.8149 23.3088 26.8149H8.68164C6.76328 26.8149 5.1796 25.1994 5.18164 23.1715L5.19125 13.7138L5.19124 13.7112C5.18869 13.1096 5.33375 12.5166 5.61372 11.9842C5.89341 11.4522 6.29919 10.997 6.79556 10.6582C6.79605 10.6579 6.79655 10.6575 6.79705 10.6572L14.084 5.76866L14.0849 5.76805C14.6452 5.39038 15.3056 5.18827 15.9815 5.1875C16.6541 5.18823 17.3112 5.38854 17.8699 5.76312Z" stroke="#343E4D" stroke-opacity="0.5"/>
<path d="M12.5601 21.9883H19.4218" stroke="#343E4D" stroke-opacity="0.5" stroke-linecap="round" stroke-linejoin="round"/>
</svg>
