<svg width="40" height="40" viewBox="0 0 40 40" fill="none" xmlns="http://www.w3.org/2000/svg">
<path d="M21.7133 3.3349C22.93 3.33046 24.1461 3.34268 25.3617 3.37157L25.685 3.38324C26.0583 3.39657 26.4267 3.41324 26.8717 3.43324C28.645 3.51657 29.855 3.79657 30.9167 4.20824C32.0167 4.63157 32.9433 5.2049 33.87 6.13157C34.7167 6.9649 35.3733 7.97157 35.7917 9.08324C36.2033 10.1449 36.4833 11.3566 36.5667 13.1299C36.5867 13.5732 36.6033 13.9432 36.6167 14.3166L36.6267 14.6399C36.6556 15.8566 36.6683 17.0721 36.665 18.2866L36.6667 19.5299V21.7132C36.6711 22.9299 36.6583 24.1466 36.6283 25.3632L36.6183 25.6849C36.605 26.0582 36.5883 26.4266 36.5683 26.8716C36.485 28.6449 36.2017 29.8549 35.7917 30.9166C35.3736 32.0291 34.7178 33.037 33.87 33.8699C33.0367 34.7182 32.0283 35.3732 30.9167 35.7916C29.855 36.2032 28.645 36.4832 26.8717 36.5666C26.4267 36.5866 26.0583 36.6032 25.685 36.6166L25.3617 36.6266C24.145 36.6566 22.9289 36.6693 21.7133 36.6649L20.47 36.6666H18.2883C17.0717 36.671 15.8556 36.6582 14.64 36.6282L14.3167 36.6182C13.921 36.6039 13.5255 36.5872 13.13 36.5682C11.3567 36.4849 10.1467 36.2016 9.08334 35.7916C7.9714 35.3733 6.96408 34.7175 6.13168 33.8699C5.28325 33.0372 4.62686 32.0293 4.20835 30.9166C3.79668 29.8549 3.51668 28.6449 3.43335 26.8716L3.38335 25.6849L3.37501 25.3616C3.34501 24.146 3.33112 22.9299 3.33335 21.7132V18.2866C3.32873 17.0709 3.34096 15.8552 3.37001 14.6399L3.38168 14.3166C3.39501 13.9432 3.41168 13.5732 3.43168 13.1299C3.51501 11.3549 3.79501 10.1466 4.20668 9.08324C4.6266 7.97143 5.28412 6.96467 6.13335 6.13324C6.96494 5.28462 7.97169 4.62767 9.08334 4.20824C10.1467 3.79657 11.355 3.51657 13.13 3.43324L14.3167 3.38324L14.64 3.3749C15.8567 3.3449 17.0722 3.33102 18.2867 3.33324L21.7133 3.3349ZM20 11.6682C17.7899 11.6682 15.6703 12.5462 14.1075 14.109C12.5447 15.6718 11.6667 17.7914 11.6667 20.0016C11.6667 22.2117 12.5447 24.3313 14.1075 25.8941C15.6703 27.4569 17.7899 28.3349 20 28.3349C22.2101 28.3349 24.3298 27.4569 25.8926 25.8941C27.4554 24.3313 28.3333 22.2117 28.3333 20.0016C28.3333 17.7914 27.4554 15.6718 25.8926 14.109C24.3298 12.5462 22.2101 11.6682 20 11.6682ZM20 15.0016C20.6566 15.0015 21.3068 15.1307 21.9135 15.3819C22.5202 15.633 23.0714 16.0012 23.5358 16.4654C24.0002 16.9297 24.3685 17.4808 24.6199 18.0874C24.8713 18.694 25.0007 19.3441 25.0008 20.0007C25.001 20.6573 24.8717 21.3075 24.6206 21.9142C24.3694 22.5209 24.0012 23.0721 23.537 23.5365C23.0728 24.0009 22.5216 24.3693 21.915 24.6207C21.3084 24.872 20.6583 25.0015 20.0017 25.0016C19.3451 25.0016 18.6949 24.8722 18.0883 24.621C17.4816 24.3697 16.9304 24.0014 16.4661 23.5371C16.0019 23.0728 15.6336 22.5216 15.3823 21.915C15.131 21.3084 15.0017 20.6582 15.0017 20.0016C15.0017 19.345 15.131 18.6948 15.3823 18.0882C15.6336 17.4815 16.0019 16.9303 16.4661 16.466C16.9304 16.0017 17.4816 15.6334 18.0883 15.3822C18.6949 15.1309 19.3451 15.0016 20.0017 15.0016H20ZM28.75 9.16824C28.2123 9.18976 27.7038 9.41849 27.331 9.80652C26.9582 10.1946 26.75 10.7118 26.75 11.2499C26.75 11.788 26.9582 12.3053 27.331 12.6933C27.7038 13.0813 28.2123 13.3101 28.75 13.3316C29.3025 13.3316 29.8325 13.1121 30.2232 12.7214C30.6139 12.3307 30.8333 11.8008 30.8333 11.2482C30.8333 10.6957 30.6139 10.1658 30.2232 9.7751C29.8325 9.3844 29.3025 9.1649 28.75 9.1649V9.16824Z" fill="white"/>
</svg>
