<svg width="392" height="71" viewBox="0 0 392 71" fill="none" xmlns="http://www.w3.org/2000/svg">
<path fill-rule="evenodd" clip-rule="evenodd" d="M142.134 25.7086C142.134 25.064 142.572 24.7193 143.124 24.7193C144.056 24.7193 145.463 25.7086 146.257 27.6869C145.973 27.6869 145.544 27.773 145.257 27.773C143.56 27.773 142.134 26.9666 142.134 25.7086ZM39.4338 25.7086C39.4338 25.064 39.8542 24.7193 40.4287 24.7193C41.3375 24.7193 42.6876 25.7086 43.4711 27.6869C40.8491 27.6869 39.4338 27.1205 39.4338 25.7086ZM59.2419 15.4851C59.2419 4.90155 61.305 3.27555 61.9449 3.27555C63.0835 3.27555 63.2193 3.98539 63.2193 8.04403C63.2193 12.2148 61.4408 17.6723 59.2419 20.6686V15.4851ZM131.348 25.92C130.126 27.6218 129.136 30.0387 129.136 33.1524C129.136 39.1162 132.539 44.8087 139.151 44.8087C145.544 44.8087 150.023 39.7609 150.023 32.7217C150.023 30.6781 149.945 30.3963 149.811 29.548C151.297 28.9007 152.58 27.9115 153.577 27.1206C154.426 26.4812 155.061 26.1237 155.567 26.1237C156.204 26.1237 156.484 26.6222 156.484 27.5435V41.4705C156.484 43.7386 157.202 44.8087 158.97 44.8087C160.6 44.8087 161.746 43.6655 162.381 42.3187C164.731 37.4197 168.134 30.8895 169.62 28.41C169.978 27.841 170.268 27.4052 170.471 27.4052C170.756 27.4052 170.902 27.6218 170.902 28.5405V39.6278C170.902 42.7468 172.328 44.8087 175.441 44.8087C178.716 44.8087 180.34 41.674 183.202 36.8482C183.338 36.5585 183.398 36.3523 183.398 36.1461C183.398 35.5066 182.844 35.1438 182.273 35.1438C181.628 35.1438 181.272 35.7885 179.147 38.1245C178.716 38.5681 178.298 39.1842 177.509 39.1842C177.227 39.1842 177.01 38.8422 177.01 38.409V25.98C177.01 22.6418 175.517 21.295 173.6 21.295C172.041 21.295 170.756 21.9344 169.408 23.9233C166.993 27.4808 164.506 32.5259 163.161 35.0681C163.01 35.3656 162.806 35.7884 162.668 35.7884C162.519 35.7884 162.456 35.5691 162.456 35.0681V25.98C162.456 23.3596 161.746 21.295 158.97 21.295C156.056 21.295 154.567 23.2865 152.436 24.7742C151.086 25.7791 149.882 26.4811 148.963 26.9066C147.534 23.2865 144.91 21.4516 142.708 21.5065C140.499 21.5821 138.937 22.9393 138.937 25.2127C138.937 27.5434 140.366 29.1668 142.275 29.8898C143.335 30.3152 144.333 30.3962 145.761 30.3962C146.189 30.3962 146.612 30.3962 146.887 30.3152C147.038 31.0226 146.97 32.03 146.97 32.8077C146.97 36.2922 144.91 39.7608 141.079 39.7608C137.091 39.7608 134.756 35.9268 134.756 31.5289C134.756 28.1881 135.746 25.424 137.368 23.5136C138.023 22.7984 138.512 22.3652 138.512 21.71C138.512 21.3785 138.023 21.2951 137.592 21.2951C134.887 21.2951 131.912 22.5062 129.857 23.5658C127.144 24.9882 123.955 27.3398 121.323 29.681C120.046 26.8335 118.484 24.3488 117.698 22.4252C117.416 21.6448 117.209 20.7391 116.64 20.7391C116.136 20.7391 115.917 21.235 115.569 22.2137C114.295 25.98 107.471 36.9942 105.98 38.4846C105.839 38.6881 105.633 38.9127 105.565 38.9127C105.411 38.9127 105.33 38.8421 105.33 38.4089V25.98C105.33 22.6418 103.982 21.295 102.149 21.295C100.579 21.295 99.2346 21.9344 97.9575 23.9233C95.6176 27.4808 92.7632 32.6642 91.4183 35.2142C91.2016 35.6526 90.9874 35.7884 90.9143 35.7884C90.8438 35.7884 90.7863 35.5065 90.7863 35.0681V25.98C90.7863 22.6418 89.431 21.295 87.582 21.295C86.0151 21.295 84.5318 21.8771 83.3174 23.9233C80.3403 28.9711 75.3706 36.7097 74.4462 37.9782C74.3025 38.1975 74.1589 38.341 74.0178 38.4089C73.8769 38.4089 73.7959 38.2705 73.7959 37.9182V25.98C73.7959 22.6418 72.4484 21.295 70.6124 21.295C68.0506 21.295 66.6378 23.6492 65.7055 25.1318C64.4205 27.1911 62.723 29.9655 61.3782 32.5259C60.4511 34.2381 59.665 35.7884 59.3777 35.7884C59.242 35.7884 59.242 35.1438 59.242 33.9405V24.4297C63.7103 19.4498 66.4837 13.3501 66.4837 6.67635C66.4837 2.83452 64.7862 0.715178 62.1642 0.715178C57.252 0.715178 53.4966 8.386 53.4966 17.4661V24.8498C51.2195 26.2723 49.0858 26.9665 46.4535 27.4808C45.1085 23.5135 42.262 21.4516 39.9978 21.5065C37.8016 21.5821 36.232 22.9393 36.232 25.2127C36.232 28.9711 39.9273 30.5318 43.1865 30.5318H44.1109C44.2494 31.247 44.2494 32.03 44.2494 32.8077C44.2494 36.2921 42.1914 39.7608 38.3656 39.7608C34.391 39.7608 32.0406 35.9267 32.0406 31.5289C32.0406 28.1881 33.0251 25.424 34.6599 23.5135C35.3049 22.7984 35.8063 22.159 35.8063 21.71C35.8063 21.3785 35.3049 21.295 34.874 21.295C32.1764 21.295 26.2169 24.9308 19.1084 32.03C18.479 26.348 17.7635 20.8043 17.7635 15.4069C17.7635 9.37522 18.9569 4.25172 19.2416 2.77441C19.3852 1.85834 19.474 1.28157 19.474 0.863869C19.474 0.292339 19.171 0 18.4059 0C12.6449 0 0 9.16366 0 22.8661C0 32.5834 3.55945 37.2735 9.72781 43.3078C5.98299 49.3447 2.97977 56.5119 2.97977 62.9038C2.97977 67.5104 4.05563 71 7.45591 71C14.5617 71 19.884 56.2404 19.884 45.2993C19.884 42.0368 19.7534 38.7663 19.474 35.5065C22.0933 32.7216 26.1437 28.9711 27.1309 28.6161C26.7079 30.109 26.4232 31.675 26.4232 33.1523C26.4232 39.1161 29.8391 44.8086 36.4383 44.8086C42.6276 44.8086 47.3074 39.7608 47.3074 32.7216C47.3074 31.8134 47.2342 31.0226 47.1716 30.1743C49.4331 29.7488 51.5145 29.1669 53.4966 27.9793V42.2482C53.4966 44.0856 54.7658 44.8086 55.975 44.8086C57.6176 44.8086 58.469 43.6654 59.665 41.0528C60.6704 38.9126 63.3603 34.0188 64.9925 31.0982C66.28 28.8197 66.9902 27.3398 67.5622 27.3398C67.6954 27.3398 67.8469 27.6869 67.8469 28.5404V40.6848C67.8469 43.9525 69.5522 44.8086 71.0277 44.8086C72.4484 44.8086 73.378 44.0282 74.3025 42.7467C78.0004 37.4875 81.9125 31.247 83.4636 28.5404C83.7509 28.055 84.1034 27.6869 84.3907 27.6869C84.6676 27.6869 84.8111 27.8409 84.8111 28.7519V41.4703C84.8111 43.7384 85.5215 44.8085 87.3052 44.8085C88.9295 44.8085 89.9924 43.6653 90.6269 42.3185C92.9878 37.4195 96.4585 30.9546 97.9575 28.4098C98.3048 27.8408 98.6626 27.3397 98.8741 27.3397C99.1692 27.3397 99.2345 27.6868 99.2345 28.616V40.6847C99.2345 43.9524 100.94 44.8085 102.441 44.8085C104.413 44.8085 105.706 43.3809 106.983 41.7548C109.312 38.688 112.726 33.2436 114.789 29.7488C115.504 30.8893 116.277 32.2413 116.927 33.7291C115.219 35.7884 113.512 38.1242 113.512 40.6064C113.512 43.2373 115.358 44.8085 117.277 44.8085C120.539 44.8085 123.519 41.6738 123.519 37.3517C123.519 35.6525 123.031 33.8726 122.396 32.1734C125.292 29.326 128.778 26.5569 131.348 25.92ZM14.3424 41.3973C14.9169 45.1557 15.4157 48.8568 15.4157 51.7617C15.4157 58.5659 13.149 66.5212 9.23954 66.4559C7.73002 66.4559 6.46087 64.9474 6.39816 62.3348C6.25453 53.8236 10.3023 46.5781 14.3424 41.3973ZM118.053 36.5583C118.484 37.7798 118.701 38.7664 118.701 39.7608C118.701 40.8987 118.272 42.0368 117.486 42.0368C116.927 42.0368 116.358 41.3973 116.358 40.4003C116.358 39.3328 117.277 37.6283 118.053 36.5583ZM16.9068 2.69878C16.9068 3.132 15.9119 5.11302 14.6375 8.66786C13.2873 12.3532 11.9999 17.6019 11.9999 23.9233C11.9999 27.687 12.9321 32.6642 13.7182 37.7015L11.4436 40.7657C7.81618 36.3522 5.54685 31.3905 5.54685 22.8662C5.54685 10.8002 12.8617 2.42987 16.6196 2.42987C16.8441 2.42987 16.9068 2.49255 16.9068 2.69878ZM350.465 25.7086C350.465 25.064 350.88 24.7193 351.455 24.7193C352.371 24.7193 353.795 25.7086 354.573 27.6869C354.296 27.6869 353.87 27.773 353.573 27.773C351.883 27.773 350.465 26.9666 350.465 25.7086ZM247.744 25.7086C247.744 25.064 248.177 24.7193 248.739 24.7193C249.663 24.7193 251.027 25.7086 251.792 27.6869C249.165 27.6869 247.744 27.1205 247.744 25.7086ZM267.565 15.4851C267.565 4.90155 269.615 3.27555 270.263 3.27555C271.396 3.27555 271.54 3.98539 271.54 8.04403C271.54 12.2148 269.759 17.6723 267.565 20.6686V15.4851ZM222.679 41.3973C223.23 45.1557 223.747 48.8568 223.747 51.7617C223.747 58.5659 221.478 66.5212 217.56 66.4559C216.072 66.4559 214.792 64.9474 214.722 62.3348C214.575 53.8236 218.631 46.5781 222.679 41.3973ZM326.387 36.5583C326.818 37.7798 327.021 38.7664 327.021 39.7608C327.021 40.8987 326.596 42.0368 325.815 42.0368C325.253 42.0368 324.668 41.3973 324.668 40.4003C324.668 39.3328 325.601 37.6283 326.387 36.5583ZM225.222 2.69878C225.222 3.132 224.238 5.11302 222.95 8.66786C221.611 12.3532 220.323 17.6019 220.323 23.9233C220.323 27.687 221.271 32.6642 222.047 37.7015L219.767 40.7657C216.15 36.3522 213.865 31.3905 213.865 22.8662C213.865 10.8002 221.196 2.42987 224.953 2.42987C225.16 2.42987 225.222 2.49255 225.222 2.69878ZM213.379 38.1975C214.648 39.9018 216.215 41.533 218.062 43.3077C214.293 49.3447 211.314 56.512 211.314 62.9038C211.314 67.5104 212.387 71 215.798 71C222.893 71 228.215 56.2404 228.215 45.2993C228.215 42.0368 228.077 38.7663 227.792 35.5065C230.425 32.7216 234.459 28.9711 235.467 28.6161C235.039 30.109 234.744 31.675 234.744 33.1523C234.744 39.1161 238.157 44.8086 244.77 44.8086C250.943 44.8086 255.631 39.7608 255.631 32.7216C255.631 31.8134 255.566 31.0226 255.487 30.1743C257.764 29.7488 259.838 29.1669 261.815 27.9793V42.2482C261.815 44.0856 263.087 44.8086 264.285 44.8086C265.941 44.8086 266.792 43.6654 267.994 41.0528C268.983 38.9126 271.689 34.0188 273.326 31.0982C274.601 28.8197 275.311 27.3398 275.893 27.3398C276.027 27.3398 276.16 27.6869 276.16 28.5404V40.6848C276.16 43.9525 277.86 44.8086 279.354 44.8086C280.78 44.8086 281.694 44.0282 282.636 42.7467C286.319 37.4875 290.231 31.247 291.79 28.5404C292.074 28.055 292.435 27.6869 292.709 27.6869C292.986 27.6869 293.142 27.8409 293.142 28.7519V41.4703C293.142 43.7384 293.845 44.8085 295.618 44.8085C297.253 44.8085 298.318 43.6653 298.963 42.3185C301.309 37.4195 304.787 30.9546 306.273 28.4098C306.636 27.8408 306.989 27.3397 307.211 27.3397C307.487 27.3397 307.566 27.6868 307.566 28.616V40.6847C307.566 43.9524 309.255 44.8085 310.744 44.8085C312.747 44.8085 314.027 43.3809 315.296 41.7548C317.638 38.688 321.057 33.2436 323.115 29.7488C323.817 30.8893 324.608 32.2413 325.254 33.7291C323.53 35.7884 321.843 38.1242 321.843 40.6064C321.843 43.2373 323.668 44.8085 325.601 44.8085C328.863 44.8085 331.842 41.6738 331.842 37.3517C331.842 35.6525 331.349 33.8726 330.709 32.1734C333.618 29.326 337.102 26.5567 339.659 25.9198C338.452 27.6216 337.457 30.0385 337.457 33.1522C337.457 39.116 340.87 44.8085 347.477 44.8085C353.87 44.8085 358.333 39.7607 358.333 32.7215C358.333 30.6779 358.268 30.3961 358.135 29.5478C359.61 28.9005 360.898 27.9113 361.903 27.1204C362.736 26.481 363.389 26.1235 363.878 26.1235C364.52 26.1235 364.82 26.622 364.82 27.5433V41.4703C364.82 43.7384 365.52 44.8085 367.296 44.8085C368.923 44.8085 370.067 43.6653 370.709 42.3185C373.039 37.4195 376.455 30.8893 377.941 28.4098C378.296 27.8408 378.586 27.405 378.8 27.405C379.09 27.405 379.228 27.6216 379.228 28.5403V39.6276C379.228 42.7466 380.636 44.8085 383.77 44.8085C387.047 44.8085 388.677 41.6738 391.523 36.848C391.656 36.5583 391.724 36.3521 391.724 36.1459C391.724 35.5064 391.155 35.1436 390.591 35.1436C389.956 35.1436 389.593 35.7883 387.467 38.1243C387.047 38.5679 386.613 39.1839 385.835 39.1839C385.543 39.1839 385.342 38.842 385.342 38.4088V25.98C385.342 22.6418 383.832 21.295 381.915 21.295C380.361 21.295 379.09 21.9344 377.734 23.9233C375.313 27.4808 372.835 32.5259 371.495 35.0681C371.341 35.3656 371.135 35.7884 370.984 35.7884C370.832 35.7884 370.777 35.5691 370.777 35.0681V25.98C370.777 23.3596 370.067 21.295 367.296 21.295C364.376 21.295 362.893 23.2865 360.765 24.7742C359.402 25.7791 358.203 26.4811 357.271 26.9066C355.863 23.2865 353.225 21.4516 351.034 21.5065C348.82 21.5821 347.271 22.9393 347.271 25.2127C347.271 27.5434 348.692 29.1668 350.593 29.8898C351.661 30.3152 352.656 30.3962 354.095 30.3962C354.51 30.3962 354.923 30.3962 355.226 30.3152C355.364 31.0226 355.291 32.03 355.291 32.8077C355.291 36.2922 353.225 39.7608 349.387 39.7608C345.412 39.7608 343.077 35.9268 343.077 31.5289C343.077 28.1881 344.064 25.424 345.691 23.5136C346.339 22.7984 346.84 22.3652 346.84 21.71C346.84 21.3785 346.339 21.2951 345.913 21.2951C343.226 21.2951 340.233 22.5062 338.173 23.5658C335.47 24.9882 332.273 27.3398 329.654 29.681C328.372 26.8334 326.818 24.3488 326.027 22.4252C325.734 21.6448 325.541 20.7391 324.951 20.7391C324.46 20.7391 324.243 21.235 323.893 22.2137C322.611 25.98 315.797 36.9942 314.306 38.4846C314.162 38.6881 313.951 38.9127 313.875 38.9127C313.742 38.9127 313.664 38.8421 313.664 38.4089V25.98C313.664 22.6418 312.324 21.295 310.459 21.295C308.895 21.295 307.566 21.9344 306.273 23.9233C303.925 27.4808 301.092 32.6642 299.742 35.2142C299.533 35.6526 299.324 35.7884 299.256 35.7884C299.175 35.7884 299.102 35.5065 299.102 35.0681V25.98C299.102 22.6418 297.762 21.295 295.913 21.295C294.346 21.295 292.845 21.8771 291.649 23.9233C288.656 28.9711 283.691 36.7097 282.762 37.9782C282.636 38.1975 282.485 38.341 282.333 38.4089C282.208 38.4089 282.124 38.2705 282.124 37.9182V25.98C282.124 22.6418 280.78 21.295 278.925 21.295C276.361 21.295 274.951 23.6492 274.021 25.1318C272.744 27.1911 271.049 29.9655 269.694 32.5259C268.777 34.2381 267.994 35.7884 267.709 35.7884C267.565 35.7884 267.565 35.1438 267.565 33.9405V24.4297C272.047 19.4498 274.807 13.3501 274.807 6.67635C274.807 2.83452 273.107 0.715178 270.469 0.715178C265.575 0.715178 261.815 8.386 261.815 17.4661V24.8498C259.535 26.2723 257.404 26.9665 254.772 27.4808C253.432 23.5135 250.588 21.4516 248.329 21.5065C246.112 21.5821 244.555 22.9393 244.555 25.2127C244.555 28.9711 248.238 30.5318 251.512 30.5318H252.442C252.573 31.247 252.573 32.03 252.573 32.8077C252.573 36.2921 250.52 39.7608 246.681 39.7608C242.701 39.7608 240.369 35.9267 240.369 31.5289C240.369 28.1881 241.362 25.424 242.983 23.5135C243.62 22.7984 244.122 22.159 244.122 21.71C244.122 21.3785 243.62 21.295 243.2 21.295C240.497 21.295 234.535 24.9308 227.424 32.03C226.8 26.348 226.082 20.8043 226.082 15.4069C226.082 9.37522 227.288 4.25172 227.573 2.77441C227.714 1.85834 227.792 1.28157 227.792 0.863869C227.792 0.292339 227.502 0 226.735 0C220.979 0 208.334 9.16366 208.334 22.8662C208.334 28.4673 209.54 32.4528 211.671 35.9267C210.878 35.7884 210.253 35.7884 209.671 35.7884C207.407 35.7884 205.268 36.3522 203.941 36.6419V35.2143C203.941 32.1735 203.22 27.9793 201.938 26.5568C201.787 26.4107 201.575 26.348 201.377 26.348C200.792 26.348 200.092 26.6221 199.314 27.0527C198.452 27.4808 197.601 27.9114 197.601 28.1881C197.601 28.3238 197.601 28.4673 197.815 28.8197C198.316 29.5479 199.669 30.9547 200.157 34.3007C197.736 31.8839 194.979 30.8111 191.37 30.8111C187.1 30.8111 185.815 32.7216 185.815 34.6505C185.815 38.341 190.717 40.1862 196.906 40.1862C198.039 40.1862 199.314 39.9722 200.586 39.6825C200.586 40.8204 200.729 41.828 200.729 42.6736C200.729 43.882 200.935 44.8086 201.727 44.8086C202.931 44.8086 203.646 42.3839 203.782 38.9126C205.984 38.3409 208.261 37.8503 210.185 37.8503C211.105 37.8503 212.254 37.9782 213.379 38.1975ZM199.387 37.4876C198.191 37.6284 197.462 37.6284 196.196 37.6284C193.417 37.6284 191.37 36.5583 191.37 35.0105C191.37 34.0188 191.861 33.442 193.281 33.442C195.558 33.442 197.394 35.0107 199.387 37.4876Z" fill="#5D399B"/>
</svg>
