<svg width="24" height="24" viewBox="0 0 24 24" fill="none" xmlns="http://www.w3.org/2000/svg">
<path fill-rule="evenodd" clip-rule="evenodd" d="M12 3.39535C7.24778 3.39535 3.39535 7.24778 3.39535 12C3.39535 16.7522 7.24778 20.6047 12 20.6047C16.7522 20.6047 20.6047 16.7522 20.6047 12C20.6047 7.24778 16.7522 3.39535 12 3.39535ZM2 12C2 6.47715 6.47715 2 12 2C17.5228 2 22 6.47715 22 12C22 17.5228 17.5228 22 12 22C6.47715 22 2 17.5228 2 12ZM8.71597 8.71597C8.98843 8.44351 9.43017 8.44351 9.70263 8.71597L12 11.0133L14.2974 8.71597C14.5698 8.44351 15.0116 8.44351 15.284 8.71597C15.5565 8.98843 15.5565 9.43017 15.284 9.70263L12.9867 12L15.284 14.2974C15.5565 14.5698 15.5565 15.0116 15.284 15.284C15.0116 15.5565 14.5698 15.5565 14.2974 15.284L12 12.9867L9.70263 15.284C9.43017 15.5565 8.98843 15.5565 8.71597 15.284C8.44351 15.0116 8.44351 14.5698 8.71597 14.2974L11.0133 12L8.71597 9.70263C8.44351 9.43017 8.44351 8.98843 8.71597 8.71597Z" fill="#1E1E1E"/>
</svg>
