<svg width="15" height="15" viewBox="0 0 15 15" fill="none" xmlns="http://www.w3.org/2000/svg">
<path fill-rule="evenodd" clip-rule="evenodd" d="M7.5 3.40924C5.47272 3.40924 3.51096 4.22489 1.98345 5.71012C1.80733 5.88137 1.5314 5.87133 1.36716 5.68771C1.20291 5.50409 1.21253 5.21642 1.38865 5.04518C3.07301 3.40743 5.24572 2.5 7.5 2.5C9.75428 2.5 11.927 3.40743 13.6113 5.04518C13.7875 5.21642 13.7971 5.50409 13.6328 5.68771C13.4686 5.87133 13.1927 5.88137 13.0166 5.71012C11.489 4.22489 9.52728 3.40924 7.5 3.40924ZM7.52202 6.43967C6.21737 6.43967 4.95032 6.94383 3.94168 7.87054C3.761 8.03655 3.48546 8.01841 3.32624 7.83004C3.16702 7.64166 3.18441 7.35439 3.36509 7.18839C4.52878 6.11922 5.9995 5.53043 7.52202 5.53043C9.04455 5.53043 10.5153 6.11922 11.679 7.18839C11.8596 7.35439 11.877 7.64166 11.7178 7.83004C11.5586 8.01841 11.283 8.03655 11.1024 7.87054C10.0937 6.94383 8.82668 6.43967 7.52202 6.43967ZM7.50267 9.46994C6.91484 9.46994 6.33902 9.67155 5.85508 10.0508C5.66257 10.2017 5.38922 10.1613 5.24452 9.96056C5.09982 9.75985 5.13858 9.47485 5.33108 9.32399C5.96289 8.82886 6.72183 8.5607 7.50267 8.5607C8.28351 8.5607 9.04245 8.82886 9.67426 9.32399C9.86677 9.47485 9.90552 9.75985 9.76082 9.96056C9.61613 10.1613 9.34277 10.2017 9.15027 10.0508C8.66632 9.67155 8.0905 9.46994 7.50267 9.46994ZM7.06395 12.0454C7.06395 11.7943 7.25918 11.5908 7.5 11.5908H7.50581C7.74664 11.5908 7.94186 11.7943 7.94186 12.0454C7.94186 12.2965 7.74664 12.5 7.50581 12.5H7.5C7.25918 12.5 7.06395 12.2965 7.06395 12.0454Z" fill="black"/>
</svg>
