<svg width="16" height="16" viewBox="0 0 16 16" fill="none" xmlns="http://www.w3.org/2000/svg">
<g clip-path="url(#clip0_617_6651)">
<path d="M8 1.28125C5.536 1.28125 3.52 3.26525 3.52 5.71325C3.52 10.9293 7.616 14.4973 7.792 14.6573C7.904 14.7533 8.096 14.7533 8.208 14.6573C8.384 14.4973 12.48 10.9133 12.48 5.71325C12.48 3.26525 10.464 1.28125 8 1.28125ZM8 13.9693C7.168 13.1693 4.16 9.96925 4.16 5.71325C4.16 3.61725 5.888 1.92125 8 1.92125C10.112 1.92125 11.84 3.61725 11.84 5.71325C11.84 9.96925 8.832 13.1693 8 13.9693ZM8 3.20125C6.592 3.20125 5.44 4.35325 5.44 5.76125C5.44 7.16925 6.592 8.32125 8 8.32125C9.408 8.32125 10.56 7.16925 10.56 5.76125C10.56 4.35325 9.408 3.20125 8 3.20125ZM8 7.68125C6.944 7.68125 6.08 6.81725 6.08 5.76125C6.08 4.70525 6.944 3.84125 8 3.84125C9.056 3.84125 9.92 4.70525 9.92 5.76125C9.92 6.81725 9.056 7.68125 8 7.68125Z" fill="#999999"/>
<path d="M263.04 -59.2005V210.24H-22.4V-59.2005H263.04ZM264.32 -60.4805H-23.68V211.52H264.32V-60.4805Z" fill="#0000FF"/>
</g>
<defs>
<clipPath id="clip0_617_6651">
<rect width="16" height="16" fill="white"/>
</clipPath>
</defs>
</svg>
