<svg width="12" height="12" viewBox="0 0 12 12" fill="none" xmlns="http://www.w3.org/2000/svg">
<path d="M6.295 6.50005L5.145 7.64505C5.09814 7.69153 5.06094 7.74683 5.03555 7.80776C5.01017 7.86869 4.9971 7.93404 4.9971 8.00005C4.9971 8.06606 5.01017 8.13141 5.03555 8.19234C5.06094 8.25327 5.09814 8.30857 5.145 8.35505C5.19148 8.40191 5.24678 8.43911 5.30771 8.4645C5.36864 8.48988 5.43399 8.50295 5.5 8.50295C5.56601 8.50295 5.63136 8.48988 5.69229 8.4645C5.75322 8.43911 5.80852 8.40191 5.855 8.35505L7.855 6.35505C7.90052 6.3075 7.9362 6.25143 7.96 6.19005C8.01001 6.06832 8.01001 5.93178 7.96 5.81005C7.9362 5.74867 7.90052 5.6926 7.855 5.64505L5.855 3.64505C5.80838 3.59843 5.75304 3.56145 5.69212 3.53622C5.63121 3.51099 5.56593 3.498 5.5 3.498C5.43407 3.498 5.36879 3.51099 5.30788 3.53622C5.24696 3.56145 5.19162 3.59843 5.145 3.64505C5.09838 3.69167 5.0614 3.74701 5.03617 3.80793C5.01094 3.86884 4.99795 3.93412 4.99795 4.00005C4.99795 4.06598 5.01094 4.13126 5.03617 4.19217C5.0614 4.25309 5.09838 4.30843 5.145 4.35505L6.295 5.50005H1.5C1.36739 5.50005 1.24021 5.55273 1.14645 5.6465C1.05268 5.74026 1 5.86744 1 6.00005C1 6.13266 1.05268 6.25984 1.14645 6.3536C1.24021 6.44737 1.36739 6.50005 1.5 6.50005H6.295ZM6 1.00005C5.06555 0.995878 4.14862 1.25366 3.35323 1.74415C2.55785 2.23463 1.91583 2.9382 1.5 3.77505C1.44033 3.8944 1.43051 4.03256 1.4727 4.15915C1.5149 4.28574 1.60565 4.39038 1.725 4.45005C1.84435 4.50972 1.98251 4.51954 2.1091 4.47735C2.23569 4.43515 2.34033 4.3444 2.4 4.22505C2.7161 3.58671 3.19692 3.04436 3.79277 2.65404C4.38863 2.26373 5.07791 2.03961 5.78938 2.00485C6.50084 1.97008 7.20869 2.12594 7.83976 2.45631C8.47083 2.78667 9.00223 3.27956 9.37906 3.88405C9.75588 4.48853 9.96444 5.18267 9.9832 5.89474C10.002 6.60681 9.83023 7.31097 9.48576 7.93446C9.14129 8.55794 8.63657 9.07813 8.02377 9.44126C7.41097 9.8044 6.71231 9.9973 6 10C5.25444 10.0033 4.52308 9.79623 3.88985 9.40267C3.25661 9.00912 2.74718 8.44499 2.42 7.77505C2.36033 7.6557 2.25569 7.56495 2.1291 7.52275C2.00251 7.48056 1.86435 7.49038 1.745 7.55005C1.62565 7.60972 1.5349 7.71436 1.4927 7.84095C1.45051 7.96754 1.46033 8.1057 1.52 8.22505C1.91641 9.02281 2.51876 9.70017 3.26474 10.1871C4.01071 10.674 4.87322 10.9527 5.76306 10.9945C6.6529 11.0363 7.53774 10.8396 8.32607 10.4248C9.1144 10.01 9.77759 9.39205 10.247 8.63496C10.7165 7.87788 10.9751 7.00912 10.9962 6.11855C11.0174 5.22798 10.8002 4.34795 10.3671 3.56947C9.93408 2.79099 9.30092 2.14233 8.53313 1.6906C7.76535 1.23887 6.89082 1.00047 6 1.00005Z" fill="#5D399B"/>
</svg>
