<svg width="15" height="15" viewBox="0 0 15 15" fill="none" xmlns="http://www.w3.org/2000/svg">
<path d="M5.35714 5.89286C5.25119 5.89286 5.14761 5.86144 5.05952 5.80257C4.97142 5.74371 4.90275 5.66004 4.86221 5.56215C4.82166 5.46426 4.81105 5.35655 4.83172 5.25263C4.85239 5.14871 4.90341 5.05326 4.97834 4.97834C5.05326 4.90341 5.14871 4.85239 5.25263 4.83172C5.35655 4.81105 5.46426 4.82166 5.56215 4.86221C5.66004 4.90275 5.74371 4.97142 5.80257 5.05952C5.86144 5.14761 5.89286 5.25119 5.89286 5.35714C5.89286 5.49922 5.83642 5.63548 5.73595 5.73595C5.63548 5.83642 5.49922 5.89286 5.35714 5.89286ZM9.64286 9.10714C9.5369 9.10714 9.43333 9.13856 9.34523 9.19743C9.25713 9.25629 9.18847 9.33996 9.14792 9.43785C9.10737 9.53574 9.09677 9.64345 9.11744 9.74737C9.13811 9.85129 9.18913 9.94674 9.26405 10.0217C9.33897 10.0966 9.43443 10.1476 9.53834 10.1683C9.64226 10.1889 9.74998 10.1783 9.84787 10.1378C9.94575 10.0972 10.0294 10.0286 10.0883 9.94048C10.1472 9.85239 10.1786 9.74881 10.1786 9.64286C10.1786 9.50078 10.1221 9.36452 10.0217 9.26405C9.9212 9.16358 9.78494 9.10714 9.64286 9.10714ZM15 7.5C15 8.19911 14.4971 8.72344 14.0531 9.18616C13.8007 9.45 13.5395 9.72187 13.4411 9.96094C13.35 10.1799 13.3446 10.5429 13.3393 10.8944C13.3292 11.548 13.3185 12.2886 12.8036 12.8036C12.2886 13.3185 11.548 13.3292 10.8944 13.3393C10.5429 13.3446 10.1799 13.35 9.96094 13.4411C9.72187 13.5395 9.45 13.8007 9.18616 14.0531C8.72344 14.4971 8.19911 15 7.5 15C6.80089 15 6.27656 14.4971 5.81384 14.0531C5.55 13.8007 5.27812 13.5395 5.03906 13.4411C4.82009 13.35 4.45714 13.3446 4.10558 13.3393C3.45201 13.3292 2.71138 13.3185 2.19643 12.8036C1.68147 12.2886 1.67076 11.548 1.66071 10.8944C1.65536 10.5429 1.65 10.1799 1.55893 9.96094C1.46049 9.72187 1.19933 9.45 0.946875 9.18616C0.502902 8.72344 0 8.19911 0 7.5C0 6.80089 0.502902 6.27656 0.946875 5.81384C1.19933 5.55 1.46049 5.27812 1.55893 5.03906C1.65 4.82009 1.65536 4.45714 1.66071 4.10558C1.67076 3.45201 1.68147 2.71138 2.19643 2.19643C2.71138 1.68147 3.45201 1.67076 4.10558 1.66071C4.45714 1.65536 4.82009 1.65 5.03906 1.55893C5.27812 1.46049 5.55 1.19933 5.81384 0.946875C6.27656 0.502902 6.80089 0 7.5 0C8.19911 0 8.72344 0.502902 9.18616 0.946875C9.45 1.19933 9.72187 1.46049 9.96094 1.55893C10.1799 1.65 10.5429 1.65536 10.8944 1.66071C11.548 1.67076 12.2886 1.68147 12.8036 2.19643C13.3185 2.71138 13.3292 3.45201 13.3393 4.10558C13.3446 4.45714 13.35 4.82009 13.4411 5.03906C13.5395 5.27812 13.8007 5.55 14.0531 5.81384C14.4971 6.27656 15 6.80089 15 7.5ZM5.35714 6.96429C5.67501 6.96429 5.98573 6.87003 6.25002 6.69343C6.51432 6.51684 6.72031 6.26584 6.84195 5.97217C6.96359 5.6785 6.99542 5.35536 6.9334 5.0436C6.87139 4.73185 6.71833 4.44548 6.49356 4.22072C6.2688 3.99596 5.98244 3.84289 5.67068 3.78088C5.35893 3.71887 5.03578 3.7507 4.74212 3.87234C4.44845 3.99398 4.19745 4.19997 4.02085 4.46426C3.84426 4.72856 3.75 5.03928 3.75 5.35714C3.75 5.78338 3.91932 6.19217 4.22072 6.49356C4.52212 6.79496 4.9309 6.96429 5.35714 6.96429ZM10.5576 5.20045C10.6074 5.15067 10.6468 5.09158 10.6738 5.02655C10.7007 4.96152 10.7146 4.89182 10.7146 4.82143C10.7146 4.75104 10.7007 4.68134 10.6738 4.61631C10.6468 4.55127 10.6074 4.49218 10.5576 4.44241C10.5078 4.39264 10.4487 4.35315 10.3837 4.32622C10.3187 4.29928 10.249 4.28542 10.1786 4.28542C10.1082 4.28542 10.0385 4.29928 9.97345 4.32622C9.90842 4.35315 9.84933 4.39264 9.79955 4.44241L4.44241 9.79955C4.39264 9.84933 4.35315 9.90842 4.32622 9.97345C4.29928 10.0385 4.28542 10.1082 4.28542 10.1786C4.28542 10.249 4.29928 10.3187 4.32622 10.3837C4.35315 10.4487 4.39264 10.5078 4.44241 10.5576C4.54293 10.6581 4.67927 10.7146 4.82143 10.7146C4.89182 10.7146 4.96152 10.7007 5.02655 10.6738C5.09158 10.6468 5.15067 10.6074 5.20045 10.5576L10.5576 5.20045ZM11.25 9.64286C11.25 9.32499 11.1557 9.01427 10.9791 8.74998C10.8026 8.48568 10.5516 8.27969 10.2579 8.15805C9.96422 8.03641 9.64107 8.00458 9.32932 8.0666C9.01756 8.12861 8.7312 8.28167 8.50644 8.50644C8.28167 8.7312 8.12861 9.01756 8.0666 9.32932C8.00458 9.64107 8.03641 9.96422 8.15805 10.2579C8.27969 10.5516 8.48568 10.8026 8.74998 10.9791C9.01427 11.1557 9.32499 11.25 9.64286 11.25C10.0691 11.25 10.4779 11.0807 10.7793 10.7793C11.0807 10.4779 11.25 10.0691 11.25 9.64286Z" fill="#1E1E1E"/>
</svg>
