<svg width="24" height="24" viewBox="0 0 24 24" fill="none" xmlns="http://www.w3.org/2000/svg">
<g clip-path="url(#clip0_569_1849)">
<mask id="mask0_569_1849" style="mask-type:luminance" maskUnits="userSpaceOnUse" x="0" y="0" width="24" height="24">
<path d="M24 0H0V24H24V0Z" fill="white"/>
</mask>
<g mask="url(#mask0_569_1849)">
<path fill-rule="evenodd" clip-rule="evenodd" d="M12 3.5C8.46158 3.5 5.57043 6.33095 5.52075 9.86443C5.50821 10.7565 5.5 11.5231 5.5 12C5.5 13.0907 5.22521 13.9087 4.96334 14.5543C4.90913 14.688 4.85923 14.8058 4.81308 14.9147C4.74252 15.0813 4.68074 15.2271 4.62574 15.3773C4.53953 15.6126 4.5 15.7849 4.5 15.931C4.5 16.0483 4.53093 16.1724 4.65702 16.3122C4.79516 16.4654 5.06742 16.6581 5.59406 16.8428C6.65389 17.2146 8.5837 17.5 12 17.5C15.4172 17.5 17.3363 17.2188 18.3855 16.8506C18.9064 16.6678 19.1722 16.4772 19.3059 16.3265C19.4276 16.1893 19.4593 16.0645 19.4593 15.9399C19.4593 15.7875 19.4202 15.6107 19.3374 15.3741C19.2843 15.2221 19.2243 15.0739 19.1558 14.905L19.1558 14.905L19.1558 14.905L19.1558 14.9049C19.1119 14.7968 19.0647 14.6801 19.0136 14.5485C18.7627 13.9025 18.5 13.087 18.5 12C18.5 11.5231 18.4918 10.7565 18.4792 9.86441L18.4792 9.86445L18.9792 9.8574L18.4792 9.86441C18.4768 9.68969 18.4674 9.51681 18.4514 9.34601C18.1524 9.44589 17.8325 9.5 17.5 9.5C15.8431 9.5 14.5 8.15685 14.5 6.5C14.5 5.69294 14.8187 4.96031 15.3371 4.42109C14.3614 3.83598 13.2194 3.5 12 3.5ZM19.4792 9.85035C19.4742 9.50286 19.4456 9.16096 19.3945 8.82622C20.0692 8.27611 20.5 7.43837 20.5 6.5C20.5 4.84315 19.1569 3.5 17.5 3.5C17.0376 3.5 16.5996 3.60463 16.2084 3.79152C15.0078 2.97595 13.5573 2.5 12 2.5C7.91938 2.5 4.57829 5.76555 4.52085 9.85037C4.50831 10.7423 4.5 11.5153 4.5 12C4.5 12.9093 4.27479 13.5913 4.03666 14.1784C3.99604 14.2786 3.95186 14.3832 3.90744 14.4884L3.90743 14.4884L3.90742 14.4884C3.82837 14.6756 3.74856 14.8646 3.68676 15.0333C3.58547 15.3098 3.5 15.6116 3.5 15.931C3.5 16.2792 3.61193 16.6465 3.9144 16.9819C4.20484 17.304 4.64687 17.5703 5.26308 17.7865C6.00275 18.0459 7.04979 18.252 8.51983 18.3747C8.70682 20.1316 10.1936 21.5 12 21.5C13.806 21.5 15.2924 20.1323 15.48 18.3762C16.9437 18.255 17.9836 18.0515 18.7166 17.7942C19.3284 17.5795 19.7667 17.3138 20.0539 16.9902C20.3532 16.6529 20.4593 16.2852 20.4593 15.9399C20.4593 15.6224 20.3785 15.3217 20.2814 15.044C20.2217 14.8732 20.1448 14.6829 20.0685 14.4942L20.0685 14.4941L20.0684 14.4939C20.0263 14.3898 19.9844 14.2861 19.9457 14.1865C19.717 13.5975 19.5 12.913 19.5 12C19.5 11.5153 19.4917 10.7423 19.4792 9.85039L19.4792 9.85035ZM14.4608 18.4433C13.7313 18.4803 12.9144 18.5 12 18.5C11.0863 18.5 10.2693 18.48 9.53905 18.4426C9.74798 19.6122 10.7703 20.5 12 20.5C13.2295 20.5 14.2516 19.6126 14.4608 18.4433ZM17.5 4.5C16.3954 4.5 15.5 5.39543 15.5 6.5C15.5 7.60457 16.3954 8.5 17.5 8.5C18.6046 8.5 19.5 7.60457 19.5 6.5C19.5 5.39543 18.6046 4.5 17.5 4.5Z" fill="#343E4D" fill-opacity="0.5"/>
</g>
</g>
<defs>
<clipPath id="clip0_569_1849">
<rect width="24" height="24" fill="white"/>
</clipPath>
</defs>
</svg>
