<svg width="20" height="20" viewBox="0 0 20 20" fill="none" xmlns="http://www.w3.org/2000/svg">
<path d="M17.5009 5.55477C17.3538 5.63095 17.1824 5.64561 17.0245 5.5955C16.8666 5.5454 16.735 5.43465 16.6587 5.28758C16.0622 4.10906 15.1592 3.11297 14.0447 2.40399C13.9752 2.36018 13.9151 2.30312 13.8676 2.23606C13.8202 2.16901 13.7865 2.09328 13.7684 2.01319C13.7502 1.9331 13.7481 1.85022 13.7619 1.76928C13.7758 1.68835 13.8055 1.61094 13.8493 1.54149C13.8932 1.47203 13.9502 1.41188 14.0173 1.36448C14.0843 1.31707 14.1601 1.28334 14.2401 1.2652C14.3202 1.24706 14.4031 1.24488 14.4841 1.25877C14.565 1.27267 14.6424 1.30236 14.7118 1.34617C16.0108 2.17784 17.0655 3.33958 17.7681 4.71258C17.8443 4.8597 17.8589 5.03106 17.8088 5.18898C17.7587 5.3469 17.648 5.47847 17.5009 5.55477ZM2.79075 5.62508C2.90526 5.62503 3.01755 5.59353 3.11536 5.53401C3.21318 5.47449 3.29277 5.38925 3.34544 5.28758C3.94201 4.10906 4.84499 3.11297 5.9595 2.40399C6.09978 2.31551 6.19916 2.17494 6.23579 2.01319C6.27242 1.85144 6.24329 1.68176 6.15482 1.54149C6.06634 1.40121 5.92577 1.30183 5.76402 1.2652C5.60227 1.22857 5.43259 1.2577 5.29232 1.34617C3.99341 2.17784 2.93871 3.33958 2.23607 4.71258C2.18672 4.80783 2.16272 4.91418 2.16638 5.02139C2.17004 5.1286 2.20123 5.23306 2.25695 5.32473C2.31267 5.41639 2.39105 5.49217 2.48454 5.54478C2.57803 5.59738 2.68348 5.62503 2.79075 5.62508ZM17.3298 13.7454C17.4405 13.9353 17.4992 14.151 17.5 14.3708C17.5008 14.5906 17.4435 14.8067 17.3341 14.9973C17.2247 15.188 17.0669 15.3464 16.8768 15.4566C16.6866 15.5668 16.4707 15.6249 16.2509 15.6251H13.0634C12.92 16.3315 12.5367 16.9666 11.9786 17.4228C11.4204 17.879 10.7218 18.1282 10.0009 18.1282C9.28006 18.1282 8.58138 17.879 8.02325 17.4228C7.46512 16.9666 7.08186 16.3315 6.93841 15.6251H3.75091C3.53124 15.6246 3.31556 15.5663 3.1256 15.456C2.93564 15.3457 2.77811 15.1872 2.66888 14.9967C2.55964 14.8061 2.50256 14.5901 2.50339 14.3704C2.50421 14.1507 2.56291 13.9352 2.67357 13.7454C3.37747 12.5305 3.75091 10.8032 3.75091 8.75008C3.75091 7.09248 4.40939 5.50276 5.58149 4.33066C6.7536 3.15856 8.34331 2.50008 10.0009 2.50008C11.6585 2.50008 13.2482 3.15856 14.4203 4.33066C15.5924 5.50276 16.2509 7.09248 16.2509 8.75008C16.2509 10.8024 16.6243 12.5298 17.3298 13.7454ZM11.7681 15.6251H8.23372C8.36321 15.9902 8.60264 16.3063 8.91909 16.5299C9.23554 16.7534 9.61347 16.8734 10.0009 16.8734C10.3884 16.8734 10.7663 16.7534 11.0827 16.5299C11.3992 16.3063 11.6386 15.9902 11.7681 15.6251Z" fill="#0F172A"/>
</svg>
