<svg width="32" height="32" viewBox="0 0 32 32" fill="none" xmlns="http://www.w3.org/2000/svg">
<path d="M23.1451 7.71585L23.6451 9.21585C23.7908 9.6907 24.0919 10.1028 24.5 10.3859L25.7651 11.2359C26.1898 11.5209 26.5038 11.943 26.6549 12.4316C26.8059 12.9203 26.7848 13.4459 26.5951 13.9209L26.0951 15.1359C25.8774 15.673 25.8774 16.2738 26.0951 16.8109L26.5951 17.9959C26.7844 18.4613 26.8113 18.9769 26.6716 19.4595C26.5319 19.9421 26.2337 20.3636 25.8251 20.6559L24.7001 21.4609C24.2877 21.754 23.9878 22.1791 23.85 22.6659L23.445 24.0859C23.304 24.5844 22.9939 25.0183 22.5678 25.313C22.1417 25.6077 21.6263 25.7448 21.1101 25.7009L19.8951 25.6009C19.3201 25.5531 18.7492 25.7326 18.305 26.1009L17.135 27.0459C16.7361 27.3712 16.2373 27.5488 15.7226 27.5488C15.2079 27.5488 14.709 27.3712 14.3101 27.0459L13.3101 26.2259C12.9092 25.8993 12.4071 25.7225 11.89 25.7259H10.135C9.63 25.7272 9.1395 25.5566 8.74425 25.2422C8.34895 24.9278 8.0724 24.4883 7.96005 23.9959L7.64005 22.6359C7.51495 22.0871 7.1861 21.6064 6.72005 21.2909L5.64505 20.5009C5.23815 20.2241 4.93453 19.8203 4.78163 19.3525C4.62873 18.8848 4.63521 18.3796 4.80005 17.9159L5.30005 16.5459C5.48505 16.0475 5.48505 15.4993 5.30005 15.0009L4.85005 13.8009C4.6701 13.3243 4.65879 12.8004 4.81799 12.3164C4.97718 11.8325 5.2973 11.4176 5.72505 11.1409L6.91005 10.3759C7.3682 10.0796 7.70245 9.62615 7.85005 9.10085L8.20005 7.84085C8.3403 7.33915 8.65135 6.90225 9.07955 6.6055C9.5077 6.3088 10.026 6.171 10.545 6.21585L11.665 6.31085C12.2413 6.35625 12.8128 6.1771 13.26 5.81085L14.3251 4.95087C14.7251 4.62392 15.2259 4.44531 15.7425 4.44531C16.2592 4.44531 16.76 4.62392 17.16 4.95087L18.09 5.73085C18.5373 6.1007 19.1118 6.28025 19.6901 6.23085L20.865 6.14585C21.3662 6.11335 21.8637 6.25055 22.2774 6.5354C22.691 6.8202 22.9967 7.23605 23.1451 7.71585Z" stroke="#343E4D" stroke-opacity="0.5" stroke-miterlimit="10"/>
<path d="M20.58 11.0961L10.65 21.0311M12.945 13.9262C13.9861 13.9262 14.83 13.0823 14.83 12.0412C14.83 11.0001 13.9861 10.1562 12.945 10.1562C11.904 10.1562 11.06 11.0001 11.06 12.0412C11.06 13.0823 11.904 13.9262 12.945 13.9262ZM18.695 21.8461C19.7361 21.8461 20.58 21.0022 20.58 19.9611C20.58 18.9201 19.7361 18.0761 18.695 18.0761C17.654 18.0761 16.81 18.9201 16.81 19.9611C16.81 21.0022 17.654 21.8461 18.695 21.8461Z" stroke="#343E4D" stroke-opacity="0.5" stroke-linecap="round" stroke-linejoin="round"/>
</svg>
