<svg width="310" height="230" viewBox="0 0 310 230" fill="none" xmlns="http://www.w3.org/2000/svg">
<path d="M302.325 164.558C295.451 166.516 298.155 151.587 300.115 140.482C300.697 137.187 299.979 135.394 298.544 134.607C298.289 134.462 298.012 134.355 297.715 134.275C294.059 133.285 287.459 136.653 283.94 139.14C283.845 139.21 283.756 139.254 283.673 139.278C283.13 139.44 282.82 138.734 282.549 137.527C281.259 131.8 280.792 114.861 259.977 126.748C256.854 128.531 255.044 130.733 254.227 133.213C254.136 133.489 254.057 133.769 253.989 134.053C253.859 134.6 253.774 135.158 253.731 135.724C253.701 136.097 253.688 136.466 253.693 136.842C253.789 145.333 263.296 155.844 270.049 165.025C272.706 168.638 269.257 173.605 264.962 172.314C262.471 171.566 259.738 170.891 258.414 172.353C253.342 177.956 261.323 180.993 263.454 180.993H309.669V160.873C307.414 162.117 304.938 163.814 302.325 164.558Z" fill="#6517FF"/>
<path d="M298.543 134.606L285.923 156.433L285.894 156.483L281.048 164.866C281.047 164.867 285.639 180.992 285.639 180.992H284.709L277.704 156.391L253.692 136.845C253.687 136.466 253.699 136.096 253.731 135.727L277.279 154.897L276.636 152.641L253.988 134.053C254.056 133.768 254.134 133.489 254.226 133.212L254.284 133.144L276.21 151.142L268.241 123.155C268.241 123.155 268.504 123.088 268.66 123.05C268.844 123.005 269.112 122.948 269.112 122.948L280.71 163.679C280.71 163.678 285.002 156.259 285.002 156.259L282.539 137.529C282.82 138.733 283.129 139.44 283.672 139.277L285.737 154.988L297.716 134.275C298.011 134.355 298.288 134.462 298.543 134.606Z" fill="white"/>
<path d="M301.697 159.223C301.697 159.223 309.099 158.03 306.22 153.36C303.342 148.69 301.697 159.223 301.697 159.223Z" fill="#6517FF"/>
<path d="M269.079 134.898C269.079 134.898 265.191 127.77 264.023 128.56C258.53 132.275 269.079 134.898 269.079 134.898Z" fill="white"/>
<path d="M0 181.058H63.574C63.6824 180.843 63.7877 180.627 63.8874 180.41C65.2264 177.488 65.733 174.346 65.0691 170.995C64.783 169.547 64.3767 168.36 63.8651 167.385C63.6644 166.992 63.4427 166.638 63.2074 166.312C57.668 158.727 43.6703 169.109 35.6814 163.237C28.3806 157.873 67.9422 126.925 68.6644 105.042C68.6842 104.505 68.678 103.981 68.6445 103.457C68.603 102.649 68.499 101.856 68.3324 101.079C68.2451 100.675 68.1423 100.277 68.0209 99.8832C66.9395 96.3462 64.4448 93.1733 60.0797 90.5529C55.5845 87.855 51.7558 86.1456 48.4869 85.2135C48.0695 85.094 47.6607 84.9875 47.2612 84.8933C30.5366 80.9494 29.4434 98.4563 27.7898 105.12C27.3674 106.819 26.9072 107.812 26.1442 107.564C26.0278 107.528 25.9027 107.463 25.7701 107.362C21.9959 104.569 15.6532 100.981 10.5579 100.063C10.5579 100.063 -0.976699 98.4209 6.55757 119.975C16.9755 149.778 0 143.082 0 143.082V180.993V181.058Z" fill="#6517FF"/>
<path d="M6.89213 100.92C6.55583 101.136 6.22448 101.404 5.91357 101.734L22.4283 131.785L22.4679 131.857L29.0719 143.875C29.0732 143.878 17.6086 181.058 17.6086 181.058H18.9327L34.0663 131.98L68.6639 105.042C68.6701 104.905 68.6732 104.772 68.6744 104.64C68.6756 104.507 68.6756 104.376 68.6744 104.244C68.6725 104.113 68.6694 103.981 68.6645 103.85C68.6595 103.719 68.6527 103.588 68.6447 103.458L34.7141 129.879L35.6933 126.703L68.3325 101.079C68.2452 100.674 68.1424 100.276 68.021 99.8827C68.008 99.8399 67.9937 99.7972 67.9801 99.7538L36.3436 124.594L48.487 85.2123C48.1736 85.1225 47.867 85.0427 47.5642 84.9677C47.4632 84.9429 47.361 84.9163 47.2613 84.8922L29.5885 142.205C29.5872 142.203 23.7394 131.566 23.7394 131.566L27.8023 105.122C27.684 105.543 27.5762 105.924 27.4617 106.253C27.3186 106.663 27.1656 106.991 26.994 107.221C26.96 107.266 26.9247 107.309 26.8888 107.346C26.7098 107.536 26.511 107.624 26.2837 107.595C26.2385 107.588 26.192 107.578 26.1443 107.562L22.7386 129.744L6.89213 100.92Z" fill="#FBF9FF"/>
<path d="M63.8878 180.41L47.9733 175.503C47.9751 175.502 63.8649 167.386 63.8649 167.386C63.8148 167.288 63.7633 167.192 63.7107 167.099C63.5528 166.818 63.3837 166.557 63.2072 166.314L34.3379 181.058H37.0989L46.5661 176.223L46.5092 176.356L61.7592 181.058H63.5751C63.6828 180.843 63.7881 180.627 63.8878 180.41Z" fill="#FBF9FF"/>
<path d="M0 172.534L4.90022 181.058H6.34762L0 170.016V172.534Z" fill="#FBF9FF"/>
<path d="M43.5776 158.794C43.5776 158.794 50.7378 150.346 54.8973 151.629C59.0568 152.912 53.9305 160.304 43.5776 158.794Z" fill="#6517FF"/>
<path d="M46.9409 101.812C46.9409 101.812 52.6642 91.8393 54.2937 92.9937C61.9568 98.4222 46.9409 101.812 46.9409 101.812Z" fill="#FBF9FF"/>
<path d="M309.67 180.993H0V229.34H309.67V180.993Z" fill="#250663"/>
<path d="M309.67 180.993H0V187.135H309.67V180.993Z" fill="#3700A4"/>
<path d="M180.172 114.113V169.77C180.172 175.968 175.153 180.993 168.962 180.993H125.034C118.844 180.993 113.826 175.968 113.826 169.77V114.113C113.826 104.36 121.179 96.3295 130.639 95.2735V89.8035H163.358V95.2735C172.816 96.3295 180.172 104.36 180.172 114.113Z" fill="#6138B2"/>
<path d="M124.125 121.469V152.371H169.871V121.469H124.125ZM160.528 142.271H133.468V138.636H160.528V142.271ZM160.528 135.203H133.468V131.568H160.528V135.203Z" fill="white"/>
<path d="M167.195 76.2957V87.9095C167.195 88.9686 166.346 89.8283 165.3 89.8283H128.697C127.65 89.8283 126.802 88.9692 126.802 87.9095V76.2957C126.802 75.2366 127.65 74.377 128.697 74.377H165.3C166.346 74.3776 167.195 75.2366 167.195 76.2957Z" fill="#6517FF"/>
<path d="M132.254 87.3541C131.697 87.3541 131.245 86.902 131.245 86.3446V77.8621C131.245 77.3047 131.697 76.8525 132.254 76.8525C132.812 76.8525 133.264 77.3047 133.264 77.8621V86.3446C133.264 86.902 132.812 87.3541 132.254 87.3541Z" fill="white"/>
<path d="M138.01 87.3541C137.453 87.3541 137 86.902 137 86.3446V77.8621C137 77.3047 137.453 76.8526 138.01 76.8526C138.567 76.8526 139.02 77.3047 139.02 77.8621V86.3446C139.02 86.902 138.567 87.3541 138.01 87.3541Z" fill="white"/>
<path d="M143.665 87.3541C143.107 87.3541 142.655 86.902 142.655 86.3446V77.8621C142.655 77.3047 143.107 76.8526 143.665 76.8526C144.222 76.8526 144.674 77.3047 144.674 77.8621V86.3446C144.674 86.902 144.222 87.3541 143.665 87.3541Z" fill="white"/>
<path d="M149.825 87.3541C149.268 87.3541 148.816 86.902 148.816 86.3446V77.8621C148.816 77.3047 149.268 76.8526 149.825 76.8526C150.383 76.8526 150.835 77.3047 150.835 77.8621V86.3446C150.835 86.902 150.383 87.3541 149.825 87.3541Z" fill="white"/>
<path d="M155.682 87.3541C155.125 87.3541 154.673 86.902 154.673 86.3446V77.8621C154.673 77.3047 155.125 76.8526 155.682 76.8526C156.24 76.8526 156.692 77.3047 156.692 77.8621V86.3446C156.692 86.902 156.24 87.3541 155.682 87.3541Z" fill="#BFA361"/>
<path d="M161.742 87.3541C161.185 87.3541 160.732 86.902 160.732 86.3446V77.8621C160.732 77.3047 161.185 76.8526 161.742 76.8526C162.3 76.8526 162.751 77.3047 162.751 77.8621V86.3446C162.751 86.902 162.299 87.3541 161.742 87.3541Z" fill="#BFA361"/>
<path d="M180.172 114.113V169.77C180.172 175.967 175.154 180.992 168.963 180.992H158.662C164.853 180.992 169.871 175.967 169.871 169.77V114.113C169.871 104.685 163.161 96.864 154.16 95.4012V95.3578C154.165 95.3578 154.165 91.4442 154.165 91.4442H130.639V89.8283H154.165V74.3764H165.301C166.348 74.3764 167.196 75.236 167.196 76.2957V87.909C167.196 88.9687 166.348 89.8283 165.301 89.8283H163.359V95.2729C163.358 95.2729 163.358 95.3776 163.358 95.3776C163.359 95.3776 163.359 95.2729 163.359 95.2729C172.818 96.3289 180.172 104.361 180.172 114.113Z" fill="#D1D3D4"/>
<path d="M170.752 107.592L182.541 174.448C183.179 178.063 186.621 180.993 190.229 180.993H224.336C227.945 180.993 230.354 178.063 229.716 174.448L217.928 107.592C217.29 103.977 213.848 101.047 210.238 101.047H176.135C175.745 101.047 175.369 101.081 175.01 101.148C174.191 101.297 173.458 101.608 172.836 102.047C171.2 103.206 170.339 105.254 170.752 107.592Z" fill="#6517FF"/>
<path d="M190.23 180.993H188.335C184.726 180.993 181.283 178.064 180.645 174.45L168.857 107.592C168.22 103.977 170.63 101.048 174.24 101.048H176.135C172.525 101.048 170.115 103.977 170.752 107.592L182.541 174.45C183.178 178.064 186.621 180.993 190.23 180.993Z" fill="#6138B2"/>
<path d="M206.391 180.993H208.295L194.079 101.047H192.15L206.391 180.993Z" fill="#6138B2"/>
<path d="M190.29 112.817C190.862 116.063 188.695 119.158 185.449 119.73C185.228 119.769 185.009 119.795 184.79 119.809C181.795 120.002 179.07 117.914 178.537 114.89C178.004 111.865 179.85 108.971 182.731 108.128C182.941 108.066 183.157 108.016 183.378 107.977C186.622 107.404 189.718 109.572 190.29 112.817Z" fill="#7FB1F4"/>
<path d="M214.076 112.817C214.649 116.063 212.481 119.158 209.236 119.73C209.015 119.769 208.796 119.796 208.577 119.809C205.581 120.002 202.856 117.914 202.323 114.89C201.789 111.865 203.636 108.971 206.517 108.128C206.727 108.066 206.942 108.016 207.163 107.977C210.409 107.404 213.505 109.572 214.076 112.817Z" fill="#7FB1F4"/>
<path d="M196.614 149.757C197.186 153.003 195.019 156.098 191.773 156.67C191.552 156.709 191.333 156.735 191.114 156.749C188.118 156.942 185.393 154.854 184.86 151.83C184.327 148.806 186.173 145.911 189.054 145.068C189.265 145.006 189.48 144.955 189.701 144.916C192.946 144.344 196.041 146.512 196.614 149.757Z" fill="#7FB1F4"/>
<path d="M220.401 149.757C220.973 153.003 218.806 156.098 215.56 156.67C215.339 156.709 215.12 156.735 214.901 156.749C211.905 156.943 209.18 154.854 208.647 151.83C208.114 148.805 209.96 145.911 212.841 145.068C213.051 145.006 213.266 144.955 213.488 144.916C216.733 144.344 219.829 146.512 220.401 149.757Z" fill="#7FB1F4"/>
<path d="M193.358 131.287C193.93 134.533 191.762 137.628 188.517 138.2C188.296 138.239 188.076 138.265 187.857 138.279C184.862 138.473 182.137 136.384 181.604 133.36C181.07 130.336 182.917 127.442 185.798 126.599C186.008 126.537 186.223 126.486 186.444 126.447C189.689 125.874 192.785 128.042 193.358 131.287Z" fill="#7FB1F4"/>
<path d="M217.145 131.287C217.717 134.533 215.549 137.628 212.304 138.2C212.083 138.239 211.864 138.265 211.644 138.279C208.649 138.473 205.924 136.384 205.391 133.36C204.858 130.336 206.704 127.442 209.585 126.599C209.795 126.537 210.011 126.486 210.231 126.447C213.476 125.874 216.572 128.042 217.145 131.287Z" fill="#7FB1F4"/>
<path d="M199.641 166.921C200.213 170.166 198.045 173.262 194.8 173.833C194.579 173.873 194.36 173.898 194.14 173.912C191.145 174.105 188.42 172.017 187.887 168.993C187.354 165.968 189.2 163.074 192.081 162.231C192.292 162.169 192.507 162.119 192.728 162.08C195.973 161.508 199.069 163.676 199.641 166.921Z" fill="#7FB1F4"/>
<path d="M223.428 166.921C224 170.166 221.833 173.262 218.587 173.833C218.366 173.873 218.146 173.898 217.928 173.912C214.932 174.105 212.207 172.017 211.674 168.993C211.14 165.968 212.987 163.074 215.868 162.231C216.078 162.169 216.294 162.119 216.514 162.08C219.76 161.508 222.855 163.676 223.428 166.921Z" fill="#7FB1F4"/>
<path d="M184.79 119.809C184.58 119.871 184.365 119.922 184.143 119.961C180.898 120.533 177.802 118.365 177.23 115.12C176.658 111.875 178.825 108.779 182.07 108.207C182.291 108.168 182.51 108.142 182.73 108.128C179.848 108.971 178.002 111.865 178.535 114.889C179.069 117.914 181.794 120.002 184.79 119.809Z" fill="#6138B2"/>
<path d="M208.577 119.809C208.367 119.871 208.151 119.922 207.93 119.961C204.685 120.533 201.589 118.365 201.017 115.12C200.445 111.875 202.612 108.779 205.858 108.207C206.079 108.168 206.298 108.142 206.517 108.128C203.635 108.97 201.789 111.865 202.323 114.889C202.857 117.914 205.581 120.002 208.577 119.809Z" fill="#6138B2"/>
<path d="M191.114 156.749C190.904 156.811 190.688 156.861 190.467 156.9C187.222 157.473 184.126 155.305 183.554 152.06C182.982 148.815 185.149 145.719 188.395 145.147C188.616 145.108 188.835 145.082 189.054 145.069C186.173 145.911 184.327 148.806 184.86 151.83C185.393 154.854 188.119 156.942 191.114 156.749Z" fill="#6138B2"/>
<path d="M214.901 156.748C214.691 156.81 214.475 156.861 214.254 156.9C211.009 157.472 207.913 155.305 207.341 152.059C206.769 148.815 208.937 145.719 212.182 145.146C212.403 145.107 212.622 145.081 212.841 145.068C209.96 145.911 208.113 148.805 208.647 151.829C209.181 154.854 211.906 156.942 214.901 156.748Z" fill="#6138B2"/>
<path d="M187.857 138.279C187.647 138.341 187.432 138.392 187.21 138.431C183.965 139.003 180.87 136.835 180.297 133.59C179.724 130.344 181.892 127.249 185.137 126.677C185.359 126.638 185.578 126.612 185.796 126.598C182.915 127.441 181.069 130.336 181.603 133.359C182.137 136.384 184.861 138.472 187.857 138.279Z" fill="#6138B2"/>
<path d="M211.644 138.279C211.434 138.341 211.219 138.392 210.998 138.431C207.753 139.003 204.657 136.835 204.085 133.59C203.513 130.344 205.68 127.249 208.926 126.677C209.147 126.638 209.366 126.612 209.585 126.598C206.704 127.441 204.858 130.336 205.391 133.359C205.924 136.384 208.649 138.472 211.644 138.279Z" fill="#6138B2"/>
<path d="M194.141 173.913C193.931 173.975 193.715 174.025 193.494 174.064C190.249 174.637 187.153 172.469 186.581 169.224C186.009 165.978 188.176 162.883 191.422 162.31C191.643 162.271 191.862 162.245 192.081 162.232C189.2 163.075 187.354 165.969 187.886 168.993C188.42 172.017 191.145 174.106 194.141 173.913Z" fill="#6138B2"/>
<path d="M217.928 173.913C217.717 173.975 217.502 174.025 217.281 174.064C214.036 174.637 210.94 172.469 210.368 169.224C209.796 165.978 211.963 162.883 215.208 162.31C215.429 162.271 215.649 162.245 215.867 162.232C212.986 163.075 211.14 165.969 211.674 168.993C212.207 172.017 214.932 174.106 217.928 173.913Z" fill="#6138B2"/>
<path d="M183.377 107.976C183.208 108.006 183.043 108.045 182.88 108.089L184.944 119.795C185.112 119.78 185.28 119.76 185.45 119.73C185.619 119.7 185.785 119.662 185.948 119.618L183.884 107.91C183.716 107.926 183.548 107.946 183.378 107.976L183.377 107.976Z" fill="#6138B2"/>
<path d="M207.163 107.976C206.994 108.006 206.829 108.045 206.666 108.088L208.73 119.795C208.897 119.78 209.065 119.76 209.235 119.73C209.406 119.7 209.571 119.662 209.734 119.619L207.669 107.911C207.502 107.926 207.333 107.947 207.164 107.976H207.163Z" fill="#6138B2"/>
<path d="M189.205 145.028L191.269 156.735C191.435 156.72 191.603 156.7 191.771 156.67C191.946 156.639 192.111 156.601 192.272 156.558L190.208 144.85C190.04 144.866 189.871 144.886 189.702 144.916C189.532 144.946 189.367 144.985 189.205 145.028Z" fill="#6138B2"/>
<path d="M212.992 145.029L215.056 156.735C215.223 156.72 215.391 156.7 215.559 156.67C215.732 156.64 215.898 156.602 216.059 156.559L213.995 144.851C213.827 144.866 213.659 144.887 213.49 144.916C213.319 144.946 213.155 144.985 212.992 145.029Z" fill="#6138B2"/>
<path d="M186.444 126.446C186.275 126.477 186.11 126.515 185.948 126.559L188.012 138.265C188.18 138.25 188.348 138.23 188.517 138.2C188.688 138.17 188.853 138.132 189.015 138.089L186.951 126.381C186.783 126.396 186.615 126.417 186.446 126.446H186.444Z" fill="#6138B2"/>
<path d="M210.229 126.446C210.061 126.477 209.896 126.515 209.734 126.559L211.798 138.265C211.966 138.25 212.134 138.23 212.303 138.2C212.474 138.17 212.639 138.132 212.801 138.089L210.737 126.381C210.57 126.396 210.402 126.417 210.233 126.446L210.229 126.446Z" fill="#6138B2"/>
<path d="M192.23 162.192L194.294 173.898C194.462 173.883 194.631 173.864 194.8 173.833C194.969 173.804 195.135 173.765 195.298 173.722L193.234 162.014C193.066 162.029 192.898 162.05 192.728 162.079C192.558 162.11 192.393 162.149 192.23 162.192Z" fill="#6138B2"/>
<path d="M216.017 162.192L218.081 173.898C218.249 173.883 218.418 173.864 218.587 173.833C218.756 173.804 218.922 173.765 219.085 173.722L217.02 162.014C216.853 162.029 216.684 162.05 216.514 162.079C216.345 162.11 216.18 162.149 216.017 162.192Z" fill="#6138B2"/>
<path d="M188.181 123.767L197.372 175.891C197.869 178.709 200.553 180.993 203.365 180.993H229.956C232.771 180.993 234.649 178.709 234.152 175.891L224.961 123.767C224.464 120.949 221.78 118.665 218.966 118.665H192.378C192.074 118.665 191.781 118.691 191.501 118.743C190.863 118.86 190.292 119.102 189.806 119.445C188.53 120.347 187.859 121.945 188.181 123.767Z" fill="white"/>
<path d="M203.365 180.993H201.888C199.075 180.993 196.39 178.709 195.893 175.891L186.702 123.766C186.206 120.948 188.084 118.665 190.899 118.665H192.375C189.561 118.665 187.682 120.948 188.179 123.766L197.37 175.891C197.867 178.709 200.552 180.993 203.365 180.993Z" fill="#5601FF"/>
<path d="M215.966 180.993H217.45L206.367 118.665H204.863L215.966 180.993Z" fill="#5601FF"/>
<path d="M203.413 127.841C203.859 130.371 202.169 132.784 199.639 133.23C199.466 133.261 199.296 133.281 199.125 133.292C196.789 133.442 194.665 131.814 194.249 129.456C193.834 127.098 195.272 124.841 197.519 124.185C197.683 124.136 197.851 124.097 198.023 124.067C200.553 123.621 202.967 125.311 203.413 127.841Z" fill="#DDEEFF"/>
<path d="M221.958 127.841C222.404 130.371 220.714 132.784 218.184 133.23C218.012 133.261 217.84 133.281 217.67 133.292C215.335 133.442 213.21 131.815 212.795 129.456C212.378 127.098 213.818 124.841 216.064 124.185C216.228 124.137 216.396 124.097 216.568 124.067C219.098 123.621 221.512 125.311 221.958 127.841Z" fill="#DDEEFF"/>
<path d="M208.343 156.641C208.789 159.171 207.099 161.584 204.569 162.03C204.397 162.061 204.226 162.081 204.055 162.092C201.72 162.242 199.595 160.614 199.18 158.256C198.764 155.899 200.204 153.642 202.45 152.985C202.614 152.936 202.781 152.897 202.954 152.866C205.484 152.421 207.897 154.111 208.343 156.641Z" fill="#DDEEFF"/>
<path d="M226.888 156.641C227.334 159.171 225.645 161.584 223.115 162.03C222.943 162.061 222.771 162.081 222.601 162.092C220.265 162.243 218.141 160.614 217.725 158.256C217.31 155.898 218.749 153.642 220.995 152.985C221.159 152.936 221.326 152.897 221.499 152.866C224.029 152.421 226.442 154.111 226.888 156.641Z" fill="#DDEEFF"/>
<path d="M205.805 142.241C206.251 144.771 204.561 147.185 202.031 147.631C201.859 147.661 201.687 147.682 201.517 147.692C199.182 147.843 197.057 146.214 196.642 143.857C196.226 141.499 197.665 139.242 199.912 138.585C200.076 138.537 200.243 138.497 200.416 138.467C202.945 138.021 205.359 139.711 205.805 142.241Z" fill="#DDEEFF"/>
<path d="M224.349 142.241C224.795 144.771 223.106 147.185 220.576 147.631C220.403 147.661 220.232 147.682 220.062 147.692C217.726 147.843 215.602 146.214 215.186 143.857C214.771 141.499 216.21 139.242 218.456 138.585C218.62 138.537 218.788 138.497 218.96 138.467C221.49 138.021 223.903 139.711 224.349 142.241Z" fill="#DDEEFF"/>
<path d="M210.703 170.022C211.149 172.552 209.46 174.966 206.929 175.412C206.757 175.442 206.586 175.462 206.415 175.473C204.08 175.624 201.956 173.996 201.54 171.638C201.124 169.28 202.563 167.023 204.809 166.366C204.973 166.318 205.141 166.279 205.313 166.248C207.843 165.802 210.257 167.492 210.703 170.022Z" fill="#DDEEFF"/>
<path d="M229.248 170.022C229.694 172.552 228.004 174.966 225.474 175.412C225.301 175.442 225.13 175.462 224.96 175.473C222.625 175.624 220.5 173.996 220.085 171.638C219.669 169.28 221.108 167.023 223.354 166.366C223.518 166.318 223.686 166.279 223.858 166.248C226.388 165.802 228.802 167.492 229.248 170.022Z" fill="#DDEEFF"/>
<path d="M199.125 133.292C198.961 133.341 198.793 133.38 198.621 133.411C196.091 133.857 193.677 132.167 193.231 129.637C192.785 127.107 194.475 124.693 197.005 124.248C197.177 124.217 197.348 124.197 197.519 124.186C195.273 124.843 193.833 127.1 194.249 129.457C194.665 131.815 196.789 133.443 199.125 133.292Z" fill="#5601FF"/>
<path d="M217.669 133.292C217.506 133.341 217.338 133.38 217.165 133.411C214.634 133.857 212.221 132.167 211.775 129.637C211.33 127.107 213.019 124.693 215.549 124.248C215.721 124.217 215.893 124.197 216.063 124.186C213.817 124.843 212.377 127.1 212.794 129.457C213.209 131.815 215.334 133.443 217.669 133.292Z" fill="#5601FF"/>
<path d="M204.055 162.092C203.891 162.14 203.723 162.18 203.551 162.21C201.02 162.656 198.607 160.966 198.161 158.436C197.715 155.906 199.405 153.492 201.935 153.046C202.107 153.016 202.279 152.995 202.449 152.985C200.203 153.642 198.763 155.899 199.179 158.256C199.596 160.614 201.72 162.242 204.055 162.092Z" fill="#5601FF"/>
<path d="M222.6 162.092C222.436 162.14 222.269 162.18 222.096 162.21C219.566 162.656 217.152 160.966 216.706 158.436C216.26 155.906 217.95 153.492 220.481 153.046C220.653 153.016 220.824 152.995 220.995 152.985C218.748 153.642 217.309 155.898 217.725 158.256C218.14 160.614 220.264 162.242 222.6 162.092Z" fill="#5601FF"/>
<path d="M201.517 147.692C201.353 147.74 201.186 147.78 201.013 147.81C198.483 148.256 196.069 146.567 195.623 144.037C195.177 141.506 196.866 139.093 199.397 138.647C199.569 138.617 199.741 138.596 199.911 138.586C197.665 139.243 196.225 141.5 196.641 143.857C197.057 146.214 199.181 147.843 201.517 147.692Z" fill="#5601FF"/>
<path d="M220.06 147.692C219.896 147.74 219.728 147.78 219.556 147.81C217.026 148.256 214.613 146.567 214.167 144.037C213.721 141.506 215.41 139.093 217.94 138.647C218.112 138.617 218.284 138.596 218.454 138.586C216.208 139.243 214.769 141.5 215.184 143.857C215.6 146.214 217.725 147.843 220.06 147.692Z" fill="#5601FF"/>
<path d="M206.415 175.473C206.251 175.522 206.083 175.561 205.911 175.591C203.381 176.037 200.967 174.348 200.521 171.818C200.075 169.287 201.765 166.874 204.295 166.428C204.468 166.398 204.639 166.377 204.809 166.367C202.564 167.024 201.124 169.28 201.54 171.639C201.955 173.996 204.079 175.624 206.415 175.473Z" fill="#5601FF"/>
<path d="M224.96 175.473C224.796 175.522 224.628 175.561 224.456 175.591C221.926 176.037 219.512 174.348 219.067 171.818C218.621 169.287 220.31 166.874 222.84 166.428C223.012 166.398 223.184 166.377 223.354 166.367C221.108 167.024 219.668 169.28 220.085 171.639C220.5 173.996 222.624 175.624 224.96 175.473Z" fill="#5601FF"/>
<path d="M198.022 124.067C197.89 124.091 197.762 124.12 197.635 124.155L199.244 133.281C199.374 133.269 199.506 133.254 199.638 133.23C199.77 133.207 199.899 133.177 200.026 133.144L198.417 124.016C198.286 124.028 198.155 124.044 198.024 124.067L198.022 124.067Z" fill="#5601FF"/>
<path d="M216.568 124.067C216.436 124.091 216.308 124.12 216.181 124.155L217.79 133.281C217.921 133.269 218.052 133.254 218.184 133.23C218.316 133.207 218.445 133.177 218.572 133.144L216.962 124.016C216.832 124.028 216.701 124.044 216.569 124.067L216.568 124.067Z" fill="#5601FF"/>
<path d="M202.949 152.868C202.818 152.891 202.691 152.921 202.566 152.954L204.175 162.081C204.306 162.069 204.437 162.054 204.569 162.03C204.701 162.007 204.83 161.977 204.957 161.944L203.348 152.816C203.219 152.828 203.089 152.844 202.959 152.866L202.949 152.868Z" fill="#5601FF"/>
<path d="M221.495 152.868C221.364 152.891 221.237 152.921 221.111 152.955L222.72 162.081C222.852 162.069 222.982 162.054 223.115 162.031C223.247 162.007 223.376 161.978 223.503 161.944L221.894 152.816C221.764 152.828 221.634 152.844 221.504 152.867L221.495 152.868Z" fill="#5601FF"/>
<path d="M200.412 138.467C200.28 138.491 200.152 138.521 200.026 138.555L201.636 147.681C201.767 147.67 201.898 147.654 202.03 147.631C202.162 147.607 202.291 147.577 202.418 147.544L200.808 138.416C200.678 138.428 200.547 138.444 200.416 138.467L200.412 138.467Z" fill="#5601FF"/>
<path d="M218.958 138.467C218.826 138.49 218.698 138.52 218.572 138.554L220.181 147.681C220.313 147.669 220.443 147.654 220.576 147.63C220.708 147.607 220.837 147.577 220.964 147.543L219.354 138.416C219.223 138.427 219.093 138.443 218.961 138.466L218.958 138.467Z" fill="#5601FF"/>
<path d="M205.308 166.249C205.178 166.273 205.05 166.303 204.925 166.336L206.534 175.463C206.666 175.451 206.796 175.435 206.929 175.412C207.061 175.388 207.19 175.359 207.317 175.325L205.708 166.197C205.579 166.209 205.449 166.225 205.319 166.248L205.308 166.249Z" fill="#5601FF"/>
<path d="M223.852 166.249C223.722 166.273 223.595 166.303 223.47 166.335L225.079 175.462C225.21 175.45 225.341 175.435 225.474 175.411C225.606 175.388 225.735 175.358 225.862 175.324L224.252 166.197C224.123 166.208 223.994 166.224 223.864 166.247L223.852 166.249Z" fill="#5601FF"/>
<path d="M215.589 206.889C215.589 207.824 212.355 208.607 208.003 208.817C207.257 208.853 206.478 208.872 205.678 208.872C204.877 208.872 204.098 208.853 203.353 208.817C198.999 208.607 195.766 207.824 195.766 206.889C195.766 205.795 200.203 204.907 205.678 204.907C211.151 204.907 215.589 205.794 215.589 206.889Z" fill="white"/>
<path d="M215.589 210.578H215.555C215.578 210.632 215.589 210.687 215.589 210.744C215.589 211.839 211.151 212.726 205.678 212.726C200.203 212.726 195.766 211.839 195.766 210.744C195.766 210.687 195.777 210.632 195.8 210.578H195.766V206.889C195.766 207.824 198.999 208.607 203.353 208.816C204.098 208.853 204.877 208.872 205.678 208.872C206.478 208.872 207.257 208.853 208.003 208.816C212.355 208.607 215.589 207.824 215.589 206.889V210.578Z" fill="#99D9F0"/>
<path d="M195.766 206.889C195.766 206.945 195.778 207 195.8 207.055H215.555C215.577 207 215.589 206.945 215.589 206.889C215.589 206.833 215.575 206.778 215.552 206.724H195.803C195.78 206.778 195.766 206.833 195.766 206.889Z" fill="#99D9F0"/>
<path d="M220.025 201.764C219.63 202.611 216.368 201.954 212.334 200.304C211.644 200.023 210.93 199.711 210.205 199.372C209.479 199.033 208.782 198.688 208.121 198.34C204.264 196.31 201.664 194.234 202.06 193.386C202.522 192.394 206.918 193.466 211.88 195.779C216.841 198.092 220.489 200.773 220.025 201.764Z" fill="white"/>
<path d="M218.467 205.108L218.436 205.094C218.434 205.153 218.42 205.207 218.397 205.258C217.934 206.25 213.537 205.179 208.576 202.866C203.614 200.552 199.968 197.872 200.43 196.88C200.454 196.83 200.487 196.784 200.531 196.745L200.5 196.731L202.059 193.387C201.664 194.234 204.263 196.311 208.121 198.34C208.781 198.688 209.479 199.034 210.205 199.373C210.93 199.711 211.644 200.023 212.335 200.305C216.368 201.955 219.63 202.612 220.025 201.765L218.467 205.108Z" fill="#99D9F0"/>
<path d="M202.06 193.386C202.053 193.401 202.049 193.418 202.044 193.433L220 201.806C220.009 201.792 220.018 201.779 220.025 201.763C220.066 201.677 220.073 201.577 220.052 201.466L202.269 193.173C202.172 193.23 202.1 193.3 202.06 193.386Z" fill="#99D9F0"/>
<path d="M204.058 199.791C204.058 200.726 200.823 201.509 196.471 201.718C195.725 201.755 194.947 201.773 194.146 201.773C193.345 201.773 192.566 201.755 191.821 201.718C187.467 201.509 184.234 200.726 184.234 199.791C184.234 198.696 188.671 197.808 194.146 197.808C199.62 197.808 204.058 198.696 204.058 199.791Z" fill="white"/>
<path d="M204.059 203.48H204.025C204.048 203.534 204.059 203.589 204.059 203.646C204.059 204.741 199.621 205.628 194.147 205.628C188.672 205.628 184.235 204.741 184.235 203.646C184.235 203.589 184.246 203.534 184.269 203.48H184.235V199.791C184.235 200.726 187.468 201.509 191.822 201.718C192.567 201.755 193.346 201.774 194.147 201.774C194.948 201.774 195.726 201.755 196.472 201.718C200.824 201.509 204.059 200.726 204.059 199.791V203.48Z" fill="#99D9F0"/>
<path d="M184.252 199.676H204.04C204.007 199.563 203.926 199.452 203.803 199.346H184.489C184.366 199.452 184.285 199.563 184.252 199.676Z" fill="#99D9F0"/>
<path d="M185.941 206.062C185.941 206.728 183.638 207.286 180.538 207.434C180.007 207.46 179.452 207.473 178.882 207.473C178.311 207.473 177.757 207.46 177.226 207.434C174.124 207.285 171.822 206.728 171.822 206.062C171.822 205.282 174.982 204.65 178.881 204.65C182.78 204.65 185.941 205.282 185.941 206.062Z" fill="white"/>
<path d="M185.941 208.69C185.933 208.728 185.941 208.768 185.941 208.807C185.941 209.587 182.78 210.22 178.881 210.22C174.982 210.22 171.822 209.587 171.822 208.807C171.822 208.768 171.83 208.728 171.846 208.69C171.822 208.69 171.822 206.062 171.822 206.062C171.822 206.728 174.124 207.286 177.226 207.434C177.757 207.46 178.311 207.473 178.882 207.473C179.452 207.473 180.006 207.46 180.538 207.434C183.638 207.285 185.941 206.728 185.941 206.062V208.69H185.941Z" fill="#99D9F0"/>
<path d="M171.822 206.062C171.822 206.101 171.83 206.14 171.847 206.179H185.916C185.932 206.14 185.941 206.101 185.941 206.062C185.941 206.022 185.93 205.983 185.915 205.944H171.848C171.832 205.983 171.822 206.022 171.822 206.062Z" fill="#99D9F0"/>
<path d="M177.729 201.006C177.729 201.672 175.426 202.23 172.326 202.379C171.795 202.405 171.24 202.418 170.67 202.418C170.1 202.418 169.545 202.404 169.014 202.379C165.913 202.23 163.61 201.672 163.61 201.006C163.61 200.227 166.771 199.594 170.67 199.594C174.568 199.594 177.729 200.227 177.729 201.006Z" fill="white"/>
<path d="M177.73 203.634C177.722 203.673 177.73 203.712 177.73 203.752C177.73 204.532 174.569 205.164 170.671 205.164C166.771 205.164 163.611 204.532 163.611 203.752C163.611 203.712 163.619 203.673 163.635 203.634C163.611 203.634 163.611 201.006 163.611 201.006C163.611 201.672 165.914 202.23 169.015 202.379C169.546 202.405 170.101 202.418 170.671 202.418C171.242 202.418 171.796 202.404 172.327 202.379C175.427 202.229 177.731 201.672 177.731 201.006V203.634H177.73Z" fill="#99D9F0"/>
<path d="M163.624 200.924H177.717C177.694 200.843 177.636 200.765 177.548 200.689H163.792C163.704 200.765 163.646 200.843 163.624 200.924Z" fill="#99D9F0"/>
<path d="M131.989 38.6588L122.738 91.1249C122.237 93.9615 119.536 96.2605 116.704 96.2605H89.9387C87.1058 96.2605 85.2156 93.9615 85.7161 91.1249L94.9671 38.6588C95.4676 35.8222 98.1691 33.5232 101.002 33.5232H127.764C128.07 33.5232 128.366 33.5492 128.647 33.6018C129.29 33.7189 129.864 33.9629 130.353 34.3079C131.637 35.2165 132.313 36.8243 131.989 38.6588Z" fill="white"/>
<path d="M116.705 96.2601H118.191C121.023 96.2601 123.725 93.9617 124.226 91.1251L133.477 38.6583C133.976 35.8217 132.085 33.5234 129.252 33.5234H127.766C130.599 33.5234 132.49 35.8217 131.991 38.6583L122.739 91.1251C122.238 93.9617 119.537 96.2601 116.705 96.2601Z" fill="#5601FF"/>
<path d="M104.022 96.26H102.527L113.684 33.5226H115.198L104.022 96.26Z" fill="#5601FF"/>
<path d="M116.656 42.7589C116.207 45.3056 117.908 47.7347 120.455 48.1837C120.628 48.214 120.8 48.2351 120.972 48.2456C123.323 48.3973 125.462 46.7586 125.88 44.3853C126.298 42.0119 124.85 39.7402 122.588 39.0794C122.424 39.0311 122.255 38.9914 122.081 38.9605C119.535 38.5114 117.105 40.2121 116.656 42.7589Z" fill="#DDEEFF"/>
<path d="M97.99 42.7589C97.5404 45.3056 99.2417 47.7347 101.788 48.1837C101.962 48.214 102.134 48.2351 102.306 48.2456C104.657 48.3973 106.795 46.7586 107.214 44.3853C107.633 42.0119 106.184 39.7402 103.923 39.0794C103.758 39.0311 103.589 38.9914 103.415 38.9605C100.868 38.5114 98.4391 40.2121 97.99 42.7589Z" fill="#DDEEFF"/>
<path d="M111.694 71.7476C111.245 74.2943 112.946 76.7234 115.493 77.1724C115.666 77.2028 115.838 77.2238 116.01 77.2343C118.361 77.3861 120.499 75.7473 120.918 73.374C121.336 71.0013 119.887 68.7296 117.627 68.0681C117.462 68.0192 117.293 67.9795 117.119 67.9492C114.573 67.4996 112.143 69.2009 111.694 71.7476Z" fill="#DDEEFF"/>
<path d="M93.0275 71.7476C92.5784 74.2943 94.2792 76.7234 96.8259 77.1724C96.9993 77.2028 97.1715 77.2232 97.343 77.2343C99.694 77.3861 101.832 75.7473 102.251 73.374C102.669 71.0007 101.221 68.7296 98.9595 68.0681C98.7948 68.0192 98.6257 67.9795 98.4517 67.9492C95.9055 67.4996 93.4765 69.2009 93.0275 71.7476Z" fill="#DDEEFF"/>
<path d="M114.25 57.2533C113.801 59.8 115.501 62.229 118.048 62.6781C118.221 62.7084 118.394 62.7295 118.565 62.74C120.916 62.8917 123.054 61.253 123.473 58.8796C123.892 56.5063 122.443 54.2352 120.182 53.5738C120.016 53.5254 119.848 53.4852 119.674 53.4548C117.128 53.0058 114.699 54.7065 114.25 57.2533Z" fill="#DDEEFF"/>
<path d="M95.5826 57.2533C95.1336 59.8 96.8349 62.229 99.381 62.6781C99.5545 62.7084 99.7266 62.7295 99.8988 62.74C102.25 62.8917 104.388 61.253 104.806 58.8796C105.225 56.5063 103.776 54.2352 101.515 53.5738C101.351 53.5254 101.181 53.4852 101.008 53.4548C98.4607 53.0058 96.0316 54.7065 95.5826 57.2533Z" fill="#DDEEFF"/>
<path d="M109.318 85.217C108.869 87.7637 110.57 90.1928 113.116 90.6418C113.29 90.6728 113.462 90.6926 113.634 90.7037C115.985 90.8555 118.123 89.2167 118.541 86.8434C118.959 84.4701 117.511 82.1983 115.25 81.5375C115.085 81.4892 114.916 81.4495 114.743 81.4186C112.197 80.9696 109.768 82.6703 109.318 85.217Z" fill="#DDEEFF"/>
<path d="M90.652 85.217C90.203 87.7637 91.9037 90.1928 94.4504 90.6418C94.6238 90.6728 94.7966 90.6926 94.9682 90.7037C97.3192 90.8555 99.4571 89.2167 99.8758 86.8434C100.294 84.4701 98.8458 82.1983 96.5846 81.5375C96.4199 81.4892 96.2502 81.4495 96.0774 81.4186C93.5301 80.9696 91.101 82.6703 90.652 85.217Z" fill="#DDEEFF"/>
<path d="M120.972 48.2461C121.138 48.2951 121.306 48.3347 121.48 48.365C124.027 48.8141 126.456 47.1134 126.905 44.5666C127.354 42.0199 125.653 39.5908 123.106 39.1418C122.933 39.1115 122.761 39.0904 122.589 39.0799C124.85 39.7414 126.298 42.0131 125.88 44.3858C125.462 46.7585 123.323 48.3979 120.972 48.2461Z" fill="#5601FF"/>
<path d="M102.306 48.2461C102.47 48.2951 102.639 48.3347 102.813 48.365C105.36 48.8141 107.789 47.1134 108.238 44.5666C108.687 42.0199 106.986 39.5908 104.439 39.1418C104.266 39.1115 104.094 39.0904 103.922 39.0799C106.183 39.7414 107.632 42.0131 107.213 44.3858C106.795 46.7585 104.657 48.3979 102.306 48.2461Z" fill="#5601FF"/>
<path d="M116.009 77.2343C116.174 77.2832 116.343 77.3229 116.517 77.3532C119.063 77.8022 121.492 76.1015 121.941 73.5548C122.39 71.0081 120.69 68.579 118.143 68.13C117.969 68.099 117.797 68.0786 117.625 68.0681C119.886 68.7295 121.335 71.0006 120.916 73.3739C120.498 75.7473 118.36 77.386 116.009 77.2343Z" fill="#5601FF"/>
<path d="M97.3423 77.2343C97.507 77.2832 97.6761 77.3229 97.8495 77.3532C100.396 77.8022 102.825 76.1015 103.274 73.5548C103.723 71.0081 102.023 68.579 99.4759 68.13C99.3025 68.0996 99.1303 68.0786 98.9588 68.0681C101.22 68.7295 102.669 71.0006 102.25 73.3739C101.832 75.7473 99.6933 77.386 97.3423 77.2343Z" fill="#5601FF"/>
<path d="M118.565 62.7398C118.73 62.7888 118.899 62.8284 119.072 62.8588C121.619 63.3078 124.049 61.6071 124.498 59.0603C124.947 56.5136 123.245 54.0846 120.699 53.6355C120.526 53.6052 120.354 53.5841 120.182 53.5736C122.443 54.2351 123.892 56.5068 123.473 58.8795C123.054 61.2528 120.915 62.8916 118.565 62.7398Z" fill="#5601FF"/>
<path d="M99.8984 62.7398C100.064 62.7888 100.232 62.8284 100.406 62.8588C102.952 63.3078 105.381 61.6071 105.83 59.0603C106.279 56.5136 104.579 54.0846 102.031 53.6355C101.858 53.6052 101.686 53.5841 101.514 53.5736C103.775 54.2351 105.224 56.5068 104.805 58.8795C104.387 61.2528 102.249 62.8916 99.8984 62.7398Z" fill="#5601FF"/>
<path d="M113.634 90.7038C113.799 90.7528 113.968 90.7924 114.141 90.8227C116.688 91.2718 119.117 89.571 119.566 87.0243C120.015 84.4776 118.314 82.0485 115.767 81.5995C115.594 81.5685 115.422 81.5481 115.25 81.5376C117.511 82.1991 118.959 84.4702 118.541 86.8435C118.123 89.2168 115.985 90.8556 113.634 90.7038Z" fill="#5601FF"/>
<path d="M94.9678 90.7038C95.1325 90.7528 95.3016 90.7924 95.475 90.8227C98.0217 91.2718 100.451 89.571 100.9 87.0243C101.349 84.4776 99.6481 82.0485 97.1014 81.5995C96.928 81.5685 96.7558 81.5481 96.5843 81.5376C98.8448 82.1991 100.294 84.4702 99.8754 86.8435C99.4567 89.2168 97.3182 90.8556 94.9678 90.7038Z" fill="#5601FF"/>
<path d="M121.686 38.9091L120.065 48.097C120.194 48.1311 120.323 48.1608 120.456 48.1844C120.589 48.2079 120.721 48.2234 120.853 48.2351L122.473 39.0485C122.345 39.0144 122.215 38.9841 122.083 38.9605C121.949 38.937 121.818 38.9209 121.686 38.9091Z" fill="#5601FF"/>
<path d="M101.398 48.097C101.526 48.1311 101.656 48.1608 101.789 48.1844C101.922 48.2079 102.054 48.2234 102.186 48.2351L103.805 39.0485C103.678 39.0144 103.548 38.9841 103.415 38.9605C103.282 38.937 103.149 38.9209 103.018 38.9091L101.398 48.097Z" fill="#5601FF"/>
<path d="M115.103 77.0851C115.231 77.1192 115.361 77.1489 115.494 77.1725C115.627 77.196 115.759 77.2115 115.891 77.2233L117.51 68.0366C117.382 68.0025 117.253 67.9722 117.12 67.9486C116.988 67.9251 116.855 67.909 116.723 67.8972L115.103 77.0851Z" fill="#5601FF"/>
<path d="M96.436 77.0851C96.5642 77.1192 96.6937 77.1489 96.8268 77.1725C96.96 77.196 97.0919 77.2115 97.2238 77.2233L98.8434 68.0366C98.7158 68.0025 98.5864 67.9722 98.4532 67.9486C98.3207 67.9251 98.1882 67.909 98.0562 67.8972L96.436 77.0851Z" fill="#5601FF"/>
<path d="M117.659 62.5914C117.787 62.6255 117.917 62.6552 118.049 62.6787C118.183 62.7023 118.315 62.7178 118.446 62.7295L120.067 53.5429C119.938 53.5088 119.809 53.4784 119.676 53.4549C119.544 53.4314 119.411 53.4153 119.279 53.4035L117.659 62.5914Z" fill="#5601FF"/>
<path d="M98.9922 62.5913C99.1198 62.6254 99.2498 62.6551 99.3824 62.6786C99.5155 62.7022 99.6475 62.7176 99.7794 62.7294L101.4 53.5433C101.272 53.5093 101.142 53.4789 101.009 53.4554C100.877 53.4319 100.744 53.4158 100.612 53.404L98.9922 62.5913Z" fill="#5601FF"/>
<path d="M114.348 81.3668L112.728 90.5547C112.856 90.5887 112.985 90.6185 113.118 90.642C113.251 90.6655 113.383 90.681 113.515 90.6928L115.136 81.5061C115.008 81.472 114.879 81.4417 114.745 81.4182C114.612 81.3952 114.48 81.3791 114.348 81.3668Z" fill="#5601FF"/>
<path d="M95.6812 81.3668L94.061 90.5547C94.1892 90.5887 94.3187 90.6185 94.4518 90.642C94.585 90.6655 94.7169 90.681 94.8488 90.6928L96.469 81.5061C96.3414 81.472 96.2114 81.4417 96.0788 81.4182C95.9451 81.3952 95.8131 81.3791 95.6812 81.3668Z" fill="#5601FF"/>
<path d="M93.813 180.714C93.7746 180.834 93.7443 180.928 93.7238 180.993H88.3257L88.6087 179.113H92.23C92.2145 179.147 92.2077 179.165 92.2077 179.165C92.2077 179.165 93.7536 179.473 93.813 180.714Z" fill="#6517FF"/>
<path d="M99.8823 180.993H93.7236C93.7441 180.927 93.7744 180.834 93.8128 180.714C93.9249 180.373 94.1051 179.821 94.3448 179.113H97.75C97.7252 179.147 97.7128 179.165 97.7128 179.165C97.7128 179.165 99.6786 179.279 99.8823 180.993Z" fill="#6517FF"/>
<path d="M110.649 156.624C110.449 161.043 98.5066 178.041 97.751 179.113H94.3458C95.6712 175.178 98.7741 166.416 101.495 162.064C102.874 159.858 105.478 157.868 104.857 156C104.38 154.565 99.3811 147.857 96.9991 142.946C97.5299 147.617 98.3684 152.832 98.3684 156.456C98.3684 163.868 92.6228 178.143 92.2302 179.113H88.6089L91.8871 157.305C91.8871 157.305 89.2666 141.814 88.9303 138.781C88.6064 135.866 88.9297 133.528 88.9297 133.528L104.359 133.388C104.359 133.388 110.856 152.059 110.649 156.624Z" fill="#1A4F6E"/>
<path d="M121.532 87.6104C121.365 88.1003 117.482 99.537 116.158 101.523C114.503 104.006 113.538 104.971 110.642 106.35C107.746 107.729 104.03 109.74 104.03 109.74C104.03 109.74 103.806 132.261 104.359 133.389C103.229 133.399 88.9296 133.529 88.9296 133.529C88.9296 133.529 87.5169 113.972 88.3016 109.66C88.3016 109.66 82.5033 94.6337 82.9313 89.469C83.3537 84.3787 88.6744 74.351 88.6744 74.351L86.8622 89.8828C86.8622 89.8828 92.0244 101.11 92.1625 104.419C92.248 104.438 93.5777 104.732 94.7823 104.833C95.9095 104.927 98.5058 104.971 98.5058 104.971L112.297 99.8684C112.297 99.8684 115.911 92.9869 116.848 91.0422C118.47 87.6729 120.206 86.4485 120.521 86.2466L121.532 87.6104Z" fill="#6517FF"/>
<path d="M88.6734 74.3502C88.6734 74.3502 87.8138 70.3165 88.3464 69.3267C88.8797 68.337 89.7338 68.337 89.7338 68.337L88.6734 74.3502Z" fill="#FEA070"/>
<path d="M124.872 87.4545L121.536 87.5932C121.531 87.61 120.52 86.2449 120.52 86.2449C120.553 86.2239 120.571 86.2146 120.571 86.2146C120.571 86.2146 123.186 85.0143 124.637 85.4317C125.476 85.6727 124.872 87.4545 124.872 87.4545Z" fill="#FEA070"/>
<path d="M98.2915 96.1303C98.2778 96.186 98.2586 96.2362 98.2308 96.282C98.0456 96.5892 97.8914 96.8816 97.7638 97.1491C97.495 97.6997 97.3389 98.1481 97.2547 98.4212C97.1965 98.6107 97.1735 98.7179 97.1735 98.7179C97.1735 98.7179 97.4485 100.276 97.6795 102.085C97.7997 103.037 97.9081 104.063 97.9545 104.965C97.228 104.956 95.9107 104.917 94.7829 104.831C93.2327 104.714 92.1631 104.418 92.1631 104.418C92.1631 104.418 93.128 100.97 92.7149 100.005C92.7149 100.005 94.3227 99.2691 94.5067 97.9821C94.6906 96.6951 93.5876 94.7634 93.2197 93.8455C92.8623 92.9512 94.2428 93.1866 95.0802 91.0052C95.7893 91.6927 96.613 92.6645 97.2522 93.6021C97.9465 94.6216 98.4203 95.5989 98.2915 96.1303Z" fill="#FEA070"/>
<path d="M97.1724 98.7186C97.1724 98.7186 97.4481 100.276 97.6784 102.085C96.9935 100.354 95.5504 99.3751 96.0923 98.8325C96.3562 98.5693 97.1625 97.7543 97.7627 97.1486C97.4951 97.6992 97.3378 98.1469 97.2536 98.4201C97.196 98.6114 97.1724 98.7186 97.1724 98.7186Z" fill="#BB7754"/>
<path d="M95.1499 90.8115C95.127 90.8777 95.1029 90.9428 95.0793 91.0059C94.242 93.1873 92.8615 92.9519 93.2188 93.8462C93.5867 94.7647 94.6898 96.6958 94.5058 97.9828C94.3219 99.2698 92.7141 100.006 92.7141 100.006C92.7141 100.006 88.6233 97.431 88.3465 94.5814C88.0709 91.7306 92.1164 90.3519 92.1164 89.5245C92.1164 88.6977 92.1734 88.4747 93.2188 88.2375C94.2302 88.0077 95.978 88.4208 95.1499 90.8115Z" fill="#0D3E5E"/>
<path d="M127.23 38.1281C127.23 39.2603 130.53 37.5707 130.53 37.5707L130.659 35.447C130.659 35.447 130.612 35.4681 130.53 35.5083C129.909 35.8 127.23 37.1279 127.23 38.1281Z" fill="#FEA070"/>
<path d="M124.303 36.2194C125.076 36.2194 126.784 34.8921 127.087 34.6512V33.1288C126.817 33.2211 126.534 33.3283 126.191 33.4825C124.303 34.3316 123.455 36.2194 124.303 36.2194Z" fill="#FEA070"/>
<path d="M127.086 33.1289V34.6513C127.117 34.6271 127.133 34.6147 127.133 34.6147C127.133 34.6147 133.821 34.8197 137.605 31.5961C141.458 28.3129 142.835 25.6275 143.119 24.7573C142.716 24.1912 142.437 23.2176 142.369 21.3373C142.209 16.9041 142.412 15.858 142.514 15.6288C142.196 15.7762 141.91 15.8921 141.672 15.9794C141.672 16.0036 141.617 16.4897 141.554 16.7678C141.554 16.7678 141.509 17.0354 141.406 17.4949C141.082 18.9497 140.19 22.3388 138.38 25.3531C137.288 27.174 135.86 28.8598 134.021 29.8984C129.233 32.6006 128.3 32.7115 127.086 33.1289Z" fill="#DDEEFF"/>
<path d="M130.529 37.5707C131.411 37.8166 132.914 38.1269 134.794 38.0823C137.398 38.0191 140.721 37.2765 144.101 34.7391C144.446 34.4802 144.777 34.2207 145.095 33.9594C145.777 33.3976 146.398 32.8334 146.962 32.2704C146.583 32.9845 146.333 33.537 146.166 33.9538H151.63L159.931 33.9364C158.797 28.3872 156.911 17.4552 146.933 10.967C146.719 12.0663 146.308 12.7098 145.821 13.0145C144.918 14.3108 143.56 15.1413 142.514 15.6275C142.411 15.8567 142.209 16.9027 142.369 21.336C142.437 23.2175 142.644 24.1379 143.187 24.8476C143.897 25.7742 144.513 25.5667 145.291 26.1018C144.84 26.8648 144.259 27.6539 143.514 28.4448C142.637 29.3787 141.531 30.3121 140.138 31.2021C133.487 35.4464 130.658 35.4464 130.658 35.4464L130.529 37.5707Z" fill="white"/>
<path d="M146.165 33.9538H147.723C148.021 33.5754 148.299 33.1994 148.559 32.8284C151.378 28.8195 152.103 25.3016 152.288 23.6845C152.227 23.9093 152.142 24.1856 152.031 24.5039C152.021 24.5349 152.009 24.5677 151.997 24.5999C151.927 24.7968 151.849 25.0093 151.757 25.2335C151.727 25.309 151.695 25.3858 151.662 25.4639C151.547 25.7364 151.417 26.0262 151.267 26.334C151.246 26.3774 151.224 26.4214 151.202 26.4654C151.116 26.6419 151.021 26.8246 150.921 27.0116C150.896 27.0574 150.87 27.1064 150.844 27.1534C150.819 27.2011 150.793 27.247 150.765 27.2959C150.686 27.4383 150.603 27.5845 150.516 27.7313C150.341 28.0261 150.152 28.3314 149.946 28.6423C149.883 28.7359 149.819 28.8318 149.753 28.9266C149.712 28.9898 149.669 29.0511 149.625 29.113C149.551 29.2196 149.474 29.3261 149.397 29.4338C149.228 29.668 149.047 29.9058 148.858 30.1455C148.787 30.234 148.715 30.3245 148.642 30.4136C148.617 30.4446 148.592 30.4768 148.566 30.5053C148.52 30.5641 148.47 30.6217 148.423 30.68C148.124 31.0348 147.804 31.3959 147.461 31.7582C147.406 31.8146 147.353 31.871 147.298 31.9273C147.189 32.0413 147.077 32.154 146.962 32.2692C146.583 32.9839 146.332 33.537 146.165 33.9538Z" fill="#DDEEFF"/>
<path d="M131.757 23.6716C131.757 23.6716 131.659 26.3756 133.556 26.7794C133.577 26.7856 133.6 26.7893 133.623 26.7937C133.751 26.8054 134.047 26.8246 134.453 26.8054C135.412 26.754 136.962 26.4784 138.381 25.3531C140.191 22.3388 141.083 18.9504 141.407 17.4955C141.509 17.036 141.555 16.7684 141.555 16.7684C141.633 16.564 141.67 16.346 141.674 16.1212C141.674 16.0983 141.672 16.076 141.672 16.0531C141.672 16.0283 141.672 16.0042 141.67 15.98C141.633 15.1092 141.184 14.1957 140.734 13.4872C140.45 13.0394 140.134 12.6027 139.776 12.2101C139.712 12.2479 139.414 12.3953 139.371 12.4138C139.136 12.5142 138.884 12.5755 138.63 12.5984C138.216 12.6356 137.792 12.5711 137.409 12.4076C137.028 12.2448 136.821 11.9815 136.533 11.6428C136.268 11.3319 136.02 10.9479 135.815 10.5955C135.497 10.0504 135.226 9.49365 134.951 8.92571C134.665 8.33734 134.33 7.6858 134.105 7.06832C133.859 6.39262 133.717 5.7132 133.814 4.99662C134.188 5.297 134.561 5.49395 135.002 5.6556C135.455 5.82158 135.932 5.9374 136.407 6.02039C137.379 6.18885 138.358 6.28795 139.26 6.71591C140.783 7.43125 142.019 8.79194 142.652 11.0321C142.878 11.8168 143.388 12.5074 144.085 12.9366C144.577 13.2394 145.201 13.349 145.73 13.0685C145.761 13.053 145.791 13.035 145.822 13.0158C146.308 12.7124 146.719 12.0676 146.932 10.9677C146.932 10.9677 145.152 1.8801 139.963 0.182485C137.725 -0.549575 134.624 1.06257 133.503 2.5044C132.971 2.75275 131.132 3.97471 131.756 8.76406V23.6716H131.757Z" fill="#0D3E5E"/>
<path d="M134.205 7.43797C134.383 7.88885 134.644 8.30691 134.854 8.74355C135.068 9.18947 135.288 9.63354 135.522 10.0689C135.88 10.7353 136.268 11.424 136.803 11.9672C137.064 12.2323 137.381 12.4751 137.757 12.5401C137.965 12.576 138.147 12.5965 138.313 12.6045C138.969 12.6367 139.277 12.467 139.533 12.3382C139.537 12.3369 139.76 12.2218 139.777 12.21C139.777 12.21 140.257 12.7327 140.734 13.4871C141.185 14.1962 141.634 15.1091 141.672 15.9799C141.91 15.8926 142.199 15.7755 142.515 15.6287C143.561 15.1426 144.919 14.3114 145.824 13.0145C145.793 13.0337 145.764 13.0529 145.732 13.0672C144.306 13.7162 142.991 12.135 142.623 10.9162C142.123 9.25821 141.193 7.75321 139.664 6.88738C139.392 6.73378 139.068 6.61487 138.775 6.5071C137.979 6.21477 137.124 6.13364 136.289 5.98686C135.448 5.83884 134.571 5.57685 133.857 5.02812C133.842 5.01759 133.828 5.00644 133.816 4.99591C133.759 5.33717 133.707 6.17576 134.205 7.43797Z" fill="#FEA070"/>
<path d="M139.777 12.21C139.777 12.21 140.3 12.7978 140.735 13.4865C141.106 12.9179 141.555 11.8025 141.193 9.9928C141.193 9.9928 141.051 11.644 139.777 12.21Z" fill="#BB7754"/>
<path d="M137.135 52.3513C137.135 55.557 137.228 72.9784 137.228 72.9784L139.965 72.5387C139.965 72.5387 142.654 60.7465 142.372 57.1599C142.267 55.8314 141.735 52.7025 141.735 52.7025L150.153 39.6158C150.09 39.7979 146.025 51.491 146.002 53.2927C145.95 57.4454 153.219 73.0106 153.219 73.0106L155.388 72.727C155.388 72.727 154.05 60.775 152.634 57.568C152.634 57.568 150.576 54.449 151.072 53.3875C151.433 52.6152 158.784 41.5717 159.35 40.7226C160.029 39.7038 160.117 37.4518 160.079 35.8205C160.066 35.2272 159.931 33.9359 159.931 33.9359L146.153 33.9532C146.154 33.9538 137.135 49.1437 137.135 52.3513Z" fill="#6517FF"/>
<path d="M155.414 74.378H150.745C151.332 72.6797 155.389 72.7274 155.389 72.7274L155.414 74.378Z" fill="#6138B2"/>
<path d="M139.99 74.3769H135.257C135.845 72.6793 139.964 72.5394 139.964 72.5394L139.99 74.3769Z" fill="#6138B2"/>
</svg>
