<svg width="16" height="16" viewBox="0 0 16 16" fill="none" xmlns="http://www.w3.org/2000/svg">
<path d="M12.5373 9.55059L12.5373 9.5506C12.5975 9.58074 12.6482 9.62705 12.6835 9.68436L12.5373 9.55059ZM12.5373 9.55059L10.0373 8.30059L10.0372 8.30056M12.5373 9.55059L10.0372 8.30056M10.0372 8.30056C9.98015 8.27212 9.91658 8.25924 9.85293 8.26321C9.78928 8.26719 9.72781 8.28789 9.67472 8.32322L9.67468 8.32325M10.0372 8.30056L9.67468 8.32325M9.67468 8.32325L8.39848 9.17456C7.71446 8.83953 7.16133 8.2864 6.8263 7.60238L7.67761 6.32618L7.67764 6.32614M9.67468 8.32325L7.67764 6.32614M7.67764 6.32614C7.71297 6.27305 7.73367 6.21158 7.73765 6.14793C7.74162 6.08428 7.72874 6.02071 7.7003 5.96364L7.70027 5.96358M7.67764 6.32614L7.70027 5.96358M7.70027 5.96358L6.45032 3.46369L7.70027 5.96358ZM3.26258 6.12505V6.125C3.26258 5.36582 3.56416 4.63773 4.10099 4.10091C4.63779 3.56411 5.36583 3.26253 6.12498 3.2625C6.12501 3.2625 6.12505 3.2625 6.12508 3.2625V3.3125C6.18335 3.31239 6.24049 3.32857 6.29005 3.35921L3.26258 6.12505ZM3.26258 6.12505C3.26445 7.87821 3.96172 9.55902 5.20139 10.7987C6.44106 12.0384 8.12187 12.7356 9.87502 12.7375H9.87508M3.26258 6.12505L9.87508 12.7375M9.87508 12.7375C10.6343 12.7375 11.3623 12.4359 11.8992 11.8991M9.87508 12.7375L11.8992 11.8991M8.00009 0.1375L8.0001 0.1375C9.20015 0.137903 10.3842 0.412999 11.4615 0.941712C12.5388 1.47043 13.4808 2.23872 14.2153 3.18775C14.9498 4.13677 15.4573 5.24133 15.6989 6.4168C15.9406 7.59227 15.9099 8.80746 15.6094 9.96926C15.3088 11.1311 14.7463 12.2086 13.9649 13.1194C13.1835 14.0303 12.204 14.7501 11.1014 15.2239C9.99885 15.6976 8.80245 15.9127 7.60391 15.8526C6.41268 15.7929 5.25075 15.463 4.20604 14.888L1.43855 15.8107C1.26456 15.8687 1.07784 15.8772 0.899333 15.835C0.720822 15.7929 0.557572 15.7019 0.427879 15.5722C0.298185 15.4425 0.207175 15.2793 0.165047 15.1007C0.12292 14.9222 0.13134 14.7355 0.189365 14.5615M8.00009 0.1375L0.189365 14.5615M8.00009 0.1375C6.63129 0.137246 5.28615 0.494338 4.0977 1.17346M8.00009 0.1375L4.0977 1.17346M0.189365 14.5615H0.189365L0.189366 14.5615M0.189365 14.5615L0.189366 14.5615M0.189366 14.5615L1.11211 11.7941M0.189366 14.5615L1.11211 11.7941M1.85062 11.8705C1.86691 11.8219 1.87267 11.7703 1.86751 11.7192C1.86235 11.6681 1.8464 11.6187 1.82072 11.5742L1.8207 11.5742C1.03379 10.214 0.717768 8.63211 0.921647 7.07397C1.12553 5.51582 1.83792 4.06852 2.9483 2.95657C4.05868 1.84463 5.50498 1.13021 7.06284 0.924137C8.62069 0.718067 10.203 1.03187 11.5643 1.81686C12.9256 2.60186 13.9898 3.81416 14.5918 5.2657C15.1938 6.71724 15.2999 8.32688 14.8938 9.8449C14.4876 11.3629 13.5918 12.7045 12.3453 13.6614C11.0989 14.6184 9.57149 15.1372 8.00007 15.1375C6.74516 15.1379 5.51233 14.8074 4.42588 14.1794L4.42581 14.1793C4.37075 14.1476 4.30839 14.1308 4.24486 14.1305L4.2445 14.1305C4.20536 14.1306 4.16649 14.137 4.1294 14.1495L1.20927 15.1229L1.22508 15.1703L1.20926 15.1229C1.16301 15.1383 1.11338 15.1405 1.06592 15.1293C1.01847 15.1181 0.975076 15.094 0.9406 15.0595C0.906125 15.025 0.881932 14.9816 0.870734 14.9342C0.859535 14.8867 0.861774 14.8371 0.877198 14.7908L0.829766 14.775L0.877201 14.7908L1.85062 11.8705ZM1.85062 11.8705L1.8032 11.8547M1.85062 11.8705L1.85064 11.8705L1.8032 11.8547M1.8032 11.8547C1.81725 11.8127 1.82221 11.7682 1.81776 11.7242C1.81332 11.6801 1.79957 11.6375 1.77742 11.5992L1.8032 11.8547ZM11.8992 11.8991C12.436 11.3623 12.7376 10.6342 12.7376 9.87504L11.8992 11.8991ZM4.0977 1.17346C2.90926 1.85257 1.9187 2.83018 1.224 4.00959M4.0977 1.17346L1.224 4.00959M1.224 4.00959C0.529307 5.18899 0.154546 6.52932 0.136788 7.898M1.224 4.00959L0.136788 7.898M0.136788 7.898C0.119127 9.25935 0.455262 10.6018 1.11211 11.7941M0.136788 7.898L1.11211 11.7941M6.07882 7.70649L6.07899 7.70689C6.49925 8.70601 7.29407 9.50082 8.29319 9.92109L8.29339 9.92117C8.34856 9.94409 8.40853 9.95302 8.46798 9.94718C8.52738 9.94133 8.58441 9.92091 8.63402 9.88773C8.63406 9.8877 8.6341 9.88767 8.63414 9.88764L9.90208 9.0444L12.0025 10.0942C11.9489 10.6144 11.7064 11.0973 11.3202 11.4511C10.9258 11.8125 10.4101 12.0128 9.87513 12.0125C8.31416 12.0109 6.81759 11.39 5.71381 10.2863C4.61004 9.18249 3.98922 7.68592 3.98758 6.12495C3.9875 5.58998 4.18802 5.07443 4.54955 4.68011C4.90345 4.29411 5.38645 4.05176 5.90661 3.99832L6.95646 6.09878L6.11326 7.36665C6.11324 7.36668 6.11322 7.36671 6.1132 7.36674C6.08001 7.41618 6.05951 7.47302 6.05351 7.53226C6.0475 7.59153 6.0562 7.65138 6.07882 7.70649Z" fill="#191919" stroke="#191919" stroke-width="0.1"/>
</svg>
