<svg width="20" height="18" viewBox="0 0 20 18" fill="none" xmlns="http://www.w3.org/2000/svg">
<path d="M18.9844 9.23438C18.9844 7.85938 18.7422 6.60938 18.2578 5.48438C17.7734 4.35938 17.1094 3.38281 16.2656 2.55469C15.4219 1.72656 14.4609 1.09375 13.3828 0.65625C12.3047 0.21875 11.1719 0 9.98438 0C8.79688 0 7.67188 0.21875 6.60938 0.65625C5.54688 1.09375 4.58594 1.71875 3.72656 2.53125C2.86719 3.34375 2.19531 4.32031 1.71094 5.46094C1.22656 6.60156 0.984375 7.875 0.984375 9.28125C0.671875 9.4375 0.429688 9.67188 0.257812 9.98438C0.0859375 10.2969 0 10.6406 0 11.0156V12.9844C0 13.5469 0.195312 14.0234 0.585938 14.4141C0.976562 14.8047 1.4375 15 1.96875 15H3V8.90625C3 7.9375 3.17969 7.03125 3.53906 6.1875C3.89844 5.34375 4.39844 4.60156 5.03906 3.96094C5.67969 3.32031 6.42188 2.82031 7.26562 2.46094C8.10938 2.10156 9.01562 1.92188 9.98438 1.92188C10.9531 1.92188 11.8594 2.10156 12.7031 2.46094C13.5469 2.82031 14.2891 3.32031 14.9297 3.96094C15.5703 4.60156 16.0703 5.34375 16.4297 6.1875C16.7891 7.03125 16.9688 7.9375 16.9688 8.90625V15.9844H9V18H16.9688C17.5312 18 18.0078 17.8047 18.3984 17.4141C18.7891 17.0234 18.9844 16.5469 18.9844 15.9844V14.7656C19.2656 14.6094 19.5 14.3906 19.6875 14.1094C19.875 13.8281 19.9688 13.5 19.9688 13.125V10.8281C19.9688 10.4844 19.875 10.1719 19.6875 9.89062C19.5 9.60938 19.2656 9.39062 18.9844 9.23438ZM6 9.98438C6 9.70312 6.09375 9.46875 6.28125 9.28125C6.46875 9.09375 6.70312 9 6.98438 9C7.26562 9 7.5 9.09375 7.6875 9.28125C7.875 9.46875 7.96875 9.70312 7.96875 9.98438C7.96875 10.2656 7.875 10.5078 7.6875 10.7109C7.5 10.9141 7.26562 11.0156 6.98438 11.0156C6.70312 11.0156 6.46875 10.9141 6.28125 10.7109C6.09375 10.5078 6 10.2656 6 9.98438ZM12 9.98438C12 9.70312 12.0938 9.46875 12.2812 9.28125C12.4688 9.09375 12.7031 9 12.9844 9C13.2656 9 13.5 9.09375 13.6875 9.28125C13.875 9.46875 13.9688 9.70312 13.9688 9.98438C13.9688 10.2656 13.875 10.5078 13.6875 10.7109C13.5 10.9141 13.2656 11.0156 12.9844 11.0156C12.7031 11.0156 12.4688 10.9141 12.2812 10.7109C12.0938 10.5078 12 10.2656 12 9.98438ZM15.9844 8.01562C15.8281 7.07812 15.4688 6.22656 14.9062 5.46094C14.3438 4.69531 13.6406 4.09375 12.7969 3.65625C11.9531 3.21875 11.0312 3 10.0312 3C9.28125 3 8.53125 3.14844 7.78125 3.44531C7.03125 3.74219 6.35938 4.17188 5.76562 4.73438C5.17188 5.29688 4.71094 5.97656 4.38281 6.77344C4.05469 7.57031 3.92188 8.46875 3.98438 9.46875C5.23438 8.9375 6.29688 8.15625 7.17188 7.125C8.04688 6.09375 8.60938 4.90625 8.85938 3.5625C9.29688 4.4375 9.875 5.21094 10.5938 5.88281C11.3125 6.55469 12.1328 7.07812 13.0547 7.45312C13.9766 7.82812 14.9531 8.01562 15.9844 8.01562Z" fill="#2563EB"/>
</svg>
