<svg width="366" height="50" viewBox="0 0 366 50" fill="none" xmlns="http://www.w3.org/2000/svg">
<path d="M160.07 3.21101C168.204 3.1999 176.333 3.17397 184.467 3.18508C189.315 3.19249 194.378 3.42212 198.785 5.65916C201.422 7.04434 202.648 10.1258 202.722 12.974C202.789 15.1221 202.363 17.3925 200.963 19.0925C199.159 21.3555 196.496 22.6332 193.993 23.9518C198.074 25.1036 202.707 26.8629 204.507 31.0518C206.307 36.0443 204.659 42.7629 199.526 45.0814C195.693 47.0518 191.278 47.1295 187.067 47.2777C178.048 47.2962 169.026 47.274 160.004 47.2851C160.004 45.4258 159.996 43.5703 160.056 41.711C162.044 41.4518 164.807 42.2147 166.096 40.2518C166.893 34.1443 166.263 27.9703 166.444 21.8369C166.341 17.6555 166.9 13.3962 165.837 9.29249C163.926 8.88138 161.967 8.82582 160.022 8.71842C160.03 6.88138 160.063 5.04434 160.07 3.21101ZM179.067 21.5369C182.293 21.3369 185.774 21.4666 188.641 19.7406C190.978 17.4184 191.107 13.1703 188.97 10.6777C186.174 8.45916 182.374 8.98879 179.044 8.78138C179.03 13.0332 179.041 17.2851 179.067 21.5369ZM179.063 27.0592C179.081 31.9258 179.037 36.7962 179.044 41.6629C182.437 41.5369 186.015 41.7777 189.174 40.3184C193.659 37.7666 193.096 29.8221 188.222 28.0147C185.296 26.9221 182.122 27.1518 179.063 27.0592Z" fill="#FB630F"/>
<path d="M1.35185 3.18501C11.0296 3.18501 20.7037 3.1813 30.3778 3.18871C34.4593 3.27019 38.7926 3.54797 42.3333 5.80353C45.263 7.5739 46.7074 11.122 46.5519 14.4517C46.4444 16.6295 45.8407 18.9443 44.1852 20.4665C42.1852 22.3776 39.4593 23.1517 36.8926 23.9739C39.4444 24.8998 42.563 25.7813 43.6667 28.5665C45.2074 33.1998 42.8111 38.648 45.8926 42.8591C48.1481 41.0257 48.5 37.948 48.6481 35.2406C50.1037 35.2109 51.563 35.2109 53.0222 35.1924C52.6481 38.4924 52.7333 42.0517 50.9815 44.9961C49.9926 46.685 48.1963 47.7406 46.3037 48.1035C42.9593 48.9146 39.2222 48.8628 36.1481 47.1702C34.3667 46.1776 32.9259 44.548 32.263 42.6109C30.7222 38.122 33.1037 33.0998 30.8815 28.7554C30.6222 27.9998 29.7778 27.8406 29.1148 27.622C26.263 26.8146 23.2704 27.1443 20.3481 27.1183C20.4407 31.885 19.9815 36.722 21.0074 41.422C22.9444 41.4998 24.8815 41.5776 26.8185 41.6628C26.7926 43.5332 26.7741 45.4072 26.7741 47.2813C18.3 47.285 9.82592 47.285 1.34814 47.2776C1.35185 45.4369 1.35185 43.5924 1.35185 41.748C3.3037 41.6109 5.25185 41.4406 7.19629 41.2332C8.32963 31.4776 7.59629 21.648 7.69629 11.8591C7.79259 10.8035 7.38518 9.61093 6.31481 9.21834C4.72963 8.63686 3.0037 8.84797 1.34814 8.76279C1.35185 6.90353 1.34814 5.04427 1.35185 3.18501ZM20.3519 8.84797C20.3926 13.0332 20.3593 17.2183 20.3741 21.4072C23.3 21.3517 26.2778 21.7257 29.1556 21.0406C30.7296 20.6332 32.4741 19.922 33.1444 18.3109C34.1741 15.985 33.4111 13.3924 33.0111 11.0072C29.2185 8.72575 24.637 8.70723 20.3519 8.84797Z" fill="#FB630F"/>
<path d="M72.3185 3.16284C76.6593 3.16284 81.0037 3.20358 85.3444 3.18506C89.037 14.4443 92.4889 25.7814 96.2444 37.0221C96.6926 38.2258 96.8407 39.6962 97.9593 40.5036C99.4259 41.5591 101.304 41.6295 103.026 41.8777C103.03 43.674 103.019 45.4703 103.037 47.2665C94.8963 47.3073 86.7519 47.2702 78.6111 47.2851C78.5852 45.4443 78.5704 43.6073 78.5518 41.7665C80.563 41.374 82.9741 41.9814 84.5704 40.3777C84.2704 37.8147 83.2815 35.4184 82.4704 32.9925C78.2259 33.0184 73.9852 33.0073 69.7407 33.0147C68.9444 35.4295 68.0259 37.8221 67.5926 40.3369C69.1333 41.8999 71.4556 41.4517 73.4222 41.7851C73.4185 43.6147 73.4185 45.448 73.4222 47.2814C67.0037 47.2888 60.5815 47.2814 54.163 47.2851C54.1556 45.4258 54.1778 43.5665 54.1407 41.7073C55.6667 41.5962 57.1926 41.4851 58.7222 41.3665C61.0815 37.5962 62.1481 33.2332 63.5704 29.0665C66.4593 20.4221 69.2667 11.7517 72.3185 3.16284ZM76.1481 13.5814C74.6963 18.1702 73.2148 22.748 71.6889 27.311C74.6518 27.3554 77.6148 27.3258 80.5741 27.3295C79.1556 22.7258 77.6926 18.1406 76.1481 13.5814Z" fill="#FB630F"/>
<path d="M105.015 8.7444C105.007 6.89255 105.007 5.0407 105.015 3.18514C112.026 3.20366 119.041 3.2481 126.052 3.17773C131.789 13.3592 137.289 23.674 143.026 33.8555C143.011 27.2592 142.989 20.6629 143.015 14.0666C143.011 12.4666 143.041 10.7555 142.133 9.36292C140.248 8.78514 138.259 8.8481 136.315 8.72588C136.341 6.88144 136.374 5.03329 136.389 3.18885C143.037 3.18144 149.689 3.18514 156.337 3.18514C156.27 5.01477 156.481 6.88885 156.244 8.68514C154.511 8.92588 152.652 8.76662 151.059 9.59996C150.359 10.8296 150.441 12.3222 150.393 13.6925C150.393 24.8888 150.433 36.0851 150.411 47.2851C145.889 47.2814 141.363 47.2851 136.841 47.2814C130.863 36.3777 124.87 25.4814 118.896 14.574C118.837 22.6963 118.656 30.8185 118.967 38.937C118.937 39.9555 119.5 41.037 120.526 41.3407C122.059 41.8222 123.693 41.5777 125.274 41.7259C125.274 43.5703 125.259 45.4148 125.285 47.2629C118.526 47.3111 111.767 47.274 105.007 47.2814C105.011 45.4444 105.007 43.6111 105.011 41.7777C106.907 41.6481 108.841 41.6111 110.663 41.0037C111.593 39.3444 111.393 37.3926 111.441 35.5703C111.389 28.4 111.441 21.2296 111.437 14.0592C111.459 12.437 111.281 10.8074 110.689 9.28885C108.833 8.82959 106.911 8.85181 105.015 8.7444Z" fill="#FB630F"/>
<path d="M226.719 3.1888C231.093 3.17769 235.467 3.19251 239.841 3.1814C243.385 14.111 246.833 25.074 250.333 36.0184C250.863 37.4962 251.263 39.0814 252.244 40.3407C253.648 41.711 255.778 41.4518 257.559 41.8407C257.57 43.6518 257.533 45.4666 257.537 47.2777C249.374 47.2888 241.211 47.2851 233.048 47.2814C233.085 45.437 233.081 43.5962 233.122 41.7518C235.159 41.5555 237.185 41.2888 239.211 40.9925C238.719 38.2814 237.863 35.6629 237.048 33.037C232.774 33.0444 228.504 32.9851 224.23 32.9962C223.281 35.637 222.511 38.3555 222.159 41.1444C224.078 41.3518 226.004 41.5518 227.926 41.7592C227.893 43.5999 227.911 45.4407 227.911 47.2814C221.489 47.2888 215.07 47.2814 208.652 47.2814C208.652 45.4333 208.644 43.5814 208.656 41.7332C210.415 41.4147 212.707 41.8555 213.907 40.211C215.4 37.7629 216.037 34.9221 217 32.2481C220.204 22.5481 223.463 12.8703 226.719 3.1888ZM226.278 27.3036C229.207 27.3295 232.137 27.3666 235.067 27.3518C233.607 22.7407 232.185 18.1147 230.774 13.4888C229.185 18.0629 227.685 22.6703 226.278 27.3036Z" fill="#FB630F"/>
<path d="M261.767 3.18501C269.556 3.18501 277.344 3.18501 285.137 3.18501C285.167 4.96279 285.163 6.74427 285.189 8.52575C283.589 8.90723 282 9.34056 280.43 9.82945C282.193 12.822 284.248 15.622 286.267 18.4443C288.626 15.7257 290.952 12.9628 292.941 9.95538C291.407 9.4739 289.874 8.99982 288.341 8.51834C288.352 6.74056 288.385 4.96279 288.415 3.18501C294.885 3.18501 301.359 3.1813 307.83 3.18871C307.852 4.95908 307.878 6.73316 307.911 8.50353C306.267 8.95908 304.559 9.28501 303.037 10.0776C301.844 10.6887 301.022 11.7739 300.163 12.7665C297.081 16.3072 294.185 20.0109 291.237 23.6628C295.444 28.9628 299.281 34.548 303.585 39.7702C304.996 41.4369 307.341 41.5257 309.344 41.8406C309.344 43.6554 309.348 45.4702 309.344 47.285C301.115 47.2776 292.889 47.2887 284.663 47.2776C284.663 45.4035 284.659 43.5257 284.663 41.648C286.2 41.522 287.737 41.3998 289.274 41.2739C288.293 37.4035 285.393 34.5146 283.219 31.2998C281.059 33.8702 278.648 36.2776 276.981 39.2183C276.459 39.922 276.856 41.0257 277.707 41.248C278.77 41.5813 279.896 41.6406 280.978 41.9146C280.978 43.7035 280.978 45.4924 280.978 47.2813C274.233 47.285 267.489 47.2813 260.744 47.285C260.737 45.4443 260.741 43.5998 260.741 41.7591C262.9 41.3517 265.467 41.4258 267.056 39.648C271.019 35.3035 274.444 30.5146 278.222 26.0146C274.604 21.2998 271.17 16.4443 267.456 11.8035C266.015 10.0146 263.759 9.25167 261.681 8.4739C261.711 6.71093 261.73 4.94797 261.767 3.18501Z" fill="#FB630F"/>
<path d="M314.774 3.18514C323.159 3.18514 331.548 3.18514 339.933 3.18885C339.93 5.00366 339.937 6.82218 339.93 8.6407C338.17 8.91477 336.422 9.26292 334.689 9.66292C336.57 13.8111 339.219 17.5407 341.689 21.3481C343.874 18.0851 346.467 15.0703 348.204 11.5222C348.367 11.0444 348.781 10.5777 348.696 10.0518C347.448 8.89255 345.663 8.89625 344.093 8.57774C344.104 6.78144 344.133 4.98514 344.156 3.18885C350.385 3.18144 356.615 3.18514 362.844 3.18885C362.863 4.96292 362.893 6.737 362.922 8.51477C361.037 9.07403 359.063 9.57403 357.474 10.7851C356.237 11.7 355.585 13.1333 354.733 14.3703C351.619 19.2629 348.2 23.9777 345.43 29.0814C344.707 33.1592 345.052 37.3814 345.796 41.4407C347.959 41.7074 350.137 41.8333 352.315 41.9666C352.282 43.737 352.293 45.5111 352.259 47.2851C343.47 47.2851 334.681 47.2851 325.893 47.2851C325.881 45.5074 325.863 43.7296 325.859 41.9518C327.822 41.7333 330.041 42.2592 331.778 41.0851C333.007 38.9777 332.874 36.4407 332.807 34.0926C332.693 32.2481 333.119 30.2814 332.263 28.5555C331.389 26.7555 330.215 25.1259 329.17 23.4259C326.682 19.6185 324.504 15.6 321.719 11.9963C320.026 9.86292 317.23 9.25181 314.752 8.51848C314.737 6.7407 314.774 4.96292 314.774 3.18514Z" fill="#FB630F"/>
</svg>
