<?xml version="1.0" standalone="no"?>
<!DOCTYPE svg PUBLIC "-//W3C//DTD SVG 20010904//EN"
 "http://www.w3.org/TR/2001/REC-SVG-20010904/DTD/svg10.dtd">
<svg version="1.0" xmlns="http://www.w3.org/2000/svg"
 width="2360.000000pt" height="2360.000000pt" viewBox="0 0 2360.000000 2360.000000"
 preserveAspectRatio="xMidYMid meet">
<metadata>
Created by potrace 1.14, written by Peter Selinger 2001-2017
</metadata>
<g transform="translate(0.000000,2360.000000) scale(0.100000,-0.100000)"
fill="#000000" stroke="none">
<path d="M13656 23579 c-104 -82 -165 -362 -108 -493 30 -66 111 -141 264
-243 73 -49 140 -92 148 -96 12 -6 226 -144 290 -187 8 -6 74 -48 145 -94 72
-47 175 -113 230 -149 55 -36 186 -120 290 -187 105 -68 222 -144 260 -169 39
-25 75 -48 80 -51 6 -3 48 -30 94 -60 122 -79 288 -186 388 -251 49 -31 230
-148 403 -259 173 -112 372 -241 443 -287 70 -45 130 -83 133 -83 2 0 10 -5
17 -11 7 -6 165 -109 352 -229 426 -274 774 -498 958 -617 78 -51 165 -106
192 -123 45 -27 335 -214 650 -419 66 -43 192 -124 280 -181 88 -57 210 -135
270 -175 120 -78 328 -211 718 -462 139 -89 257 -166 264 -172 7 -6 15 -11 18
-11 3 0 38 -22 78 -49 153 -103 228 -131 340 -128 70 2 90 7 136 32 110 60
166 185 159 349 -7 166 -56 232 -286 382 -79 52 -145 94 -148 94 -3 0 -10 5
-17 11 -9 8 -244 161 -329 214 -17 10 -256 165 -408 263 -47 31 -370 240 -719
465 -349 224 -666 429 -705 454 -39 26 -93 61 -121 78 -27 18 -104 67 -170
110 -66 42 -151 97 -190 122 -38 25 -127 82 -196 127 -70 45 -157 101 -195
126 -38 24 -127 81 -197 127 -70 46 -130 83 -133 83 -3 0 -10 5 -17 11 -10 8
-332 216 -1102 711 -44 29 -143 93 -221 142 -77 50 -149 97 -160 103 -81 52
-246 159 -454 293 -263 171 -396 256 -436 280 -13 8 -80 51 -147 94 -215 141
-277 180 -556 360 l-273 176 -143 0 c-129 0 -145 -2 -169 -21z"/>
<path d="M12248 22933 c-93 -15 -217 -60 -306 -109 -58 -32 -287 -179 -752
-482 -63 -42 -243 -158 -400 -260 -279 -181 -404 -261 -625 -405 -237 -154
-363 -235 -430 -278 -38 -24 -74 -47 -80 -51 -5 -5 -37 -25 -70 -46 -78 -50
-190 -122 -290 -187 -191 -125 -350 -228 -490 -318 -82 -53 -233 -150 -335
-216 -238 -154 -479 -309 -529 -341 -22 -14 -99 -63 -170 -110 -72 -47 -139
-90 -148 -95 -23 -13 -78 -48 -223 -143 -63 -41 -137 -89 -165 -107 -131 -83
-204 -130 -250 -160 -27 -18 -93 -60 -145 -94 -52 -33 -102 -66 -110 -71 -17
-12 -1279 -823 -1522 -979 -169 -108 -228 -146 -513 -330 -93 -60 -260 -167
-370 -237 -341 -218 -427 -288 -516 -424 -40 -61 -95 -188 -104 -240 -3 -18
-7 -36 -9 -39 -2 -3 -7 -28 -12 -56 -9 -61 -11 -10480 -1 -10548 30 -211 139
-406 301 -539 55 -45 207 -146 586 -388 39 -25 116 -75 173 -111 56 -37 485
-313 952 -614 468 -301 875 -564 905 -584 30 -20 61 -39 70 -43 8 -4 69 -44
135 -87 66 -44 149 -99 185 -121 115 -73 235 -149 252 -162 16 -12 581 -376
633 -408 40 -24 228 -146 413 -267 95 -62 177 -113 183 -113 5 0 9 -3 9 -8 0
-4 9 -12 20 -17 11 -6 180 -113 375 -240 196 -126 444 -287 553 -358 108 -70
247 -159 307 -198 61 -39 196 -126 300 -194 161 -105 310 -201 410 -265 13 -8
89 -58 169 -110 81 -52 154 -100 164 -105 9 -6 71 -46 137 -89 66 -43 143 -93
170 -111 28 -17 95 -61 150 -96 55 -36 142 -92 193 -124 51 -33 147 -96 215
-140 369 -243 463 -292 608 -319 203 -39 367 10 654 195 293 190 352 228 485
315 76 50 145 94 152 98 14 7 28 16 381 246 406 264 557 362 778 505 43 28
131 84 196 126 65 42 165 107 223 144 58 38 148 96 200 130 109 71 403 261
533 344 48 31 129 83 180 116 152 99 646 419 671 435 13 8 52 33 87 55 59 36
142 90 179 115 8 5 42 27 75 49 33 21 94 60 135 87 41 27 83 53 93 59 15 9
548 351 762 490 400 259 532 344 631 405 33 20 190 122 294 189 47 31 93 60
103 66 16 9 445 284 594 380 34 22 112 72 173 110 61 39 153 97 204 130 52 33
133 85 180 115 396 252 479 312 581 422 164 177 254 396 281 683 3 39 5 340 4
670 -2 330 -4 2627 -5 5105 -2 4079 -3 4512 -18 4582 -41 197 -111 331 -242
463 -91 92 -129 120 -505 360 -187 120 -265 170 -385 247 -55 36 -183 118
-285 183 -102 65 -214 137 -250 160 -36 23 -135 87 -220 142 -190 122 -490
315 -568 365 -31 21 -66 42 -77 48 -11 6 -34 21 -51 33 -18 12 -65 43 -105 69
-41 25 -182 116 -314 201 -132 85 -441 285 -687 444 -246 158 -474 305 -505
325 -32 21 -65 41 -73 45 -8 3 -17 9 -20 13 -3 3 -43 30 -90 60 -47 29 -121
77 -165 105 -244 158 -686 444 -862 559 -111 72 -221 142 -243 156 -47 29
-356 229 -570 369 -80 53 -153 100 -163 106 -19 11 -154 98 -317 205 -177 116
-390 254 -407 265 -9 6 -107 69 -217 141 -111 72 -241 157 -291 189 -49 32
-139 91 -200 130 -280 183 -346 225 -434 274 -196 108 -380 145 -563 114z"/>
<path d="M2645 17148 c-90 -33 -158 -128 -192 -270 -4 -18 -9 -2078 -10 -4578
-2 -4347 -1 -4549 16 -4615 32 -125 85 -201 171 -246 39 -21 59 -24 145 -24
92 0 104 2 153 30 63 34 97 71 128 140 57 123 53 -207 51 4731 l-2 4541 -38
56 c-52 79 -157 179 -224 212 -62 32 -148 42 -198 23z"/>
<path d="M20767 5338 c-53 -11 -103 -38 -265 -142 -78 -50 -164 -104 -190
-121 -26 -16 -113 -72 -194 -125 -81 -52 -193 -124 -250 -160 -56 -36 -150
-96 -210 -135 -59 -38 -133 -86 -165 -107 -50 -31 -235 -150 -504 -323 -135
-87 -173 -112 -284 -183 -60 -39 -162 -104 -225 -145 -63 -41 -205 -132 -315
-202 -110 -71 -243 -156 -295 -190 -52 -34 -153 -99 -225 -145 -71 -46 -173
-111 -225 -145 -123 -79 -256 -165 -372 -239 -51 -33 -156 -101 -234 -150 -77
-50 -148 -95 -157 -101 -17 -10 -758 -488 -977 -630 -69 -45 -160 -103 -203
-131 -102 -65 -267 -172 -702 -455 -612 -397 -1088 -719 -1123 -757 -45 -51
-79 -114 -109 -201 -46 -137 -27 -222 72 -329 67 -72 140 -114 200 -114 91 0
165 31 345 145 200 126 825 526 1110 712 96 63 211 137 255 165 115 73 185
118 728 470 268 173 556 359 639 413 84 54 203 130 263 169 157 102 272 176
330 213 107 69 211 135 225 145 34 23 471 305 1121 723 101 65 245 158 319
207 139 91 350 227 378 245 22 14 245 158 572 370 257 166 359 232 585 381 50
32 95 61 100 64 6 3 42 26 80 51 106 70 288 274 288 324 0 120 -52 269 -118
343 -69 77 -171 111 -268 90z"/>
</g>
</svg>
