<svg width="20" height="20" viewBox="0 0 20 20" fill="none" xmlns="http://www.w3.org/2000/svg">
<path fill-rule="evenodd" clip-rule="evenodd" d="M1.66666 7.03704C1.66666 5.96303 2.50708 5 3.6575 5H13.5236C14.674 5 15.5144 5.96303 15.5144 7.03704V12.963C15.5144 14.037 14.674 15 13.5236 15H3.6575C2.50708 15 1.66666 14.037 1.66666 12.963V7.03704ZM17.7519 8.7037C18.073 8.7037 18.3333 8.95243 18.3333 9.25926V10.7407C18.3333 11.0476 18.073 11.2963 17.7519 11.2963C17.4308 11.2963 17.1705 11.0476 17.1705 10.7407V9.25926C17.1705 8.95243 17.4308 8.7037 17.7519 8.7037Z" fill="black"/>
</svg>
