<svg width="16" height="16" viewBox="0 0 16 16" fill="none" xmlns="http://www.w3.org/2000/svg">
<g clip-path="url(#clip0_569_5883)">
<path d="M8 0.8125C11.9697 0.8125 15.1875 4.03031 15.1875 8C15.1875 11.9697 11.9697 15.1875 8 15.1875C4.03031 15.1875 0.8125 11.9697 0.8125 8C0.8125 4.03031 4.03031 0.8125 8 0.8125Z" fill="#80AF52"/>
<path d="M11.5022 5.12277C11.3801 5.00074 11.1823 5.00074 11.0602 5.12277L6.1818 10.0012L4.82748 7.83437C4.73598 7.68799 4.5432 7.64352 4.39686 7.73499C4.25048 7.82646 4.20602 8.01927 4.29748 8.16562L5.85998 10.6656C5.88491 10.7055 5.9185 10.7392 5.95826 10.7643C5.99803 10.7894 6.04293 10.8051 6.08964 10.8105C6.13635 10.8158 6.18366 10.8105 6.22804 10.795C6.27242 10.7795 6.31274 10.7542 6.34598 10.721L11.5022 5.56471C11.6243 5.44268 11.6243 5.2448 11.5022 5.12277Z" fill="white"/>
</g>
<defs>
<clipPath id="clip0_569_5883">
<rect width="16" height="16" fill="white"/>
</clipPath>
</defs>
</svg>
