<svg width="30" height="15" viewBox="0 0 30 15" fill="none" xmlns="http://www.w3.org/2000/svg">
<path d="M15 8.4375C16.0156 8.4375 16.9727 8.54492 17.8711 8.75977C18.7695 8.97461 19.5703 9.23828 20.2734 9.55078C20.9766 9.86328 21.5234 10.332 21.9141 10.957C22.3047 11.582 22.5 12.2461 22.5 12.9492V15H7.5V13.0078C7.5 12.2656 7.69531 11.582 8.08594 10.957C8.47656 10.332 9.02344 9.86328 9.72656 9.55078C10.4297 9.23828 11.2305 8.97461 12.1289 8.75977C13.0273 8.54492 13.9844 8.4375 15 8.4375ZM4.98047 8.73047C5.68359 8.73047 6.2793 8.48633 6.76758 7.99805C7.25586 7.50977 7.5 6.93359 7.5 6.26953C7.5 5.56641 7.25586 4.9707 6.76758 4.48242C6.2793 3.99414 5.68359 3.75 4.98047 3.75C4.31641 3.75 3.74023 3.99414 3.25195 4.48242C2.76367 4.9707 2.51953 5.56641 2.51953 6.26953C2.51953 6.93359 2.76367 7.50977 3.25195 7.99805C3.74023 8.48633 4.31641 8.73047 4.98047 8.73047ZM6.38672 10.1367C6.19141 10.0977 5.97656 10.0684 5.74219 10.0488C5.50781 10.0293 5.25391 10.0195 4.98047 10.0195C4.35547 10.0195 3.75977 10.0781 3.19336 10.1953C2.62695 10.3125 2.07031 10.4883 1.52344 10.7227C1.05469 10.918 0.683594 11.2305 0.410156 11.6602C0.136719 12.0898 0 12.5586 0 13.0664V15H5.625V13.0078C5.625 11.9922 5.87891 11.0352 6.38672 10.1367ZM25.0195 8.73047C25.6836 8.73047 26.2598 8.48633 26.748 7.99805C27.2363 7.50977 27.4805 6.93359 27.4805 6.26953C27.4805 5.56641 27.2363 4.9707 26.748 4.48242C26.2598 3.99414 25.6836 3.75 25.0195 3.75C24.3164 3.75 23.7207 3.99414 23.2324 4.48242C22.7441 4.9707 22.5 5.56641 22.5 6.26953C22.5 6.93359 22.7441 7.50977 23.2324 7.99805C23.7207 8.48633 24.3164 8.73047 25.0195 8.73047ZM30 13.0664C30 12.5586 29.8633 12.0898 29.5898 11.6602C29.3164 11.2305 28.9453 10.918 28.4766 10.7227C27.9297 10.4883 27.373 10.3125 26.8066 10.1953C26.2402 10.0781 25.6445 10.0195 25.0195 10.0195C24.7461 10.0195 24.4922 10.0293 24.2578 10.0488C24.0234 10.0684 23.8086 10.0977 23.6133 10.1367C24.1211 11.0352 24.375 11.9922 24.375 13.0078V15H30V13.0664ZM15 0C15.7031 0 16.3379 0.166016 16.9043 0.498047C17.4707 0.830078 17.9199 1.2793 18.252 1.8457C18.584 2.41211 18.75 3.04688 18.75 3.75C18.75 4.45312 18.584 5.08789 18.252 5.6543C17.9199 6.2207 17.4707 6.66992 16.9043 7.00195C16.3379 7.33398 15.7031 7.5 15 7.5C14.2969 7.5 13.6621 7.33398 13.0957 7.00195C12.5293 6.66992 12.0801 6.2207 11.748 5.6543C11.416 5.08789 11.25 4.45312 11.25 3.75C11.25 3.04688 11.416 2.41211 11.748 1.8457C12.0801 1.2793 12.5293 0.830078 13.0957 0.498047C13.6621 0.166016 14.2969 0 15 0Z" fill="white"/>
</svg>
