<svg width="50" height="50" viewBox="0 0 50 50" fill="none" xmlns="http://www.w3.org/2000/svg">
<path d="M43.8457 26.6582L29.7832 40.7207C29.3429 41.161 28.7457 41.4084 28.123 41.4084C27.5004 41.4084 26.9032 41.161 26.4629 40.7207C26.0226 40.2804 25.7752 39.6832 25.7752 39.0606C25.7752 38.4379 26.0226 37.8407 26.4629 37.4004L36.5234 27.3438H7.8125C7.1909 27.3438 6.59476 27.0968 6.15522 26.6573C5.71568 26.2177 5.46875 25.6216 5.46875 25C5.46875 24.3784 5.71568 23.7823 6.15522 23.3427C6.59476 22.9032 7.1909 22.6563 7.8125 22.6563H36.5234L26.4668 12.5938C26.0265 12.1535 25.7791 11.5563 25.7791 10.9336C25.7791 10.3109 26.0265 9.71374 26.4668 9.27344C26.9071 8.83314 27.5043 8.58578 28.127 8.58578C28.7496 8.58578 29.3468 8.83314 29.7871 9.27344L43.8496 23.3359C44.0681 23.554 44.2415 23.813 44.3596 24.0982C44.4777 24.3835 44.5384 24.6892 44.538 24.9979C44.5376 25.3066 44.4763 25.6122 44.3575 25.8971C44.2387 26.182 44.0648 26.4407 43.8457 26.6582Z" fill="black"/>
</svg>
