<svg width="40" height="40" viewBox="0 0 40 40" fill="none" xmlns="http://www.w3.org/2000/svg">
<path fill-rule="evenodd" clip-rule="evenodd" d="M20 6.6665C21.425 6.6665 22.8867 6.70317 24.3034 6.76317L25.9767 6.84317L27.5784 6.93817L29.0784 7.03984L30.4484 7.1465C31.9353 7.25966 33.3347 7.89389 34.4 8.93751C35.4652 9.98112 36.1281 11.3672 36.2717 12.8515L36.3384 13.5598L36.4634 15.0765C36.58 16.6482 36.6667 18.3615 36.6667 19.9998C36.6667 21.6382 36.58 23.3515 36.4634 24.9232L36.3384 26.4398C36.3162 26.6821 36.2939 26.9182 36.2717 27.1482C36.128 28.6328 35.4649 30.019 34.3993 31.0627C33.3337 32.1063 31.934 32.7404 30.4467 32.8532L29.08 32.9582L27.58 33.0615L25.9767 33.1565L24.3034 33.2365C22.8698 33.2986 21.435 33.3308 20 33.3332C18.5651 33.3308 17.1303 33.2986 15.6967 33.2365L14.0234 33.1565L12.4217 33.0615L10.9217 32.9582L9.55171 32.8532C8.06473 32.74 6.66537 32.1058 5.60011 31.0622C4.53485 30.0186 3.87203 28.6325 3.72837 27.1482L3.66171 26.4398L3.53671 24.9232C3.40976 23.285 3.34194 21.6429 3.33337 19.9998C3.33337 18.3615 3.42004 16.6482 3.53671 15.0765L3.66171 13.5598C3.68393 13.3176 3.70615 13.0815 3.72837 12.8515C3.87197 11.3674 4.53456 9.98159 5.59948 8.93801C6.6644 7.89444 8.06336 7.26003 9.55004 7.1465L10.9184 7.03984L12.4184 6.93817L14.0217 6.84317L15.695 6.76317C17.1292 6.70105 18.5645 6.66882 20 6.6665ZM16.6667 15.9582V24.0415C16.6667 24.8115 17.5 25.2915 18.1667 24.9082L25.1667 20.8665C25.319 20.7788 25.4455 20.6525 25.5335 20.5004C25.6215 20.3482 25.6678 20.1756 25.6678 19.9998C25.6678 19.8241 25.6215 19.6514 25.5335 19.4993C25.4455 19.3471 25.319 19.2209 25.1667 19.1332L18.1667 15.0932C18.0146 15.0054 17.8421 14.9592 17.6665 14.9592C17.491 14.9592 17.3185 15.0055 17.1664 15.0933C17.0144 15.1812 16.8882 15.3075 16.8004 15.4596C16.7127 15.6117 16.6666 15.7842 16.6667 15.9598V15.9582Z" fill="white"/>
</svg>
