<svg width="535" height="137" viewBox="0 0 535 137" fill="none" xmlns="http://www.w3.org/2000/svg">
<rect width="532.148" height="133" transform="translate(1 3)" fill="#F7F3FE"/>
<path d="M1.26416 3L34.3817 36.1176L67.4993 3V69.2351H1.26416L1.26416 3Z" stroke="white" stroke-width="1.96719"/>
<path d="M100.617 47.1568H133.735M100.617 25.0784H133.735M133.735 25.0784V3L67.4998 3V69.2351H133.735V47.1568M133.735 25.0784V47.1568" stroke="white" stroke-width="1.96719"/>
<path d="M166.852 113.657H199.97M166.852 91.5784H199.97M199.97 91.5784V69.5H133.735V135.735H199.97V113.657M199.97 91.5784V113.657" stroke="white" stroke-width="1.96719"/>
<path d="M133.735 3L166.852 3C185.143 3 199.97 17.8272 199.97 36.1176V36.1176C199.97 54.4079 185.143 69.2351 166.852 69.2351H133.735V3Z" stroke="white" stroke-width="1.96719"/>
<path d="M266.204 3H267.188V2.0164H266.204V3ZM199.969 3V2.0164H198.986V3H199.969ZM266.204 25.1667V26.1503H267.188V25.1667H266.204ZM244.215 25.1667V24.1831H243.232V25.1667H244.215ZM244.215 47.3337H243.232V48.3173H244.215V47.3337ZM266.205 47.3337H267.188V46.3501H266.205V47.3337ZM266.205 69.5004V70.484H267.188V69.5004H266.205ZM199.97 69.5004H198.986V70.484H199.97V69.5004ZM199.97 47.3337V46.3501H198.986V47.3337H199.97ZM221.96 47.3337V48.3173H222.944V47.3337H221.96ZM221.96 25.1667H222.944V24.1831H221.96V25.1667ZM199.969 25.1667H198.986V26.1503H199.969V25.1667ZM266.204 2.0164L199.969 2.0164V3.9836L266.204 3.9836V2.0164ZM267.188 25.1667V3H265.221V25.1667H267.188ZM244.215 26.1503H266.204V24.1831H244.215V26.1503ZM245.199 47.3337V25.1667H243.232V47.3337H245.199ZM244.215 48.3173H266.205V46.3501H244.215V48.3173ZM265.221 47.3337V69.5004H267.188V47.3337H265.221ZM266.205 68.5168H199.97V70.484H266.205V68.5168ZM200.953 69.5004V47.3337H198.986V69.5004H200.953ZM199.97 48.3173H221.96V46.3501H199.97V48.3173ZM220.977 25.1667V47.3337H222.944V25.1667H220.977ZM199.969 26.1503H221.96V24.1831H199.969V26.1503ZM198.986 3V25.1667H200.953V3H198.986Z" fill="white"/>
<path d="M1 79.0352L57.6973 135.732H1L1 79.0352Z" stroke="white" stroke-width="1.96719"/>
<path d="M67.2346 126.461L10.2724 69.4987L67.2346 69.4987L67.2346 126.461Z" stroke="white" stroke-width="1.96719"/>
<path d="M199.97 79.3047L256.668 136.002H199.97V79.3047Z" stroke="white" stroke-width="1.96719"/>
<path d="M266.205 126.73L209.243 69.7683L266.205 69.7683L266.205 126.73Z" stroke="white" stroke-width="1.96719"/>
<path d="M133.469 102.485C133.469 109.009 131.535 115.386 127.91 120.811C124.286 126.235 119.134 130.463 113.107 132.959C107.08 135.456 100.448 136.109 94.0493 134.836C87.6508 133.564 81.7734 130.422 77.1604 125.809C72.5473 121.196 69.4058 115.319 68.1331 108.92C66.8603 102.522 67.5135 95.8895 70.0101 89.8623C72.5067 83.835 76.7345 78.6834 82.1588 75.059C87.5832 71.4345 93.9605 69.5 100.484 69.5L100.484 102.485H133.469Z" stroke="white" stroke-width="1.96719"/>
<path d="M268.207 3L301.325 36.1176L334.442 3V69.2351H268.207V3Z" stroke="white" stroke-width="1.96719"/>
<path d="M367.56 47.1568H400.678M367.56 25.0784H400.678M400.678 25.0784V3L334.443 3V69.2351H400.678V47.1568M400.678 25.0784V47.1568" stroke="white" stroke-width="1.96719"/>
<path d="M433.795 113.657H466.913M433.795 91.5784H466.913M466.913 91.5784V69.5H400.678V135.735H466.913V113.657M466.913 91.5784V113.657" stroke="white" stroke-width="1.96719"/>
<path d="M400.677 3L433.795 3C452.085 3 466.912 17.8272 466.912 36.1176V36.1176C466.912 54.4079 452.085 69.2351 433.795 69.2351H400.677V3Z" stroke="white" stroke-width="1.96719"/>
<path d="M533.147 3H534.131V2.0164H533.147V3ZM466.912 3V2.0164H465.929V3H466.912ZM533.147 25.1667V26.1503H534.131V25.1667H533.147ZM511.158 25.1667V24.1831H510.174V25.1667H511.158ZM511.158 47.3339H510.174V48.3175H511.158V47.3339ZM533.147 47.3339H534.131V46.3503H533.147V47.3339ZM533.147 69.5006V70.4842H534.131V69.5006H533.147ZM466.912 69.5006H465.929V70.4842H466.912V69.5006ZM466.912 47.3339V46.3503H465.929V47.3339H466.912ZM488.903 47.3339V48.3175H489.886V47.3339H488.903ZM488.903 25.1667H489.886V24.1831H488.903V25.1667ZM466.912 25.1667H465.929V26.1503H466.912V25.1667ZM533.147 2.0164L466.912 2.0164V3.9836L533.147 3.9836V2.0164ZM534.131 25.1667V3H532.164V25.1667H534.131ZM511.158 26.1503H533.147V24.1831H511.158V26.1503ZM512.141 47.3339V25.1667H510.174V47.3339H512.141ZM511.158 48.3175H533.147V46.3503H511.158V48.3175ZM532.164 47.3339V69.5006H534.131V47.3339H532.164ZM533.147 68.517H466.912V70.4842H533.147V68.517ZM467.896 69.5006V47.3339H465.929V69.5006H467.896ZM466.912 48.3175H488.903V46.3503H466.912V48.3175ZM487.919 25.1667V47.3339H489.886V25.1667H487.919ZM466.912 26.1503H488.903V24.1831H466.912V26.1503ZM465.929 3V25.1667H467.896V3H465.929Z" fill="white"/>
<path d="M267.943 79.0352L324.64 135.732H267.943V79.0352Z" stroke="white" stroke-width="1.96719"/>
<path d="M334.178 126.461L277.216 69.4987L334.178 69.4987L334.178 126.461Z" stroke="white" stroke-width="1.96719"/>
<path d="M466.913 79.3008L523.61 135.998H466.913V79.3008Z" stroke="white" stroke-width="1.96719"/>
<path d="M533.148 126.727L476.186 69.7644L533.148 69.7644L533.148 126.727Z" stroke="white" stroke-width="1.96719"/>
<path d="M400.412 102.485C400.412 109.009 398.478 115.386 394.853 120.811C391.229 126.235 386.077 130.463 380.05 132.959C374.023 135.456 367.39 136.109 360.992 134.836C354.593 133.564 348.716 130.422 344.103 125.809C339.49 121.196 336.348 115.319 335.076 108.92C333.803 102.522 334.456 95.8895 336.953 89.8623C339.449 83.835 343.677 78.6834 349.101 75.059C354.526 71.4345 360.903 69.5 367.427 69.5L367.427 102.485H400.412Z" stroke="white" stroke-width="1.96719"/>
</svg>
