<svg width="69" height="69" viewBox="0 0 69 69" fill="none" xmlns="http://www.w3.org/2000/svg">
<path d="M67.7403 0.992013H68.7316V0.000784236H67.7403V0.992013ZM0.991275 0.992013V0.000784236H4.61315e-05V0.992013H0.991275ZM67.7403 23.3307V24.3219H68.7316V23.3307H67.7403ZM45.5801 23.3307V22.3395H44.5889V23.3307H45.5801ZM45.5801 45.6699H44.5889V46.6611H45.5801V45.6699ZM67.7404 45.6699L68.7316 45.6699V44.6787L67.7404 44.6787V45.6699ZM67.7404 68.0086V68.9998H68.7316V68.0086H67.7404ZM0.991315 68.0086H8.64366e-05V68.9998H0.991315V68.0086ZM0.991315 45.6699V44.6787H8.64366e-05V45.6699H0.991315ZM23.1524 45.6699V46.6611H24.1437V45.6699H23.1524ZM23.1524 23.3307H24.1437V22.3395H23.1524V23.3307ZM0.991275 23.3307H4.61315e-05V24.3219H0.991275V23.3307ZM67.7403 0.000784236L0.991275 0.000784236V1.98324L67.7403 1.98324V0.000784236ZM68.7316 23.3307V0.992013L66.7491 0.992013V23.3307H68.7316ZM45.5801 24.3219H67.7403V22.3395H45.5801V24.3219ZM46.5713 45.6699V23.3307H44.5889V45.6699H46.5713ZM45.5801 46.6611H67.7404V44.6787H45.5801V46.6611ZM66.7491 45.6699V68.0086H68.7316V45.6699L66.7491 45.6699ZM67.7404 67.0174H0.991315V68.9998H67.7404V67.0174ZM1.98254 68.0086V45.6699H8.64366e-05L8.64366e-05 68.0086H1.98254ZM0.991315 46.6611H23.1524V44.6787H0.991315V46.6611ZM22.1612 23.3307V45.6699H24.1437V23.3307H22.1612ZM0.991275 24.3219H23.1524V22.3395H0.991275V24.3219ZM4.61315e-05 0.992013L4.61315e-05 23.3307H1.9825L1.9825 0.992013H4.61315e-05Z" fill="white"/>
</svg>
