<svg width="16" height="17" viewBox="0 0 16 17" fill="none" xmlns="http://www.w3.org/2000/svg">
<path d="M14.3837 4.17937C14.3368 4.12321 14.2781 4.07804 14.2118 4.04704C14.1455 4.01605 14.0732 3.99999 14 4H3.9175L3.5375 1.91062C3.51657 1.79542 3.45587 1.69121 3.36598 1.61617C3.27609 1.54113 3.16272 1.50002 3.04562 1.5H1.5C1.36739 1.5 1.24021 1.55268 1.14645 1.64645C1.05268 1.74021 1 1.86739 1 2C1 2.13261 1.05268 2.25979 1.14645 2.35355C1.24021 2.44732 1.36739 2.5 1.5 2.5H2.625L4.2225 11.2681C4.26956 11.5282 4.38448 11.7712 4.55562 11.9725C4.3194 12.1931 4.14891 12.4749 4.06304 12.7865C3.97717 13.0981 3.97928 13.4274 4.06914 13.7379C4.15901 14.0484 4.33311 14.328 4.57214 14.5455C4.81117 14.7631 5.1058 14.9103 5.42335 14.9706C5.7409 15.031 6.06896 15.0022 6.37116 14.8875C6.67335 14.7728 6.93788 14.5767 7.1354 14.3208C7.33292 14.0649 7.45572 13.7594 7.49018 13.438C7.52464 13.1166 7.46941 12.7919 7.33063 12.5H10.1694C10.0575 12.7342 9.99963 12.9905 10 13.25C10 13.5961 10.1026 13.9345 10.2949 14.2222C10.4872 14.51 10.7605 14.7343 11.0803 14.8668C11.4001 14.9992 11.7519 15.0339 12.0914 14.9664C12.4309 14.8989 12.7427 14.7322 12.9874 14.4874C13.2322 14.2427 13.3989 13.9309 13.4664 13.5914C13.5339 13.2519 13.4992 12.9001 13.3668 12.5803C13.2343 12.2605 13.01 11.9872 12.7222 11.7949C12.4345 11.6026 12.0961 11.5 11.75 11.5H5.69812C5.58103 11.5 5.46766 11.4589 5.37777 11.3838C5.28788 11.3088 5.22718 11.2046 5.20625 11.0894L5.00812 10H12.2581C12.6094 9.99995 12.9495 9.87661 13.2192 9.65149C13.4889 9.42637 13.671 9.11375 13.7338 8.76812L14.4937 4.58938C14.5066 4.51715 14.5034 4.44298 14.4844 4.37212C14.4654 4.30127 14.431 4.23546 14.3837 4.17937ZM6.5 13.25C6.5 13.3983 6.45601 13.5433 6.3736 13.6667C6.29119 13.79 6.17406 13.8861 6.03701 13.9429C5.89997 13.9997 5.74917 14.0145 5.60368 13.9856C5.4582 13.9566 5.32456 13.8852 5.21967 13.7803C5.11478 13.6754 5.04335 13.5418 5.01441 13.3963C4.98547 13.2508 5.00032 13.1 5.05709 12.963C5.11386 12.8259 5.20999 12.7088 5.33332 12.6264C5.45666 12.544 5.60166 12.5 5.75 12.5C5.94891 12.5 6.13968 12.579 6.28033 12.7197C6.42098 12.8603 6.5 13.0511 6.5 13.25ZM12.5 13.25C12.5 13.3983 12.456 13.5433 12.3736 13.6667C12.2912 13.79 12.1741 13.8861 12.037 13.9429C11.9 13.9997 11.7492 14.0145 11.6037 13.9856C11.4582 13.9566 11.3246 13.8852 11.2197 13.7803C11.1148 13.6754 11.0434 13.5418 11.0144 13.3963C10.9855 13.2508 11.0003 13.1 11.0571 12.963C11.1139 12.8259 11.21 12.7088 11.3333 12.6264C11.4567 12.544 11.6017 12.5 11.75 12.5C11.9489 12.5 12.1397 12.579 12.2803 12.7197C12.421 12.8603 12.5 13.0511 12.5 13.25ZM12.75 8.58937C12.729 8.7049 12.668 8.80935 12.5778 8.88443C12.4875 8.95951 12.3737 9.00042 12.2563 9H4.82625L4.09937 5H13.4006L12.75 8.58937Z" fill="black"/>
</svg>
