<svg width="1366" height="258" viewBox="0 0 1366 258" fill="none" xmlns="http://www.w3.org/2000/svg">
<rect width="532.148" height="133" transform="translate(-43 -0.3125) rotate(-3.41378)" fill="#F7F3FE"/>
<path d="M-42.7363 -0.327148L-7.70549 30.7596L23.3813 -4.27122L27.3253 61.8464L-38.7923 65.7905L-42.7363 -0.327148Z" stroke="white" stroke-width="1.96719"/>
<path d="M59.069 37.8342L92.1278 35.8621M57.7544 15.795L90.8132 13.8229M90.8132 13.8229L89.4985 -8.21628L23.3809 -4.27222L27.3249 61.8454L93.4425 57.9013L92.1278 35.8621M90.8132 13.8229L92.1278 35.8621" stroke="white" stroke-width="1.96719"/>
<path d="M129.147 100.272L162.206 98.2999M127.832 78.2327L160.891 76.2607M160.891 76.2607L159.577 54.2215L93.459 58.1655L97.4031 124.283L163.521 120.339L162.206 98.2999M160.891 76.2607L162.206 98.2999" stroke="white" stroke-width="1.96719"/>
<path d="M89.5 -8.21533L122.559 -10.1874C140.817 -11.2765 156.501 2.64154 157.59 20.8994V20.8994C158.679 39.1573 144.761 54.8411 126.503 55.9302L93.4441 57.9023L89.5 -8.21533Z" stroke="white" stroke-width="1.96719"/>
<path d="M221.735 -16.1045L222.717 -16.163L222.658 -17.1449L221.676 -17.0863L221.735 -16.1045ZM155.617 -12.1604L155.559 -13.1423L154.577 -13.0837L154.635 -12.1018L155.617 -12.1604ZM223.055 6.02289L223.113 7.00474L224.095 6.94617L224.037 5.96432L223.055 6.02289ZM201.105 7.33227L201.046 6.35042L200.064 6.40899L200.123 7.39084L201.105 7.33227ZM202.424 29.46L201.443 29.5185L201.501 30.5004L202.483 30.4418L202.424 29.46ZM224.375 28.1506L225.357 28.092L225.298 27.1101L224.317 27.1687L224.375 28.1506ZM225.695 50.2779L225.754 51.2598L226.735 51.2012L226.677 50.2193L225.695 50.2779ZM159.577 54.222L158.596 54.2806L158.654 55.2624L159.636 55.2038L159.577 54.222ZM158.258 32.0946L158.199 31.1128L157.217 31.1713L157.276 32.1532L158.258 32.0946ZM180.209 30.7852L180.268 31.767L181.249 31.7084L181.191 30.7266L180.209 30.7852ZM178.889 8.65748L179.871 8.59891L179.812 7.61706L178.83 7.67563L178.889 8.65748ZM156.937 9.96696L155.955 10.0255L156.014 11.0074L156.996 10.9488L156.937 9.96696ZM221.676 -17.0863L155.559 -13.1423L155.676 -11.1785L221.793 -15.1226L221.676 -17.0863ZM224.037 5.96432L222.717 -16.163L220.753 -16.0459L222.073 6.08146L224.037 5.96432ZM201.163 8.31412L223.113 7.00474L222.996 5.04104L201.046 6.35042L201.163 8.31412ZM203.406 29.4014L202.086 7.2737L200.123 7.39084L201.443 29.5185L203.406 29.4014ZM202.483 30.4418L224.434 29.1324L224.317 27.1687L202.366 28.4781L202.483 30.4418ZM223.393 28.2091L224.713 50.3365L226.677 50.2193L225.357 28.092L223.393 28.2091ZM225.636 49.2961L159.519 53.2401L159.636 55.2038L225.754 51.2598L225.636 49.2961ZM160.559 54.1634L159.239 32.0361L157.276 32.1532L158.596 54.2806L160.559 54.1634ZM158.316 33.0765L180.268 31.767L180.15 29.8033L158.199 31.1128L158.316 33.0765ZM177.907 8.71605L179.227 30.8437L181.191 30.7266L179.871 8.59891L177.907 8.71605ZM156.996 10.9488L178.948 9.63933L178.83 7.67563L156.879 8.98511L156.996 10.9488ZM154.635 -12.1018L155.955 10.0255L157.919 9.90839L156.599 -12.219L154.635 -12.1018Z" fill="white"/>
<path d="M-38.4707 75.5903L21.5021 128.811L-35.0946 132.187L-38.4707 75.5903Z" stroke="white" stroke-width="1.96719"/>
<path d="M30.4707 118.988L-29.7823 65.5186L27.0788 62.1267L30.4707 118.988Z" stroke="white" stroke-width="1.96719"/>
<path d="M160.162 64.0088L220.135 117.229L163.538 120.605L160.162 64.0088Z" stroke="white" stroke-width="1.96719"/>
<path d="M229.104 107.406L168.85 53.9368L225.712 50.5449L229.104 107.406Z" stroke="white" stroke-width="1.96719"/>
<path d="M95.1591 91.1091C95.5476 97.6214 93.9962 104.103 90.7012 109.733C87.4062 115.364 82.5155 119.891 76.6476 122.742C70.7797 125.593 64.1982 126.64 57.7353 125.75C51.2723 124.861 45.2183 122.075 40.3388 117.745C35.4592 113.415 31.9733 107.735 30.3218 101.423C28.6703 95.112 28.9274 88.4527 31.0607 82.2874C33.1939 76.1222 37.1074 70.7281 42.3064 66.787C47.5053 62.846 53.7561 60.5352 60.2684 60.1467L62.2325 93.0733L95.1591 91.1091Z" stroke="white" stroke-width="1.96719"/>
<path d="M223.732 -16.2236L258.763 14.8631L289.85 -20.1677L293.794 45.9499L227.676 49.894L223.732 -16.2236Z" stroke="white" stroke-width="1.96719"/>
<path d="M325.538 21.9386L358.597 19.9666M324.223 -0.100556L357.282 -2.07259M357.282 -2.07259L355.967 -24.1118L289.85 -20.1677L293.794 45.9499L359.911 42.0058L358.597 19.9666M357.282 -2.07259L358.597 19.9666" stroke="white" stroke-width="1.96719"/>
<path d="M395.616 84.3764L428.675 82.4044M394.301 62.3372L427.36 60.3652M427.36 60.3652L426.045 38.326L359.928 42.27L363.872 108.388L429.989 104.444L428.675 82.4044M427.36 60.3652L428.675 82.4044" stroke="white" stroke-width="1.96719"/>
<path d="M355.967 -24.1108L389.026 -26.0829C407.283 -27.172 422.967 -13.254 424.056 5.00389V5.00389C425.146 23.2618 411.228 38.9456 392.97 40.0347L359.911 42.0068L355.967 -24.1108Z" stroke="white" stroke-width="1.96719"/>
<path d="M488.204 -31.9988L489.185 -32.0573L489.127 -33.0392L488.145 -32.9806L488.204 -31.9988ZM422.086 -28.0547L422.027 -29.0365L421.046 -28.978L421.104 -27.9961L422.086 -28.0547ZM489.523 -9.87139L489.582 -8.88954L490.564 -8.94811L490.505 -9.92996L489.523 -9.87139ZM467.573 -8.56199L467.514 -9.54384L466.532 -9.48527L466.591 -8.50342L467.573 -8.56199ZM468.893 13.5659L467.911 13.6244L467.97 14.6063L468.951 14.5477L468.893 13.5659ZM490.844 12.2565L491.825 12.1979L491.767 11.216L490.785 11.2746L490.844 12.2565ZM492.163 34.3838L492.222 35.3657L493.204 35.3071L493.145 34.3253L492.163 34.3838ZM426.046 38.3279L425.064 38.3865L425.123 39.3683L426.104 39.3097L426.046 38.3279ZM424.726 16.2005L424.667 15.2187L423.685 15.2772L423.744 16.2591L424.726 16.2005ZM446.677 14.8911L446.736 15.8729L447.718 15.8144L447.659 14.8325L446.677 14.8911ZM445.357 -7.23679L446.339 -7.29536L446.281 -8.27721L445.299 -8.21864L445.357 -7.23679ZM423.406 -5.92733L422.424 -5.86876L422.483 -4.88691L423.464 -4.94548L423.406 -5.92733ZM488.145 -32.9806L422.027 -29.0365L422.145 -27.0728L488.262 -31.0169L488.145 -32.9806ZM490.505 -9.92996L489.185 -32.0573L487.222 -31.9402L488.542 -9.81283L490.505 -9.92996ZM467.631 -7.58014L489.582 -8.88954L489.465 -10.8532L467.514 -9.54384L467.631 -7.58014ZM469.875 13.5073L468.555 -8.62056L466.591 -8.50342L467.911 13.6244L469.875 13.5073ZM468.951 14.5477L490.902 13.2383L490.785 11.2746L468.834 12.584L468.951 14.5477ZM489.862 12.315L491.182 34.4424L493.145 34.3253L491.825 12.1979L489.862 12.315ZM492.105 33.402L425.987 37.346L426.104 39.3097L492.222 35.3657L492.105 33.402ZM427.028 38.2693L425.708 16.142L423.744 16.2591L425.064 38.3865L427.028 38.2693ZM424.784 17.1824L446.736 15.8729L446.619 13.9092L424.667 15.2187L424.784 17.1824ZM444.376 -7.17822L445.696 14.9496L447.659 14.8325L446.339 -7.29536L444.376 -7.17822ZM423.464 -4.94548L445.416 -6.25493L445.299 -8.21864L423.347 -6.90918L423.464 -4.94548ZM421.104 -27.9961L422.424 -5.86876L424.388 -5.9859L423.068 -28.1133L421.104 -27.9961Z" fill="white"/>
<path d="M227.996 59.6948L287.969 112.915L231.372 116.291L227.996 59.6948Z" stroke="white" stroke-width="1.96719"/>
<path d="M296.938 103.092L236.684 49.6231L293.546 46.2312L296.938 103.092Z" stroke="white" stroke-width="1.96719"/>
<path d="M426.629 48.1106L486.602 101.331L430.005 104.707L426.629 48.1106Z" stroke="white" stroke-width="1.96719"/>
<path d="M495.57 91.5081L435.317 38.0388L492.178 34.6469L495.57 91.5081Z" stroke="white" stroke-width="1.96719"/>
<path d="M361.628 75.2124C362.016 81.7247 360.465 88.2059 357.17 93.8364C353.875 99.467 348.984 103.994 343.116 106.845C337.248 109.696 330.667 110.743 324.204 109.854C317.741 108.964 311.687 106.178 306.808 101.848C301.928 97.5178 298.442 91.8379 296.791 85.5266C295.139 79.2153 295.396 72.5559 297.529 66.3907C299.663 60.2255 303.576 54.8313 308.775 50.8903C313.974 46.9493 320.225 44.6384 326.737 44.25L328.701 77.1765L361.628 75.2124Z" stroke="white" stroke-width="1.96719"/>
<rect width="532.148" height="133" transform="translate(490 -0.3125) rotate(-3.41378)" fill="#F7F3FE"/>
<path d="M490.264 -0.327148L525.295 30.7596L556.381 -4.27122L560.325 61.8464L494.208 65.7905L490.264 -0.327148Z" stroke="white" stroke-width="1.96719"/>
<path d="M592.069 37.8342L625.128 35.8621M590.754 15.795L623.813 13.8229M623.813 13.8229L622.498 -8.21628L556.381 -4.27222L560.325 61.8454L626.443 57.9013L625.128 35.8621M623.813 13.8229L625.128 35.8621" stroke="white" stroke-width="1.96719"/>
<path d="M662.147 100.272L695.206 98.2999M660.832 78.2327L693.891 76.2607M693.891 76.2607L692.577 54.2215L626.459 58.1655L630.403 124.283L696.521 120.339L695.206 98.2999M693.891 76.2607L695.206 98.2999" stroke="white" stroke-width="1.96719"/>
<path d="M622.5 -8.21533L655.559 -10.1874C673.817 -11.2765 689.501 2.64154 690.59 20.8994V20.8994C691.679 39.1573 677.761 54.8411 659.503 55.9302L626.444 57.9023L622.5 -8.21533Z" stroke="white" stroke-width="1.96719"/>
<path d="M754.735 -16.1045L755.717 -16.163L755.658 -17.1449L754.676 -17.0863L754.735 -16.1045ZM688.617 -12.1604L688.559 -13.1423L687.577 -13.0837L687.635 -12.1018L688.617 -12.1604ZM756.055 6.02289L756.113 7.00474L757.095 6.94617L757.037 5.96432L756.055 6.02289ZM734.105 7.33227L734.046 6.35042L733.064 6.40899L733.123 7.39084L734.105 7.33227ZM735.424 29.46L734.443 29.5185L734.501 30.5004L735.483 30.4418L735.424 29.46ZM757.375 28.1506L758.357 28.092L758.298 27.1101L757.317 27.1687L757.375 28.1506ZM758.695 50.2779L758.754 51.2598L759.735 51.2012L759.677 50.2193L758.695 50.2779ZM692.577 54.222L691.596 54.2806L691.654 55.2624L692.636 55.2038L692.577 54.222ZM691.258 32.0946L691.199 31.1128L690.217 31.1713L690.276 32.1532L691.258 32.0946ZM713.209 30.7852L713.268 31.767L714.249 31.7084L714.191 30.7266L713.209 30.7852ZM711.889 8.65748L712.871 8.59891L712.812 7.61706L711.83 7.67563L711.889 8.65748ZM689.937 9.96696L688.955 10.0255L689.014 11.0074L689.996 10.9488L689.937 9.96696ZM754.676 -17.0863L688.559 -13.1423L688.676 -11.1785L754.793 -15.1226L754.676 -17.0863ZM757.037 5.96432L755.717 -16.163L753.753 -16.0459L755.073 6.08146L757.037 5.96432ZM734.163 8.31412L756.113 7.00474L755.996 5.04104L734.046 6.35042L734.163 8.31412ZM736.406 29.4014L735.086 7.2737L733.123 7.39084L734.443 29.5185L736.406 29.4014ZM735.483 30.4418L757.434 29.1324L757.317 27.1687L735.366 28.4781L735.483 30.4418ZM756.393 28.2091L757.713 50.3365L759.677 50.2193L758.357 28.092L756.393 28.2091ZM758.636 49.2961L692.519 53.2401L692.636 55.2038L758.754 51.2598L758.636 49.2961ZM693.559 54.1634L692.239 32.0361L690.276 32.1532L691.596 54.2806L693.559 54.1634ZM691.316 33.0765L713.268 31.767L713.15 29.8033L691.199 31.1128L691.316 33.0765ZM710.907 8.71605L712.227 30.8437L714.191 30.7266L712.871 8.59891L710.907 8.71605ZM689.996 10.9488L711.948 9.63933L711.83 7.67563L689.879 8.98511L689.996 10.9488ZM687.635 -12.1018L688.955 10.0255L690.919 9.90839L689.599 -12.219L687.635 -12.1018Z" fill="white"/>
<path d="M494.529 75.5903L554.502 128.811L497.905 132.187L494.529 75.5903Z" stroke="white" stroke-width="1.96719"/>
<path d="M563.471 118.988L503.218 65.5186L560.079 62.1267L563.471 118.988Z" stroke="white" stroke-width="1.96719"/>
<path d="M693.162 64.0088L753.135 117.229L696.538 120.605L693.162 64.0088Z" stroke="white" stroke-width="1.96719"/>
<path d="M762.104 107.406L701.85 53.9368L758.712 50.5449L762.104 107.406Z" stroke="white" stroke-width="1.96719"/>
<path d="M628.159 91.1091C628.548 97.6214 626.996 104.103 623.701 109.733C620.406 115.364 615.515 119.891 609.648 122.742C603.78 125.593 597.198 126.64 590.735 125.75C584.272 124.861 578.218 122.075 573.339 117.745C568.459 113.415 564.973 107.735 563.322 101.423C561.67 95.112 561.927 88.4527 564.061 82.2874C566.194 76.1222 570.107 70.7281 575.306 66.787C580.505 62.846 586.756 60.5352 593.268 60.1467L595.233 93.0733L628.159 91.1091Z" stroke="white" stroke-width="1.96719"/>
<path d="M756.732 -16.2236L791.763 14.8631L822.85 -20.1677L826.794 45.9499L760.676 49.894L756.732 -16.2236Z" stroke="white" stroke-width="1.96719"/>
<path d="M858.538 21.9386L891.597 19.9666M857.223 -0.100556L890.282 -2.07259M890.282 -2.07259L888.967 -24.1118L822.85 -20.1677L826.794 45.9499L892.911 42.0058L891.597 19.9666M890.282 -2.07259L891.597 19.9666" stroke="white" stroke-width="1.96719"/>
<path d="M928.616 84.3764L961.675 82.4044M927.301 62.3372L960.36 60.3652M960.36 60.3652L959.045 38.326L892.928 42.27L896.872 108.388L962.989 104.444L961.675 82.4044M960.36 60.3652L961.675 82.4044" stroke="white" stroke-width="1.96719"/>
<path d="M888.967 -24.1108L922.026 -26.0829C940.283 -27.172 955.967 -13.254 957.056 5.00389V5.00389C958.146 23.2618 944.228 38.9456 925.97 40.0347L892.911 42.0068L888.967 -24.1108Z" stroke="white" stroke-width="1.96719"/>
<path d="M1021.2 -31.9988L1022.19 -32.0573L1022.13 -33.0392L1021.14 -32.9806L1021.2 -31.9988ZM955.086 -28.0547L955.027 -29.0365L954.046 -28.978L954.104 -27.9961L955.086 -28.0547ZM1022.52 -9.87139L1022.58 -8.88954L1023.56 -8.94811L1023.51 -9.92996L1022.52 -9.87139ZM1000.57 -8.56199L1000.51 -9.54384L999.532 -9.48527L999.591 -8.50342L1000.57 -8.56199ZM1001.89 13.5659L1000.91 13.6244L1000.97 14.6063L1001.95 14.5477L1001.89 13.5659ZM1023.84 12.2565L1024.83 12.1979L1024.77 11.216L1023.78 11.2746L1023.84 12.2565ZM1025.16 34.3838L1025.22 35.3657L1026.2 35.3071L1026.15 34.3253L1025.16 34.3838ZM959.046 38.3279L958.064 38.3865L958.123 39.3683L959.104 39.3097L959.046 38.3279ZM957.726 16.2005L957.667 15.2187L956.685 15.2772L956.744 16.2591L957.726 16.2005ZM979.677 14.8911L979.736 15.8729L980.718 15.8144L980.659 14.8325L979.677 14.8911ZM978.357 -7.23679L979.339 -7.29536L979.281 -8.27721L978.299 -8.21864L978.357 -7.23679ZM956.406 -5.92733L955.424 -5.86876L955.483 -4.88691L956.464 -4.94548L956.406 -5.92733ZM1021.14 -32.9806L955.027 -29.0365L955.145 -27.0728L1021.26 -31.0169L1021.14 -32.9806ZM1023.51 -9.92996L1022.19 -32.0573L1020.22 -31.9402L1021.54 -9.81283L1023.51 -9.92996ZM1000.63 -7.58014L1022.58 -8.88954L1022.46 -10.8532L1000.51 -9.54384L1000.63 -7.58014ZM1002.87 13.5073L1001.55 -8.62056L999.591 -8.50342L1000.91 13.6244L1002.87 13.5073ZM1001.95 14.5477L1023.9 13.2383L1023.78 11.2746L1001.83 12.584L1001.95 14.5477ZM1022.86 12.315L1024.18 34.4424L1026.15 34.3253L1024.83 12.1979L1022.86 12.315ZM1025.1 33.402L958.987 37.346L959.104 39.3097L1025.22 35.3657L1025.1 33.402ZM960.028 38.2693L958.708 16.142L956.744 16.2591L958.064 38.3865L960.028 38.2693ZM957.784 17.1824L979.736 15.8729L979.619 13.9092L957.667 15.2187L957.784 17.1824ZM977.376 -7.17822L978.696 14.9496L980.659 14.8325L979.339 -7.29536L977.376 -7.17822ZM956.464 -4.94548L978.416 -6.25493L978.299 -8.21864L956.347 -6.90918L956.464 -4.94548ZM954.104 -27.9961L955.424 -5.86876L957.388 -5.9859L956.068 -28.1133L954.104 -27.9961Z" fill="white"/>
<path d="M760.996 59.6948L820.969 112.915L764.372 116.291L760.996 59.6948Z" stroke="white" stroke-width="1.96719"/>
<path d="M829.938 103.092L769.684 49.6231L826.546 46.2312L829.938 103.092Z" stroke="white" stroke-width="1.96719"/>
<path d="M959.629 48.1106L1019.6 101.331L963.005 104.707L959.629 48.1106Z" stroke="white" stroke-width="1.96719"/>
<path d="M1028.57 91.5081L968.317 38.0388L1025.18 34.6469L1028.57 91.5081Z" stroke="white" stroke-width="1.96719"/>
<path d="M894.628 75.2124C895.016 81.7247 893.465 88.2059 890.17 93.8364C886.875 99.467 881.984 103.994 876.116 106.845C870.248 109.696 863.667 110.743 857.204 109.854C850.741 108.964 844.687 106.178 839.808 101.848C834.928 97.5178 831.442 91.8379 829.791 85.5266C828.139 79.2153 828.396 72.5559 830.529 66.3907C832.663 60.2255 836.576 54.8313 841.775 50.8903C846.974 46.9493 853.225 44.6384 859.737 44.25L861.701 77.1765L894.628 75.2124Z" stroke="white" stroke-width="1.96719"/>
<rect width="532.148" height="133" transform="translate(-36 135.688) rotate(-3.41378)" fill="#F7F3FE"/>
<path d="M-35.7363 135.673L-0.705491 166.76L30.3813 131.729L34.3253 197.846L-31.7923 201.79L-35.7363 135.673Z" stroke="white" stroke-width="1.96719"/>
<path d="M66.069 173.834L99.1278 171.862M64.7544 151.795L97.8132 149.823M97.8132 149.823L96.4985 127.784L30.3809 131.728L34.3249 197.845L100.443 193.901L99.1278 171.862M97.8132 149.823L99.1278 171.862" stroke="white" stroke-width="1.96719"/>
<path d="M136.147 236.272L169.206 234.3M134.832 214.233L167.891 212.261M167.891 212.261L166.577 190.221L100.459 194.166L104.403 260.283L170.521 256.339L169.206 234.3M167.891 212.261L169.206 234.3" stroke="white" stroke-width="1.96719"/>
<path d="M96.5 127.785L129.559 125.813C147.817 124.724 163.501 138.642 164.59 156.899V156.899C165.679 175.157 151.761 190.841 133.503 191.93L100.444 193.902L96.5 127.785Z" stroke="white" stroke-width="1.96719"/>
<path d="M228.735 119.896L229.717 119.837L229.658 118.855L228.676 118.914L228.735 119.896ZM162.617 123.84L162.559 122.858L161.577 122.916L161.635 123.898L162.617 123.84ZM230.055 142.023L230.113 143.005L231.095 142.946L231.037 141.964L230.055 142.023ZM208.105 143.332L208.046 142.35L207.064 142.409L207.123 143.391L208.105 143.332ZM209.424 165.46L208.443 165.519L208.501 166.5L209.483 166.442L209.424 165.46ZM231.375 164.151L232.357 164.092L232.298 163.11L231.317 163.169L231.375 164.151ZM232.695 186.278L232.754 187.26L233.735 187.201L233.677 186.219L232.695 186.278ZM166.577 190.222L165.596 190.281L165.654 191.262L166.636 191.204L166.577 190.222ZM165.258 168.095L165.199 167.113L164.217 167.171L164.276 168.153L165.258 168.095ZM187.209 166.785L187.268 167.767L188.249 167.708L188.191 166.727L187.209 166.785ZM185.889 144.657L186.871 144.599L186.812 143.617L185.83 143.676L185.889 144.657ZM163.937 145.967L162.955 146.026L163.014 147.007L163.996 146.949L163.937 145.967ZM228.676 118.914L162.559 122.858L162.676 124.821L228.793 120.877L228.676 118.914ZM231.037 141.964L229.717 119.837L227.753 119.954L229.073 142.081L231.037 141.964ZM208.163 144.314L230.113 143.005L229.996 141.041L208.046 142.35L208.163 144.314ZM210.406 165.401L209.086 143.274L207.123 143.391L208.443 165.519L210.406 165.401ZM209.483 166.442L231.434 165.132L231.317 163.169L209.366 164.478L209.483 166.442ZM230.393 164.209L231.713 186.336L233.677 186.219L232.357 164.092L230.393 164.209ZM232.636 185.296L166.519 189.24L166.636 191.204L232.754 187.26L232.636 185.296ZM167.559 190.163L166.239 168.036L164.276 168.153L165.596 190.281L167.559 190.163ZM165.316 169.076L187.268 167.767L187.15 165.803L165.199 167.113L165.316 169.076ZM184.907 144.716L186.227 166.844L188.191 166.727L186.871 144.599L184.907 144.716ZM163.996 146.949L185.948 145.639L185.83 143.676L163.879 144.985L163.996 146.949ZM161.635 123.898L162.955 146.026L164.919 145.908L163.599 123.781L161.635 123.898Z" fill="white"/>
<path d="M-31.4707 211.59L28.5021 264.811L-28.0946 268.187L-31.4707 211.59Z" stroke="white" stroke-width="1.96719"/>
<path d="M37.4707 254.988L-22.7823 201.519L34.0788 198.127L37.4707 254.988Z" stroke="white" stroke-width="1.96719"/>
<path d="M167.162 200.009L227.135 253.229L170.538 256.605L167.162 200.009Z" stroke="white" stroke-width="1.96719"/>
<path d="M236.104 243.406L175.85 189.937L232.712 186.545L236.104 243.406Z" stroke="white" stroke-width="1.96719"/>
<path d="M102.159 227.109C102.548 233.621 100.996 240.103 97.7012 245.733C94.4062 251.364 89.5155 255.891 83.6476 258.742C77.7797 261.593 71.1982 262.64 64.7353 261.75C58.2723 260.861 52.2183 258.075 47.3388 253.745C42.4592 249.415 38.9733 243.735 37.3218 237.423C35.6703 231.112 35.9274 224.453 38.0607 218.287C40.1939 212.122 44.1074 206.728 49.3064 202.787C54.5053 198.846 60.7561 196.535 67.2684 196.147L69.2325 229.073L102.159 227.109Z" stroke="white" stroke-width="1.96719"/>
<path d="M230.732 119.776L265.763 150.863L296.85 115.832L300.794 181.95L234.676 185.894L230.732 119.776Z" stroke="white" stroke-width="1.96719"/>
<path d="M332.538 157.939L365.597 155.967M331.223 135.899L364.282 133.927M364.282 133.927L362.967 111.888L296.85 115.832L300.794 181.95L366.911 178.006L365.597 155.967M364.282 133.927L365.597 155.967" stroke="white" stroke-width="1.96719"/>
<path d="M402.616 220.376L435.675 218.404M401.301 198.337L434.36 196.365M434.36 196.365L433.045 174.326L366.928 178.27L370.872 244.388L436.989 240.444L435.675 218.404M434.36 196.365L435.675 218.404" stroke="white" stroke-width="1.96719"/>
<path d="M362.967 111.889L396.026 109.917C414.283 108.828 429.967 122.746 431.056 141.004V141.004C432.146 159.262 418.228 174.946 399.97 176.035L366.911 178.007L362.967 111.889Z" stroke="white" stroke-width="1.96719"/>
<path d="M495.204 104.001L496.185 103.943L496.127 102.961L495.145 103.019L495.204 104.001ZM429.086 107.945L429.027 106.963L428.046 107.022L428.104 108.004L429.086 107.945ZM496.523 126.129L496.582 127.11L497.564 127.052L497.505 126.07L496.523 126.129ZM474.573 127.438L474.514 126.456L473.532 126.515L473.591 127.497L474.573 127.438ZM475.893 149.566L474.911 149.624L474.97 150.606L475.951 150.548L475.893 149.566ZM497.844 148.256L498.825 148.198L498.767 147.216L497.785 147.275L497.844 148.256ZM499.163 170.384L499.222 171.366L500.204 171.307L500.145 170.325L499.163 170.384ZM433.046 174.328L432.064 174.386L432.123 175.368L433.104 175.31L433.046 174.328ZM431.726 152.201L431.667 151.219L430.685 151.277L430.744 152.259L431.726 152.201ZM453.677 150.891L453.736 151.873L454.718 151.814L454.659 150.833L453.677 150.891ZM452.357 128.763L453.339 128.705L453.281 127.723L452.299 127.781L452.357 128.763ZM430.406 130.073L429.424 130.131L429.483 131.113L430.464 131.055L430.406 130.073ZM495.145 103.019L429.027 106.963L429.145 108.927L495.262 104.983L495.145 103.019ZM497.505 126.07L496.185 103.943L494.222 104.06L495.542 126.187L497.505 126.07ZM474.631 128.42L496.582 127.11L496.465 125.147L474.514 126.456L474.631 128.42ZM476.875 149.507L475.555 127.379L473.591 127.497L474.911 149.624L476.875 149.507ZM475.951 150.548L497.902 149.238L497.785 147.275L475.834 148.584L475.951 150.548ZM496.862 148.315L498.182 170.442L500.145 170.325L498.825 148.198L496.862 148.315ZM499.105 169.402L432.987 173.346L433.104 175.31L499.222 171.366L499.105 169.402ZM434.028 174.269L432.708 152.142L430.744 152.259L432.064 174.386L434.028 174.269ZM431.784 153.182L453.736 151.873L453.619 149.909L431.667 151.219L431.784 153.182ZM451.376 128.822L452.696 150.95L454.659 150.833L453.339 128.705L451.376 128.822ZM430.464 131.055L452.416 129.745L452.299 127.781L430.347 129.091L430.464 131.055ZM428.104 108.004L429.424 130.131L431.388 130.014L430.068 107.887L428.104 108.004Z" fill="white"/>
<path d="M234.996 195.695L294.969 248.915L238.372 252.291L234.996 195.695Z" stroke="white" stroke-width="1.96719"/>
<path d="M303.938 239.092L243.684 185.623L300.546 182.231L303.938 239.092Z" stroke="white" stroke-width="1.96719"/>
<path d="M433.629 184.111L493.602 237.331L437.005 240.707L433.629 184.111Z" stroke="white" stroke-width="1.96719"/>
<path d="M502.57 227.508L442.317 174.039L499.178 170.647L502.57 227.508Z" stroke="white" stroke-width="1.96719"/>
<path d="M368.628 211.212C369.016 217.725 367.465 224.206 364.17 229.836C360.875 235.467 355.984 239.994 350.116 242.845C344.248 245.696 337.667 246.743 331.204 245.854C324.741 244.964 318.687 242.178 313.808 237.848C308.928 233.518 305.442 227.838 303.791 221.527C302.139 215.215 302.396 208.556 304.529 202.391C306.663 196.226 310.576 190.831 315.775 186.89C320.974 182.949 327.225 180.638 333.737 180.25L335.701 213.177L368.628 211.212Z" stroke="white" stroke-width="1.96719"/>
<rect width="532.148" height="133" transform="translate(497 135.688) rotate(-3.41378)" fill="#F7F3FE"/>
<path d="M497.264 135.673L532.295 166.76L563.381 131.729L567.325 197.846L501.208 201.79L497.264 135.673Z" stroke="white" stroke-width="1.96719"/>
<path d="M599.069 173.834L632.128 171.862M597.754 151.795L630.813 149.823M630.813 149.823L629.498 127.784L563.381 131.728L567.325 197.845L633.443 193.901L632.128 171.862M630.813 149.823L632.128 171.862" stroke="white" stroke-width="1.96719"/>
<path d="M669.147 236.272L702.206 234.3M667.832 214.233L700.891 212.261M700.891 212.261L699.577 190.221L633.459 194.166L637.403 260.283L703.521 256.339L702.206 234.3M700.891 212.261L702.206 234.3" stroke="white" stroke-width="1.96719"/>
<path d="M629.5 127.785L662.559 125.813C680.817 124.724 696.501 138.642 697.59 156.899V156.899C698.679 175.157 684.761 190.841 666.503 191.93L633.444 193.902L629.5 127.785Z" stroke="white" stroke-width="1.96719"/>
<path d="M761.735 119.896L762.717 119.837L762.658 118.855L761.676 118.914L761.735 119.896ZM695.617 123.84L695.559 122.858L694.577 122.916L694.635 123.898L695.617 123.84ZM763.055 142.023L763.113 143.005L764.095 142.946L764.037 141.964L763.055 142.023ZM741.105 143.332L741.046 142.35L740.064 142.409L740.123 143.391L741.105 143.332ZM742.424 165.46L741.443 165.519L741.501 166.5L742.483 166.442L742.424 165.46ZM764.375 164.151L765.357 164.092L765.298 163.11L764.317 163.169L764.375 164.151ZM765.695 186.278L765.754 187.26L766.735 187.201L766.677 186.219L765.695 186.278ZM699.577 190.222L698.596 190.281L698.654 191.262L699.636 191.204L699.577 190.222ZM698.258 168.095L698.199 167.113L697.217 167.171L697.276 168.153L698.258 168.095ZM720.209 166.785L720.268 167.767L721.249 167.708L721.191 166.727L720.209 166.785ZM718.889 144.657L719.871 144.599L719.812 143.617L718.83 143.676L718.889 144.657ZM696.937 145.967L695.955 146.026L696.014 147.007L696.996 146.949L696.937 145.967ZM761.676 118.914L695.559 122.858L695.676 124.821L761.793 120.877L761.676 118.914ZM764.037 141.964L762.717 119.837L760.753 119.954L762.073 142.081L764.037 141.964ZM741.163 144.314L763.113 143.005L762.996 141.041L741.046 142.35L741.163 144.314ZM743.406 165.401L742.086 143.274L740.123 143.391L741.443 165.519L743.406 165.401ZM742.483 166.442L764.434 165.132L764.317 163.169L742.366 164.478L742.483 166.442ZM763.393 164.209L764.713 186.336L766.677 186.219L765.357 164.092L763.393 164.209ZM765.636 185.296L699.519 189.24L699.636 191.204L765.754 187.26L765.636 185.296ZM700.559 190.163L699.239 168.036L697.276 168.153L698.596 190.281L700.559 190.163ZM698.316 169.076L720.268 167.767L720.15 165.803L698.199 167.113L698.316 169.076ZM717.907 144.716L719.227 166.844L721.191 166.727L719.871 144.599L717.907 144.716ZM696.996 146.949L718.948 145.639L718.83 143.676L696.879 144.985L696.996 146.949ZM694.635 123.898L695.955 146.026L697.919 145.908L696.599 123.781L694.635 123.898Z" fill="white"/>
<path d="M501.529 211.59L561.502 264.811L504.905 268.187L501.529 211.59Z" stroke="white" stroke-width="1.96719"/>
<path d="M570.471 254.988L510.218 201.519L567.079 198.127L570.471 254.988Z" stroke="white" stroke-width="1.96719"/>
<path d="M700.162 200.009L760.135 253.229L703.538 256.605L700.162 200.009Z" stroke="white" stroke-width="1.96719"/>
<path d="M769.104 243.406L708.85 189.937L765.712 186.545L769.104 243.406Z" stroke="white" stroke-width="1.96719"/>
<path d="M635.159 227.109C635.548 233.621 633.996 240.103 630.701 245.733C627.406 251.364 622.515 255.891 616.648 258.742C610.78 261.593 604.198 262.64 597.735 261.75C591.272 260.861 585.218 258.075 580.339 253.745C575.459 249.415 571.973 243.735 570.322 237.423C568.67 231.112 568.927 224.453 571.061 218.287C573.194 212.122 577.107 206.728 582.306 202.787C587.505 198.846 593.756 196.535 600.268 196.147L602.233 229.073L635.159 227.109Z" stroke="white" stroke-width="1.96719"/>
<path d="M763.732 119.776L798.763 150.863L829.85 115.832L833.794 181.95L767.676 185.894L763.732 119.776Z" stroke="white" stroke-width="1.96719"/>
<path d="M865.538 157.939L898.597 155.967M864.223 135.899L897.282 133.927M897.282 133.927L895.967 111.888L829.85 115.832L833.794 181.95L899.911 178.006L898.597 155.967M897.282 133.927L898.597 155.967" stroke="white" stroke-width="1.96719"/>
<path d="M935.616 220.376L968.675 218.404M934.301 198.337L967.36 196.365M967.36 196.365L966.045 174.326L899.928 178.27L903.872 244.388L969.989 240.444L968.675 218.404M967.36 196.365L968.675 218.404" stroke="white" stroke-width="1.96719"/>
<path d="M895.967 111.889L929.026 109.917C947.283 108.828 962.967 122.746 964.056 141.004V141.004C965.146 159.262 951.228 174.946 932.97 176.035L899.911 178.007L895.967 111.889Z" stroke="white" stroke-width="1.96719"/>
<path d="M1028.2 104.001L1029.19 103.943L1029.13 102.961L1028.14 103.019L1028.2 104.001ZM962.086 107.945L962.027 106.963L961.046 107.022L961.104 108.004L962.086 107.945ZM1029.52 126.129L1029.58 127.11L1030.56 127.052L1030.51 126.07L1029.52 126.129ZM1007.57 127.438L1007.51 126.456L1006.53 126.515L1006.59 127.497L1007.57 127.438ZM1008.89 149.566L1007.91 149.624L1007.97 150.606L1008.95 150.548L1008.89 149.566ZM1030.84 148.256L1031.83 148.198L1031.77 147.216L1030.78 147.275L1030.84 148.256ZM1032.16 170.384L1032.22 171.366L1033.2 171.307L1033.15 170.325L1032.16 170.384ZM966.046 174.328L965.064 174.386L965.123 175.368L966.104 175.31L966.046 174.328ZM964.726 152.201L964.667 151.219L963.685 151.277L963.744 152.259L964.726 152.201ZM986.677 150.891L986.736 151.873L987.718 151.814L987.659 150.833L986.677 150.891ZM985.357 128.763L986.339 128.705L986.281 127.723L985.299 127.781L985.357 128.763ZM963.406 130.073L962.424 130.131L962.483 131.113L963.464 131.055L963.406 130.073ZM1028.14 103.019L962.027 106.963L962.145 108.927L1028.26 104.983L1028.14 103.019ZM1030.51 126.07L1029.19 103.943L1027.22 104.06L1028.54 126.187L1030.51 126.07ZM1007.63 128.42L1029.58 127.11L1029.46 125.147L1007.51 126.456L1007.63 128.42ZM1009.87 149.507L1008.55 127.379L1006.59 127.497L1007.91 149.624L1009.87 149.507ZM1008.95 150.548L1030.9 149.238L1030.78 147.275L1008.83 148.584L1008.95 150.548ZM1029.86 148.315L1031.18 170.442L1033.15 170.325L1031.83 148.198L1029.86 148.315ZM1032.1 169.402L965.987 173.346L966.104 175.31L1032.22 171.366L1032.1 169.402ZM967.028 174.269L965.708 152.142L963.744 152.259L965.064 174.386L967.028 174.269ZM964.784 153.182L986.736 151.873L986.619 149.909L964.667 151.219L964.784 153.182ZM984.376 128.822L985.696 150.95L987.659 150.833L986.339 128.705L984.376 128.822ZM963.464 131.055L985.416 129.745L985.299 127.781L963.347 129.091L963.464 131.055ZM961.104 108.004L962.424 130.131L964.388 130.014L963.068 107.887L961.104 108.004Z" fill="white"/>
<path d="M767.996 195.695L827.969 248.915L771.372 252.291L767.996 195.695Z" stroke="white" stroke-width="1.96719"/>
<path d="M836.938 239.092L776.684 185.623L833.546 182.231L836.938 239.092Z" stroke="white" stroke-width="1.96719"/>
<path d="M966.629 184.111L1026.6 237.331L970.005 240.707L966.629 184.111Z" stroke="white" stroke-width="1.96719"/>
<path d="M1035.57 227.508L975.317 174.039L1032.18 170.647L1035.57 227.508Z" stroke="white" stroke-width="1.96719"/>
<path d="M901.628 211.212C902.016 217.725 900.465 224.206 897.17 229.836C893.875 235.467 888.984 239.994 883.116 242.845C877.248 245.696 870.667 246.743 864.204 245.854C857.741 244.964 851.687 242.178 846.808 237.848C841.928 233.518 838.442 227.838 836.791 221.527C835.139 215.215 835.396 208.556 837.529 202.391C839.663 196.226 843.576 190.831 848.775 186.89C853.974 182.949 860.225 180.638 866.737 180.25L868.701 213.177L901.628 211.212Z" stroke="white" stroke-width="1.96719"/>
<rect width="532.148" height="133" transform="translate(1026 -0.3125) rotate(-3.41378)" fill="#F7F3FE"/>
<path d="M1026.26 -0.327148L1061.29 30.7596L1092.38 -4.27122L1096.33 61.8464L1030.21 65.7905L1026.26 -0.327148Z" stroke="white" stroke-width="1.96719"/>
<path d="M1128.07 37.8342L1161.13 35.8621M1126.75 15.795L1159.81 13.8229M1159.81 13.8229L1158.5 -8.21628L1092.38 -4.27222L1096.32 61.8454L1162.44 57.9013L1161.13 35.8621M1159.81 13.8229L1161.13 35.8621" stroke="white" stroke-width="1.96719"/>
<path d="M1198.15 100.272L1231.21 98.2999M1196.83 78.2327L1229.89 76.2607M1229.89 76.2607L1228.58 54.2215L1162.46 58.1655L1166.4 124.283L1232.52 120.339L1231.21 98.2999M1229.89 76.2607L1231.21 98.2999" stroke="white" stroke-width="1.96719"/>
<path d="M1158.5 -8.21533L1191.56 -10.1874C1209.82 -11.2765 1225.5 2.64154 1226.59 20.8994V20.8994C1227.68 39.1573 1213.76 54.8411 1195.5 55.9302L1162.44 57.9023L1158.5 -8.21533Z" stroke="white" stroke-width="1.96719"/>
<path d="M1290.73 -16.1045L1291.72 -16.163L1291.66 -17.1449L1290.68 -17.0863L1290.73 -16.1045ZM1224.62 -12.1604L1224.56 -13.1423L1223.58 -13.0837L1223.64 -12.1018L1224.62 -12.1604ZM1292.05 6.02289L1292.11 7.00474L1293.1 6.94617L1293.04 5.96432L1292.05 6.02289ZM1270.1 7.33227L1270.05 6.35042L1269.06 6.40899L1269.12 7.39084L1270.1 7.33227ZM1271.42 29.46L1270.44 29.5185L1270.5 30.5004L1271.48 30.4418L1271.42 29.46ZM1293.38 28.1506L1294.36 28.092L1294.3 27.1101L1293.32 27.1687L1293.38 28.1506ZM1294.7 50.2779L1294.75 51.2598L1295.74 51.2012L1295.68 50.2193L1294.7 50.2779ZM1228.58 54.222L1227.6 54.2806L1227.65 55.2624L1228.64 55.2038L1228.58 54.222ZM1227.26 32.0946L1227.2 31.1128L1226.22 31.1713L1226.28 32.1532L1227.26 32.0946ZM1249.21 30.7852L1249.27 31.767L1250.25 31.7084L1250.19 30.7266L1249.21 30.7852ZM1247.89 8.65748L1248.87 8.59891L1248.81 7.61706L1247.83 7.67563L1247.89 8.65748ZM1225.94 9.96696L1224.96 10.0255L1225.01 11.0074L1226 10.9488L1225.94 9.96696ZM1290.68 -17.0863L1224.56 -13.1423L1224.68 -11.1785L1290.79 -15.1226L1290.68 -17.0863ZM1293.04 5.96432L1291.72 -16.163L1289.75 -16.0459L1291.07 6.08146L1293.04 5.96432ZM1270.16 8.31412L1292.11 7.00474L1292 5.04104L1270.05 6.35042L1270.16 8.31412ZM1272.41 29.4014L1271.09 7.2737L1269.12 7.39084L1270.44 29.5185L1272.41 29.4014ZM1271.48 30.4418L1293.43 29.1324L1293.32 27.1687L1271.37 28.4781L1271.48 30.4418ZM1292.39 28.2091L1293.71 50.3365L1295.68 50.2193L1294.36 28.092L1292.39 28.2091ZM1294.64 49.2961L1228.52 53.2401L1228.64 55.2038L1294.75 51.2598L1294.64 49.2961ZM1229.56 54.1634L1228.24 32.0361L1226.28 32.1532L1227.6 54.2806L1229.56 54.1634ZM1227.32 33.0765L1249.27 31.767L1249.15 29.8033L1227.2 31.1128L1227.32 33.0765ZM1246.91 8.71605L1248.23 30.8437L1250.19 30.7266L1248.87 8.59891L1246.91 8.71605ZM1226 10.9488L1247.95 9.63933L1247.83 7.67563L1225.88 8.98511L1226 10.9488ZM1223.64 -12.1018L1224.96 10.0255L1226.92 9.90839L1225.6 -12.219L1223.64 -12.1018Z" fill="white"/>
<path d="M1030.53 75.5903L1090.5 128.811L1033.91 132.187L1030.53 75.5903Z" stroke="white" stroke-width="1.96719"/>
<path d="M1099.47 118.988L1039.22 65.5186L1096.08 62.1267L1099.47 118.988Z" stroke="white" stroke-width="1.96719"/>
<path d="M1229.16 64.0088L1289.13 117.229L1232.54 120.605L1229.16 64.0088Z" stroke="white" stroke-width="1.96719"/>
<path d="M1298.1 107.406L1237.85 53.9368L1294.71 50.5449L1298.1 107.406Z" stroke="white" stroke-width="1.96719"/>
<path d="M1164.16 91.1091C1164.55 97.6214 1163 104.103 1159.7 109.733C1156.41 115.364 1151.52 119.891 1145.65 122.742C1139.78 125.593 1133.2 126.64 1126.74 125.75C1120.27 124.861 1114.22 122.075 1109.34 117.745C1104.46 113.415 1100.97 107.735 1099.32 101.423C1097.67 95.112 1097.93 88.4527 1100.06 82.2874C1102.19 76.1222 1106.11 70.7281 1111.31 66.787C1116.51 62.846 1122.76 60.5352 1129.27 60.1467L1131.23 93.0733L1164.16 91.1091Z" stroke="white" stroke-width="1.96719"/>
<path d="M1292.73 -16.2236L1327.76 14.8631L1358.85 -20.1677L1362.79 45.9499L1296.68 49.894L1292.73 -16.2236Z" stroke="white" stroke-width="1.96719"/>
<path d="M1394.54 21.9386L1427.6 19.9666M1393.22 -0.100556L1426.28 -2.07259M1426.28 -2.07259L1424.97 -24.1118L1358.85 -20.1677L1362.79 45.9499L1428.91 42.0058L1427.6 19.9666M1426.28 -2.07259L1427.6 19.9666" stroke="white" stroke-width="1.96719"/>
<path d="M1297 59.6948L1356.97 112.915L1300.37 116.291L1297 59.6948Z" stroke="white" stroke-width="1.96719"/>
<path d="M1365.94 103.092L1305.68 49.6231L1362.55 46.2312L1365.94 103.092Z" stroke="white" stroke-width="1.96719"/>
<path d="M1430.63 75.2124C1431.02 81.7247 1429.46 88.2059 1426.17 93.8364C1422.87 99.467 1417.98 103.994 1412.12 106.845C1406.25 109.696 1399.67 110.743 1393.2 109.854C1386.74 108.964 1380.69 106.178 1375.81 101.848C1370.93 97.5178 1367.44 91.8379 1365.79 85.5266C1364.14 79.2153 1364.4 72.5559 1366.53 66.3907C1368.66 60.2255 1372.58 54.8313 1377.78 50.8903C1382.97 46.9493 1389.22 44.6384 1395.74 44.25L1397.7 77.1765L1430.63 75.2124Z" stroke="white" stroke-width="1.96719"/>
<rect width="532.148" height="133" transform="translate(1033 135.688) rotate(-3.41378)" fill="#F7F3FE"/>
<path d="M1033.26 135.673L1068.29 166.76L1099.38 131.729L1103.33 197.846L1037.21 201.79L1033.26 135.673Z" stroke="white" stroke-width="1.96719"/>
<path d="M1135.07 173.834L1168.13 171.862M1133.75 151.795L1166.81 149.823M1166.81 149.823L1165.5 127.784L1099.38 131.728L1103.32 197.845L1169.44 193.901L1168.13 171.862M1166.81 149.823L1168.13 171.862" stroke="white" stroke-width="1.96719"/>
<path d="M1205.15 236.272L1238.21 234.3M1203.83 214.233L1236.89 212.261M1236.89 212.261L1235.58 190.221L1169.46 194.166L1173.4 260.283L1239.52 256.339L1238.21 234.3M1236.89 212.261L1238.21 234.3" stroke="white" stroke-width="1.96719"/>
<path d="M1165.5 127.785L1198.56 125.813C1216.82 124.724 1232.5 138.642 1233.59 156.899V156.899C1234.68 175.157 1220.76 190.841 1202.5 191.93L1169.44 193.902L1165.5 127.785Z" stroke="white" stroke-width="1.96719"/>
<path d="M1297.73 119.896L1298.72 119.837L1298.66 118.855L1297.68 118.914L1297.73 119.896ZM1231.62 123.84L1231.56 122.858L1230.58 122.916L1230.64 123.898L1231.62 123.84ZM1299.05 142.023L1299.11 143.005L1300.1 142.946L1300.04 141.964L1299.05 142.023ZM1277.1 143.332L1277.05 142.35L1276.06 142.409L1276.12 143.391L1277.1 143.332ZM1278.42 165.46L1277.44 165.519L1277.5 166.5L1278.48 166.442L1278.42 165.46ZM1300.38 164.151L1301.36 164.092L1301.3 163.11L1300.32 163.169L1300.38 164.151ZM1301.7 186.278L1301.75 187.26L1302.74 187.201L1302.68 186.219L1301.7 186.278ZM1235.58 190.222L1234.6 190.281L1234.65 191.262L1235.64 191.204L1235.58 190.222ZM1234.26 168.095L1234.2 167.113L1233.22 167.171L1233.28 168.153L1234.26 168.095ZM1256.21 166.785L1256.27 167.767L1257.25 167.708L1257.19 166.727L1256.21 166.785ZM1254.89 144.657L1255.87 144.599L1255.81 143.617L1254.83 143.676L1254.89 144.657ZM1232.94 145.967L1231.96 146.026L1232.01 147.007L1233 146.949L1232.94 145.967ZM1297.68 118.914L1231.56 122.858L1231.68 124.821L1297.79 120.877L1297.68 118.914ZM1300.04 141.964L1298.72 119.837L1296.75 119.954L1298.07 142.081L1300.04 141.964ZM1277.16 144.314L1299.11 143.005L1299 141.041L1277.05 142.35L1277.16 144.314ZM1279.41 165.401L1278.09 143.274L1276.12 143.391L1277.44 165.519L1279.41 165.401ZM1278.48 166.442L1300.43 165.132L1300.32 163.169L1278.37 164.478L1278.48 166.442ZM1299.39 164.209L1300.71 186.336L1302.68 186.219L1301.36 164.092L1299.39 164.209ZM1301.64 185.296L1235.52 189.24L1235.64 191.204L1301.75 187.26L1301.64 185.296ZM1236.56 190.163L1235.24 168.036L1233.28 168.153L1234.6 190.281L1236.56 190.163ZM1234.32 169.076L1256.27 167.767L1256.15 165.803L1234.2 167.113L1234.32 169.076ZM1253.91 144.716L1255.23 166.844L1257.19 166.727L1255.87 144.599L1253.91 144.716ZM1233 146.949L1254.95 145.639L1254.83 143.676L1232.88 144.985L1233 146.949ZM1230.64 123.898L1231.96 146.026L1233.92 145.908L1232.6 123.781L1230.64 123.898Z" fill="white"/>
<path d="M1037.53 211.59L1097.5 264.811L1040.91 268.187L1037.53 211.59Z" stroke="white" stroke-width="1.96719"/>
<path d="M1106.47 254.988L1046.22 201.519L1103.08 198.127L1106.47 254.988Z" stroke="white" stroke-width="1.96719"/>
<path d="M1236.16 200.009L1296.13 253.229L1239.54 256.605L1236.16 200.009Z" stroke="white" stroke-width="1.96719"/>
<path d="M1305.1 243.406L1244.85 189.937L1301.71 186.545L1305.1 243.406Z" stroke="white" stroke-width="1.96719"/>
<path d="M1171.16 227.109C1171.55 233.621 1170 240.103 1166.7 245.733C1163.41 251.364 1158.52 255.891 1152.65 258.742C1146.78 261.593 1140.2 262.64 1133.74 261.75C1127.27 260.861 1121.22 258.075 1116.34 253.745C1111.46 249.415 1107.97 243.735 1106.32 237.423C1104.67 231.112 1104.93 224.453 1107.06 218.287C1109.19 212.122 1113.11 206.728 1118.31 202.787C1123.51 198.846 1129.76 196.535 1136.27 196.147L1138.23 229.073L1171.16 227.109Z" stroke="white" stroke-width="1.96719"/>
<path d="M1299.73 119.776L1334.76 150.863L1365.85 115.832L1369.79 181.95L1303.68 185.894L1299.73 119.776Z" stroke="white" stroke-width="1.96719"/>
<path d="M1401.54 157.939L1434.6 155.967M1400.22 135.899L1433.28 133.927M1433.28 133.927L1431.97 111.888L1365.85 115.832L1369.79 181.95L1435.91 178.006L1434.6 155.967M1433.28 133.927L1434.6 155.967" stroke="white" stroke-width="1.96719"/>
<path d="M1304 195.695L1363.97 248.915L1307.37 252.291L1304 195.695Z" stroke="white" stroke-width="1.96719"/>
<path d="M1372.94 239.092L1312.68 185.623L1369.55 182.231L1372.94 239.092Z" stroke="white" stroke-width="1.96719"/>
<rect width="532.148" height="133" transform="translate(-36 269.688) rotate(-3.41378)" fill="#F7F3FE"/>
<path d="M96.5 261.785L129.559 259.813C147.817 258.724 163.501 272.642 164.59 290.899V290.899C165.679 309.157 151.761 324.841 133.503 325.93L100.444 327.902L96.5 261.785Z" stroke="white" stroke-width="1.96719"/>
<path d="M228.735 253.896L229.717 253.837L229.658 252.855L228.676 252.914L228.735 253.896ZM162.617 257.84L162.559 256.858L161.577 256.916L161.635 257.898L162.617 257.84ZM230.055 276.023L230.113 277.005L231.095 276.946L231.037 275.964L230.055 276.023ZM208.105 277.332L208.046 276.35L207.064 276.409L207.123 277.391L208.105 277.332ZM209.424 299.46L208.443 299.519L208.501 300.5L209.483 300.442L209.424 299.46ZM231.375 298.151L232.357 298.092L232.298 297.11L231.317 297.169L231.375 298.151ZM232.695 320.278L232.754 321.26L233.735 321.201L233.677 320.219L232.695 320.278ZM166.577 324.222L165.596 324.281L165.654 325.262L166.636 325.204L166.577 324.222ZM165.258 302.095L165.199 301.113L164.217 301.171L164.276 302.153L165.258 302.095ZM187.209 300.785L187.268 301.767L188.249 301.708L188.191 300.727L187.209 300.785ZM185.889 278.657L186.871 278.599L186.812 277.617L185.83 277.676L185.889 278.657ZM163.937 279.967L162.955 280.026L163.014 281.007L163.996 280.949L163.937 279.967ZM228.676 252.914L162.559 256.858L162.676 258.821L228.793 254.877L228.676 252.914ZM231.037 275.964L229.717 253.837L227.753 253.954L229.073 276.081L231.037 275.964ZM208.163 278.314L230.113 277.005L229.996 275.041L208.046 276.35L208.163 278.314ZM210.406 299.401L209.086 277.274L207.123 277.391L208.443 299.519L210.406 299.401ZM209.483 300.442L231.434 299.132L231.317 297.169L209.366 298.478L209.483 300.442ZM230.393 298.209L231.713 320.336L233.677 320.219L232.357 298.092L230.393 298.209ZM232.636 319.296L166.519 323.24L166.636 325.204L232.754 321.26L232.636 319.296ZM167.559 324.163L166.239 302.036L164.276 302.153L165.596 324.281L167.559 324.163ZM165.316 303.076L187.268 301.767L187.15 299.803L165.199 301.113L165.316 303.076ZM184.907 278.716L186.227 300.844L188.191 300.727L186.871 278.599L184.907 278.716ZM163.996 280.949L185.948 279.639L185.83 277.676L163.879 278.985L163.996 280.949ZM161.635 257.898L162.955 280.026L164.919 279.908L163.599 257.781L161.635 257.898Z" fill="white"/>
<path d="M230.732 253.776L265.763 284.863L296.85 249.832L300.794 315.95L234.676 319.894L230.732 253.776Z" stroke="white" stroke-width="1.96719"/>
<path d="M332.538 291.939L365.597 289.967M331.223 269.899L364.282 267.927M364.282 267.927L362.967 245.888L296.85 249.832L300.794 315.95L366.911 312.006L365.597 289.967M364.282 267.927L365.597 289.967" stroke="white" stroke-width="1.96719"/>
<path d="M362.967 245.889L396.026 243.917C414.283 242.828 429.967 256.746 431.056 275.004V275.004C432.146 293.262 418.228 308.946 399.97 310.035L366.911 312.007L362.967 245.889Z" stroke="white" stroke-width="1.96719"/>
<path d="M495.204 238.001L496.185 237.943L496.127 236.961L495.145 237.019L495.204 238.001ZM429.086 241.945L429.027 240.963L428.046 241.022L428.104 242.004L429.086 241.945ZM496.523 260.129L496.582 261.11L497.564 261.052L497.505 260.07L496.523 260.129ZM474.573 261.438L474.514 260.456L473.532 260.515L473.591 261.497L474.573 261.438ZM475.893 283.566L474.911 283.624L474.97 284.606L475.951 284.548L475.893 283.566ZM497.844 282.256L498.825 282.198L498.767 281.216L497.785 281.275L497.844 282.256ZM499.163 304.384L499.222 305.366L500.204 305.307L500.145 304.325L499.163 304.384ZM433.046 308.328L432.064 308.386L432.123 309.368L433.104 309.31L433.046 308.328ZM431.726 286.201L431.667 285.219L430.685 285.277L430.744 286.259L431.726 286.201ZM453.677 284.891L453.736 285.873L454.718 285.814L454.659 284.833L453.677 284.891ZM452.357 262.763L453.339 262.705L453.281 261.723L452.299 261.781L452.357 262.763ZM430.406 264.073L429.424 264.131L429.483 265.113L430.464 265.055L430.406 264.073ZM495.145 237.019L429.027 240.963L429.145 242.927L495.262 238.983L495.145 237.019ZM497.505 260.07L496.185 237.943L494.222 238.06L495.542 260.187L497.505 260.07ZM474.631 262.42L496.582 261.11L496.465 259.147L474.514 260.456L474.631 262.42ZM476.875 283.507L475.555 261.379L473.591 261.497L474.911 283.624L476.875 283.507ZM475.951 284.548L497.902 283.238L497.785 281.275L475.834 282.584L475.951 284.548ZM496.862 282.315L498.182 304.442L500.145 304.325L498.825 282.198L496.862 282.315ZM499.105 303.402L432.987 307.346L433.104 309.31L499.222 305.366L499.105 303.402ZM434.028 308.269L432.708 286.142L430.744 286.259L432.064 308.386L434.028 308.269ZM431.784 287.182L453.736 285.873L453.619 283.909L431.667 285.219L431.784 287.182ZM451.376 262.822L452.696 284.95L454.659 284.833L453.339 262.705L451.376 262.822ZM430.464 265.055L452.416 263.745L452.299 261.781L430.347 263.091L430.464 265.055ZM428.104 242.004L429.424 264.131L431.388 264.014L430.068 241.887L428.104 242.004Z" fill="white"/>
<rect width="532.148" height="133" transform="translate(497 269.688) rotate(-3.41378)" fill="#F7F3FE"/>
<path d="M629.5 261.785L662.559 259.813C680.817 258.724 696.501 272.642 697.59 290.899V290.899C698.679 309.157 684.761 324.841 666.503 325.93L633.444 327.902L629.5 261.785Z" stroke="white" stroke-width="1.96719"/>
<path d="M761.735 253.896L762.717 253.837L762.658 252.855L761.676 252.914L761.735 253.896ZM695.617 257.84L695.559 256.858L694.577 256.916L694.635 257.898L695.617 257.84ZM763.055 276.023L763.113 277.005L764.095 276.946L764.037 275.964L763.055 276.023ZM741.105 277.332L741.046 276.35L740.064 276.409L740.123 277.391L741.105 277.332ZM742.424 299.46L741.443 299.519L741.501 300.5L742.483 300.442L742.424 299.46ZM764.375 298.151L765.357 298.092L765.298 297.11L764.317 297.169L764.375 298.151ZM765.695 320.278L765.754 321.26L766.735 321.201L766.677 320.219L765.695 320.278ZM699.577 324.222L698.596 324.281L698.654 325.262L699.636 325.204L699.577 324.222ZM698.258 302.095L698.199 301.113L697.217 301.171L697.276 302.153L698.258 302.095ZM720.209 300.785L720.268 301.767L721.249 301.708L721.191 300.727L720.209 300.785ZM718.889 278.657L719.871 278.599L719.812 277.617L718.83 277.676L718.889 278.657ZM696.937 279.967L695.955 280.026L696.014 281.007L696.996 280.949L696.937 279.967ZM761.676 252.914L695.559 256.858L695.676 258.821L761.793 254.877L761.676 252.914ZM764.037 275.964L762.717 253.837L760.753 253.954L762.073 276.081L764.037 275.964ZM741.163 278.314L763.113 277.005L762.996 275.041L741.046 276.35L741.163 278.314ZM743.406 299.401L742.086 277.274L740.123 277.391L741.443 299.519L743.406 299.401ZM742.483 300.442L764.434 299.132L764.317 297.169L742.366 298.478L742.483 300.442ZM763.393 298.209L764.713 320.336L766.677 320.219L765.357 298.092L763.393 298.209ZM765.636 319.296L699.519 323.24L699.636 325.204L765.754 321.26L765.636 319.296ZM700.559 324.163L699.239 302.036L697.276 302.153L698.596 324.281L700.559 324.163ZM698.316 303.076L720.268 301.767L720.15 299.803L698.199 301.113L698.316 303.076ZM717.907 278.716L719.227 300.844L721.191 300.727L719.871 278.599L717.907 278.716ZM696.996 280.949L718.948 279.639L718.83 277.676L696.879 278.985L696.996 280.949ZM694.635 257.898L695.955 280.026L697.919 279.908L696.599 257.781L694.635 257.898Z" fill="white"/>
<path d="M763.732 253.776L798.763 284.863L829.85 249.832L833.794 315.95L767.676 319.894L763.732 253.776Z" stroke="white" stroke-width="1.96719"/>
<path d="M865.538 291.939L898.597 289.967M864.223 269.899L897.282 267.927M897.282 267.927L895.967 245.888L829.85 249.832L833.794 315.95L899.911 312.006L898.597 289.967M897.282 267.927L898.597 289.967" stroke="white" stroke-width="1.96719"/>
<path d="M895.967 245.889L929.026 243.917C947.283 242.828 962.967 256.746 964.056 275.004V275.004C965.146 293.262 951.228 308.946 932.97 310.035L899.911 312.007L895.967 245.889Z" stroke="white" stroke-width="1.96719"/>
<path d="M1028.2 238.001L1029.19 237.943L1029.13 236.961L1028.14 237.019L1028.2 238.001ZM962.086 241.945L962.027 240.963L961.046 241.022L961.104 242.004L962.086 241.945ZM1029.52 260.129L1029.58 261.11L1030.56 261.052L1030.51 260.07L1029.52 260.129ZM1007.57 261.438L1007.51 260.456L1006.53 260.515L1006.59 261.497L1007.57 261.438ZM1008.89 283.566L1007.91 283.624L1007.97 284.606L1008.95 284.548L1008.89 283.566ZM1030.84 282.256L1031.83 282.198L1031.77 281.216L1030.78 281.275L1030.84 282.256ZM1032.16 304.384L1032.22 305.366L1033.2 305.307L1033.15 304.325L1032.16 304.384ZM966.046 308.328L965.064 308.386L965.123 309.368L966.104 309.31L966.046 308.328ZM964.726 286.201L964.667 285.219L963.685 285.277L963.744 286.259L964.726 286.201ZM986.677 284.891L986.736 285.873L987.718 285.814L987.659 284.833L986.677 284.891ZM985.357 262.763L986.339 262.705L986.281 261.723L985.299 261.781L985.357 262.763ZM963.406 264.073L962.424 264.131L962.483 265.113L963.464 265.055L963.406 264.073ZM1028.14 237.019L962.027 240.963L962.145 242.927L1028.26 238.983L1028.14 237.019ZM1030.51 260.07L1029.19 237.943L1027.22 238.06L1028.54 260.187L1030.51 260.07ZM1007.63 262.42L1029.58 261.11L1029.46 259.147L1007.51 260.456L1007.63 262.42ZM1009.87 283.507L1008.55 261.379L1006.59 261.497L1007.91 283.624L1009.87 283.507ZM1008.95 284.548L1030.9 283.238L1030.78 281.275L1008.83 282.584L1008.95 284.548ZM1029.86 282.315L1031.18 304.442L1033.15 304.325L1031.83 282.198L1029.86 282.315ZM1032.1 303.402L965.987 307.346L966.104 309.31L1032.22 305.366L1032.1 303.402ZM967.028 308.269L965.708 286.142L963.744 286.259L965.064 308.386L967.028 308.269ZM964.784 287.182L986.736 285.873L986.619 283.909L964.667 285.219L964.784 287.182ZM984.376 262.822L985.696 284.95L987.659 284.833L986.339 262.705L984.376 262.822ZM963.464 265.055L985.416 263.745L985.299 261.781L963.347 263.091L963.464 265.055ZM961.104 242.004L962.424 264.131L964.388 264.014L963.068 241.887L961.104 242.004Z" fill="white"/>
<rect width="532.148" height="133" transform="translate(1033 269.688) rotate(-3.41378)" fill="#F7F3FE"/>
<path d="M1165.5 261.785L1198.56 259.813C1216.82 258.724 1232.5 272.642 1233.59 290.899V290.899C1234.68 309.157 1220.76 324.841 1202.5 325.93L1169.44 327.902L1165.5 261.785Z" stroke="white" stroke-width="1.96719"/>
<path d="M1297.73 253.896L1298.72 253.837L1298.66 252.855L1297.68 252.914L1297.73 253.896ZM1231.62 257.84L1231.56 256.858L1230.58 256.916L1230.64 257.898L1231.62 257.84ZM1299.05 276.023L1299.11 277.005L1300.1 276.946L1300.04 275.964L1299.05 276.023ZM1277.1 277.332L1277.05 276.35L1276.06 276.409L1276.12 277.391L1277.1 277.332ZM1278.42 299.46L1277.44 299.519L1277.5 300.5L1278.48 300.442L1278.42 299.46ZM1300.38 298.151L1301.36 298.092L1301.3 297.11L1300.32 297.169L1300.38 298.151ZM1301.7 320.278L1301.75 321.26L1302.74 321.201L1302.68 320.219L1301.7 320.278ZM1235.58 324.222L1234.6 324.281L1234.65 325.262L1235.64 325.204L1235.58 324.222ZM1234.26 302.095L1234.2 301.113L1233.22 301.171L1233.28 302.153L1234.26 302.095ZM1256.21 300.785L1256.27 301.767L1257.25 301.708L1257.19 300.727L1256.21 300.785ZM1254.89 278.657L1255.87 278.599L1255.81 277.617L1254.83 277.676L1254.89 278.657ZM1232.94 279.967L1231.96 280.026L1232.01 281.007L1233 280.949L1232.94 279.967ZM1297.68 252.914L1231.56 256.858L1231.68 258.821L1297.79 254.877L1297.68 252.914ZM1300.04 275.964L1298.72 253.837L1296.75 253.954L1298.07 276.081L1300.04 275.964ZM1277.16 278.314L1299.11 277.005L1299 275.041L1277.05 276.35L1277.16 278.314ZM1279.41 299.401L1278.09 277.274L1276.12 277.391L1277.44 299.519L1279.41 299.401ZM1278.48 300.442L1300.43 299.132L1300.32 297.169L1278.37 298.478L1278.48 300.442ZM1299.39 298.209L1300.71 320.336L1302.68 320.219L1301.36 298.092L1299.39 298.209ZM1301.64 319.296L1235.52 323.24L1235.64 325.204L1301.75 321.26L1301.64 319.296ZM1236.56 324.163L1235.24 302.036L1233.28 302.153L1234.6 324.281L1236.56 324.163ZM1234.32 303.076L1256.27 301.767L1256.15 299.803L1234.2 301.113L1234.32 303.076ZM1253.91 278.716L1255.23 300.844L1257.19 300.727L1255.87 278.599L1253.91 278.716ZM1233 280.949L1254.95 279.639L1254.83 277.676L1232.88 278.985L1233 280.949ZM1230.64 257.898L1231.96 280.026L1233.92 279.908L1232.6 257.781L1230.64 257.898Z" fill="white"/>
<path d="M1299.73 253.776L1334.76 284.863L1365.85 249.832L1369.79 315.95L1303.68 319.894L1299.73 253.776Z" stroke="white" stroke-width="1.96719"/>
<path d="M1401.54 291.939L1434.6 289.967M1400.22 269.899L1433.28 267.927M1433.28 267.927L1431.97 245.888L1365.85 249.832L1369.79 315.95L1435.91 312.006L1434.6 289.967M1433.28 267.927L1434.6 289.967" stroke="white" stroke-width="1.96719"/>
</svg>
