<svg width="360" height="127" viewBox="0 0 360 127" fill="none" xmlns="http://www.w3.org/2000/svg">
<rect width="532.148" height="133" transform="translate(-89.5237 -7.3125) rotate(-3.41378)" fill="#F7F3FE"/>
<path d="M12.5463 30.8329L45.6051 28.8609M11.2316 8.79373L44.2904 6.8217M44.2904 6.8217L42.9758 -15.2175L-23.1418 -11.2734L-19.1978 54.8442L46.9198 50.9001L45.6051 28.8609M44.2904 6.8217L45.6051 28.8609" stroke="white" stroke-width="1.96719"/>
<path d="M82.6234 93.2704L115.682 91.2984M81.3087 71.2312L114.368 69.2592M114.368 69.2592L113.053 47.22L46.9352 51.1641L50.8793 117.282L116.997 113.338L115.682 91.2984M114.368 69.2592L115.682 91.2984" stroke="white" stroke-width="1.96719"/>
<path d="M42.9754 -15.2148L76.0342 -17.1869C94.2921 -18.276 109.976 -4.35797 111.065 13.8999V13.8999C112.154 32.1578 98.2362 47.8416 79.9783 48.9307L46.9195 50.9028L42.9754 -15.2148Z" stroke="white" stroke-width="1.96719"/>
<path d="M175.21 -23.1042L176.192 -23.1628L176.134 -24.1446L175.152 -24.0861L175.21 -23.1042ZM109.093 -19.1602L109.034 -20.142L108.052 -20.0834L108.111 -19.1016L109.093 -19.1602ZM176.53 -0.976864L176.589 0.00498777L177.571 -0.0535819L177.512 -1.03543L176.53 -0.976864ZM154.58 0.332518L154.521 -0.649334L153.54 -0.590764L153.598 0.391087L154.58 0.332518ZM155.9 22.4602L154.918 22.5188L154.977 23.5006L155.958 23.4421L155.9 22.4602ZM177.851 21.1508L178.832 21.0922L178.774 20.1104L177.792 20.1689L177.851 21.1508ZM179.17 43.2782L179.229 44.26L180.211 44.2014L180.152 43.2196L179.17 43.2782ZM113.053 47.2222L112.071 47.2808L112.13 48.2626L113.111 48.2041L113.053 47.2222ZM111.733 25.0949L111.674 24.113L110.693 24.1716L110.751 25.1534L111.733 25.0949ZM133.684 23.7854L133.743 24.7673L134.725 24.7087L134.666 23.7268L133.684 23.7854ZM132.364 1.65772L133.346 1.59915L133.288 0.617303L132.306 0.675873L132.364 1.65772ZM110.413 2.9672L109.431 3.02577L109.489 4.00762L110.471 3.94906L110.413 2.9672ZM175.152 -24.0861L109.034 -20.142L109.151 -18.1783L175.269 -22.1224L175.152 -24.0861ZM177.512 -1.03543L176.192 -23.1628L174.228 -23.0457L175.548 -0.918294L177.512 -1.03543ZM154.639 1.31437L176.589 0.00498777L176.472 -1.95872L154.521 -0.649334L154.639 1.31437ZM156.882 22.4016L155.562 0.273948L153.598 0.391087L154.918 22.5188L156.882 22.4016ZM155.958 23.4421L177.909 22.1327L177.792 20.1689L155.841 21.4784L155.958 23.4421ZM176.869 21.2094L178.189 43.3367L180.152 43.2196L178.832 21.0922L176.869 21.2094ZM179.112 42.2963L112.994 46.2404L113.111 48.2041L179.229 44.26L179.112 42.2963ZM114.035 47.1637L112.715 25.0363L110.751 25.1534L112.071 47.2808L114.035 47.1637ZM111.792 26.0767L133.743 24.7673L133.626 22.8036L111.674 24.113L111.792 26.0767ZM131.383 1.71629L132.703 23.844L134.666 23.7268L133.346 1.59915L131.383 1.71629ZM110.471 3.94906L132.423 2.63958L132.306 0.675873L110.354 1.98535L110.471 3.94906ZM108.111 -19.1016L109.431 3.02577L111.394 2.90863L110.074 -19.2187L108.111 -19.1016Z" fill="white"/>
<path d="M113.638 57.0078L173.61 110.228L117.014 113.604L113.638 57.0078Z" stroke="white" stroke-width="1.96719"/>
<path d="M182.578 100.406L122.325 46.937L179.187 43.5451L182.578 100.406Z" stroke="white" stroke-width="1.96719"/>
<path d="M48.6348 84.1077C49.0232 90.6199 47.4719 97.1011 44.1769 102.732C40.8818 108.362 35.9912 112.889 30.1233 115.74C24.2554 118.591 17.6739 119.638 11.2109 118.749C4.74803 117.859 -1.30599 115.073 -6.18555 110.743C-11.0651 106.413 -14.551 100.733 -16.2025 94.4219C-17.854 88.1105 -17.5969 81.4512 -15.4636 75.286C-13.3304 69.1208 -9.41688 63.7266 -4.21796 59.7856C0.980965 55.8446 7.23179 53.5337 13.744 53.1452L15.7082 86.0718L48.6348 84.1077Z" stroke="white" stroke-width="1.96719"/>
<path d="M177.209 -23.2227L212.24 7.86411L243.327 -27.1667L247.271 38.9509L181.153 42.895L177.209 -23.2227Z" stroke="white" stroke-width="1.96719"/>
<path d="M279.015 14.9384L312.074 12.9664M277.701 -7.1008L310.76 -9.07283M310.76 -9.07283L309.445 -31.112L243.327 -27.168L247.271 38.9496L313.389 35.0056L312.074 12.9664M310.76 -9.07283L312.074 12.9664" stroke="white" stroke-width="1.96719"/>
<path d="M349.093 77.3759L382.152 75.4039M347.778 55.3367L380.837 53.3647M380.837 53.3647L379.522 31.3255L313.405 35.2695L317.349 101.387L383.466 97.4431L382.152 75.4039M380.837 53.3647L382.152 75.4039" stroke="white" stroke-width="1.96719"/>
<path d="M309.445 -31.1094L342.503 -33.0814C360.761 -34.1705 376.445 -20.2525 377.534 -1.99464V-1.99464C378.623 16.2632 364.705 31.9471 346.447 33.0362L313.389 35.0082L309.445 -31.1094Z" stroke="white" stroke-width="1.96719"/>
<path d="M181.473 52.6953L241.446 105.916L184.85 109.292L181.473 52.6953Z" stroke="white" stroke-width="1.96719"/>
<path d="M250.415 96.0938L190.162 42.6245L247.023 39.2326L250.415 96.0938Z" stroke="white" stroke-width="1.96719"/>
<path d="M315.104 68.2131C315.492 74.7254 313.941 81.2066 310.646 86.8372C307.351 92.4677 302.46 96.9948 296.592 99.8458C290.724 102.697 284.143 103.744 277.68 102.854C271.217 101.965 265.163 99.1789 260.284 94.8487C255.404 90.5186 251.918 84.8387 250.267 78.5273C248.615 72.216 248.872 65.5567 251.005 59.3915C253.139 53.2262 257.052 47.8321 262.251 43.891C267.45 39.95 273.701 37.6392 280.213 37.2507L282.177 70.1773L315.104 68.2131Z" stroke="white" stroke-width="1.96719"/>
</svg>
