<svg width="73" height="73" viewBox="0 0 73 73" fill="none" xmlns="http://www.w3.org/2000/svg">
<path d="M67.7088 1.04884L68.6987 0.989788L68.6396 -0.000114513L67.6497 0.0589355L67.7088 1.04884ZM1.04897 5.02525L0.989918 4.03535L1.47924e-05 4.0944L0.0590648 5.0843L1.04897 5.02525ZM69.0395 23.3576L69.0986 24.3476L70.0885 24.2885L70.0294 23.2986L69.0395 23.3576ZM46.9093 24.6778L46.8503 23.6879L45.8604 23.7469L45.9194 24.7368L46.9093 24.6778ZM48.2401 46.9869L47.2502 47.046L47.3092 48.0359L48.2992 47.9768L48.2401 46.9869ZM70.3707 45.6668L71.3606 45.6077L71.3016 44.6178L70.3117 44.6769L70.3707 45.6668ZM71.7015 67.9756L71.7605 68.9655L72.7504 68.9064L72.6914 67.9165L71.7015 67.9756ZM5.0417 71.952L4.0518 72.011L4.11085 73.0009L5.10075 72.9419L5.0417 71.952ZM3.71093 49.6432L3.65188 48.6533L2.66198 48.7123L2.72103 49.7022L3.71093 49.6432ZM25.8424 48.323L25.9015 49.3129L26.8914 49.2538L26.8323 48.2639L25.8424 48.323ZM24.5116 26.0138L25.5015 25.9548L25.4425 24.9649L24.4526 25.0239L24.5116 26.0138ZM2.37974 27.3341L1.38984 27.3931L1.44889 28.383L2.43879 28.324L2.37974 27.3341ZM67.6497 0.0589355L0.989918 4.03535L1.10802 6.01515L67.7678 2.03874L67.6497 0.0589355ZM70.0294 23.2986L68.6987 0.989788L66.7189 1.10789L68.0496 23.4167L70.0294 23.2986ZM46.9684 25.6677L69.0986 24.3476L68.9805 22.3677L46.8503 23.6879L46.9684 25.6677ZM49.23 46.9279L47.8992 24.6187L45.9194 24.7368L47.2502 47.046L49.23 46.9279ZM48.2992 47.9768L70.4298 46.6567L70.3117 44.6769L48.1811 45.997L48.2992 47.9768ZM69.3808 45.7258L70.7116 68.0346L72.6914 67.9165L71.3606 45.6077L69.3808 45.7258ZM71.6424 66.9857L4.98265 70.9621L5.10075 72.9419L71.7605 68.9655L71.6424 66.9857ZM6.03161 71.8929L4.70084 49.5841L2.72103 49.7022L4.0518 72.011L6.03161 71.8929ZM3.76998 50.6331L25.9015 49.3129L25.7834 47.3331L3.65188 48.6533L3.76998 50.6331ZM23.5217 26.0729L24.8525 48.382L26.8323 48.2639L25.5015 25.9548L23.5217 26.0729ZM2.43879 28.324L24.5707 27.0037L24.4526 25.0239L2.32069 26.3442L2.43879 28.324ZM0.0590648 5.0843L1.38984 27.3931L3.36964 27.275L2.03887 4.9662L0.0590648 5.0843Z" fill="white"/>
</svg>
